%TF.GenerationSoftware,KiCad,Pcbnew,8.0.6*%
%TF.CreationDate,2025-01-17T11:28:56+01:00*%
%TF.ProjectId,TW39-mit-Powersave,54573339-2d6d-4697-942d-506f77657273,rev?*%
%TF.SameCoordinates,Original*%
%TF.FileFunction,Legend,Top*%
%TF.FilePolarity,Positive*%
%FSLAX46Y46*%
G04 Gerber Fmt 4.6, Leading zero omitted, Abs format (unit mm)*
G04 Created by KiCad (PCBNEW 8.0.6) date 2025-01-17 11:28:56*
%MOMM*%
%LPD*%
G01*
G04 APERTURE LIST*
%ADD10C,0.150000*%
%ADD11C,0.300000*%
%ADD12C,0.120000*%
G04 APERTURE END LIST*
D10*
X118303922Y-67449819D02*
X118875350Y-67449819D01*
X118589636Y-68449819D02*
X118589636Y-67449819D01*
X119113446Y-67449819D02*
X119780112Y-68449819D01*
X119780112Y-67449819D02*
X119113446Y-68449819D01*
X120161065Y-68449819D02*
X120161065Y-67449819D01*
X120161065Y-67449819D02*
X120399160Y-67449819D01*
X120399160Y-67449819D02*
X120542017Y-67497438D01*
X120542017Y-67497438D02*
X120637255Y-67592676D01*
X120637255Y-67592676D02*
X120684874Y-67687914D01*
X120684874Y-67687914D02*
X120732493Y-67878390D01*
X120732493Y-67878390D02*
X120732493Y-68021247D01*
X120732493Y-68021247D02*
X120684874Y-68211723D01*
X120684874Y-68211723D02*
X120637255Y-68306961D01*
X120637255Y-68306961D02*
X120542017Y-68402200D01*
X120542017Y-68402200D02*
X120399160Y-68449819D01*
X120399160Y-68449819D02*
X120161065Y-68449819D01*
X119018207Y-109089819D02*
X118684874Y-108613628D01*
X118446779Y-109089819D02*
X118446779Y-108089819D01*
X118446779Y-108089819D02*
X118827731Y-108089819D01*
X118827731Y-108089819D02*
X118922969Y-108137438D01*
X118922969Y-108137438D02*
X118970588Y-108185057D01*
X118970588Y-108185057D02*
X119018207Y-108280295D01*
X119018207Y-108280295D02*
X119018207Y-108423152D01*
X119018207Y-108423152D02*
X118970588Y-108518390D01*
X118970588Y-108518390D02*
X118922969Y-108566009D01*
X118922969Y-108566009D02*
X118827731Y-108613628D01*
X118827731Y-108613628D02*
X118446779Y-108613628D01*
X119922969Y-109089819D02*
X119446779Y-109089819D01*
X119446779Y-109089819D02*
X119446779Y-108089819D01*
X120446779Y-108613628D02*
X120446779Y-109089819D01*
X120113446Y-108089819D02*
X120446779Y-108613628D01*
X120446779Y-108613628D02*
X120780112Y-108089819D01*
D11*
X141897971Y-93588346D02*
X141969400Y-93659774D01*
X141969400Y-93659774D02*
X142040828Y-93874060D01*
X142040828Y-93874060D02*
X142040828Y-94016917D01*
X142040828Y-94016917D02*
X141969400Y-94231203D01*
X141969400Y-94231203D02*
X141826542Y-94374060D01*
X141826542Y-94374060D02*
X141683685Y-94445489D01*
X141683685Y-94445489D02*
X141397971Y-94516917D01*
X141397971Y-94516917D02*
X141183685Y-94516917D01*
X141183685Y-94516917D02*
X140897971Y-94445489D01*
X140897971Y-94445489D02*
X140755114Y-94374060D01*
X140755114Y-94374060D02*
X140612257Y-94231203D01*
X140612257Y-94231203D02*
X140540828Y-94016917D01*
X140540828Y-94016917D02*
X140540828Y-93874060D01*
X140540828Y-93874060D02*
X140612257Y-93659774D01*
X140612257Y-93659774D02*
X140683685Y-93588346D01*
X141255114Y-89516918D02*
X141255114Y-89016918D01*
X142040828Y-88802632D02*
X142040828Y-89516918D01*
X142040828Y-89516918D02*
X140540828Y-89516918D01*
X140540828Y-89516918D02*
X140540828Y-88802632D01*
X141255114Y-86516918D02*
X141326542Y-86302632D01*
X141326542Y-86302632D02*
X141397971Y-86231203D01*
X141397971Y-86231203D02*
X141540828Y-86159775D01*
X141540828Y-86159775D02*
X141755114Y-86159775D01*
X141755114Y-86159775D02*
X141897971Y-86231203D01*
X141897971Y-86231203D02*
X141969400Y-86302632D01*
X141969400Y-86302632D02*
X142040828Y-86445489D01*
X142040828Y-86445489D02*
X142040828Y-87016918D01*
X142040828Y-87016918D02*
X140540828Y-87016918D01*
X140540828Y-87016918D02*
X140540828Y-86516918D01*
X140540828Y-86516918D02*
X140612257Y-86374061D01*
X140612257Y-86374061D02*
X140683685Y-86302632D01*
X140683685Y-86302632D02*
X140826542Y-86231203D01*
X140826542Y-86231203D02*
X140969400Y-86231203D01*
X140969400Y-86231203D02*
X141112257Y-86302632D01*
X141112257Y-86302632D02*
X141183685Y-86374061D01*
X141183685Y-86374061D02*
X141255114Y-86516918D01*
X141255114Y-86516918D02*
X141255114Y-87016918D01*
D10*
X119018207Y-101469819D02*
X118684874Y-100993628D01*
X118446779Y-101469819D02*
X118446779Y-100469819D01*
X118446779Y-100469819D02*
X118827731Y-100469819D01*
X118827731Y-100469819D02*
X118922969Y-100517438D01*
X118922969Y-100517438D02*
X118970588Y-100565057D01*
X118970588Y-100565057D02*
X119018207Y-100660295D01*
X119018207Y-100660295D02*
X119018207Y-100803152D01*
X119018207Y-100803152D02*
X118970588Y-100898390D01*
X118970588Y-100898390D02*
X118922969Y-100946009D01*
X118922969Y-100946009D02*
X118827731Y-100993628D01*
X118827731Y-100993628D02*
X118446779Y-100993628D01*
X119351541Y-100469819D02*
X120018207Y-101469819D01*
X120018207Y-100469819D02*
X119351541Y-101469819D01*
X120399160Y-101469819D02*
X120399160Y-100469819D01*
X120399160Y-100469819D02*
X120637255Y-100469819D01*
X120637255Y-100469819D02*
X120780112Y-100517438D01*
X120780112Y-100517438D02*
X120875350Y-100612676D01*
X120875350Y-100612676D02*
X120922969Y-100707914D01*
X120922969Y-100707914D02*
X120970588Y-100898390D01*
X120970588Y-100898390D02*
X120970588Y-101041247D01*
X120970588Y-101041247D02*
X120922969Y-101231723D01*
X120922969Y-101231723D02*
X120875350Y-101326961D01*
X120875350Y-101326961D02*
X120780112Y-101422200D01*
X120780112Y-101422200D02*
X120637255Y-101469819D01*
X120637255Y-101469819D02*
X120399160Y-101469819D01*
X146986666Y-100094819D02*
X146986666Y-100809104D01*
X146986666Y-100809104D02*
X146939047Y-100951961D01*
X146939047Y-100951961D02*
X146843809Y-101047200D01*
X146843809Y-101047200D02*
X146700952Y-101094819D01*
X146700952Y-101094819D02*
X146605714Y-101094819D01*
X147939047Y-100094819D02*
X147462857Y-100094819D01*
X147462857Y-100094819D02*
X147415238Y-100571009D01*
X147415238Y-100571009D02*
X147462857Y-100523390D01*
X147462857Y-100523390D02*
X147558095Y-100475771D01*
X147558095Y-100475771D02*
X147796190Y-100475771D01*
X147796190Y-100475771D02*
X147891428Y-100523390D01*
X147891428Y-100523390D02*
X147939047Y-100571009D01*
X147939047Y-100571009D02*
X147986666Y-100666247D01*
X147986666Y-100666247D02*
X147986666Y-100904342D01*
X147986666Y-100904342D02*
X147939047Y-100999580D01*
X147939047Y-100999580D02*
X147891428Y-101047200D01*
X147891428Y-101047200D02*
X147796190Y-101094819D01*
X147796190Y-101094819D02*
X147558095Y-101094819D01*
X147558095Y-101094819D02*
X147462857Y-101047200D01*
X147462857Y-101047200D02*
X147415238Y-100999580D01*
X129994819Y-120118094D02*
X128994819Y-120118094D01*
X128994819Y-120118094D02*
X128994819Y-119879999D01*
X128994819Y-119879999D02*
X129042438Y-119737142D01*
X129042438Y-119737142D02*
X129137676Y-119641904D01*
X129137676Y-119641904D02*
X129232914Y-119594285D01*
X129232914Y-119594285D02*
X129423390Y-119546666D01*
X129423390Y-119546666D02*
X129566247Y-119546666D01*
X129566247Y-119546666D02*
X129756723Y-119594285D01*
X129756723Y-119594285D02*
X129851961Y-119641904D01*
X129851961Y-119641904D02*
X129947200Y-119737142D01*
X129947200Y-119737142D02*
X129994819Y-119879999D01*
X129994819Y-119879999D02*
X129994819Y-120118094D01*
X129994819Y-118594285D02*
X129994819Y-119165713D01*
X129994819Y-118879999D02*
X128994819Y-118879999D01*
X128994819Y-118879999D02*
X129137676Y-118975237D01*
X129137676Y-118975237D02*
X129232914Y-119070475D01*
X129232914Y-119070475D02*
X129280533Y-119165713D01*
X132094819Y-109481904D02*
X131094819Y-109481904D01*
X132094819Y-108910476D02*
X131523390Y-109339047D01*
X131094819Y-108910476D02*
X131666247Y-109481904D01*
X124364761Y-89450057D02*
X124269523Y-89402438D01*
X124269523Y-89402438D02*
X124174285Y-89307200D01*
X124174285Y-89307200D02*
X124031428Y-89164342D01*
X124031428Y-89164342D02*
X123936190Y-89116723D01*
X123936190Y-89116723D02*
X123840952Y-89116723D01*
X123888571Y-89354819D02*
X123793333Y-89307200D01*
X123793333Y-89307200D02*
X123698095Y-89211961D01*
X123698095Y-89211961D02*
X123650476Y-89021485D01*
X123650476Y-89021485D02*
X123650476Y-88688152D01*
X123650476Y-88688152D02*
X123698095Y-88497676D01*
X123698095Y-88497676D02*
X123793333Y-88402438D01*
X123793333Y-88402438D02*
X123888571Y-88354819D01*
X123888571Y-88354819D02*
X124079047Y-88354819D01*
X124079047Y-88354819D02*
X124174285Y-88402438D01*
X124174285Y-88402438D02*
X124269523Y-88497676D01*
X124269523Y-88497676D02*
X124317142Y-88688152D01*
X124317142Y-88688152D02*
X124317142Y-89021485D01*
X124317142Y-89021485D02*
X124269523Y-89211961D01*
X124269523Y-89211961D02*
X124174285Y-89307200D01*
X124174285Y-89307200D02*
X124079047Y-89354819D01*
X124079047Y-89354819D02*
X123888571Y-89354819D01*
X125174285Y-88688152D02*
X125174285Y-89354819D01*
X124936190Y-88307200D02*
X124698095Y-89021485D01*
X124698095Y-89021485D02*
X125317142Y-89021485D01*
X137614819Y-113768094D02*
X136614819Y-113768094D01*
X137614819Y-113196666D02*
X137043390Y-113625237D01*
X136614819Y-113196666D02*
X137186247Y-113768094D01*
X137614819Y-112244285D02*
X137614819Y-112815713D01*
X137614819Y-112529999D02*
X136614819Y-112529999D01*
X136614819Y-112529999D02*
X136757676Y-112625237D01*
X136757676Y-112625237D02*
X136852914Y-112720475D01*
X136852914Y-112720475D02*
X136900533Y-112815713D01*
X139366666Y-123704819D02*
X139366666Y-124419104D01*
X139366666Y-124419104D02*
X139319047Y-124561961D01*
X139319047Y-124561961D02*
X139223809Y-124657200D01*
X139223809Y-124657200D02*
X139080952Y-124704819D01*
X139080952Y-124704819D02*
X138985714Y-124704819D01*
X139747619Y-123704819D02*
X140366666Y-123704819D01*
X140366666Y-123704819D02*
X140033333Y-124085771D01*
X140033333Y-124085771D02*
X140176190Y-124085771D01*
X140176190Y-124085771D02*
X140271428Y-124133390D01*
X140271428Y-124133390D02*
X140319047Y-124181009D01*
X140319047Y-124181009D02*
X140366666Y-124276247D01*
X140366666Y-124276247D02*
X140366666Y-124514342D01*
X140366666Y-124514342D02*
X140319047Y-124609580D01*
X140319047Y-124609580D02*
X140271428Y-124657200D01*
X140271428Y-124657200D02*
X140176190Y-124704819D01*
X140176190Y-124704819D02*
X139890476Y-124704819D01*
X139890476Y-124704819D02*
X139795238Y-124657200D01*
X139795238Y-124657200D02*
X139747619Y-124609580D01*
X124914819Y-104782857D02*
X124438628Y-105116190D01*
X124914819Y-105354285D02*
X123914819Y-105354285D01*
X123914819Y-105354285D02*
X123914819Y-104973333D01*
X123914819Y-104973333D02*
X123962438Y-104878095D01*
X123962438Y-104878095D02*
X124010057Y-104830476D01*
X124010057Y-104830476D02*
X124105295Y-104782857D01*
X124105295Y-104782857D02*
X124248152Y-104782857D01*
X124248152Y-104782857D02*
X124343390Y-104830476D01*
X124343390Y-104830476D02*
X124391009Y-104878095D01*
X124391009Y-104878095D02*
X124438628Y-104973333D01*
X124438628Y-104973333D02*
X124438628Y-105354285D01*
X124914819Y-103830476D02*
X124914819Y-104401904D01*
X124914819Y-104116190D02*
X123914819Y-104116190D01*
X123914819Y-104116190D02*
X124057676Y-104211428D01*
X124057676Y-104211428D02*
X124152914Y-104306666D01*
X124152914Y-104306666D02*
X124200533Y-104401904D01*
X124914819Y-102878095D02*
X124914819Y-103449523D01*
X124914819Y-103163809D02*
X123914819Y-103163809D01*
X123914819Y-103163809D02*
X124057676Y-103259047D01*
X124057676Y-103259047D02*
X124152914Y-103354285D01*
X124152914Y-103354285D02*
X124200533Y-103449523D01*
X123023333Y-114584819D02*
X122690000Y-114108628D01*
X122451905Y-114584819D02*
X122451905Y-113584819D01*
X122451905Y-113584819D02*
X122832857Y-113584819D01*
X122832857Y-113584819D02*
X122928095Y-113632438D01*
X122928095Y-113632438D02*
X122975714Y-113680057D01*
X122975714Y-113680057D02*
X123023333Y-113775295D01*
X123023333Y-113775295D02*
X123023333Y-113918152D01*
X123023333Y-113918152D02*
X122975714Y-114013390D01*
X122975714Y-114013390D02*
X122928095Y-114061009D01*
X122928095Y-114061009D02*
X122832857Y-114108628D01*
X122832857Y-114108628D02*
X122451905Y-114108628D01*
X123356667Y-113584819D02*
X123975714Y-113584819D01*
X123975714Y-113584819D02*
X123642381Y-113965771D01*
X123642381Y-113965771D02*
X123785238Y-113965771D01*
X123785238Y-113965771D02*
X123880476Y-114013390D01*
X123880476Y-114013390D02*
X123928095Y-114061009D01*
X123928095Y-114061009D02*
X123975714Y-114156247D01*
X123975714Y-114156247D02*
X123975714Y-114394342D01*
X123975714Y-114394342D02*
X123928095Y-114489580D01*
X123928095Y-114489580D02*
X123880476Y-114537200D01*
X123880476Y-114537200D02*
X123785238Y-114584819D01*
X123785238Y-114584819D02*
X123499524Y-114584819D01*
X123499524Y-114584819D02*
X123404286Y-114537200D01*
X123404286Y-114537200D02*
X123356667Y-114489580D01*
X112696666Y-116294819D02*
X112696666Y-117009104D01*
X112696666Y-117009104D02*
X112649047Y-117151961D01*
X112649047Y-117151961D02*
X112553809Y-117247200D01*
X112553809Y-117247200D02*
X112410952Y-117294819D01*
X112410952Y-117294819D02*
X112315714Y-117294819D01*
X113125238Y-116390057D02*
X113172857Y-116342438D01*
X113172857Y-116342438D02*
X113268095Y-116294819D01*
X113268095Y-116294819D02*
X113506190Y-116294819D01*
X113506190Y-116294819D02*
X113601428Y-116342438D01*
X113601428Y-116342438D02*
X113649047Y-116390057D01*
X113649047Y-116390057D02*
X113696666Y-116485295D01*
X113696666Y-116485295D02*
X113696666Y-116580533D01*
X113696666Y-116580533D02*
X113649047Y-116723390D01*
X113649047Y-116723390D02*
X113077619Y-117294819D01*
X113077619Y-117294819D02*
X113696666Y-117294819D01*
X119213333Y-71574819D02*
X118880000Y-71098628D01*
X118641905Y-71574819D02*
X118641905Y-70574819D01*
X118641905Y-70574819D02*
X119022857Y-70574819D01*
X119022857Y-70574819D02*
X119118095Y-70622438D01*
X119118095Y-70622438D02*
X119165714Y-70670057D01*
X119165714Y-70670057D02*
X119213333Y-70765295D01*
X119213333Y-70765295D02*
X119213333Y-70908152D01*
X119213333Y-70908152D02*
X119165714Y-71003390D01*
X119165714Y-71003390D02*
X119118095Y-71051009D01*
X119118095Y-71051009D02*
X119022857Y-71098628D01*
X119022857Y-71098628D02*
X118641905Y-71098628D01*
X119594286Y-70670057D02*
X119641905Y-70622438D01*
X119641905Y-70622438D02*
X119737143Y-70574819D01*
X119737143Y-70574819D02*
X119975238Y-70574819D01*
X119975238Y-70574819D02*
X120070476Y-70622438D01*
X120070476Y-70622438D02*
X120118095Y-70670057D01*
X120118095Y-70670057D02*
X120165714Y-70765295D01*
X120165714Y-70765295D02*
X120165714Y-70860533D01*
X120165714Y-70860533D02*
X120118095Y-71003390D01*
X120118095Y-71003390D02*
X119546667Y-71574819D01*
X119546667Y-71574819D02*
X120165714Y-71574819D01*
X106346666Y-70574819D02*
X106346666Y-71289104D01*
X106346666Y-71289104D02*
X106299047Y-71431961D01*
X106299047Y-71431961D02*
X106203809Y-71527200D01*
X106203809Y-71527200D02*
X106060952Y-71574819D01*
X106060952Y-71574819D02*
X105965714Y-71574819D01*
X107346666Y-71574819D02*
X106775238Y-71574819D01*
X107060952Y-71574819D02*
X107060952Y-70574819D01*
X107060952Y-70574819D02*
X106965714Y-70717676D01*
X106965714Y-70717676D02*
X106870476Y-70812914D01*
X106870476Y-70812914D02*
X106775238Y-70860533D01*
X138263333Y-104424819D02*
X137930000Y-103948628D01*
X137691905Y-104424819D02*
X137691905Y-103424819D01*
X137691905Y-103424819D02*
X138072857Y-103424819D01*
X138072857Y-103424819D02*
X138168095Y-103472438D01*
X138168095Y-103472438D02*
X138215714Y-103520057D01*
X138215714Y-103520057D02*
X138263333Y-103615295D01*
X138263333Y-103615295D02*
X138263333Y-103758152D01*
X138263333Y-103758152D02*
X138215714Y-103853390D01*
X138215714Y-103853390D02*
X138168095Y-103901009D01*
X138168095Y-103901009D02*
X138072857Y-103948628D01*
X138072857Y-103948628D02*
X137691905Y-103948628D01*
X138739524Y-104424819D02*
X138930000Y-104424819D01*
X138930000Y-104424819D02*
X139025238Y-104377200D01*
X139025238Y-104377200D02*
X139072857Y-104329580D01*
X139072857Y-104329580D02*
X139168095Y-104186723D01*
X139168095Y-104186723D02*
X139215714Y-103996247D01*
X139215714Y-103996247D02*
X139215714Y-103615295D01*
X139215714Y-103615295D02*
X139168095Y-103520057D01*
X139168095Y-103520057D02*
X139120476Y-103472438D01*
X139120476Y-103472438D02*
X139025238Y-103424819D01*
X139025238Y-103424819D02*
X138834762Y-103424819D01*
X138834762Y-103424819D02*
X138739524Y-103472438D01*
X138739524Y-103472438D02*
X138691905Y-103520057D01*
X138691905Y-103520057D02*
X138644286Y-103615295D01*
X138644286Y-103615295D02*
X138644286Y-103853390D01*
X138644286Y-103853390D02*
X138691905Y-103948628D01*
X138691905Y-103948628D02*
X138739524Y-103996247D01*
X138739524Y-103996247D02*
X138834762Y-104043866D01*
X138834762Y-104043866D02*
X139025238Y-104043866D01*
X139025238Y-104043866D02*
X139120476Y-103996247D01*
X139120476Y-103996247D02*
X139168095Y-103948628D01*
X139168095Y-103948628D02*
X139215714Y-103853390D01*
X124364761Y-84370057D02*
X124269523Y-84322438D01*
X124269523Y-84322438D02*
X124174285Y-84227200D01*
X124174285Y-84227200D02*
X124031428Y-84084342D01*
X124031428Y-84084342D02*
X123936190Y-84036723D01*
X123936190Y-84036723D02*
X123840952Y-84036723D01*
X123888571Y-84274819D02*
X123793333Y-84227200D01*
X123793333Y-84227200D02*
X123698095Y-84131961D01*
X123698095Y-84131961D02*
X123650476Y-83941485D01*
X123650476Y-83941485D02*
X123650476Y-83608152D01*
X123650476Y-83608152D02*
X123698095Y-83417676D01*
X123698095Y-83417676D02*
X123793333Y-83322438D01*
X123793333Y-83322438D02*
X123888571Y-83274819D01*
X123888571Y-83274819D02*
X124079047Y-83274819D01*
X124079047Y-83274819D02*
X124174285Y-83322438D01*
X124174285Y-83322438D02*
X124269523Y-83417676D01*
X124269523Y-83417676D02*
X124317142Y-83608152D01*
X124317142Y-83608152D02*
X124317142Y-83941485D01*
X124317142Y-83941485D02*
X124269523Y-84131961D01*
X124269523Y-84131961D02*
X124174285Y-84227200D01*
X124174285Y-84227200D02*
X124079047Y-84274819D01*
X124079047Y-84274819D02*
X123888571Y-84274819D01*
X124650476Y-83274819D02*
X125269523Y-83274819D01*
X125269523Y-83274819D02*
X124936190Y-83655771D01*
X124936190Y-83655771D02*
X125079047Y-83655771D01*
X125079047Y-83655771D02*
X125174285Y-83703390D01*
X125174285Y-83703390D02*
X125221904Y-83751009D01*
X125221904Y-83751009D02*
X125269523Y-83846247D01*
X125269523Y-83846247D02*
X125269523Y-84084342D01*
X125269523Y-84084342D02*
X125221904Y-84179580D01*
X125221904Y-84179580D02*
X125174285Y-84227200D01*
X125174285Y-84227200D02*
X125079047Y-84274819D01*
X125079047Y-84274819D02*
X124793333Y-84274819D01*
X124793333Y-84274819D02*
X124698095Y-84227200D01*
X124698095Y-84227200D02*
X124650476Y-84179580D01*
X148939580Y-78906666D02*
X148987200Y-78954285D01*
X148987200Y-78954285D02*
X149034819Y-79097142D01*
X149034819Y-79097142D02*
X149034819Y-79192380D01*
X149034819Y-79192380D02*
X148987200Y-79335237D01*
X148987200Y-79335237D02*
X148891961Y-79430475D01*
X148891961Y-79430475D02*
X148796723Y-79478094D01*
X148796723Y-79478094D02*
X148606247Y-79525713D01*
X148606247Y-79525713D02*
X148463390Y-79525713D01*
X148463390Y-79525713D02*
X148272914Y-79478094D01*
X148272914Y-79478094D02*
X148177676Y-79430475D01*
X148177676Y-79430475D02*
X148082438Y-79335237D01*
X148082438Y-79335237D02*
X148034819Y-79192380D01*
X148034819Y-79192380D02*
X148034819Y-79097142D01*
X148034819Y-79097142D02*
X148082438Y-78954285D01*
X148082438Y-78954285D02*
X148130057Y-78906666D01*
X149034819Y-77954285D02*
X149034819Y-78525713D01*
X149034819Y-78239999D02*
X148034819Y-78239999D01*
X148034819Y-78239999D02*
X148177676Y-78335237D01*
X148177676Y-78335237D02*
X148272914Y-78430475D01*
X148272914Y-78430475D02*
X148320533Y-78525713D01*
X152684819Y-78906666D02*
X152208628Y-79239999D01*
X152684819Y-79478094D02*
X151684819Y-79478094D01*
X151684819Y-79478094D02*
X151684819Y-79097142D01*
X151684819Y-79097142D02*
X151732438Y-79001904D01*
X151732438Y-79001904D02*
X151780057Y-78954285D01*
X151780057Y-78954285D02*
X151875295Y-78906666D01*
X151875295Y-78906666D02*
X152018152Y-78906666D01*
X152018152Y-78906666D02*
X152113390Y-78954285D01*
X152113390Y-78954285D02*
X152161009Y-79001904D01*
X152161009Y-79001904D02*
X152208628Y-79097142D01*
X152208628Y-79097142D02*
X152208628Y-79478094D01*
X151684819Y-78049523D02*
X151684819Y-78239999D01*
X151684819Y-78239999D02*
X151732438Y-78335237D01*
X151732438Y-78335237D02*
X151780057Y-78382856D01*
X151780057Y-78382856D02*
X151922914Y-78478094D01*
X151922914Y-78478094D02*
X152113390Y-78525713D01*
X152113390Y-78525713D02*
X152494342Y-78525713D01*
X152494342Y-78525713D02*
X152589580Y-78478094D01*
X152589580Y-78478094D02*
X152637200Y-78430475D01*
X152637200Y-78430475D02*
X152684819Y-78335237D01*
X152684819Y-78335237D02*
X152684819Y-78144761D01*
X152684819Y-78144761D02*
X152637200Y-78049523D01*
X152637200Y-78049523D02*
X152589580Y-78001904D01*
X152589580Y-78001904D02*
X152494342Y-77954285D01*
X152494342Y-77954285D02*
X152256247Y-77954285D01*
X152256247Y-77954285D02*
X152161009Y-78001904D01*
X152161009Y-78001904D02*
X152113390Y-78049523D01*
X152113390Y-78049523D02*
X152065771Y-78144761D01*
X152065771Y-78144761D02*
X152065771Y-78335237D01*
X152065771Y-78335237D02*
X152113390Y-78430475D01*
X152113390Y-78430475D02*
X152161009Y-78478094D01*
X152161009Y-78478094D02*
X152256247Y-78525713D01*
X124364761Y-76750057D02*
X124269523Y-76702438D01*
X124269523Y-76702438D02*
X124174285Y-76607200D01*
X124174285Y-76607200D02*
X124031428Y-76464342D01*
X124031428Y-76464342D02*
X123936190Y-76416723D01*
X123936190Y-76416723D02*
X123840952Y-76416723D01*
X123888571Y-76654819D02*
X123793333Y-76607200D01*
X123793333Y-76607200D02*
X123698095Y-76511961D01*
X123698095Y-76511961D02*
X123650476Y-76321485D01*
X123650476Y-76321485D02*
X123650476Y-75988152D01*
X123650476Y-75988152D02*
X123698095Y-75797676D01*
X123698095Y-75797676D02*
X123793333Y-75702438D01*
X123793333Y-75702438D02*
X123888571Y-75654819D01*
X123888571Y-75654819D02*
X124079047Y-75654819D01*
X124079047Y-75654819D02*
X124174285Y-75702438D01*
X124174285Y-75702438D02*
X124269523Y-75797676D01*
X124269523Y-75797676D02*
X124317142Y-75988152D01*
X124317142Y-75988152D02*
X124317142Y-76321485D01*
X124317142Y-76321485D02*
X124269523Y-76511961D01*
X124269523Y-76511961D02*
X124174285Y-76607200D01*
X124174285Y-76607200D02*
X124079047Y-76654819D01*
X124079047Y-76654819D02*
X123888571Y-76654819D01*
X125269523Y-76654819D02*
X124698095Y-76654819D01*
X124983809Y-76654819D02*
X124983809Y-75654819D01*
X124983809Y-75654819D02*
X124888571Y-75797676D01*
X124888571Y-75797676D02*
X124793333Y-75892914D01*
X124793333Y-75892914D02*
X124698095Y-75940533D01*
X125563333Y-81564819D02*
X125230000Y-81088628D01*
X124991905Y-81564819D02*
X124991905Y-80564819D01*
X124991905Y-80564819D02*
X125372857Y-80564819D01*
X125372857Y-80564819D02*
X125468095Y-80612438D01*
X125468095Y-80612438D02*
X125515714Y-80660057D01*
X125515714Y-80660057D02*
X125563333Y-80755295D01*
X125563333Y-80755295D02*
X125563333Y-80898152D01*
X125563333Y-80898152D02*
X125515714Y-80993390D01*
X125515714Y-80993390D02*
X125468095Y-81041009D01*
X125468095Y-81041009D02*
X125372857Y-81088628D01*
X125372857Y-81088628D02*
X124991905Y-81088628D01*
X126468095Y-80564819D02*
X125991905Y-80564819D01*
X125991905Y-80564819D02*
X125944286Y-81041009D01*
X125944286Y-81041009D02*
X125991905Y-80993390D01*
X125991905Y-80993390D02*
X126087143Y-80945771D01*
X126087143Y-80945771D02*
X126325238Y-80945771D01*
X126325238Y-80945771D02*
X126420476Y-80993390D01*
X126420476Y-80993390D02*
X126468095Y-81041009D01*
X126468095Y-81041009D02*
X126515714Y-81136247D01*
X126515714Y-81136247D02*
X126515714Y-81374342D01*
X126515714Y-81374342D02*
X126468095Y-81469580D01*
X126468095Y-81469580D02*
X126420476Y-81517200D01*
X126420476Y-81517200D02*
X126325238Y-81564819D01*
X126325238Y-81564819D02*
X126087143Y-81564819D01*
X126087143Y-81564819D02*
X125991905Y-81517200D01*
X125991905Y-81517200D02*
X125944286Y-81469580D01*
X138263333Y-106964819D02*
X137930000Y-106488628D01*
X137691905Y-106964819D02*
X137691905Y-105964819D01*
X137691905Y-105964819D02*
X138072857Y-105964819D01*
X138072857Y-105964819D02*
X138168095Y-106012438D01*
X138168095Y-106012438D02*
X138215714Y-106060057D01*
X138215714Y-106060057D02*
X138263333Y-106155295D01*
X138263333Y-106155295D02*
X138263333Y-106298152D01*
X138263333Y-106298152D02*
X138215714Y-106393390D01*
X138215714Y-106393390D02*
X138168095Y-106441009D01*
X138168095Y-106441009D02*
X138072857Y-106488628D01*
X138072857Y-106488628D02*
X137691905Y-106488628D01*
X138834762Y-106393390D02*
X138739524Y-106345771D01*
X138739524Y-106345771D02*
X138691905Y-106298152D01*
X138691905Y-106298152D02*
X138644286Y-106202914D01*
X138644286Y-106202914D02*
X138644286Y-106155295D01*
X138644286Y-106155295D02*
X138691905Y-106060057D01*
X138691905Y-106060057D02*
X138739524Y-106012438D01*
X138739524Y-106012438D02*
X138834762Y-105964819D01*
X138834762Y-105964819D02*
X139025238Y-105964819D01*
X139025238Y-105964819D02*
X139120476Y-106012438D01*
X139120476Y-106012438D02*
X139168095Y-106060057D01*
X139168095Y-106060057D02*
X139215714Y-106155295D01*
X139215714Y-106155295D02*
X139215714Y-106202914D01*
X139215714Y-106202914D02*
X139168095Y-106298152D01*
X139168095Y-106298152D02*
X139120476Y-106345771D01*
X139120476Y-106345771D02*
X139025238Y-106393390D01*
X139025238Y-106393390D02*
X138834762Y-106393390D01*
X138834762Y-106393390D02*
X138739524Y-106441009D01*
X138739524Y-106441009D02*
X138691905Y-106488628D01*
X138691905Y-106488628D02*
X138644286Y-106583866D01*
X138644286Y-106583866D02*
X138644286Y-106774342D01*
X138644286Y-106774342D02*
X138691905Y-106869580D01*
X138691905Y-106869580D02*
X138739524Y-106917200D01*
X138739524Y-106917200D02*
X138834762Y-106964819D01*
X138834762Y-106964819D02*
X139025238Y-106964819D01*
X139025238Y-106964819D02*
X139120476Y-106917200D01*
X139120476Y-106917200D02*
X139168095Y-106869580D01*
X139168095Y-106869580D02*
X139215714Y-106774342D01*
X139215714Y-106774342D02*
X139215714Y-106583866D01*
X139215714Y-106583866D02*
X139168095Y-106488628D01*
X139168095Y-106488628D02*
X139120476Y-106441009D01*
X139120476Y-106441009D02*
X139025238Y-106393390D01*
X137710057Y-91535238D02*
X137662438Y-91630476D01*
X137662438Y-91630476D02*
X137567200Y-91725714D01*
X137567200Y-91725714D02*
X137424342Y-91868571D01*
X137424342Y-91868571D02*
X137376723Y-91963809D01*
X137376723Y-91963809D02*
X137376723Y-92059047D01*
X137614819Y-92011428D02*
X137567200Y-92106666D01*
X137567200Y-92106666D02*
X137471961Y-92201904D01*
X137471961Y-92201904D02*
X137281485Y-92249523D01*
X137281485Y-92249523D02*
X136948152Y-92249523D01*
X136948152Y-92249523D02*
X136757676Y-92201904D01*
X136757676Y-92201904D02*
X136662438Y-92106666D01*
X136662438Y-92106666D02*
X136614819Y-92011428D01*
X136614819Y-92011428D02*
X136614819Y-91820952D01*
X136614819Y-91820952D02*
X136662438Y-91725714D01*
X136662438Y-91725714D02*
X136757676Y-91630476D01*
X136757676Y-91630476D02*
X136948152Y-91582857D01*
X136948152Y-91582857D02*
X137281485Y-91582857D01*
X137281485Y-91582857D02*
X137471961Y-91630476D01*
X137471961Y-91630476D02*
X137567200Y-91725714D01*
X137567200Y-91725714D02*
X137614819Y-91820952D01*
X137614819Y-91820952D02*
X137614819Y-92011428D01*
X136614819Y-90678095D02*
X136614819Y-91154285D01*
X136614819Y-91154285D02*
X137091009Y-91201904D01*
X137091009Y-91201904D02*
X137043390Y-91154285D01*
X137043390Y-91154285D02*
X136995771Y-91059047D01*
X136995771Y-91059047D02*
X136995771Y-90820952D01*
X136995771Y-90820952D02*
X137043390Y-90725714D01*
X137043390Y-90725714D02*
X137091009Y-90678095D01*
X137091009Y-90678095D02*
X137186247Y-90630476D01*
X137186247Y-90630476D02*
X137424342Y-90630476D01*
X137424342Y-90630476D02*
X137519580Y-90678095D01*
X137519580Y-90678095D02*
X137567200Y-90725714D01*
X137567200Y-90725714D02*
X137614819Y-90820952D01*
X137614819Y-90820952D02*
X137614819Y-91059047D01*
X137614819Y-91059047D02*
X137567200Y-91154285D01*
X137567200Y-91154285D02*
X137519580Y-91201904D01*
X132364819Y-73826666D02*
X131888628Y-74159999D01*
X132364819Y-74398094D02*
X131364819Y-74398094D01*
X131364819Y-74398094D02*
X131364819Y-74017142D01*
X131364819Y-74017142D02*
X131412438Y-73921904D01*
X131412438Y-73921904D02*
X131460057Y-73874285D01*
X131460057Y-73874285D02*
X131555295Y-73826666D01*
X131555295Y-73826666D02*
X131698152Y-73826666D01*
X131698152Y-73826666D02*
X131793390Y-73874285D01*
X131793390Y-73874285D02*
X131841009Y-73921904D01*
X131841009Y-73921904D02*
X131888628Y-74017142D01*
X131888628Y-74017142D02*
X131888628Y-74398094D01*
X131364819Y-73493332D02*
X131364819Y-72826666D01*
X131364819Y-72826666D02*
X132364819Y-73255237D01*
X130048095Y-105924819D02*
X130048095Y-106734342D01*
X130048095Y-106734342D02*
X130095714Y-106829580D01*
X130095714Y-106829580D02*
X130143333Y-106877200D01*
X130143333Y-106877200D02*
X130238571Y-106924819D01*
X130238571Y-106924819D02*
X130429047Y-106924819D01*
X130429047Y-106924819D02*
X130524285Y-106877200D01*
X130524285Y-106877200D02*
X130571904Y-106829580D01*
X130571904Y-106829580D02*
X130619523Y-106734342D01*
X130619523Y-106734342D02*
X130619523Y-105924819D01*
X131619523Y-106924819D02*
X131048095Y-106924819D01*
X131333809Y-106924819D02*
X131333809Y-105924819D01*
X131333809Y-105924819D02*
X131238571Y-106067676D01*
X131238571Y-106067676D02*
X131143333Y-106162914D01*
X131143333Y-106162914D02*
X131048095Y-106210533D01*
X128103333Y-73944819D02*
X127770000Y-73468628D01*
X127531905Y-73944819D02*
X127531905Y-72944819D01*
X127531905Y-72944819D02*
X127912857Y-72944819D01*
X127912857Y-72944819D02*
X128008095Y-72992438D01*
X128008095Y-72992438D02*
X128055714Y-73040057D01*
X128055714Y-73040057D02*
X128103333Y-73135295D01*
X128103333Y-73135295D02*
X128103333Y-73278152D01*
X128103333Y-73278152D02*
X128055714Y-73373390D01*
X128055714Y-73373390D02*
X128008095Y-73421009D01*
X128008095Y-73421009D02*
X127912857Y-73468628D01*
X127912857Y-73468628D02*
X127531905Y-73468628D01*
X128960476Y-73278152D02*
X128960476Y-73944819D01*
X128722381Y-72897200D02*
X128484286Y-73611485D01*
X128484286Y-73611485D02*
X129103333Y-73611485D01*
X128944761Y-90774819D02*
X128611428Y-90298628D01*
X128373333Y-90774819D02*
X128373333Y-89774819D01*
X128373333Y-89774819D02*
X128754285Y-89774819D01*
X128754285Y-89774819D02*
X128849523Y-89822438D01*
X128849523Y-89822438D02*
X128897142Y-89870057D01*
X128897142Y-89870057D02*
X128944761Y-89965295D01*
X128944761Y-89965295D02*
X128944761Y-90108152D01*
X128944761Y-90108152D02*
X128897142Y-90203390D01*
X128897142Y-90203390D02*
X128849523Y-90251009D01*
X128849523Y-90251009D02*
X128754285Y-90298628D01*
X128754285Y-90298628D02*
X128373333Y-90298628D01*
X129230476Y-89774819D02*
X129563809Y-90774819D01*
X129563809Y-90774819D02*
X129897142Y-89774819D01*
X130754285Y-90774819D02*
X130182857Y-90774819D01*
X130468571Y-90774819D02*
X130468571Y-89774819D01*
X130468571Y-89774819D02*
X130373333Y-89917676D01*
X130373333Y-89917676D02*
X130278095Y-90012914D01*
X130278095Y-90012914D02*
X130182857Y-90060533D01*
X124364761Y-120950057D02*
X124269523Y-120902438D01*
X124269523Y-120902438D02*
X124174285Y-120807200D01*
X124174285Y-120807200D02*
X124031428Y-120664342D01*
X124031428Y-120664342D02*
X123936190Y-120616723D01*
X123936190Y-120616723D02*
X123840952Y-120616723D01*
X123888571Y-120854819D02*
X123793333Y-120807200D01*
X123793333Y-120807200D02*
X123698095Y-120711961D01*
X123698095Y-120711961D02*
X123650476Y-120521485D01*
X123650476Y-120521485D02*
X123650476Y-120188152D01*
X123650476Y-120188152D02*
X123698095Y-119997676D01*
X123698095Y-119997676D02*
X123793333Y-119902438D01*
X123793333Y-119902438D02*
X123888571Y-119854819D01*
X123888571Y-119854819D02*
X124079047Y-119854819D01*
X124079047Y-119854819D02*
X124174285Y-119902438D01*
X124174285Y-119902438D02*
X124269523Y-119997676D01*
X124269523Y-119997676D02*
X124317142Y-120188152D01*
X124317142Y-120188152D02*
X124317142Y-120521485D01*
X124317142Y-120521485D02*
X124269523Y-120711961D01*
X124269523Y-120711961D02*
X124174285Y-120807200D01*
X124174285Y-120807200D02*
X124079047Y-120854819D01*
X124079047Y-120854819D02*
X123888571Y-120854819D01*
X124698095Y-119950057D02*
X124745714Y-119902438D01*
X124745714Y-119902438D02*
X124840952Y-119854819D01*
X124840952Y-119854819D02*
X125079047Y-119854819D01*
X125079047Y-119854819D02*
X125174285Y-119902438D01*
X125174285Y-119902438D02*
X125221904Y-119950057D01*
X125221904Y-119950057D02*
X125269523Y-120045295D01*
X125269523Y-120045295D02*
X125269523Y-120140533D01*
X125269523Y-120140533D02*
X125221904Y-120283390D01*
X125221904Y-120283390D02*
X124650476Y-120854819D01*
X124650476Y-120854819D02*
X125269523Y-120854819D01*
X123023333Y-66664819D02*
X122690000Y-66188628D01*
X122451905Y-66664819D02*
X122451905Y-65664819D01*
X122451905Y-65664819D02*
X122832857Y-65664819D01*
X122832857Y-65664819D02*
X122928095Y-65712438D01*
X122928095Y-65712438D02*
X122975714Y-65760057D01*
X122975714Y-65760057D02*
X123023333Y-65855295D01*
X123023333Y-65855295D02*
X123023333Y-65998152D01*
X123023333Y-65998152D02*
X122975714Y-66093390D01*
X122975714Y-66093390D02*
X122928095Y-66141009D01*
X122928095Y-66141009D02*
X122832857Y-66188628D01*
X122832857Y-66188628D02*
X122451905Y-66188628D01*
X123975714Y-66664819D02*
X123404286Y-66664819D01*
X123690000Y-66664819D02*
X123690000Y-65664819D01*
X123690000Y-65664819D02*
X123594762Y-65807676D01*
X123594762Y-65807676D02*
X123499524Y-65902914D01*
X123499524Y-65902914D02*
X123404286Y-65950533D01*
X135556666Y-61374819D02*
X135556666Y-62089104D01*
X135556666Y-62089104D02*
X135509047Y-62231961D01*
X135509047Y-62231961D02*
X135413809Y-62327200D01*
X135413809Y-62327200D02*
X135270952Y-62374819D01*
X135270952Y-62374819D02*
X135175714Y-62374819D01*
X136461428Y-61708152D02*
X136461428Y-62374819D01*
X136223333Y-61327200D02*
X135985238Y-62041485D01*
X135985238Y-62041485D02*
X136604285Y-62041485D01*
D12*
%TO.C,J5*%
X143400000Y-93530000D02*
X143400000Y-99550000D01*
X143400000Y-99550000D02*
X151240000Y-99550000D01*
X143980000Y-98950000D02*
X143980000Y-99550000D01*
X144780000Y-94530000D02*
X144780000Y-93530000D01*
X145030000Y-93530000D02*
X145030000Y-94530000D01*
X145030000Y-95060000D02*
X144780000Y-94530000D01*
X145580000Y-98950000D02*
X143980000Y-98950000D01*
X145580000Y-99550000D02*
X145580000Y-98950000D01*
X146520000Y-98950000D02*
X146520000Y-99550000D01*
X148120000Y-98950000D02*
X146520000Y-98950000D01*
X148120000Y-99550000D02*
X148120000Y-98950000D01*
X149060000Y-98950000D02*
X149060000Y-99550000D01*
X149610000Y-93530000D02*
X149610000Y-94530000D01*
X149610000Y-95060000D02*
X145030000Y-95060000D01*
X149860000Y-93530000D02*
X149860000Y-94530000D01*
X149860000Y-94530000D02*
X144780000Y-94530000D01*
X149860000Y-94530000D02*
X149610000Y-95060000D01*
X150660000Y-98950000D02*
X149060000Y-98950000D01*
X150660000Y-99550000D02*
X150660000Y-98950000D01*
X151240000Y-93530000D02*
X143400000Y-93530000D01*
X151240000Y-99550000D02*
X151240000Y-93530000D01*
X151530000Y-98520000D02*
X151530000Y-94520000D01*
%TO.C,D1*%
X128070000Y-110310000D02*
X128070000Y-115750000D01*
X128070000Y-115750000D02*
X128200000Y-115750000D01*
X128200000Y-110310000D02*
X128070000Y-110310000D01*
X130880000Y-110310000D02*
X131010000Y-110310000D01*
X131010000Y-110310000D02*
X131010000Y-115750000D01*
X131010000Y-111090000D02*
X128070000Y-111090000D01*
X131010000Y-111210000D02*
X128070000Y-111210000D01*
X131010000Y-111330000D02*
X128070000Y-111330000D01*
X131010000Y-115750000D02*
X130880000Y-115750000D01*
%TO.C,Q4*%
X128800000Y-84510000D02*
X125200000Y-84510000D01*
X124675816Y-85237205D02*
G75*
G02*
X125200000Y-84510000I2324184J-1122795D01*
G01*
X127000000Y-88960000D02*
G75*
G02*
X124643600Y-87458807I0J2600000D01*
G01*
X128800000Y-84510000D02*
G75*
G02*
X129324184Y-85237205I-1800000J-1850000D01*
G01*
X129356400Y-87458807D02*
G75*
G02*
X127000000Y-88960000I-2356400J1098807D01*
G01*
%TO.C,K1*%
X130530000Y-118380000D02*
X130530000Y-117170000D01*
X130680000Y-107840000D02*
X130680000Y-118220000D01*
X130680000Y-114540000D02*
X131720000Y-114540000D01*
X130680000Y-118220000D02*
X151270000Y-118220000D01*
X131740000Y-111540000D02*
X130680000Y-111540000D01*
X131740000Y-114540000D02*
X131740000Y-111540000D01*
X131830000Y-118380000D02*
X130530000Y-118380000D01*
X131890000Y-112670000D02*
X131890000Y-113370000D01*
X131890000Y-113370000D02*
X133090000Y-113370000D01*
X132520000Y-112670000D02*
X132520000Y-111570000D01*
X132520000Y-113370000D02*
X132520000Y-114470000D01*
X132690000Y-113370000D02*
X132290000Y-112670000D01*
X133090000Y-112670000D02*
X131890000Y-112670000D01*
X133090000Y-113370000D02*
X133090000Y-112670000D01*
X151270000Y-107840000D02*
X130680000Y-107840000D01*
X151270000Y-118220000D02*
X151270000Y-107840000D01*
%TO.C,J3*%
X138370000Y-120650000D02*
X138370000Y-120590000D01*
X141030000Y-120590000D02*
X138370000Y-120590000D01*
X141030000Y-120650000D02*
X138370000Y-120650000D01*
X141030000Y-120650000D02*
X141030000Y-120590000D01*
X141030000Y-121920000D02*
X141030000Y-123250000D01*
X141030000Y-123250000D02*
X139700000Y-123250000D01*
%TO.C,R11*%
X124460000Y-100430000D02*
X124460000Y-100500000D01*
X125830000Y-99060000D02*
G75*
G02*
X123090000Y-99060000I-1370000J0D01*
G01*
X123090000Y-99060000D02*
G75*
G02*
X125830000Y-99060000I1370000J0D01*
G01*
%TO.C,R3*%
X123090000Y-111760000D02*
X123020000Y-111760000D01*
X125830000Y-111760000D02*
G75*
G02*
X123090000Y-111760000I-1370000J0D01*
G01*
X123090000Y-111760000D02*
G75*
G02*
X125830000Y-111760000I1370000J0D01*
G01*
%TO.C,J2*%
X105300000Y-118930000D02*
X105300000Y-124950000D01*
X105300000Y-124950000D02*
X120760000Y-124950000D01*
X105880000Y-124350000D02*
X105880000Y-124950000D01*
X106680000Y-119930000D02*
X106680000Y-118930000D01*
X106930000Y-118930000D02*
X106930000Y-119930000D01*
X106930000Y-120460000D02*
X106680000Y-119930000D01*
X107480000Y-124350000D02*
X105880000Y-124350000D01*
X107480000Y-124950000D02*
X107480000Y-124350000D01*
X108420000Y-124350000D02*
X108420000Y-124950000D01*
X110020000Y-124350000D02*
X108420000Y-124350000D01*
X110020000Y-124950000D02*
X110020000Y-124350000D01*
X110960000Y-124350000D02*
X110960000Y-124950000D01*
X112560000Y-124350000D02*
X110960000Y-124350000D01*
X112560000Y-124950000D02*
X112560000Y-124350000D01*
X113500000Y-124350000D02*
X113500000Y-124950000D01*
X115100000Y-124350000D02*
X113500000Y-124350000D01*
X115100000Y-124950000D02*
X115100000Y-124350000D01*
X116040000Y-124350000D02*
X116040000Y-124950000D01*
X117640000Y-124350000D02*
X116040000Y-124350000D01*
X117640000Y-124950000D02*
X117640000Y-124350000D01*
X118580000Y-124350000D02*
X118580000Y-124950000D01*
X119130000Y-118930000D02*
X119130000Y-119930000D01*
X119130000Y-120460000D02*
X106930000Y-120460000D01*
X119380000Y-118930000D02*
X119380000Y-119930000D01*
X119380000Y-119930000D02*
X106680000Y-119930000D01*
X119380000Y-119930000D02*
X119130000Y-120460000D01*
X120180000Y-124350000D02*
X118580000Y-124350000D01*
X120180000Y-124950000D02*
X120180000Y-124350000D01*
X120760000Y-118930000D02*
X105300000Y-118930000D01*
X120760000Y-124950000D02*
X120760000Y-118930000D01*
X121050000Y-123920000D02*
X121050000Y-119920000D01*
%TO.C,R2*%
X123090000Y-71120000D02*
X123020000Y-71120000D01*
X125830000Y-71120000D02*
G75*
G02*
X123090000Y-71120000I-1370000J0D01*
G01*
X123090000Y-71120000D02*
G75*
G02*
X125830000Y-71120000I1370000J0D01*
G01*
%TO.C,J1*%
X104210000Y-64710000D02*
X104210000Y-115630000D01*
X104210000Y-64710000D02*
X112840000Y-64710000D01*
X104210000Y-64830000D02*
X112840000Y-64830000D01*
X104210000Y-64948095D02*
X112840000Y-64948095D01*
X104210000Y-65066190D02*
X112840000Y-65066190D01*
X104210000Y-65184285D02*
X112840000Y-65184285D01*
X104210000Y-65302380D02*
X112840000Y-65302380D01*
X104210000Y-65420475D02*
X112840000Y-65420475D01*
X104210000Y-65538570D02*
X112840000Y-65538570D01*
X104210000Y-65656665D02*
X112840000Y-65656665D01*
X104210000Y-65774760D02*
X112840000Y-65774760D01*
X104210000Y-65892855D02*
X112840000Y-65892855D01*
X104210000Y-66010950D02*
X112840000Y-66010950D01*
X104210000Y-66129045D02*
X112840000Y-66129045D01*
X104210000Y-66247140D02*
X112840000Y-66247140D01*
X104210000Y-66365235D02*
X112840000Y-66365235D01*
X104210000Y-66483330D02*
X112840000Y-66483330D01*
X104210000Y-66601425D02*
X112840000Y-66601425D01*
X104210000Y-66719520D02*
X112840000Y-66719520D01*
X104210000Y-66837615D02*
X112840000Y-66837615D01*
X104210000Y-66955710D02*
X112840000Y-66955710D01*
X104210000Y-67073805D02*
X112840000Y-67073805D01*
X104210000Y-67191900D02*
X112840000Y-67191900D01*
X104210000Y-67310000D02*
X112840000Y-67310000D01*
X104210000Y-69850000D02*
X112840000Y-69850000D01*
X104210000Y-72390000D02*
X112840000Y-72390000D01*
X104210000Y-74930000D02*
X112840000Y-74930000D01*
X104210000Y-77470000D02*
X112840000Y-77470000D01*
X104210000Y-80010000D02*
X112840000Y-80010000D01*
X104210000Y-82550000D02*
X112840000Y-82550000D01*
X104210000Y-85090000D02*
X112840000Y-85090000D01*
X104210000Y-87630000D02*
X112840000Y-87630000D01*
X104210000Y-90170000D02*
X112840000Y-90170000D01*
X104210000Y-92710000D02*
X112840000Y-92710000D01*
X104210000Y-95250000D02*
X112840000Y-95250000D01*
X104210000Y-97790000D02*
X112840000Y-97790000D01*
X104210000Y-100330000D02*
X112840000Y-100330000D01*
X104210000Y-102870000D02*
X112840000Y-102870000D01*
X104210000Y-105410000D02*
X112840000Y-105410000D01*
X104210000Y-107950000D02*
X112840000Y-107950000D01*
X104210000Y-110490000D02*
X112840000Y-110490000D01*
X104210000Y-113030000D02*
X112840000Y-113030000D01*
X104210000Y-115630000D02*
X112840000Y-115630000D01*
X112840000Y-64710000D02*
X112840000Y-115630000D01*
X112840000Y-65680000D02*
X113250000Y-65680000D01*
X112840000Y-66400000D02*
X113250000Y-66400000D01*
X112840000Y-68220000D02*
X113250000Y-68220000D01*
X112840000Y-68940000D02*
X113250000Y-68940000D01*
X112840000Y-70760000D02*
X113250000Y-70760000D01*
X112840000Y-71480000D02*
X113250000Y-71480000D01*
X112840000Y-73300000D02*
X113250000Y-73300000D01*
X112840000Y-74020000D02*
X113250000Y-74020000D01*
X112840000Y-75840000D02*
X113250000Y-75840000D01*
X112840000Y-76560000D02*
X113250000Y-76560000D01*
X112840000Y-78380000D02*
X113250000Y-78380000D01*
X112840000Y-79100000D02*
X113250000Y-79100000D01*
X112840000Y-80920000D02*
X113250000Y-80920000D01*
X112840000Y-81640000D02*
X113250000Y-81640000D01*
X112840000Y-83460000D02*
X113250000Y-83460000D01*
X112840000Y-84180000D02*
X113250000Y-84180000D01*
X112840000Y-86000000D02*
X113250000Y-86000000D01*
X112840000Y-86720000D02*
X113250000Y-86720000D01*
X112840000Y-88540000D02*
X113250000Y-88540000D01*
X112840000Y-89260000D02*
X113250000Y-89260000D01*
X112840000Y-91080000D02*
X113250000Y-91080000D01*
X112840000Y-91800000D02*
X113250000Y-91800000D01*
X112840000Y-93620000D02*
X113250000Y-93620000D01*
X112840000Y-94340000D02*
X113250000Y-94340000D01*
X112840000Y-96160000D02*
X113250000Y-96160000D01*
X112840000Y-96880000D02*
X113250000Y-96880000D01*
X112840000Y-98700000D02*
X113250000Y-98700000D01*
X112840000Y-99420000D02*
X113250000Y-99420000D01*
X112840000Y-101240000D02*
X113250000Y-101240000D01*
X112840000Y-101960000D02*
X113250000Y-101960000D01*
X112840000Y-103780000D02*
X113250000Y-103780000D01*
X112840000Y-104500000D02*
X113250000Y-104500000D01*
X112840000Y-106320000D02*
X113250000Y-106320000D01*
X112840000Y-107040000D02*
X113250000Y-107040000D01*
X112840000Y-108860000D02*
X113250000Y-108860000D01*
X112840000Y-109580000D02*
X113250000Y-109580000D01*
X112840000Y-111400000D02*
X113250000Y-111400000D01*
X112840000Y-112120000D02*
X113250000Y-112120000D01*
X112840000Y-113940000D02*
X113250000Y-113940000D01*
X112840000Y-114660000D02*
X113250000Y-114660000D01*
X115350000Y-65680000D02*
X115730000Y-65680000D01*
X115350000Y-66400000D02*
X115730000Y-66400000D01*
X115350000Y-68220000D02*
X115790000Y-68220000D01*
X115350000Y-68940000D02*
X115790000Y-68940000D01*
X115350000Y-70760000D02*
X115790000Y-70760000D01*
X115350000Y-71480000D02*
X115790000Y-71480000D01*
X115350000Y-73300000D02*
X115790000Y-73300000D01*
X115350000Y-74020000D02*
X115790000Y-74020000D01*
X115350000Y-75840000D02*
X115790000Y-75840000D01*
X115350000Y-76560000D02*
X115790000Y-76560000D01*
X115350000Y-78380000D02*
X115790000Y-78380000D01*
X115350000Y-79100000D02*
X115790000Y-79100000D01*
X115350000Y-80920000D02*
X115790000Y-80920000D01*
X115350000Y-81640000D02*
X115790000Y-81640000D01*
X115350000Y-83460000D02*
X115790000Y-83460000D01*
X115350000Y-84180000D02*
X115790000Y-84180000D01*
X115350000Y-86000000D02*
X115790000Y-86000000D01*
X115350000Y-86720000D02*
X115790000Y-86720000D01*
X115350000Y-88540000D02*
X115790000Y-88540000D01*
X115350000Y-89260000D02*
X115790000Y-89260000D01*
X115350000Y-91080000D02*
X115790000Y-91080000D01*
X115350000Y-91800000D02*
X115790000Y-91800000D01*
X115350000Y-93620000D02*
X115790000Y-93620000D01*
X115350000Y-94340000D02*
X115790000Y-94340000D01*
X115350000Y-96160000D02*
X115790000Y-96160000D01*
X115350000Y-96880000D02*
X115790000Y-96880000D01*
X115350000Y-98700000D02*
X115790000Y-98700000D01*
X115350000Y-99420000D02*
X115790000Y-99420000D01*
X115350000Y-101240000D02*
X115790000Y-101240000D01*
X115350000Y-101960000D02*
X115790000Y-101960000D01*
X115350000Y-103780000D02*
X115790000Y-103780000D01*
X115350000Y-104500000D02*
X115790000Y-104500000D01*
X115350000Y-106320000D02*
X115790000Y-106320000D01*
X115350000Y-107040000D02*
X115790000Y-107040000D01*
X115350000Y-108860000D02*
X115790000Y-108860000D01*
X115350000Y-109580000D02*
X115790000Y-109580000D01*
X115350000Y-111400000D02*
X115790000Y-111400000D01*
X115350000Y-112120000D02*
X115790000Y-112120000D01*
X115350000Y-113940000D02*
X115790000Y-113940000D01*
X115350000Y-114660000D02*
X115790000Y-114660000D01*
X116840000Y-64710000D02*
X117950000Y-64710000D01*
X117950000Y-64710000D02*
X117950000Y-66040000D01*
%TO.C,R9*%
X138330000Y-101600000D02*
X138260000Y-101600000D01*
X141070000Y-101600000D02*
G75*
G02*
X138330000Y-101600000I-1370000J0D01*
G01*
X138330000Y-101600000D02*
G75*
G02*
X141070000Y-101600000I1370000J0D01*
G01*
%TO.C,Q3*%
X128800000Y-79430000D02*
X125200000Y-79430000D01*
X124675816Y-80157205D02*
G75*
G02*
X125200000Y-79430000I2324184J-1122795D01*
G01*
X127000000Y-83880000D02*
G75*
G02*
X124643600Y-82378807I0J2600000D01*
G01*
X128800000Y-79430000D02*
G75*
G02*
X129324184Y-80157205I-1800000J-1850000D01*
G01*
X129356400Y-82378807D02*
G75*
G02*
X127000000Y-83880000I-2356400J1098807D01*
G01*
%TO.C,C1*%
X142110000Y-73120000D02*
X142110000Y-84360000D01*
X143855000Y-73120000D02*
X142110000Y-73120000D01*
X143855000Y-84360000D02*
X142110000Y-84360000D01*
X147450000Y-73120000D02*
X145705000Y-73120000D01*
X147450000Y-73120000D02*
X147450000Y-84360000D01*
X147450000Y-84360000D02*
X145705000Y-84360000D01*
%TO.C,R6*%
X148490000Y-75470000D02*
X148490000Y-82010000D01*
X148490000Y-82010000D02*
X151230000Y-82010000D01*
X149860000Y-74700000D02*
X149860000Y-75470000D01*
X149860000Y-82780000D02*
X149860000Y-82010000D01*
X151230000Y-75470000D02*
X148490000Y-75470000D01*
X151230000Y-82010000D02*
X151230000Y-75470000D01*
%TO.C,Q1*%
X126260000Y-71810000D02*
X122660000Y-71810000D01*
X122135816Y-72537205D02*
G75*
G02*
X122660000Y-71810000I2324184J-1122795D01*
G01*
X124460000Y-76260000D02*
G75*
G02*
X122103600Y-74758807I0J2600000D01*
G01*
X126260000Y-71810000D02*
G75*
G02*
X126784184Y-72537205I-1800000J-1850000D01*
G01*
X126816400Y-74758807D02*
G75*
G02*
X124460000Y-76260000I-2356400J1098807D01*
G01*
%TO.C,R5*%
X125630000Y-78740000D02*
X125560000Y-78740000D01*
X128370000Y-78740000D02*
G75*
G02*
X125630000Y-78740000I-1370000J0D01*
G01*
X125630000Y-78740000D02*
G75*
G02*
X128370000Y-78740000I1370000J0D01*
G01*
%TO.C,R8*%
X138330000Y-104140000D02*
X138260000Y-104140000D01*
X141070000Y-104140000D02*
G75*
G02*
X138330000Y-104140000I-1370000J0D01*
G01*
X138330000Y-104140000D02*
G75*
G02*
X141070000Y-104140000I1370000J0D01*
G01*
%TO.C,Q5*%
X134170000Y-84980000D02*
X134170000Y-95360000D01*
X134170000Y-86360000D02*
X135170000Y-86360000D01*
X134170000Y-86610000D02*
X135170000Y-86610000D01*
X134170000Y-93730000D02*
X135170000Y-93730000D01*
X134170000Y-95360000D02*
X140190000Y-95360000D01*
X135170000Y-86360000D02*
X135170000Y-93980000D01*
X135170000Y-86360000D02*
X135700000Y-86610000D01*
X135170000Y-93980000D02*
X134170000Y-93980000D01*
X135700000Y-86610000D02*
X135700000Y-93730000D01*
X135700000Y-93730000D02*
X135170000Y-93980000D01*
X139160000Y-84690000D02*
X135160000Y-84690000D01*
X139590000Y-85560000D02*
X139590000Y-87160000D01*
X139590000Y-87160000D02*
X140190000Y-87160000D01*
X139590000Y-88100000D02*
X139590000Y-89700000D01*
X139590000Y-89700000D02*
X140190000Y-89700000D01*
X139590000Y-90640000D02*
X139590000Y-92240000D01*
X139590000Y-92240000D02*
X140190000Y-92240000D01*
X139590000Y-93180000D02*
X139590000Y-94780000D01*
X139590000Y-94780000D02*
X140190000Y-94780000D01*
X140190000Y-84980000D02*
X134170000Y-84980000D01*
X140190000Y-85560000D02*
X139590000Y-85560000D01*
X140190000Y-88100000D02*
X139590000Y-88100000D01*
X140190000Y-90640000D02*
X139590000Y-90640000D01*
X140190000Y-93180000D02*
X139590000Y-93180000D01*
X140190000Y-95360000D02*
X140190000Y-84980000D01*
%TO.C,R7*%
X129540000Y-77570000D02*
X129540000Y-77640000D01*
X130910000Y-76200000D02*
G75*
G02*
X128170000Y-76200000I-1370000J0D01*
G01*
X128170000Y-76200000D02*
G75*
G02*
X130910000Y-76200000I1370000J0D01*
G01*
%TO.C,U1*%
X128160000Y-100270000D02*
X128160000Y-105470000D01*
X128160000Y-105470000D02*
X129810000Y-105470000D01*
X131810000Y-105470000D02*
X133460000Y-105470000D01*
X133460000Y-100270000D02*
X128160000Y-100270000D01*
X133460000Y-105470000D02*
X133460000Y-100270000D01*
X129810000Y-105470000D02*
G75*
G02*
X131810000Y-105470000I1000000J0D01*
G01*
%TO.C,R4*%
X128170000Y-71120000D02*
X128100000Y-71120000D01*
X130910000Y-71120000D02*
G75*
G02*
X128170000Y-71120000I-1370000J0D01*
G01*
X128170000Y-71120000D02*
G75*
G02*
X130910000Y-71120000I1370000J0D01*
G01*
%TO.C,RV1*%
X122115000Y-91450000D02*
X122115000Y-96520000D01*
X122115000Y-91450000D02*
X131885000Y-91450000D01*
X122115000Y-96520000D02*
X131885000Y-96520000D01*
X131885000Y-91450000D02*
X131885000Y-96520000D01*
%TO.C,Q2*%
X126260000Y-114990000D02*
X122660000Y-114990000D01*
X122135816Y-115717205D02*
G75*
G02*
X122660000Y-114990000I2324184J-1122795D01*
G01*
X124460000Y-119440000D02*
G75*
G02*
X122103600Y-117938807I0J2600000D01*
G01*
X126260000Y-114990000D02*
G75*
G02*
X126784184Y-115717205I-1800000J-1850000D01*
G01*
X126816400Y-117938807D02*
G75*
G02*
X124460000Y-119440000I-2356400J1098807D01*
G01*
%TO.C,R1*%
X123290000Y-68580000D02*
X123360000Y-68580000D01*
X123290000Y-68580000D02*
G75*
G02*
X120550000Y-68580000I-1370000J0D01*
G01*
X120550000Y-68580000D02*
G75*
G02*
X123290000Y-68580000I1370000J0D01*
G01*
%TO.C,J4*%
X132950000Y-64040000D02*
X132950000Y-68040000D01*
X133240000Y-63010000D02*
X133240000Y-69030000D01*
X133240000Y-69030000D02*
X138540000Y-69030000D01*
X133820000Y-63010000D02*
X133820000Y-63610000D01*
X133820000Y-63610000D02*
X135420000Y-63610000D01*
X134620000Y-68030000D02*
X134870000Y-67500000D01*
X134620000Y-68030000D02*
X137160000Y-68030000D01*
X134620000Y-69030000D02*
X134620000Y-68030000D01*
X134870000Y-67500000D02*
X136910000Y-67500000D01*
X134870000Y-69030000D02*
X134870000Y-68030000D01*
X135420000Y-63610000D02*
X135420000Y-63010000D01*
X136360000Y-63010000D02*
X136360000Y-63610000D01*
X136360000Y-63610000D02*
X137960000Y-63610000D01*
X136910000Y-67500000D02*
X137160000Y-68030000D01*
X136910000Y-69030000D02*
X136910000Y-68030000D01*
X137160000Y-68030000D02*
X137160000Y-69030000D01*
X137960000Y-63610000D02*
X137960000Y-63010000D01*
X138540000Y-63010000D02*
X133240000Y-63010000D01*
X138540000Y-69030000D02*
X138540000Y-63010000D01*
%TD*%
M02*
