%TF.GenerationSoftware,KiCad,Pcbnew,8.0.6*%
%TF.CreationDate,2025-01-17T11:28:56+01:00*%
%TF.ProjectId,TW39-mit-Powersave,54573339-2d6d-4697-942d-506f77657273,rev?*%
%TF.SameCoordinates,Original*%
%TF.FileFunction,Copper,L2,Bot*%
%TF.FilePolarity,Positive*%
%FSLAX46Y46*%
G04 Gerber Fmt 4.6, Leading zero omitted, Abs format (unit mm)*
G04 Created by KiCad (PCBNEW 8.0.6) date 2025-01-17 11:28:56*
%MOMM*%
%LPD*%
G01*
G04 APERTURE LIST*
G04 Aperture macros list*
%AMRoundRect*
0 Rectangle with rounded corners*
0 $1 Rounding radius*
0 $2 $3 $4 $5 $6 $7 $8 $9 X,Y pos of 4 corners*
0 Add a 4 corners polygon primitive as box body*
4,1,4,$2,$3,$4,$5,$6,$7,$8,$9,$2,$3,0*
0 Add four circle primitives for the rounded corners*
1,1,$1+$1,$2,$3*
1,1,$1+$1,$4,$5*
1,1,$1+$1,$6,$7*
1,1,$1+$1,$8,$9*
0 Add four rect primitives between the rounded corners*
20,1,$1+$1,$2,$3,$4,$5,0*
20,1,$1+$1,$4,$5,$6,$7,0*
20,1,$1+$1,$6,$7,$8,$9,0*
20,1,$1+$1,$8,$9,$2,$3,0*%
G04 Aperture macros list end*
%TA.AperFunction,ComponentPad*%
%ADD10RoundRect,0.250000X0.620000X0.845000X-0.620000X0.845000X-0.620000X-0.845000X0.620000X-0.845000X0*%
%TD*%
%TA.AperFunction,ComponentPad*%
%ADD11O,0.100000X0.100000*%
%TD*%
%TA.AperFunction,ComponentPad*%
%ADD12O,1.740000X2.190000*%
%TD*%
%TA.AperFunction,ComponentPad*%
%ADD13R,2.200000X2.200000*%
%TD*%
%TA.AperFunction,ComponentPad*%
%ADD14O,2.200000X2.200000*%
%TD*%
%TA.AperFunction,ComponentPad*%
%ADD15R,1.500000X1.500000*%
%TD*%
%TA.AperFunction,ComponentPad*%
%ADD16C,1.500000*%
%TD*%
%TA.AperFunction,ComponentPad*%
%ADD17R,1.400000X1.400000*%
%TD*%
%TA.AperFunction,ComponentPad*%
%ADD18C,1.400000*%
%TD*%
%TA.AperFunction,ComponentPad*%
%ADD19R,1.700000X1.700000*%
%TD*%
%TA.AperFunction,ComponentPad*%
%ADD20C,1.600000*%
%TD*%
%TA.AperFunction,ComponentPad*%
%ADD21O,1.600000X1.600000*%
%TD*%
%TA.AperFunction,ComponentPad*%
%ADD22C,3.200000*%
%TD*%
%TA.AperFunction,ComponentPad*%
%ADD23O,1.700000X1.700000*%
%TD*%
%TA.AperFunction,ComponentPad*%
%ADD24RoundRect,0.250000X-0.845000X0.620000X-0.845000X-0.620000X0.845000X-0.620000X0.845000X0.620000X0*%
%TD*%
%TA.AperFunction,ComponentPad*%
%ADD25O,2.190000X1.740000*%
%TD*%
%TA.AperFunction,ComponentPad*%
%ADD26R,1.600000X1.600000*%
%TD*%
%TA.AperFunction,ComponentPad*%
%ADD27C,1.440000*%
%TD*%
%TA.AperFunction,ComponentPad*%
%ADD28RoundRect,0.250000X-0.620000X-0.845000X0.620000X-0.845000X0.620000X0.845000X-0.620000X0.845000X0*%
%TD*%
%TA.AperFunction,ViaPad*%
%ADD29C,0.800000*%
%TD*%
%TA.AperFunction,Conductor*%
%ADD30C,0.500000*%
%TD*%
G04 APERTURE END LIST*
D10*
%TO.P,J5,1,Pin_1*%
%TO.N,ADO-1*%
X149860000Y-96520000D03*
D11*
%TO.P,J5,2,Pin_2*%
%TO.N,unconnected-(J5-Pin_2-Pad2)*%
X147320000Y-96520000D03*
D12*
%TO.P,J5,3,Pin_3*%
%TO.N,ADO-4*%
X144780000Y-96520000D03*
%TD*%
D13*
%TO.P,D1,1,K*%
%TO.N,+5V*%
X129540000Y-109220000D03*
D14*
%TO.P,D1,2,A*%
%TO.N,Net-(D1-A)*%
X129540000Y-116840000D03*
%TD*%
D15*
%TO.P,Q4,1,C*%
%TO.N,Net-(Q3-C)*%
X129540000Y-86360000D03*
D16*
%TO.P,Q4,2,B*%
%TO.N,Net-(Q4-B)*%
X127000000Y-86360000D03*
%TO.P,Q4,3,E*%
%TO.N,GND*%
X124460000Y-86360000D03*
%TD*%
D17*
%TO.P,K1,1*%
%TO.N,Net-(D1-A)*%
X132080000Y-116840000D03*
D18*
%TO.P,K1,4*%
%TO.N,+80V*%
X139700000Y-116840000D03*
%TO.P,K1,6*%
%TO.N,ADO-1*%
X144780000Y-116840000D03*
%TO.P,K1,8*%
%TO.N,ADO-4*%
X149860000Y-116840000D03*
%TO.P,K1,9*%
%TO.N,ADO-1*%
X149860000Y-109220000D03*
%TO.P,K1,11*%
%TO.N,ADO-4*%
X144780000Y-109220000D03*
%TO.P,K1,13*%
%TO.N,LOOP1*%
X139700000Y-109220000D03*
%TO.P,K1,16*%
%TO.N,+5V*%
X132080000Y-109220000D03*
%TD*%
D19*
%TO.P,J3,1,Pin_1*%
%TO.N,+80V*%
X139700000Y-121920000D03*
%TD*%
D20*
%TO.P,R11,1*%
%TO.N,GND*%
X124460000Y-99060000D03*
D21*
%TO.P,R11,2*%
%TO.N,RXD*%
X124460000Y-101600000D03*
%TD*%
D20*
%TO.P,R3,1*%
%TO.N,Net-(Q2-B)*%
X124460000Y-111760000D03*
D21*
%TO.P,R3,2*%
%TO.N,RLY-L*%
X121920000Y-111760000D03*
%TD*%
D10*
%TO.P,J2,1,Pin_1*%
%TO.N,RLY-P*%
X119380000Y-121920000D03*
D12*
%TO.P,J2,2,Pin_2*%
%TO.N,GND*%
X116840000Y-121920000D03*
%TO.P,J2,3,Pin_3*%
%TO.N,BTN_PWR*%
X114300000Y-121920000D03*
%TO.P,J2,4,Pin_4*%
%TO.N,LED_A*%
X111760000Y-121920000D03*
%TO.P,J2,5,Pin_5*%
%TO.N,LED_WB*%
X109220000Y-121920000D03*
%TO.P,J2,6,Pin_6*%
%TO.N,LED_Z*%
X106680000Y-121920000D03*
%TD*%
D20*
%TO.P,R2,1*%
%TO.N,Net-(Q1-B)*%
X124460000Y-71120000D03*
D21*
%TO.P,R2,2*%
%TO.N,GND*%
X121920000Y-71120000D03*
%TD*%
D22*
%TO.P,REF\u002A\u002A,*%
%TO.N,*%
X109220000Y-60960000D03*
%TD*%
D19*
%TO.P,J1,1,3V3*%
%TO.N,unconnected-(J1-3V3-Pad1)*%
X116840000Y-66040000D03*
D23*
%TO.P,J1,2,5V*%
%TO.N,+5V*%
X114300000Y-66040000D03*
%TO.P,J1,3,SDA/GPIO2*%
%TO.N,TXD*%
X116840000Y-68580000D03*
%TO.P,J1,4,5V*%
%TO.N,+5V*%
X114300000Y-68580000D03*
%TO.P,J1,5,SCL/GPIO3*%
%TO.N,unconnected-(J1-SCL{slash}GPIO3-Pad5)*%
X116840000Y-71120000D03*
%TO.P,J1,6,GND*%
%TO.N,GND*%
X114300000Y-71120000D03*
%TO.P,J1,7,GCLK0/GPIO4*%
%TO.N,unconnected-(J1-GCLK0{slash}GPIO4-Pad7)*%
X116840000Y-73660000D03*
%TO.P,J1,8,GPIO14/TXD*%
%TO.N,unconnected-(J1-GPIO14{slash}TXD-Pad8)*%
X114300000Y-73660000D03*
%TO.P,J1,9,GND*%
%TO.N,GND*%
X116840000Y-76200000D03*
%TO.P,J1,10,GPIO15/RXD*%
%TO.N,unconnected-(J1-GPIO15{slash}RXD-Pad10)*%
X114300000Y-76200000D03*
%TO.P,J1,11,GPIO17*%
%TO.N,unconnected-(J1-GPIO17-Pad11)*%
X116840000Y-78740000D03*
%TO.P,J1,12,GPIO18/PWM0*%
%TO.N,unconnected-(J1-GPIO18{slash}PWM0-Pad12)*%
X114300000Y-78740000D03*
%TO.P,J1,13,GPIO27*%
%TO.N,unconnected-(J1-GPIO27-Pad13)*%
X116840000Y-81280000D03*
%TO.P,J1,14,GND*%
%TO.N,GND*%
X114300000Y-81280000D03*
%TO.P,J1,15,GPIO22*%
%TO.N,unconnected-(J1-GPIO22-Pad15)*%
X116840000Y-83820000D03*
%TO.P,J1,16,GPIO23*%
%TO.N,unconnected-(J1-GPIO23-Pad16)*%
X114300000Y-83820000D03*
%TO.P,J1,17,3V3*%
%TO.N,3\u002C3V*%
X116840000Y-86360000D03*
%TO.P,J1,18,GPIO24*%
%TO.N,unconnected-(J1-GPIO24-Pad18)*%
X114300000Y-86360000D03*
%TO.P,J1,19,MOSI0/GPIO10*%
%TO.N,unconnected-(J1-MOSI0{slash}GPIO10-Pad19)*%
X116840000Y-88900000D03*
%TO.P,J1,20,GND*%
%TO.N,GND*%
X114300000Y-88900000D03*
%TO.P,J1,21,MISO0/GPIO9*%
%TO.N,unconnected-(J1-MISO0{slash}GPIO9-Pad21)*%
X116840000Y-91440000D03*
%TO.P,J1,22,GPIO25*%
%TO.N,unconnected-(J1-GPIO25-Pad22)*%
X114300000Y-91440000D03*
%TO.P,J1,23,SCLK0/GPIO11*%
%TO.N,unconnected-(J1-SCLK0{slash}GPIO11-Pad23)*%
X116840000Y-93980000D03*
%TO.P,J1,24,~{CE0}/GPIO8*%
%TO.N,unconnected-(J1-~{CE0}{slash}GPIO8-Pad24)*%
X114300000Y-93980000D03*
%TO.P,J1,25,GND*%
%TO.N,GND*%
X116840000Y-96520000D03*
%TO.P,J1,26,~{CE1}/GPIO7*%
%TO.N,unconnected-(J1-~{CE1}{slash}GPIO7-Pad26)*%
X114300000Y-96520000D03*
%TO.P,J1,27,ID_SD/GPIO0*%
%TO.N,unconnected-(J1-ID_SD{slash}GPIO0-Pad27)*%
X116840000Y-99060000D03*
%TO.P,J1,28,ID_SC/GPIO1*%
%TO.N,unconnected-(J1-ID_SC{slash}GPIO1-Pad28)*%
X114300000Y-99060000D03*
%TO.P,J1,29,GCLK1/GPIO5*%
%TO.N,RXD*%
X116840000Y-101600000D03*
%TO.P,J1,30,GND*%
%TO.N,GND*%
X114300000Y-101600000D03*
%TO.P,J1,31,GCLK2/GPIO6*%
%TO.N,RXD*%
X116840000Y-104140000D03*
%TO.P,J1,32,PWM0/GPIO12*%
%TO.N,LED_Z*%
X114300000Y-104140000D03*
%TO.P,J1,33,PWM1/GPIO13*%
%TO.N,unconnected-(J1-PWM1{slash}GPIO13-Pad33)*%
X116840000Y-106680000D03*
%TO.P,J1,34,GND*%
%TO.N,unconnected-(J1-GND-Pad34)*%
X114300000Y-106680000D03*
%TO.P,J1,35,GPIO19/MISO1*%
%TO.N,RLY-L*%
X116840000Y-109220000D03*
%TO.P,J1,36,GPIO16*%
%TO.N,LED_WB*%
X114300000Y-109220000D03*
%TO.P,J1,37,GPIO26*%
%TO.N,RLY-P*%
X116840000Y-111760000D03*
%TO.P,J1,38,GPIO20/MOSI1*%
%TO.N,LED_A*%
X114300000Y-111760000D03*
%TO.P,J1,39,GND*%
%TO.N,GND*%
X116840000Y-114300000D03*
%TO.P,J1,40,GPIO21/SCLK1*%
%TO.N,BTN_PWR*%
X114300000Y-114300000D03*
%TD*%
D20*
%TO.P,R9,1*%
%TO.N,LOOP1*%
X139700000Y-101600000D03*
D21*
%TO.P,R9,2*%
%TO.N,LOOP2*%
X137160000Y-101600000D03*
%TD*%
D15*
%TO.P,Q3,1,C*%
%TO.N,Net-(Q3-C)*%
X129540000Y-81280000D03*
D16*
%TO.P,Q3,2,B*%
%TO.N,Net-(Q1-C)*%
X127000000Y-81280000D03*
%TO.P,Q3,3,E*%
%TO.N,GND*%
X124460000Y-81280000D03*
%TD*%
D20*
%TO.P,C1,1*%
%TO.N,Net-(C1-Pad1)*%
X144780000Y-73740000D03*
%TO.P,C1,2*%
%TO.N,ADO-4*%
X144780000Y-83740000D03*
%TD*%
%TO.P,R6,1*%
%TO.N,Net-(C1-Pad1)*%
X149860000Y-73660000D03*
D21*
%TO.P,R6,2*%
%TO.N,ADO-1*%
X149860000Y-83820000D03*
%TD*%
D22*
%TO.P,REF\u002A\u002A,*%
%TO.N,*%
X149860000Y-129540000D03*
%TD*%
D15*
%TO.P,Q1,1,C*%
%TO.N,Net-(Q1-C)*%
X127000000Y-73660000D03*
D16*
%TO.P,Q1,2,B*%
%TO.N,Net-(Q1-B)*%
X124460000Y-73660000D03*
%TO.P,Q1,3,E*%
%TO.N,GND*%
X121920000Y-73660000D03*
%TD*%
D20*
%TO.P,R5,1*%
%TO.N,Net-(Q1-C)*%
X127000000Y-78740000D03*
D21*
%TO.P,R5,2*%
%TO.N,GND*%
X124460000Y-78740000D03*
%TD*%
D20*
%TO.P,R8,1*%
%TO.N,LOOP1*%
X139700000Y-104140000D03*
D21*
%TO.P,R8,2*%
%TO.N,Net-(R8-Pad2)*%
X137160000Y-104140000D03*
%TD*%
D22*
%TO.P,REF\u002A\u002A,*%
%TO.N,*%
X109220000Y-129540000D03*
%TD*%
D24*
%TO.P,Q5,1,B*%
%TO.N,Net-(Q3-C)*%
X137160000Y-86360000D03*
D25*
%TO.P,Q5,2,C*%
%TO.N,LOOP2*%
X137160000Y-93980000D03*
%TO.P,Q5,3,E*%
%TO.N,Net-(Q4-B)*%
X137160000Y-88900000D03*
D11*
%TO.P,Q5,4,E*%
%TO.N,N/C*%
X137160000Y-91440000D03*
%TD*%
D20*
%TO.P,R7,1*%
%TO.N,+5V*%
X129540000Y-76200000D03*
D21*
%TO.P,R7,2*%
%TO.N,Net-(Q3-C)*%
X129540000Y-78740000D03*
%TD*%
D26*
%TO.P,U1,1*%
%TO.N,Net-(R8-Pad2)*%
X134620000Y-104140000D03*
D21*
%TO.P,U1,2*%
%TO.N,LOOP2*%
X134620000Y-101600000D03*
%TO.P,U1,3*%
%TO.N,RXD*%
X127000000Y-101600000D03*
%TO.P,U1,4*%
%TO.N,3\u002C3V*%
X127000000Y-104140000D03*
%TD*%
D20*
%TO.P,R4,1*%
%TO.N,+5V*%
X129540000Y-71120000D03*
D21*
%TO.P,R4,2*%
%TO.N,Net-(Q1-C)*%
X127000000Y-71120000D03*
%TD*%
D27*
%TO.P,RV1,1,1*%
%TO.N,Net-(Q4-B)*%
X129540000Y-93980000D03*
%TO.P,RV1,2,2*%
X127000000Y-93980000D03*
%TO.P,RV1,3,3*%
%TO.N,GND*%
X124460000Y-93980000D03*
%TD*%
D15*
%TO.P,Q2,1,C*%
%TO.N,Net-(D1-A)*%
X127000000Y-116840000D03*
D16*
%TO.P,Q2,2,B*%
%TO.N,Net-(Q2-B)*%
X124460000Y-116840000D03*
%TO.P,Q2,3,E*%
%TO.N,GND*%
X121920000Y-116840000D03*
%TD*%
D20*
%TO.P,R1,1*%
%TO.N,TXD*%
X121920000Y-68580000D03*
D21*
%TO.P,R1,2*%
%TO.N,Net-(Q1-B)*%
X124460000Y-68580000D03*
%TD*%
D28*
%TO.P,J4,1,Pin_1*%
%TO.N,+5V*%
X134620000Y-66040000D03*
D12*
%TO.P,J4,2,Pin_2*%
%TO.N,GND*%
X137160000Y-66040000D03*
%TD*%
D22*
%TO.P,REF\u002A\u002A,*%
%TO.N,*%
X149860000Y-60960000D03*
%TD*%
D29*
%TO.N,ADO-1*%
X144780000Y-119380000D03*
X152400000Y-109220000D03*
%TO.N,+5V*%
X119380000Y-106680000D03*
X119380000Y-63500000D03*
%TO.N,3\u002C3V*%
X121920000Y-86360000D03*
X121920000Y-104140000D03*
%TD*%
D30*
%TO.N,Net-(C1-Pad1)*%
X144780000Y-73740000D02*
X149780000Y-73740000D01*
X149780000Y-73740000D02*
X149860000Y-73660000D01*
%TO.N,ADO-1*%
X149860000Y-83820000D02*
X149860000Y-109220000D01*
X149860000Y-109220000D02*
X152400000Y-109220000D01*
X144780000Y-119380000D02*
X144780000Y-116840000D01*
%TO.N,+5V*%
X129540000Y-76200000D02*
X129540000Y-71120000D01*
X114300000Y-63500000D02*
X119380000Y-63500000D01*
X129540000Y-66040000D02*
X127000000Y-63500000D01*
X114300000Y-66040000D02*
X114300000Y-63500000D01*
X119380000Y-106680000D02*
X124460000Y-106680000D01*
X127000000Y-63500000D02*
X119380000Y-63500000D01*
X134620000Y-66040000D02*
X129540000Y-66040000D01*
X129540000Y-109220000D02*
X132080000Y-109220000D01*
X114300000Y-68580000D02*
X114300000Y-66040000D01*
X124460000Y-106680000D02*
X124460000Y-109220000D01*
X129540000Y-71120000D02*
X129540000Y-66040000D01*
X124460000Y-109220000D02*
X129540000Y-109220000D01*
%TO.N,GND*%
X111760000Y-71120000D02*
X111760000Y-81280000D01*
X124460000Y-78740000D02*
X124460000Y-93980000D01*
X137160000Y-60960000D02*
X137160000Y-66040000D01*
X114300000Y-81280000D02*
X111760000Y-81280000D01*
X124460000Y-96520000D02*
X116840000Y-96520000D01*
X121920000Y-71120000D02*
X121920000Y-78740000D01*
X124460000Y-99060000D02*
X124460000Y-96520000D01*
X137160000Y-60960000D02*
X114300000Y-60960000D01*
X121920000Y-78740000D02*
X124460000Y-78740000D01*
X121920000Y-116840000D02*
X121920000Y-124460000D01*
X111760000Y-81280000D02*
X111760000Y-88900000D01*
X114300000Y-88900000D02*
X111760000Y-88900000D01*
X116840000Y-121920000D02*
X116840000Y-124460000D01*
X116840000Y-124460000D02*
X121920000Y-124460000D01*
X124460000Y-93980000D02*
X124460000Y-96520000D01*
X111760000Y-71120000D02*
X114300000Y-71120000D01*
X116840000Y-121920000D02*
X116840000Y-114300000D01*
X111760000Y-63500000D02*
X111760000Y-71120000D01*
X111760000Y-88900000D02*
X111760000Y-101600000D01*
X114300000Y-60960000D02*
X111760000Y-63500000D01*
X111760000Y-101600000D02*
X114300000Y-101600000D01*
X116840000Y-76200000D02*
X121920000Y-76200000D01*
%TO.N,LED_WB*%
X109220000Y-109220000D02*
X109220000Y-121920000D01*
X114300000Y-109220000D02*
X109220000Y-109220000D01*
%TO.N,RXD*%
X116840000Y-101600000D02*
X116840000Y-104140000D01*
X127000000Y-101600000D02*
X116840000Y-101600000D01*
%TO.N,RLY-P*%
X119380000Y-121920000D02*
X119380000Y-111760000D01*
X119380000Y-111760000D02*
X116840000Y-111760000D01*
%TO.N,TXD*%
X121920000Y-68580000D02*
X116840000Y-68580000D01*
%TO.N,LED_Z*%
X106680000Y-121920000D02*
X106680000Y-104140000D01*
X106680000Y-104140000D02*
X114300000Y-104140000D01*
%TO.N,RLY-L*%
X121920000Y-111760000D02*
X121920000Y-109220000D01*
X121920000Y-109220000D02*
X116840000Y-109220000D01*
%TO.N,BTN_PWR*%
X114300000Y-121920000D02*
X114300000Y-114300000D01*
%TO.N,LED_A*%
X114300000Y-111760000D02*
X111760000Y-111760000D01*
X111760000Y-111760000D02*
X111760000Y-121920000D01*
%TO.N,+80V*%
X139700000Y-121920000D02*
X139700000Y-116840000D01*
%TO.N,ADO-4*%
X144780000Y-109220000D02*
X144780000Y-83740000D01*
X144780000Y-109220000D02*
X149860000Y-116840000D01*
%TO.N,LOOP1*%
X139700000Y-109220000D02*
X139700000Y-101600000D01*
%TO.N,LOOP2*%
X137160000Y-101600000D02*
X137160000Y-93980000D01*
X134620000Y-101600000D02*
X137160000Y-101600000D01*
%TO.N,Net-(D1-A)*%
X127000000Y-116840000D02*
X132080000Y-116840000D01*
%TO.N,Net-(Q1-B)*%
X124460000Y-68580000D02*
X124460000Y-73660000D01*
%TO.N,Net-(Q1-C)*%
X127000000Y-78740000D02*
X127000000Y-81280000D01*
X127000000Y-71120000D02*
X127000000Y-73660000D01*
X127000000Y-73660000D02*
X127000000Y-78740000D01*
%TO.N,Net-(Q2-B)*%
X124460000Y-111760000D02*
X124460000Y-116840000D01*
%TO.N,Net-(Q3-C)*%
X129540000Y-78740000D02*
X129540000Y-86360000D01*
X129540000Y-86360000D02*
X137160000Y-86360000D01*
%TO.N,Net-(Q4-B)*%
X127000000Y-86360000D02*
X127000000Y-93980000D01*
X129540000Y-88900000D02*
X137160000Y-88900000D01*
X127000000Y-93980000D02*
X129540000Y-93980000D01*
X129540000Y-93980000D02*
X129540000Y-88900000D01*
%TO.N,Net-(R8-Pad2)*%
X137160000Y-104140000D02*
X134620000Y-104140000D01*
%TO.N,3\u002C3V*%
X121920000Y-86360000D02*
X116840000Y-86360000D01*
X127000000Y-104140000D02*
X121920000Y-104140000D01*
%TD*%
M02*
