%TF.GenerationSoftware,KiCad,Pcbnew,8.0.6*%
%TF.CreationDate,2025-03-07T13:31:51+01:00*%
%TF.ProjectId,Stromversorgung,5374726f-6d76-4657-9273-6f7267756e67,rev?*%
%TF.SameCoordinates,Original*%
%TF.FileFunction,Drillmap*%
%TF.FilePolarity,Positive*%
%FSLAX45Y45*%
G04 Gerber Fmt 4.5, Leading zero omitted, Abs format (unit mm)*
G04 Created by KiCad (PCBNEW 8.0.6) date 2025-03-07 13:31:51*
%MOMM*%
%LPD*%
G01*
G04 APERTURE LIST*
%ADD10C,0.200000*%
G04 APERTURE END LIST*
D10*
X6604000Y-3556000D02*
X14732000Y-3556000D01*
X14732000Y-13970000D01*
X6604000Y-13970000D01*
X6604000Y-3556000D01*
X6854777Y-14291484D02*
X6854777Y-14091484D01*
X6854777Y-14091484D02*
X6902396Y-14091484D01*
X6902396Y-14091484D02*
X6930967Y-14101008D01*
X6930967Y-14101008D02*
X6950015Y-14120055D01*
X6950015Y-14120055D02*
X6959539Y-14139103D01*
X6959539Y-14139103D02*
X6969062Y-14177198D01*
X6969062Y-14177198D02*
X6969062Y-14205769D01*
X6969062Y-14205769D02*
X6959539Y-14243865D01*
X6959539Y-14243865D02*
X6950015Y-14262912D01*
X6950015Y-14262912D02*
X6930967Y-14281960D01*
X6930967Y-14281960D02*
X6902396Y-14291484D01*
X6902396Y-14291484D02*
X6854777Y-14291484D01*
X7054777Y-14291484D02*
X7054777Y-14158150D01*
X7054777Y-14196246D02*
X7064301Y-14177198D01*
X7064301Y-14177198D02*
X7073824Y-14167674D01*
X7073824Y-14167674D02*
X7092872Y-14158150D01*
X7092872Y-14158150D02*
X7111920Y-14158150D01*
X7178586Y-14291484D02*
X7178586Y-14158150D01*
X7178586Y-14091484D02*
X7169062Y-14101008D01*
X7169062Y-14101008D02*
X7178586Y-14110531D01*
X7178586Y-14110531D02*
X7188110Y-14101008D01*
X7188110Y-14101008D02*
X7178586Y-14091484D01*
X7178586Y-14091484D02*
X7178586Y-14110531D01*
X7302396Y-14291484D02*
X7283348Y-14281960D01*
X7283348Y-14281960D02*
X7273824Y-14262912D01*
X7273824Y-14262912D02*
X7273824Y-14091484D01*
X7407158Y-14291484D02*
X7388110Y-14281960D01*
X7388110Y-14281960D02*
X7378586Y-14262912D01*
X7378586Y-14262912D02*
X7378586Y-14091484D01*
X7635729Y-14291484D02*
X7635729Y-14091484D01*
X7635729Y-14091484D02*
X7702396Y-14234341D01*
X7702396Y-14234341D02*
X7769062Y-14091484D01*
X7769062Y-14091484D02*
X7769062Y-14291484D01*
X7950015Y-14291484D02*
X7950015Y-14186722D01*
X7950015Y-14186722D02*
X7940491Y-14167674D01*
X7940491Y-14167674D02*
X7921443Y-14158150D01*
X7921443Y-14158150D02*
X7883348Y-14158150D01*
X7883348Y-14158150D02*
X7864301Y-14167674D01*
X7950015Y-14281960D02*
X7930967Y-14291484D01*
X7930967Y-14291484D02*
X7883348Y-14291484D01*
X7883348Y-14291484D02*
X7864301Y-14281960D01*
X7864301Y-14281960D02*
X7854777Y-14262912D01*
X7854777Y-14262912D02*
X7854777Y-14243865D01*
X7854777Y-14243865D02*
X7864301Y-14224817D01*
X7864301Y-14224817D02*
X7883348Y-14215293D01*
X7883348Y-14215293D02*
X7930967Y-14215293D01*
X7930967Y-14215293D02*
X7950015Y-14205769D01*
X8045253Y-14158150D02*
X8045253Y-14358150D01*
X8045253Y-14167674D02*
X8064301Y-14158150D01*
X8064301Y-14158150D02*
X8102396Y-14158150D01*
X8102396Y-14158150D02*
X8121443Y-14167674D01*
X8121443Y-14167674D02*
X8130967Y-14177198D01*
X8130967Y-14177198D02*
X8140491Y-14196246D01*
X8140491Y-14196246D02*
X8140491Y-14253388D01*
X8140491Y-14253388D02*
X8130967Y-14272436D01*
X8130967Y-14272436D02*
X8121443Y-14281960D01*
X8121443Y-14281960D02*
X8102396Y-14291484D01*
X8102396Y-14291484D02*
X8064301Y-14291484D01*
X8064301Y-14291484D02*
X8045253Y-14281960D01*
X8226205Y-14272436D02*
X8235729Y-14281960D01*
X8235729Y-14281960D02*
X8226205Y-14291484D01*
X8226205Y-14291484D02*
X8216682Y-14281960D01*
X8216682Y-14281960D02*
X8226205Y-14272436D01*
X8226205Y-14272436D02*
X8226205Y-14291484D01*
X8226205Y-14167674D02*
X8235729Y-14177198D01*
X8235729Y-14177198D02*
X8226205Y-14186722D01*
X8226205Y-14186722D02*
X8216682Y-14177198D01*
X8216682Y-14177198D02*
X8226205Y-14167674D01*
X8226205Y-14167674D02*
X8226205Y-14186722D01*
M02*
