%TF.GenerationSoftware,KiCad,Pcbnew,8.0.6*%
%TF.CreationDate,2025-01-17T11:29:10+01:00*%
%TF.ProjectId,TW39-mit-Powersave,54573339-2d6d-4697-942d-506f77657273,rev?*%
%TF.SameCoordinates,Original*%
%TF.FileFunction,Drillmap*%
%TF.FilePolarity,Positive*%
%FSLAX45Y45*%
G04 Gerber Fmt 4.5, Leading zero omitted, Abs format (unit mm)*
G04 Created by KiCad (PCBNEW 8.0.6) date 2025-01-17 11:29:10*
%MOMM*%
%LPD*%
G01*
G04 APERTURE LIST*
%ADD10C,0.100000*%
%ADD11C,0.200000*%
G04 APERTURE END LIST*
D10*
X10414000Y-5588000D02*
X15494000Y-5588000D01*
X15494000Y-13462000D01*
X10414000Y-13462000D01*
X10414000Y-5588000D01*
D11*
X10669777Y-13778484D02*
X10669777Y-13578484D01*
X10669777Y-13578484D02*
X10717396Y-13578484D01*
X10717396Y-13578484D02*
X10745967Y-13588008D01*
X10745967Y-13588008D02*
X10765015Y-13607055D01*
X10765015Y-13607055D02*
X10774539Y-13626103D01*
X10774539Y-13626103D02*
X10784063Y-13664198D01*
X10784063Y-13664198D02*
X10784063Y-13692769D01*
X10784063Y-13692769D02*
X10774539Y-13730865D01*
X10774539Y-13730865D02*
X10765015Y-13749912D01*
X10765015Y-13749912D02*
X10745967Y-13768960D01*
X10745967Y-13768960D02*
X10717396Y-13778484D01*
X10717396Y-13778484D02*
X10669777Y-13778484D01*
X10869777Y-13778484D02*
X10869777Y-13645150D01*
X10869777Y-13683246D02*
X10879301Y-13664198D01*
X10879301Y-13664198D02*
X10888824Y-13654674D01*
X10888824Y-13654674D02*
X10907872Y-13645150D01*
X10907872Y-13645150D02*
X10926920Y-13645150D01*
X10993586Y-13778484D02*
X10993586Y-13645150D01*
X10993586Y-13578484D02*
X10984063Y-13588008D01*
X10984063Y-13588008D02*
X10993586Y-13597531D01*
X10993586Y-13597531D02*
X11003110Y-13588008D01*
X11003110Y-13588008D02*
X10993586Y-13578484D01*
X10993586Y-13578484D02*
X10993586Y-13597531D01*
X11117396Y-13778484D02*
X11098348Y-13768960D01*
X11098348Y-13768960D02*
X11088824Y-13749912D01*
X11088824Y-13749912D02*
X11088824Y-13578484D01*
X11222158Y-13778484D02*
X11203110Y-13768960D01*
X11203110Y-13768960D02*
X11193586Y-13749912D01*
X11193586Y-13749912D02*
X11193586Y-13578484D01*
X11450729Y-13778484D02*
X11450729Y-13578484D01*
X11450729Y-13578484D02*
X11517396Y-13721341D01*
X11517396Y-13721341D02*
X11584062Y-13578484D01*
X11584062Y-13578484D02*
X11584062Y-13778484D01*
X11765015Y-13778484D02*
X11765015Y-13673722D01*
X11765015Y-13673722D02*
X11755491Y-13654674D01*
X11755491Y-13654674D02*
X11736443Y-13645150D01*
X11736443Y-13645150D02*
X11698348Y-13645150D01*
X11698348Y-13645150D02*
X11679301Y-13654674D01*
X11765015Y-13768960D02*
X11745967Y-13778484D01*
X11745967Y-13778484D02*
X11698348Y-13778484D01*
X11698348Y-13778484D02*
X11679301Y-13768960D01*
X11679301Y-13768960D02*
X11669777Y-13749912D01*
X11669777Y-13749912D02*
X11669777Y-13730865D01*
X11669777Y-13730865D02*
X11679301Y-13711817D01*
X11679301Y-13711817D02*
X11698348Y-13702293D01*
X11698348Y-13702293D02*
X11745967Y-13702293D01*
X11745967Y-13702293D02*
X11765015Y-13692769D01*
X11860253Y-13645150D02*
X11860253Y-13845150D01*
X11860253Y-13654674D02*
X11879301Y-13645150D01*
X11879301Y-13645150D02*
X11917396Y-13645150D01*
X11917396Y-13645150D02*
X11936443Y-13654674D01*
X11936443Y-13654674D02*
X11945967Y-13664198D01*
X11945967Y-13664198D02*
X11955491Y-13683246D01*
X11955491Y-13683246D02*
X11955491Y-13740388D01*
X11955491Y-13740388D02*
X11945967Y-13759436D01*
X11945967Y-13759436D02*
X11936443Y-13768960D01*
X11936443Y-13768960D02*
X11917396Y-13778484D01*
X11917396Y-13778484D02*
X11879301Y-13778484D01*
X11879301Y-13778484D02*
X11860253Y-13768960D01*
X12041205Y-13759436D02*
X12050729Y-13768960D01*
X12050729Y-13768960D02*
X12041205Y-13778484D01*
X12041205Y-13778484D02*
X12031682Y-13768960D01*
X12031682Y-13768960D02*
X12041205Y-13759436D01*
X12041205Y-13759436D02*
X12041205Y-13778484D01*
X12041205Y-13654674D02*
X12050729Y-13664198D01*
X12050729Y-13664198D02*
X12041205Y-13673722D01*
X12041205Y-13673722D02*
X12031682Y-13664198D01*
X12031682Y-13664198D02*
X12041205Y-13654674D01*
X12041205Y-13654674D02*
X12041205Y-13673722D01*
M02*
