%TF.GenerationSoftware,KiCad,Pcbnew,8.0.6*%
%TF.CreationDate,2025-03-07T13:31:28+01:00*%
%TF.ProjectId,Stromversorgung,5374726f-6d76-4657-9273-6f7267756e67,rev?*%
%TF.SameCoordinates,Original*%
%TF.FileFunction,Legend,Top*%
%TF.FilePolarity,Positive*%
%FSLAX46Y46*%
G04 Gerber Fmt 4.6, Leading zero omitted, Abs format (unit mm)*
G04 Created by KiCad (PCBNEW 8.0.6) date 2025-03-07 13:31:28*
%MOMM*%
%LPD*%
G01*
G04 APERTURE LIST*
%ADD10C,0.150000*%
%ADD11C,0.120000*%
G04 APERTURE END LIST*
D10*
X120104819Y-109981904D02*
X120104819Y-109410476D01*
X121104819Y-109696190D02*
X120104819Y-109696190D01*
X121104819Y-108553333D02*
X121104819Y-109124761D01*
X121104819Y-108839047D02*
X120104819Y-108839047D01*
X120104819Y-108839047D02*
X120247676Y-108934285D01*
X120247676Y-108934285D02*
X120342914Y-109029523D01*
X120342914Y-109029523D02*
X120390533Y-109124761D01*
X95710476Y-93674819D02*
X95710476Y-92674819D01*
X95710476Y-92674819D02*
X96091428Y-92674819D01*
X96091428Y-92674819D02*
X96186666Y-92722438D01*
X96186666Y-92722438D02*
X96234285Y-92770057D01*
X96234285Y-92770057D02*
X96281904Y-92865295D01*
X96281904Y-92865295D02*
X96281904Y-93008152D01*
X96281904Y-93008152D02*
X96234285Y-93103390D01*
X96234285Y-93103390D02*
X96186666Y-93151009D01*
X96186666Y-93151009D02*
X96091428Y-93198628D01*
X96091428Y-93198628D02*
X95710476Y-93198628D01*
X96710476Y-93674819D02*
X96710476Y-93008152D01*
X96710476Y-93198628D02*
X96758095Y-93103390D01*
X96758095Y-93103390D02*
X96805714Y-93055771D01*
X96805714Y-93055771D02*
X96900952Y-93008152D01*
X96900952Y-93008152D02*
X96996190Y-93008152D01*
X97329524Y-93674819D02*
X97329524Y-93008152D01*
X97329524Y-92674819D02*
X97281905Y-92722438D01*
X97281905Y-92722438D02*
X97329524Y-92770057D01*
X97329524Y-92770057D02*
X97377143Y-92722438D01*
X97377143Y-92722438D02*
X97329524Y-92674819D01*
X97329524Y-92674819D02*
X97329524Y-92770057D01*
X82974819Y-96434285D02*
X82974819Y-97005713D01*
X82974819Y-96719999D02*
X81974819Y-96719999D01*
X81974819Y-96719999D02*
X82117676Y-96815237D01*
X82117676Y-96815237D02*
X82212914Y-96910475D01*
X82212914Y-96910475D02*
X82260533Y-97005713D01*
X104906666Y-130051009D02*
X104573333Y-130051009D01*
X104573333Y-130574819D02*
X104573333Y-129574819D01*
X104573333Y-129574819D02*
X105049523Y-129574819D01*
X105954285Y-130574819D02*
X105382857Y-130574819D01*
X105668571Y-130574819D02*
X105668571Y-129574819D01*
X105668571Y-129574819D02*
X105573333Y-129717676D01*
X105573333Y-129717676D02*
X105478095Y-129812914D01*
X105478095Y-129812914D02*
X105382857Y-129860533D01*
X138096666Y-68994819D02*
X138096666Y-69709104D01*
X138096666Y-69709104D02*
X138049047Y-69851961D01*
X138049047Y-69851961D02*
X137953809Y-69947200D01*
X137953809Y-69947200D02*
X137810952Y-69994819D01*
X137810952Y-69994819D02*
X137715714Y-69994819D01*
X138477619Y-68994819D02*
X139096666Y-68994819D01*
X139096666Y-68994819D02*
X138763333Y-69375771D01*
X138763333Y-69375771D02*
X138906190Y-69375771D01*
X138906190Y-69375771D02*
X139001428Y-69423390D01*
X139001428Y-69423390D02*
X139049047Y-69471009D01*
X139049047Y-69471009D02*
X139096666Y-69566247D01*
X139096666Y-69566247D02*
X139096666Y-69804342D01*
X139096666Y-69804342D02*
X139049047Y-69899580D01*
X139049047Y-69899580D02*
X139001428Y-69947200D01*
X139001428Y-69947200D02*
X138906190Y-69994819D01*
X138906190Y-69994819D02*
X138620476Y-69994819D01*
X138620476Y-69994819D02*
X138525238Y-69947200D01*
X138525238Y-69947200D02*
X138477619Y-69899580D01*
X141484819Y-61293333D02*
X142199104Y-61293333D01*
X142199104Y-61293333D02*
X142341961Y-61340952D01*
X142341961Y-61340952D02*
X142437200Y-61436190D01*
X142437200Y-61436190D02*
X142484819Y-61579047D01*
X142484819Y-61579047D02*
X142484819Y-61674285D01*
X141580057Y-60864761D02*
X141532438Y-60817142D01*
X141532438Y-60817142D02*
X141484819Y-60721904D01*
X141484819Y-60721904D02*
X141484819Y-60483809D01*
X141484819Y-60483809D02*
X141532438Y-60388571D01*
X141532438Y-60388571D02*
X141580057Y-60340952D01*
X141580057Y-60340952D02*
X141675295Y-60293333D01*
X141675295Y-60293333D02*
X141770533Y-60293333D01*
X141770533Y-60293333D02*
X141913390Y-60340952D01*
X141913390Y-60340952D02*
X142484819Y-60912380D01*
X142484819Y-60912380D02*
X142484819Y-60293333D01*
X131913333Y-117124819D02*
X131580000Y-116648628D01*
X131341905Y-117124819D02*
X131341905Y-116124819D01*
X131341905Y-116124819D02*
X131722857Y-116124819D01*
X131722857Y-116124819D02*
X131818095Y-116172438D01*
X131818095Y-116172438D02*
X131865714Y-116220057D01*
X131865714Y-116220057D02*
X131913333Y-116315295D01*
X131913333Y-116315295D02*
X131913333Y-116458152D01*
X131913333Y-116458152D02*
X131865714Y-116553390D01*
X131865714Y-116553390D02*
X131818095Y-116601009D01*
X131818095Y-116601009D02*
X131722857Y-116648628D01*
X131722857Y-116648628D02*
X131341905Y-116648628D01*
X132294286Y-116220057D02*
X132341905Y-116172438D01*
X132341905Y-116172438D02*
X132437143Y-116124819D01*
X132437143Y-116124819D02*
X132675238Y-116124819D01*
X132675238Y-116124819D02*
X132770476Y-116172438D01*
X132770476Y-116172438D02*
X132818095Y-116220057D01*
X132818095Y-116220057D02*
X132865714Y-116315295D01*
X132865714Y-116315295D02*
X132865714Y-116410533D01*
X132865714Y-116410533D02*
X132818095Y-116553390D01*
X132818095Y-116553390D02*
X132246667Y-117124819D01*
X132246667Y-117124819D02*
X132865714Y-117124819D01*
X135094819Y-123918094D02*
X134094819Y-123918094D01*
X134094819Y-123918094D02*
X134094819Y-123679999D01*
X134094819Y-123679999D02*
X134142438Y-123537142D01*
X134142438Y-123537142D02*
X134237676Y-123441904D01*
X134237676Y-123441904D02*
X134332914Y-123394285D01*
X134332914Y-123394285D02*
X134523390Y-123346666D01*
X134523390Y-123346666D02*
X134666247Y-123346666D01*
X134666247Y-123346666D02*
X134856723Y-123394285D01*
X134856723Y-123394285D02*
X134951961Y-123441904D01*
X134951961Y-123441904D02*
X135047200Y-123537142D01*
X135047200Y-123537142D02*
X135094819Y-123679999D01*
X135094819Y-123679999D02*
X135094819Y-123918094D01*
X134190057Y-122965713D02*
X134142438Y-122918094D01*
X134142438Y-122918094D02*
X134094819Y-122822856D01*
X134094819Y-122822856D02*
X134094819Y-122584761D01*
X134094819Y-122584761D02*
X134142438Y-122489523D01*
X134142438Y-122489523D02*
X134190057Y-122441904D01*
X134190057Y-122441904D02*
X134285295Y-122394285D01*
X134285295Y-122394285D02*
X134380533Y-122394285D01*
X134380533Y-122394285D02*
X134523390Y-122441904D01*
X134523390Y-122441904D02*
X135094819Y-123013332D01*
X135094819Y-123013332D02*
X135094819Y-122394285D01*
X129444761Y-40170057D02*
X129349523Y-40122438D01*
X129349523Y-40122438D02*
X129254285Y-40027200D01*
X129254285Y-40027200D02*
X129111428Y-39884342D01*
X129111428Y-39884342D02*
X129016190Y-39836723D01*
X129016190Y-39836723D02*
X128920952Y-39836723D01*
X128968571Y-40074819D02*
X128873333Y-40027200D01*
X128873333Y-40027200D02*
X128778095Y-39931961D01*
X128778095Y-39931961D02*
X128730476Y-39741485D01*
X128730476Y-39741485D02*
X128730476Y-39408152D01*
X128730476Y-39408152D02*
X128778095Y-39217676D01*
X128778095Y-39217676D02*
X128873333Y-39122438D01*
X128873333Y-39122438D02*
X128968571Y-39074819D01*
X128968571Y-39074819D02*
X129159047Y-39074819D01*
X129159047Y-39074819D02*
X129254285Y-39122438D01*
X129254285Y-39122438D02*
X129349523Y-39217676D01*
X129349523Y-39217676D02*
X129397142Y-39408152D01*
X129397142Y-39408152D02*
X129397142Y-39741485D01*
X129397142Y-39741485D02*
X129349523Y-39931961D01*
X129349523Y-39931961D02*
X129254285Y-40027200D01*
X129254285Y-40027200D02*
X129159047Y-40074819D01*
X129159047Y-40074819D02*
X128968571Y-40074819D01*
X130349523Y-40074819D02*
X129778095Y-40074819D01*
X130063809Y-40074819D02*
X130063809Y-39074819D01*
X130063809Y-39074819D02*
X129968571Y-39217676D01*
X129968571Y-39217676D02*
X129873333Y-39312914D01*
X129873333Y-39312914D02*
X129778095Y-39360533D01*
X73114819Y-47263333D02*
X73829104Y-47263333D01*
X73829104Y-47263333D02*
X73971961Y-47310952D01*
X73971961Y-47310952D02*
X74067200Y-47406190D01*
X74067200Y-47406190D02*
X74114819Y-47549047D01*
X74114819Y-47549047D02*
X74114819Y-47644285D01*
X73448152Y-46358571D02*
X74114819Y-46358571D01*
X73067200Y-46596666D02*
X73781485Y-46834761D01*
X73781485Y-46834761D02*
X73781485Y-46215714D01*
X141906666Y-116504819D02*
X141906666Y-117219104D01*
X141906666Y-117219104D02*
X141859047Y-117361961D01*
X141859047Y-117361961D02*
X141763809Y-117457200D01*
X141763809Y-117457200D02*
X141620952Y-117504819D01*
X141620952Y-117504819D02*
X141525714Y-117504819D01*
X142859047Y-116504819D02*
X142382857Y-116504819D01*
X142382857Y-116504819D02*
X142335238Y-116981009D01*
X142335238Y-116981009D02*
X142382857Y-116933390D01*
X142382857Y-116933390D02*
X142478095Y-116885771D01*
X142478095Y-116885771D02*
X142716190Y-116885771D01*
X142716190Y-116885771D02*
X142811428Y-116933390D01*
X142811428Y-116933390D02*
X142859047Y-116981009D01*
X142859047Y-116981009D02*
X142906666Y-117076247D01*
X142906666Y-117076247D02*
X142906666Y-117314342D01*
X142906666Y-117314342D02*
X142859047Y-117409580D01*
X142859047Y-117409580D02*
X142811428Y-117457200D01*
X142811428Y-117457200D02*
X142716190Y-117504819D01*
X142716190Y-117504819D02*
X142478095Y-117504819D01*
X142478095Y-117504819D02*
X142382857Y-117457200D01*
X142382857Y-117457200D02*
X142335238Y-117409580D01*
X73114819Y-77803333D02*
X73829104Y-77803333D01*
X73829104Y-77803333D02*
X73971961Y-77850952D01*
X73971961Y-77850952D02*
X74067200Y-77946190D01*
X74067200Y-77946190D02*
X74114819Y-78089047D01*
X74114819Y-78089047D02*
X74114819Y-78184285D01*
X74114819Y-76803333D02*
X74114819Y-77374761D01*
X74114819Y-77089047D02*
X73114819Y-77089047D01*
X73114819Y-77089047D02*
X73257676Y-77184285D01*
X73257676Y-77184285D02*
X73352914Y-77279523D01*
X73352914Y-77279523D02*
X73400533Y-77374761D01*
X134453333Y-56164819D02*
X134120000Y-55688628D01*
X133881905Y-56164819D02*
X133881905Y-55164819D01*
X133881905Y-55164819D02*
X134262857Y-55164819D01*
X134262857Y-55164819D02*
X134358095Y-55212438D01*
X134358095Y-55212438D02*
X134405714Y-55260057D01*
X134405714Y-55260057D02*
X134453333Y-55355295D01*
X134453333Y-55355295D02*
X134453333Y-55498152D01*
X134453333Y-55498152D02*
X134405714Y-55593390D01*
X134405714Y-55593390D02*
X134358095Y-55641009D01*
X134358095Y-55641009D02*
X134262857Y-55688628D01*
X134262857Y-55688628D02*
X133881905Y-55688628D01*
X135405714Y-56164819D02*
X134834286Y-56164819D01*
X135120000Y-56164819D02*
X135120000Y-55164819D01*
X135120000Y-55164819D02*
X135024762Y-55307676D01*
X135024762Y-55307676D02*
X134929524Y-55402914D01*
X134929524Y-55402914D02*
X134834286Y-55450533D01*
X100701905Y-54734819D02*
X100701905Y-53734819D01*
X101273333Y-54734819D02*
X100844762Y-54163390D01*
X101273333Y-53734819D02*
X100701905Y-54306247D01*
X102225714Y-54734819D02*
X101654286Y-54734819D01*
X101940000Y-54734819D02*
X101940000Y-53734819D01*
X101940000Y-53734819D02*
X101844762Y-53877676D01*
X101844762Y-53877676D02*
X101749524Y-53972914D01*
X101749524Y-53972914D02*
X101654286Y-54020533D01*
X108113214Y-72484819D02*
X108113214Y-71484819D01*
X108113214Y-71484819D02*
X108494166Y-71484819D01*
X108494166Y-71484819D02*
X108589404Y-71532438D01*
X108589404Y-71532438D02*
X108637023Y-71580057D01*
X108637023Y-71580057D02*
X108684642Y-71675295D01*
X108684642Y-71675295D02*
X108684642Y-71818152D01*
X108684642Y-71818152D02*
X108637023Y-71913390D01*
X108637023Y-71913390D02*
X108589404Y-71961009D01*
X108589404Y-71961009D02*
X108494166Y-72008628D01*
X108494166Y-72008628D02*
X108113214Y-72008628D01*
X109065595Y-72437200D02*
X109208452Y-72484819D01*
X109208452Y-72484819D02*
X109446547Y-72484819D01*
X109446547Y-72484819D02*
X109541785Y-72437200D01*
X109541785Y-72437200D02*
X109589404Y-72389580D01*
X109589404Y-72389580D02*
X109637023Y-72294342D01*
X109637023Y-72294342D02*
X109637023Y-72199104D01*
X109637023Y-72199104D02*
X109589404Y-72103866D01*
X109589404Y-72103866D02*
X109541785Y-72056247D01*
X109541785Y-72056247D02*
X109446547Y-72008628D01*
X109446547Y-72008628D02*
X109256071Y-71961009D01*
X109256071Y-71961009D02*
X109160833Y-71913390D01*
X109160833Y-71913390D02*
X109113214Y-71865771D01*
X109113214Y-71865771D02*
X109065595Y-71770533D01*
X109065595Y-71770533D02*
X109065595Y-71675295D01*
X109065595Y-71675295D02*
X109113214Y-71580057D01*
X109113214Y-71580057D02*
X109160833Y-71532438D01*
X109160833Y-71532438D02*
X109256071Y-71484819D01*
X109256071Y-71484819D02*
X109494166Y-71484819D01*
X109494166Y-71484819D02*
X109637023Y-71532438D01*
X110589404Y-72484819D02*
X110017976Y-72484819D01*
X110303690Y-72484819D02*
X110303690Y-71484819D01*
X110303690Y-71484819D02*
X110208452Y-71627676D01*
X110208452Y-71627676D02*
X110113214Y-71722914D01*
X110113214Y-71722914D02*
X110017976Y-71770533D01*
X131833333Y-111669580D02*
X131785714Y-111717200D01*
X131785714Y-111717200D02*
X131642857Y-111764819D01*
X131642857Y-111764819D02*
X131547619Y-111764819D01*
X131547619Y-111764819D02*
X131404762Y-111717200D01*
X131404762Y-111717200D02*
X131309524Y-111621961D01*
X131309524Y-111621961D02*
X131261905Y-111526723D01*
X131261905Y-111526723D02*
X131214286Y-111336247D01*
X131214286Y-111336247D02*
X131214286Y-111193390D01*
X131214286Y-111193390D02*
X131261905Y-111002914D01*
X131261905Y-111002914D02*
X131309524Y-110907676D01*
X131309524Y-110907676D02*
X131404762Y-110812438D01*
X131404762Y-110812438D02*
X131547619Y-110764819D01*
X131547619Y-110764819D02*
X131642857Y-110764819D01*
X131642857Y-110764819D02*
X131785714Y-110812438D01*
X131785714Y-110812438D02*
X131833333Y-110860057D01*
X132785714Y-111764819D02*
X132214286Y-111764819D01*
X132500000Y-111764819D02*
X132500000Y-110764819D01*
X132500000Y-110764819D02*
X132404762Y-110907676D01*
X132404762Y-110907676D02*
X132309524Y-111002914D01*
X132309524Y-111002914D02*
X132214286Y-111050533D01*
X117294819Y-47728094D02*
X116294819Y-47728094D01*
X116294819Y-47728094D02*
X116294819Y-47489999D01*
X116294819Y-47489999D02*
X116342438Y-47347142D01*
X116342438Y-47347142D02*
X116437676Y-47251904D01*
X116437676Y-47251904D02*
X116532914Y-47204285D01*
X116532914Y-47204285D02*
X116723390Y-47156666D01*
X116723390Y-47156666D02*
X116866247Y-47156666D01*
X116866247Y-47156666D02*
X117056723Y-47204285D01*
X117056723Y-47204285D02*
X117151961Y-47251904D01*
X117151961Y-47251904D02*
X117247200Y-47347142D01*
X117247200Y-47347142D02*
X117294819Y-47489999D01*
X117294819Y-47489999D02*
X117294819Y-47728094D01*
X117294819Y-46204285D02*
X117294819Y-46775713D01*
X117294819Y-46489999D02*
X116294819Y-46489999D01*
X116294819Y-46489999D02*
X116437676Y-46585237D01*
X116437676Y-46585237D02*
X116532914Y-46680475D01*
X116532914Y-46680475D02*
X116580533Y-46775713D01*
X117294819Y-53601904D02*
X116294819Y-53601904D01*
X117294819Y-53030476D02*
X116723390Y-53459047D01*
X116294819Y-53030476D02*
X116866247Y-53601904D01*
D11*
%TO.C,T1*%
X74400000Y-127840000D02*
X74400000Y-90600000D01*
X74400000Y-127840000D02*
X118640000Y-127840000D01*
X118640000Y-90600000D02*
X74400000Y-90600000D01*
X118640000Y-90600000D02*
X118640000Y-127840000D01*
%TO.C,F1*%
X95070000Y-131420000D02*
X95070000Y-133020000D01*
X95070000Y-137820000D02*
X95070000Y-136220000D01*
X101370000Y-131420000D02*
X95070000Y-131420000D01*
X101370000Y-131420000D02*
X101370000Y-133020000D01*
X101370000Y-137820000D02*
X95070000Y-137820000D01*
X101370000Y-137820000D02*
X101370000Y-136220000D01*
X109110000Y-131420000D02*
X109110000Y-133020000D01*
X109110000Y-132120000D02*
X101370000Y-132120000D01*
X109110000Y-137120000D02*
X101370000Y-137120000D01*
X109110000Y-137820000D02*
X109110000Y-136220000D01*
X109110000Y-137820000D02*
X115410000Y-137820000D01*
X115410000Y-131420000D02*
X109110000Y-131420000D01*
X115410000Y-133020000D02*
X115410000Y-131420000D01*
X115410000Y-136220000D02*
X115410000Y-137820000D01*
%TO.C,J3*%
X135490000Y-71660000D02*
X135490000Y-75660000D01*
X135780000Y-70630000D02*
X135780000Y-76650000D01*
X135780000Y-76650000D02*
X141080000Y-76650000D01*
X136360000Y-70630000D02*
X136360000Y-71230000D01*
X136360000Y-71230000D02*
X137960000Y-71230000D01*
X137160000Y-75650000D02*
X137410000Y-75120000D01*
X137160000Y-75650000D02*
X139700000Y-75650000D01*
X137160000Y-76650000D02*
X137160000Y-75650000D01*
X137410000Y-75120000D02*
X139450000Y-75120000D01*
X137410000Y-76650000D02*
X137410000Y-75650000D01*
X137960000Y-71230000D02*
X137960000Y-70630000D01*
X138900000Y-70630000D02*
X138900000Y-71230000D01*
X138900000Y-71230000D02*
X140500000Y-71230000D01*
X139450000Y-75120000D02*
X139700000Y-75650000D01*
X139450000Y-76650000D02*
X139450000Y-75650000D01*
X139700000Y-75650000D02*
X139700000Y-76650000D01*
X140500000Y-71230000D02*
X140500000Y-70630000D01*
X141080000Y-70630000D02*
X135780000Y-70630000D01*
X141080000Y-76650000D02*
X141080000Y-70630000D01*
%TO.C,J2*%
X138370000Y-59630000D02*
X138370000Y-62290000D01*
X138430000Y-59630000D02*
X138370000Y-59630000D01*
X138430000Y-59630000D02*
X138430000Y-62290000D01*
X138430000Y-62290000D02*
X138370000Y-62290000D01*
X139700000Y-59630000D02*
X141030000Y-59630000D01*
X141030000Y-59630000D02*
X141030000Y-60960000D01*
%TO.C,R2*%
X128040000Y-114300000D02*
X128810000Y-114300000D01*
X128810000Y-112930000D02*
X128810000Y-115670000D01*
X128810000Y-115670000D02*
X135350000Y-115670000D01*
X135350000Y-112930000D02*
X128810000Y-112930000D01*
X135350000Y-115670000D02*
X135350000Y-112930000D01*
X136120000Y-114300000D02*
X135350000Y-114300000D01*
%TO.C,D2*%
X125240000Y-120420000D02*
X125240000Y-125960000D01*
X125240000Y-125960000D02*
X133840000Y-125960000D01*
X133840000Y-120420000D02*
X125240000Y-120420000D01*
X133840000Y-122190000D02*
X133840000Y-120420000D01*
X133840000Y-125960000D02*
X133840000Y-124190000D01*
X133840000Y-124190000D02*
G75*
G02*
X133840000Y-122190000I0J1000000D01*
G01*
%TO.C,Q1*%
X127740000Y-45030000D02*
X131340000Y-45030000D01*
X127183600Y-42081193D02*
G75*
G02*
X129540000Y-40580000I2356400J-1098807D01*
G01*
X127740000Y-45030000D02*
G75*
G02*
X127215816Y-44302795I1800000J1850000D01*
G01*
X129540000Y-40580000D02*
G75*
G02*
X131896400Y-42081193I0J-2600000D01*
G01*
X131864184Y-44302795D02*
G75*
G02*
X131340000Y-45030000I-2324184J1122795D01*
G01*
%TO.C,J4*%
X68300000Y-39370000D02*
X78720000Y-39370000D01*
X68300000Y-54490000D02*
X68300000Y-39370000D01*
X68300000Y-54490000D02*
X78720000Y-54490000D01*
X68359000Y-41930000D02*
X69359000Y-41930000D01*
X68359000Y-44430000D02*
X68359000Y-41930000D01*
X68359000Y-44430000D02*
X69359000Y-44430000D01*
X68359000Y-49430000D02*
X69359000Y-49430000D01*
X68359000Y-51930000D02*
X68359000Y-49430000D01*
X68359000Y-51930000D02*
X69359000Y-51930000D01*
X69359000Y-44430000D02*
X69359000Y-41930000D01*
X69359000Y-51930000D02*
X69359000Y-49430000D01*
X70359000Y-54490000D02*
X70359000Y-39370000D01*
X77460000Y-54490000D02*
X77460000Y-39370000D01*
X78060000Y-54490000D02*
X78060000Y-39370000D01*
X78120000Y-54730000D02*
X78960000Y-54730000D01*
X78720000Y-54490000D02*
X78720000Y-39370000D01*
X78960000Y-54730000D02*
X78960000Y-54130000D01*
X72176047Y-51469089D02*
G75*
G02*
X72176000Y-49891000I1483948J789089D01*
G01*
X72870911Y-49196047D02*
G75*
G02*
X74449000Y-49196000I789089J-1483953D01*
G01*
X74449089Y-52163953D02*
G75*
G02*
X72871000Y-52164000I-789089J1483948D01*
G01*
X75143352Y-49891288D02*
G75*
G02*
X75340000Y-50680000I-1483352J-788712D01*
G01*
X75340450Y-50650617D02*
G75*
G02*
X75144000Y-51469000I-1680445J-29385D01*
G01*
X75340000Y-43180000D02*
G75*
G02*
X71980000Y-43180000I-1680000J0D01*
G01*
X71980000Y-43180000D02*
G75*
G02*
X75340000Y-43180000I1680000J0D01*
G01*
%TO.C,J5*%
X140910000Y-118050000D02*
X142240000Y-118050000D01*
X140910000Y-119380000D02*
X140910000Y-118050000D01*
X140910000Y-120650000D02*
X140910000Y-120710000D01*
X140910000Y-120650000D02*
X143570000Y-120650000D01*
X140910000Y-120710000D02*
X143570000Y-120710000D01*
X143570000Y-120650000D02*
X143570000Y-120710000D01*
%TO.C,J1*%
X68300000Y-69910000D02*
X78720000Y-69910000D01*
X68300000Y-85030000D02*
X68300000Y-69910000D01*
X68300000Y-85030000D02*
X78720000Y-85030000D01*
X68359000Y-72470000D02*
X69359000Y-72470000D01*
X68359000Y-74970000D02*
X68359000Y-72470000D01*
X68359000Y-74970000D02*
X69359000Y-74970000D01*
X68359000Y-79970000D02*
X69359000Y-79970000D01*
X68359000Y-82470000D02*
X68359000Y-79970000D01*
X68359000Y-82470000D02*
X69359000Y-82470000D01*
X69359000Y-74970000D02*
X69359000Y-72470000D01*
X69359000Y-82470000D02*
X69359000Y-79970000D01*
X70359000Y-85030000D02*
X70359000Y-69910000D01*
X77460000Y-85030000D02*
X77460000Y-69910000D01*
X78060000Y-85030000D02*
X78060000Y-69910000D01*
X78120000Y-85270000D02*
X78960000Y-85270000D01*
X78720000Y-85030000D02*
X78720000Y-69910000D01*
X78960000Y-85270000D02*
X78960000Y-84670000D01*
X72176047Y-82009089D02*
G75*
G02*
X72176000Y-80431000I1483948J789089D01*
G01*
X72870911Y-79736047D02*
G75*
G02*
X74449000Y-79736000I789089J-1483953D01*
G01*
X74449089Y-82703953D02*
G75*
G02*
X72871000Y-82704000I-789089J1483948D01*
G01*
X75143352Y-80431288D02*
G75*
G02*
X75340000Y-81220000I-1483352J-788712D01*
G01*
X75340450Y-81190617D02*
G75*
G02*
X75144000Y-82009000I-1680445J-29385D01*
G01*
X75340000Y-73720000D02*
G75*
G02*
X71980000Y-73720000I-1680000J0D01*
G01*
X71980000Y-73720000D02*
G75*
G02*
X75340000Y-73720000I1680000J0D01*
G01*
%TO.C,R1*%
X130580000Y-53340000D02*
X131350000Y-53340000D01*
X131350000Y-51970000D02*
X131350000Y-54710000D01*
X131350000Y-54710000D02*
X137890000Y-54710000D01*
X137890000Y-51970000D02*
X131350000Y-51970000D01*
X137890000Y-54710000D02*
X137890000Y-51970000D01*
X138660000Y-53340000D02*
X137890000Y-53340000D01*
%TO.C,K1*%
X84820000Y-40610000D02*
X84820000Y-42580000D01*
X84820000Y-40610000D02*
X114060000Y-40610000D01*
X84820000Y-50080000D02*
X84820000Y-43780000D01*
X84820000Y-51280000D02*
X84820000Y-53250000D01*
X106360000Y-44330000D02*
X108900000Y-44330000D01*
X106360000Y-49410000D02*
X106360000Y-44330000D01*
X107630000Y-43060000D02*
X108900000Y-43060000D01*
X107630000Y-44330000D02*
X107630000Y-43060000D01*
X107630000Y-49410000D02*
X106360000Y-49410000D01*
X107630000Y-50680000D02*
X107630000Y-49410000D01*
X108900000Y-44330000D02*
X108900000Y-49410000D01*
X108900000Y-47505000D02*
X106360000Y-46235000D01*
X108900000Y-49410000D02*
X107630000Y-49410000D01*
X108900000Y-50680000D02*
X107630000Y-50680000D01*
X114060000Y-46530000D02*
X114060000Y-40610000D01*
X114060000Y-47330000D02*
X114060000Y-53250000D01*
X114060000Y-53250000D02*
X84820000Y-53250000D01*
X114399411Y-47130000D02*
X114060000Y-46930000D01*
X114399411Y-46730000D01*
X114399411Y-47130000D01*
G36*
X114399411Y-47130000D02*
G01*
X114060000Y-46930000D01*
X114399411Y-46730000D01*
X114399411Y-47130000D01*
G37*
%TO.C,PS1*%
X82360000Y-69530000D02*
X82360000Y-71530000D01*
X82660000Y-59230000D02*
X82660000Y-84830000D01*
X82660000Y-59230000D02*
X128560000Y-59230000D01*
X82660000Y-84830000D02*
X128560000Y-84830000D01*
X128560000Y-59230000D02*
X128560000Y-84830000D01*
%TO.C,C1*%
X120880000Y-99100000D02*
X120880000Y-99020000D01*
X120920000Y-99963000D02*
X120920000Y-98157000D01*
X120960000Y-100352000D02*
X120960000Y-97768000D01*
X121000000Y-100650000D02*
X121000000Y-97470000D01*
X121040000Y-100900000D02*
X121040000Y-97220000D01*
X121080000Y-101120000D02*
X121080000Y-97000000D01*
X121120000Y-101318000D02*
X121120000Y-96802000D01*
X121160000Y-101500000D02*
X121160000Y-96620000D01*
X121200000Y-101669000D02*
X121200000Y-96451000D01*
X121240000Y-101827000D02*
X121240000Y-96293000D01*
X121280000Y-101976000D02*
X121280000Y-96144000D01*
X121320000Y-102118000D02*
X121320000Y-96002000D01*
X121360000Y-102252000D02*
X121360000Y-95868000D01*
X121400000Y-102381000D02*
X121400000Y-95739000D01*
X121440000Y-102505000D02*
X121440000Y-95615000D01*
X121480000Y-102624000D02*
X121480000Y-95496000D01*
X121520000Y-102739000D02*
X121520000Y-95381000D01*
X121560000Y-102849000D02*
X121560000Y-95271000D01*
X121600000Y-102957000D02*
X121600000Y-95163000D01*
X121640000Y-103061000D02*
X121640000Y-95059000D01*
X121680000Y-103162000D02*
X121680000Y-94958000D01*
X121720000Y-103260000D02*
X121720000Y-94860000D01*
X121760000Y-103356000D02*
X121760000Y-94764000D01*
X121800000Y-103449000D02*
X121800000Y-94671000D01*
X121840000Y-103540000D02*
X121840000Y-94580000D01*
X121880000Y-103629000D02*
X121880000Y-94491000D01*
X121920000Y-103716000D02*
X121920000Y-94404000D01*
X121960000Y-103801000D02*
X121960000Y-94319000D01*
X122000000Y-103884000D02*
X122000000Y-94236000D01*
X122040000Y-103965000D02*
X122040000Y-94155000D01*
X122080000Y-104045000D02*
X122080000Y-94075000D01*
X122120000Y-104123000D02*
X122120000Y-93997000D01*
X122160000Y-104200000D02*
X122160000Y-93920000D01*
X122200000Y-104275000D02*
X122200000Y-93845000D01*
X122240000Y-104349000D02*
X122240000Y-93771000D01*
X122280000Y-104422000D02*
X122280000Y-93698000D01*
X122320000Y-104493000D02*
X122320000Y-93627000D01*
X122360000Y-104563000D02*
X122360000Y-93557000D01*
X122400000Y-104632000D02*
X122400000Y-93488000D01*
X122440000Y-104700000D02*
X122440000Y-93420000D01*
X122480000Y-104767000D02*
X122480000Y-93353000D01*
X122520000Y-104833000D02*
X122520000Y-93287000D01*
X122560000Y-104898000D02*
X122560000Y-93222000D01*
X122600000Y-104961000D02*
X122600000Y-93159000D01*
X122640000Y-105024000D02*
X122640000Y-93096000D01*
X122680000Y-105086000D02*
X122680000Y-93034000D01*
X122720000Y-105147000D02*
X122720000Y-92973000D01*
X122760000Y-105207000D02*
X122760000Y-92913000D01*
X122800000Y-105267000D02*
X122800000Y-92853000D01*
X122840000Y-105325000D02*
X122840000Y-92795000D01*
X122880000Y-105383000D02*
X122880000Y-92737000D01*
X122920000Y-105440000D02*
X122920000Y-92680000D01*
X122960000Y-105496000D02*
X122960000Y-92624000D01*
X123000000Y-105552000D02*
X123000000Y-92568000D01*
X123040000Y-105606000D02*
X123040000Y-92514000D01*
X123080000Y-105660000D02*
X123080000Y-92460000D01*
X123120000Y-105714000D02*
X123120000Y-92406000D01*
X123160000Y-105767000D02*
X123160000Y-92353000D01*
X123200000Y-105819000D02*
X123200000Y-92301000D01*
X123240000Y-105870000D02*
X123240000Y-92250000D01*
X123280000Y-105921000D02*
X123280000Y-92199000D01*
X123320000Y-105971000D02*
X123320000Y-92149000D01*
X123360000Y-106021000D02*
X123360000Y-92099000D01*
X123400000Y-106070000D02*
X123400000Y-92050000D01*
X123440000Y-106118000D02*
X123440000Y-92002000D01*
X123480000Y-106166000D02*
X123480000Y-91954000D01*
X123520000Y-106214000D02*
X123520000Y-91906000D01*
X123560000Y-106261000D02*
X123560000Y-91859000D01*
X123600000Y-106307000D02*
X123600000Y-91813000D01*
X123640000Y-106353000D02*
X123640000Y-91767000D01*
X123680000Y-106398000D02*
X123680000Y-91722000D01*
X123720000Y-106443000D02*
X123720000Y-91677000D01*
X123760000Y-106488000D02*
X123760000Y-91632000D01*
X123800000Y-106531000D02*
X123800000Y-91589000D01*
X123839000Y-106575000D02*
X123839000Y-91545000D01*
X123879000Y-106618000D02*
X123879000Y-91502000D01*
X123919000Y-106660000D02*
X123919000Y-91460000D01*
X123959000Y-106702000D02*
X123959000Y-91418000D01*
X123999000Y-106744000D02*
X123999000Y-91376000D01*
X124039000Y-106785000D02*
X124039000Y-91335000D01*
X124079000Y-106826000D02*
X124079000Y-91294000D01*
X124119000Y-106867000D02*
X124119000Y-91253000D01*
X124159000Y-106906000D02*
X124159000Y-91214000D01*
X124199000Y-106946000D02*
X124199000Y-91174000D01*
X124239000Y-106985000D02*
X124239000Y-91135000D01*
X124279000Y-107024000D02*
X124279000Y-91096000D01*
X124319000Y-107062000D02*
X124319000Y-91058000D01*
X124359000Y-107100000D02*
X124359000Y-91020000D01*
X124399000Y-107138000D02*
X124399000Y-90982000D01*
X124439000Y-107175000D02*
X124439000Y-90945000D01*
X124479000Y-107212000D02*
X124479000Y-90908000D01*
X124519000Y-107249000D02*
X124519000Y-90871000D01*
X124559000Y-107285000D02*
X124559000Y-90835000D01*
X124599000Y-107321000D02*
X124599000Y-90799000D01*
X124639000Y-107356000D02*
X124639000Y-90764000D01*
X124679000Y-107391000D02*
X124679000Y-90729000D01*
X124719000Y-107426000D02*
X124719000Y-90694000D01*
X124759000Y-107461000D02*
X124759000Y-90659000D01*
X124799000Y-96820000D02*
X124799000Y-90625000D01*
X124799000Y-107495000D02*
X124799000Y-101300000D01*
X124839000Y-96820000D02*
X124839000Y-90591000D01*
X124839000Y-107529000D02*
X124839000Y-101300000D01*
X124879000Y-96820000D02*
X124879000Y-90558000D01*
X124879000Y-107562000D02*
X124879000Y-101300000D01*
X124919000Y-96820000D02*
X124919000Y-90525000D01*
X124919000Y-107595000D02*
X124919000Y-101300000D01*
X124959000Y-96820000D02*
X124959000Y-90492000D01*
X124959000Y-107628000D02*
X124959000Y-101300000D01*
X124999000Y-96820000D02*
X124999000Y-90459000D01*
X124999000Y-107661000D02*
X124999000Y-101300000D01*
X125039000Y-96820000D02*
X125039000Y-90427000D01*
X125039000Y-107693000D02*
X125039000Y-101300000D01*
X125079000Y-96820000D02*
X125079000Y-90395000D01*
X125079000Y-107725000D02*
X125079000Y-101300000D01*
X125119000Y-96820000D02*
X125119000Y-90363000D01*
X125119000Y-107757000D02*
X125119000Y-101300000D01*
X125159000Y-96820000D02*
X125159000Y-90332000D01*
X125159000Y-107788000D02*
X125159000Y-101300000D01*
X125199000Y-96820000D02*
X125199000Y-90301000D01*
X125199000Y-107819000D02*
X125199000Y-101300000D01*
X125239000Y-96820000D02*
X125239000Y-90270000D01*
X125239000Y-107850000D02*
X125239000Y-101300000D01*
X125279000Y-96820000D02*
X125279000Y-90240000D01*
X125279000Y-107880000D02*
X125279000Y-101300000D01*
X125319000Y-96820000D02*
X125319000Y-90210000D01*
X125319000Y-107910000D02*
X125319000Y-101300000D01*
X125359000Y-96820000D02*
X125359000Y-90180000D01*
X125359000Y-107940000D02*
X125359000Y-101300000D01*
X125399000Y-96820000D02*
X125399000Y-90150000D01*
X125399000Y-107970000D02*
X125399000Y-101300000D01*
X125439000Y-96820000D02*
X125439000Y-90121000D01*
X125439000Y-107999000D02*
X125439000Y-101300000D01*
X125479000Y-96820000D02*
X125479000Y-90092000D01*
X125479000Y-108028000D02*
X125479000Y-101300000D01*
X125519000Y-96820000D02*
X125519000Y-90063000D01*
X125519000Y-108057000D02*
X125519000Y-101300000D01*
X125559000Y-96820000D02*
X125559000Y-90034000D01*
X125559000Y-108086000D02*
X125559000Y-101300000D01*
X125599000Y-96820000D02*
X125599000Y-90006000D01*
X125599000Y-108114000D02*
X125599000Y-101300000D01*
X125639000Y-96820000D02*
X125639000Y-89978000D01*
X125639000Y-108142000D02*
X125639000Y-101300000D01*
X125679000Y-96820000D02*
X125679000Y-89950000D01*
X125679000Y-108170000D02*
X125679000Y-101300000D01*
X125719000Y-96820000D02*
X125719000Y-89923000D01*
X125719000Y-108197000D02*
X125719000Y-101300000D01*
X125759000Y-96820000D02*
X125759000Y-89895000D01*
X125759000Y-108225000D02*
X125759000Y-101300000D01*
X125799000Y-96820000D02*
X125799000Y-89868000D01*
X125799000Y-108252000D02*
X125799000Y-101300000D01*
X125839000Y-96820000D02*
X125839000Y-89842000D01*
X125839000Y-108278000D02*
X125839000Y-101300000D01*
X125879000Y-96820000D02*
X125879000Y-89815000D01*
X125879000Y-108305000D02*
X125879000Y-101300000D01*
X125919000Y-96820000D02*
X125919000Y-89789000D01*
X125919000Y-108331000D02*
X125919000Y-101300000D01*
X125959000Y-96820000D02*
X125959000Y-89763000D01*
X125959000Y-108357000D02*
X125959000Y-101300000D01*
X125999000Y-96820000D02*
X125999000Y-89737000D01*
X125999000Y-108383000D02*
X125999000Y-101300000D01*
X126039000Y-96820000D02*
X126039000Y-89712000D01*
X126039000Y-108408000D02*
X126039000Y-101300000D01*
X126079000Y-96820000D02*
X126079000Y-89686000D01*
X126079000Y-108434000D02*
X126079000Y-101300000D01*
X126119000Y-96820000D02*
X126119000Y-89661000D01*
X126119000Y-108459000D02*
X126119000Y-101300000D01*
X126159000Y-96820000D02*
X126159000Y-89636000D01*
X126159000Y-108484000D02*
X126159000Y-101300000D01*
X126199000Y-96820000D02*
X126199000Y-89612000D01*
X126199000Y-108508000D02*
X126199000Y-101300000D01*
X126239000Y-96820000D02*
X126239000Y-89588000D01*
X126239000Y-108532000D02*
X126239000Y-101300000D01*
X126279000Y-96820000D02*
X126279000Y-89563000D01*
X126279000Y-108557000D02*
X126279000Y-101300000D01*
X126319000Y-96820000D02*
X126319000Y-89540000D01*
X126319000Y-108580000D02*
X126319000Y-101300000D01*
X126359000Y-96820000D02*
X126359000Y-89516000D01*
X126359000Y-108604000D02*
X126359000Y-101300000D01*
X126399000Y-96820000D02*
X126399000Y-89493000D01*
X126399000Y-108627000D02*
X126399000Y-101300000D01*
X126439000Y-96820000D02*
X126439000Y-89469000D01*
X126439000Y-108651000D02*
X126439000Y-101300000D01*
X126479000Y-96820000D02*
X126479000Y-89446000D01*
X126479000Y-108674000D02*
X126479000Y-101300000D01*
X126519000Y-96820000D02*
X126519000Y-89424000D01*
X126519000Y-108696000D02*
X126519000Y-101300000D01*
X126559000Y-96820000D02*
X126559000Y-89401000D01*
X126559000Y-108719000D02*
X126559000Y-101300000D01*
X126599000Y-96820000D02*
X126599000Y-89379000D01*
X126599000Y-108741000D02*
X126599000Y-101300000D01*
X126639000Y-96820000D02*
X126639000Y-89357000D01*
X126639000Y-108763000D02*
X126639000Y-101300000D01*
X126679000Y-96820000D02*
X126679000Y-89335000D01*
X126679000Y-108785000D02*
X126679000Y-101300000D01*
X126719000Y-96820000D02*
X126719000Y-89313000D01*
X126719000Y-108807000D02*
X126719000Y-101300000D01*
X126759000Y-96820000D02*
X126759000Y-89292000D01*
X126759000Y-108828000D02*
X126759000Y-101300000D01*
X126799000Y-96820000D02*
X126799000Y-89270000D01*
X126799000Y-108850000D02*
X126799000Y-101300000D01*
X126839000Y-96820000D02*
X126839000Y-89249000D01*
X126839000Y-108871000D02*
X126839000Y-101300000D01*
X126879000Y-96820000D02*
X126879000Y-89228000D01*
X126879000Y-108892000D02*
X126879000Y-101300000D01*
X126919000Y-96820000D02*
X126919000Y-89208000D01*
X126919000Y-108912000D02*
X126919000Y-101300000D01*
X126959000Y-96820000D02*
X126959000Y-89187000D01*
X126959000Y-108933000D02*
X126959000Y-101300000D01*
X126999000Y-96820000D02*
X126999000Y-89167000D01*
X126999000Y-108953000D02*
X126999000Y-101300000D01*
X127039000Y-96820000D02*
X127039000Y-89147000D01*
X127039000Y-108973000D02*
X127039000Y-101300000D01*
X127079000Y-96820000D02*
X127079000Y-89127000D01*
X127079000Y-108993000D02*
X127079000Y-101300000D01*
X127119000Y-96820000D02*
X127119000Y-89108000D01*
X127119000Y-109012000D02*
X127119000Y-101300000D01*
X127159000Y-96820000D02*
X127159000Y-89088000D01*
X127159000Y-109032000D02*
X127159000Y-101300000D01*
X127199000Y-96820000D02*
X127199000Y-89069000D01*
X127199000Y-109051000D02*
X127199000Y-101300000D01*
X127239000Y-96820000D02*
X127239000Y-89050000D01*
X127239000Y-109070000D02*
X127239000Y-101300000D01*
X127279000Y-96820000D02*
X127279000Y-89031000D01*
X127279000Y-109089000D02*
X127279000Y-101300000D01*
X127319000Y-96820000D02*
X127319000Y-89012000D01*
X127319000Y-109108000D02*
X127319000Y-101300000D01*
X127359000Y-96820000D02*
X127359000Y-88994000D01*
X127359000Y-109126000D02*
X127359000Y-101300000D01*
X127399000Y-96820000D02*
X127399000Y-88976000D01*
X127399000Y-109144000D02*
X127399000Y-101300000D01*
X127439000Y-96820000D02*
X127439000Y-88957000D01*
X127439000Y-109163000D02*
X127439000Y-101300000D01*
X127479000Y-96820000D02*
X127479000Y-88940000D01*
X127479000Y-109180000D02*
X127479000Y-101300000D01*
X127519000Y-96820000D02*
X127519000Y-88922000D01*
X127519000Y-109198000D02*
X127519000Y-101300000D01*
X127559000Y-96820000D02*
X127559000Y-88904000D01*
X127559000Y-109216000D02*
X127559000Y-101300000D01*
X127599000Y-96820000D02*
X127599000Y-88887000D01*
X127599000Y-109233000D02*
X127599000Y-101300000D01*
X127639000Y-96820000D02*
X127639000Y-88870000D01*
X127639000Y-109250000D02*
X127639000Y-101300000D01*
X127679000Y-96820000D02*
X127679000Y-88853000D01*
X127679000Y-109267000D02*
X127679000Y-101300000D01*
X127719000Y-96820000D02*
X127719000Y-88836000D01*
X127719000Y-109284000D02*
X127719000Y-101300000D01*
X127759000Y-96820000D02*
X127759000Y-88820000D01*
X127759000Y-109300000D02*
X127759000Y-101300000D01*
X127799000Y-96820000D02*
X127799000Y-88803000D01*
X127799000Y-109317000D02*
X127799000Y-101300000D01*
X127839000Y-96820000D02*
X127839000Y-88787000D01*
X127839000Y-109333000D02*
X127839000Y-101300000D01*
X127879000Y-96820000D02*
X127879000Y-88771000D01*
X127879000Y-109349000D02*
X127879000Y-101300000D01*
X127919000Y-96820000D02*
X127919000Y-88755000D01*
X127919000Y-109365000D02*
X127919000Y-101300000D01*
X127959000Y-96820000D02*
X127959000Y-88739000D01*
X127959000Y-109381000D02*
X127959000Y-101300000D01*
X127999000Y-96820000D02*
X127999000Y-88724000D01*
X127999000Y-109396000D02*
X127999000Y-101300000D01*
X128039000Y-96820000D02*
X128039000Y-88709000D01*
X128039000Y-109411000D02*
X128039000Y-101300000D01*
X128079000Y-96820000D02*
X128079000Y-88693000D01*
X128079000Y-109427000D02*
X128079000Y-101300000D01*
X128119000Y-96820000D02*
X128119000Y-88678000D01*
X128119000Y-109442000D02*
X128119000Y-101300000D01*
X128159000Y-96820000D02*
X128159000Y-88664000D01*
X128159000Y-109456000D02*
X128159000Y-101300000D01*
X128199000Y-96820000D02*
X128199000Y-88649000D01*
X128199000Y-109471000D02*
X128199000Y-101300000D01*
X128239000Y-96820000D02*
X128239000Y-88634000D01*
X128239000Y-109486000D02*
X128239000Y-101300000D01*
X128279000Y-96820000D02*
X128279000Y-88620000D01*
X128279000Y-109500000D02*
X128279000Y-101300000D01*
X128319000Y-96820000D02*
X128319000Y-88606000D01*
X128319000Y-109514000D02*
X128319000Y-101300000D01*
X128359000Y-96820000D02*
X128359000Y-88592000D01*
X128359000Y-109528000D02*
X128359000Y-101300000D01*
X128399000Y-96820000D02*
X128399000Y-88578000D01*
X128399000Y-109542000D02*
X128399000Y-101300000D01*
X128439000Y-96820000D02*
X128439000Y-88565000D01*
X128439000Y-109555000D02*
X128439000Y-101300000D01*
X128479000Y-96820000D02*
X128479000Y-88551000D01*
X128479000Y-109569000D02*
X128479000Y-101300000D01*
X128519000Y-96820000D02*
X128519000Y-88538000D01*
X128519000Y-109582000D02*
X128519000Y-101300000D01*
X128559000Y-96820000D02*
X128559000Y-88525000D01*
X128559000Y-109595000D02*
X128559000Y-101300000D01*
X128599000Y-96820000D02*
X128599000Y-88512000D01*
X128599000Y-109608000D02*
X128599000Y-101300000D01*
X128639000Y-96820000D02*
X128639000Y-88499000D01*
X128639000Y-109621000D02*
X128639000Y-101300000D01*
X128679000Y-96820000D02*
X128679000Y-88487000D01*
X128679000Y-109633000D02*
X128679000Y-101300000D01*
X128719000Y-96820000D02*
X128719000Y-88474000D01*
X128719000Y-109646000D02*
X128719000Y-101300000D01*
X128759000Y-96820000D02*
X128759000Y-88462000D01*
X128759000Y-109658000D02*
X128759000Y-101300000D01*
X128799000Y-96820000D02*
X128799000Y-88450000D01*
X128799000Y-109670000D02*
X128799000Y-101300000D01*
X128839000Y-96820000D02*
X128839000Y-88438000D01*
X128839000Y-109682000D02*
X128839000Y-101300000D01*
X128879000Y-96820000D02*
X128879000Y-88426000D01*
X128879000Y-109694000D02*
X128879000Y-101300000D01*
X128919000Y-96820000D02*
X128919000Y-88415000D01*
X128919000Y-109705000D02*
X128919000Y-101300000D01*
X128959000Y-96820000D02*
X128959000Y-88403000D01*
X128959000Y-109717000D02*
X128959000Y-101300000D01*
X128999000Y-96820000D02*
X128999000Y-88392000D01*
X128999000Y-109728000D02*
X128999000Y-101300000D01*
X129039000Y-96820000D02*
X129039000Y-88381000D01*
X129039000Y-109739000D02*
X129039000Y-101300000D01*
X129079000Y-96820000D02*
X129079000Y-88370000D01*
X129079000Y-109750000D02*
X129079000Y-101300000D01*
X129119000Y-96820000D02*
X129119000Y-88359000D01*
X129119000Y-109761000D02*
X129119000Y-101300000D01*
X129159000Y-96820000D02*
X129159000Y-88348000D01*
X129159000Y-109772000D02*
X129159000Y-101300000D01*
X129199000Y-96820000D02*
X129199000Y-88338000D01*
X129199000Y-109782000D02*
X129199000Y-101300000D01*
X129239000Y-96820000D02*
X129239000Y-88327000D01*
X129239000Y-109793000D02*
X129239000Y-101300000D01*
X129279000Y-109803000D02*
X129279000Y-88317000D01*
X129319000Y-109813000D02*
X129319000Y-88307000D01*
X129359000Y-109823000D02*
X129359000Y-88297000D01*
X129399000Y-109832000D02*
X129399000Y-88288000D01*
X129439000Y-109842000D02*
X129439000Y-88278000D01*
X129479000Y-109851000D02*
X129479000Y-88269000D01*
X129519000Y-109860000D02*
X129519000Y-88260000D01*
X129559000Y-109869000D02*
X129559000Y-88251000D01*
X129599000Y-109878000D02*
X129599000Y-88242000D01*
X129639000Y-109887000D02*
X129639000Y-88233000D01*
X129679000Y-109896000D02*
X129679000Y-88224000D01*
X129719000Y-109904000D02*
X129719000Y-88216000D01*
X129759000Y-109913000D02*
X129759000Y-88207000D01*
X129799000Y-109921000D02*
X129799000Y-88199000D01*
X129839000Y-109929000D02*
X129839000Y-88191000D01*
X129879000Y-109937000D02*
X129879000Y-88183000D01*
X129919000Y-109944000D02*
X129919000Y-88176000D01*
X129959000Y-109952000D02*
X129959000Y-88168000D01*
X129999000Y-109959000D02*
X129999000Y-88161000D01*
X130039000Y-109966000D02*
X130039000Y-88154000D01*
X130079000Y-109973000D02*
X130079000Y-88147000D01*
X130119000Y-109980000D02*
X130119000Y-88140000D01*
X130159000Y-109987000D02*
X130159000Y-88133000D01*
X130199000Y-109994000D02*
X130199000Y-88126000D01*
X130239000Y-110000000D02*
X130239000Y-88120000D01*
X130279000Y-110007000D02*
X130279000Y-88113000D01*
X130319000Y-110013000D02*
X130319000Y-88107000D01*
X130359000Y-110019000D02*
X130359000Y-88101000D01*
X130399000Y-110025000D02*
X130399000Y-88095000D01*
X130439000Y-110031000D02*
X130439000Y-88089000D01*
X130479000Y-110036000D02*
X130479000Y-88084000D01*
X130519000Y-110042000D02*
X130519000Y-88078000D01*
X130559000Y-110047000D02*
X130559000Y-88073000D01*
X130599000Y-110052000D02*
X130599000Y-88068000D01*
X130639000Y-110057000D02*
X130639000Y-88063000D01*
X130679000Y-110062000D02*
X130679000Y-88058000D01*
X130719000Y-110067000D02*
X130719000Y-88053000D01*
X130759000Y-110071000D02*
X130759000Y-88049000D01*
X130799000Y-110076000D02*
X130799000Y-88044000D01*
X130839000Y-110080000D02*
X130839000Y-88040000D01*
X130879000Y-110084000D02*
X130879000Y-88036000D01*
X130919000Y-110088000D02*
X130919000Y-88032000D01*
X130959000Y-110092000D02*
X130959000Y-88028000D01*
X130999000Y-110095000D02*
X130999000Y-88025000D01*
X131039000Y-110099000D02*
X131039000Y-88021000D01*
X131079000Y-110102000D02*
X131079000Y-88018000D01*
X131119000Y-110106000D02*
X131119000Y-88014000D01*
X131159000Y-110109000D02*
X131159000Y-88011000D01*
X131199000Y-110112000D02*
X131199000Y-88008000D01*
X131239000Y-110114000D02*
X131239000Y-88006000D01*
X131279000Y-110117000D02*
X131279000Y-88003000D01*
X131320000Y-110120000D02*
X131320000Y-88000000D01*
X131360000Y-110122000D02*
X131360000Y-87998000D01*
X131400000Y-110124000D02*
X131400000Y-87996000D01*
X131440000Y-110126000D02*
X131440000Y-87994000D01*
X131480000Y-110128000D02*
X131480000Y-87992000D01*
X131520000Y-110130000D02*
X131520000Y-87990000D01*
X131560000Y-110132000D02*
X131560000Y-87988000D01*
X131600000Y-110133000D02*
X131600000Y-87987000D01*
X131640000Y-110135000D02*
X131640000Y-87985000D01*
X131680000Y-110136000D02*
X131680000Y-87984000D01*
X131720000Y-110137000D02*
X131720000Y-87983000D01*
X131760000Y-110138000D02*
X131760000Y-87982000D01*
X131800000Y-110139000D02*
X131800000Y-87981000D01*
X131840000Y-110139000D02*
X131840000Y-87981000D01*
X131880000Y-110140000D02*
X131880000Y-87980000D01*
X131920000Y-110140000D02*
X131920000Y-87980000D01*
X131960000Y-110140000D02*
X131960000Y-87980000D01*
X132000000Y-110141000D02*
X132000000Y-87979000D01*
X142799337Y-106395000D02*
X142799337Y-104195000D01*
X143899337Y-105295000D02*
X141699337Y-105295000D01*
X143120000Y-99060000D02*
G75*
G02*
X120880000Y-99060000I-11120000J0D01*
G01*
X120880000Y-99060000D02*
G75*
G02*
X143120000Y-99060000I11120000J0D01*
G01*
%TO.C,D1*%
X115370000Y-44270000D02*
X115500000Y-44270000D01*
X115370000Y-48690000D02*
X118310000Y-48690000D01*
X115370000Y-48810000D02*
X118310000Y-48810000D01*
X115370000Y-48930000D02*
X118310000Y-48930000D01*
X115370000Y-49710000D02*
X115370000Y-44270000D01*
X115500000Y-49710000D02*
X115370000Y-49710000D01*
X118180000Y-49710000D02*
X118310000Y-49710000D01*
X118310000Y-44270000D02*
X118180000Y-44270000D01*
X118310000Y-49710000D02*
X118310000Y-44270000D01*
%TD*%
M02*
