M48
; DRILL file {KiCad 8.0.6} date 2025-01-21T14:29:21+0100
; FORMAT={-:-/ absolute / inch / decimal}
; #@! TF.CreationDate,2025-01-21T14:29:21+01:00
; #@! TF.GenerationSoftware,Kicad,Pcbnew,8.0.6
; #@! TF.FileFunction,Plated,1,2,PTH
FMAT,2
INCH
; #@! TA.AperFunction,Plated,PTH,ViaDrill
T1C0.0315
; #@! TA.AperFunction,Plated,PTH,ComponentDrill
T2C0.0315
; #@! TA.AperFunction,Plated,PTH,ComponentDrill
T3C0.0394
; #@! TA.AperFunction,Plated,PTH,ComponentDrill
T4C0.0433
; #@! TA.AperFunction,Plated,PTH,ComponentDrill
T5C0.0469
; #@! TA.AperFunction,Plated,PTH,ComponentDrill
T6C0.0512
; #@! TA.AperFunction,Plated,PTH,ComponentDrill
T7C0.0591
; #@! TA.AperFunction,Plated,PTH,ComponentDrill
T8C0.0669
; #@! TA.AperFunction,Plated,PTH,ComponentDrill
T9C0.0787
%
G90
G05
T1
X3.2Y-3.1976
X3.6Y-1.5
T2
X4.9945Y-4.7
X4.9945Y-5.0
X5.0Y-1.7
X5.0Y-4.5
X5.1Y-1.7
X5.1Y-2.1
X5.1945Y-4.7
X5.1945Y-5.0
X5.2Y-1.7
X5.4Y-4.5
X5.5Y-2.1
T3
X5.5Y-2.4
X5.6Y-4.7
T4
X4.6Y-1.7
X4.6Y-2.0
T5
X5.4Y-2.9
X5.5Y-2.9
T6
X2.9Y-1.7
X2.9Y-1.9953
X2.9Y-2.9024
X2.9Y-3.1976
T7
X3.4Y-2.7768
X3.4Y-3.2
X3.4031Y-1.7
X3.4031Y-1.9953
X3.4063Y-3.8079
X3.4063Y-4.7921
X3.6Y-1.7
X3.6Y-1.9953
X3.6031Y-4.7921
X3.7969Y-1.7
X3.7969Y-1.9953
X3.9969Y-4.7921
X4.1937Y-4.7921
X4.2063Y-3.8079
X4.3874Y-1.7
X4.3874Y-1.9953
X4.9157Y-2.885
X4.9157Y-3.2
T8
X3.7339Y-5.3
X4.0Y-5.3
X4.2866Y-5.3
X4.5528Y-5.3
T9
X5.0Y-3.9
X5.3937Y-3.9
M30
