%TF.GenerationSoftware,KiCad,Pcbnew,8.0.6*%
%TF.CreationDate,2025-01-21T14:29:24+01:00*%
%TF.ProjectId,Stromversorgung,5374726f-6d76-4657-9273-6f7267756e67,rev?*%
%TF.SameCoordinates,Original*%
%TF.FileFunction,Drillmap*%
%TF.FilePolarity,Positive*%
%FSLAX45Y45*%
G04 Gerber Fmt 4.5, Leading zero omitted, Abs format (unit mm)*
G04 Created by KiCad (PCBNEW 8.0.6) date 2025-01-21 14:29:24*
%MOMM*%
%LPD*%
G01*
G04 APERTURE LIST*
%ADD10C,0.200000*%
%ADD11C,0.100000*%
%ADD12C,0.110000*%
%ADD13C,0.119000*%
%ADD14C,0.130000*%
%ADD15C,0.150000*%
%ADD16C,0.170000*%
G04 APERTURE END LIST*
D10*
X6604000Y-3556000D02*
X14732000Y-3556000D01*
X14732000Y-13970000D01*
X6604000Y-13970000D01*
X6604000Y-3556000D01*
D11*
X8088000Y-8082000D02*
X8168000Y-8162000D01*
X8168000Y-8082000D02*
X8088000Y-8162000D01*
X9104000Y-3770000D02*
X9184000Y-3850000D01*
X9184000Y-3770000D02*
X9104000Y-3850000D01*
X12726000Y-11938000D02*
G75*
G02*
X12646000Y-11938000I-40000J0D01*
G01*
X12646000Y-11938000D02*
G75*
G02*
X12726000Y-11938000I40000J0D01*
G01*
X12726000Y-12700000D02*
G75*
G02*
X12646000Y-12700000I-40000J0D01*
G01*
X12646000Y-12700000D02*
G75*
G02*
X12726000Y-12700000I40000J0D01*
G01*
X12740000Y-4318000D02*
G75*
G02*
X12660000Y-4318000I-40000J0D01*
G01*
X12660000Y-4318000D02*
G75*
G02*
X12740000Y-4318000I40000J0D01*
G01*
X12740000Y-11430000D02*
G75*
G02*
X12660000Y-11430000I-40000J0D01*
G01*
X12660000Y-11430000D02*
G75*
G02*
X12740000Y-11430000I40000J0D01*
G01*
X12994000Y-4318000D02*
G75*
G02*
X12914000Y-4318000I-40000J0D01*
G01*
X12914000Y-4318000D02*
G75*
G02*
X12994000Y-4318000I40000J0D01*
G01*
X12994000Y-5334000D02*
G75*
G02*
X12914000Y-5334000I-40000J0D01*
G01*
X12914000Y-5334000D02*
G75*
G02*
X12994000Y-5334000I40000J0D01*
G01*
X13234000Y-11938000D02*
G75*
G02*
X13154000Y-11938000I-40000J0D01*
G01*
X13154000Y-11938000D02*
G75*
G02*
X13234000Y-11938000I40000J0D01*
G01*
X13234000Y-12700000D02*
G75*
G02*
X13154000Y-12700000I-40000J0D01*
G01*
X13154000Y-12700000D02*
G75*
G02*
X13234000Y-12700000I40000J0D01*
G01*
X13248000Y-4318000D02*
G75*
G02*
X13168000Y-4318000I-40000J0D01*
G01*
X13168000Y-4318000D02*
G75*
G02*
X13248000Y-4318000I40000J0D01*
G01*
X13756000Y-11430000D02*
G75*
G02*
X13676000Y-11430000I-40000J0D01*
G01*
X13676000Y-11430000D02*
G75*
G02*
X13756000Y-11430000I40000J0D01*
G01*
X14010000Y-5334000D02*
G75*
G02*
X13930000Y-5334000I-40000J0D01*
G01*
X13930000Y-5334000D02*
G75*
G02*
X14010000Y-5334000I40000J0D01*
G01*
X13970000Y-6046000D02*
X13970000Y-6146000D01*
X13920000Y-6096000D02*
X14020000Y-6096000D01*
X14224000Y-11888000D02*
X14224000Y-11988000D01*
X14174000Y-11938000D02*
X14274000Y-11938000D01*
D12*
X11722891Y-4356891D02*
X11722891Y-4279109D01*
X11645109Y-4279109D01*
X11645109Y-4356891D01*
X11722891Y-4356891D01*
X11722891Y-5118891D02*
X11722891Y-5041109D01*
X11645109Y-5041109D01*
X11645109Y-5118891D01*
X11722891Y-5118891D01*
D13*
X13716000Y-7425500D02*
X13775500Y-7366000D01*
X13716000Y-7306500D01*
X13656500Y-7366000D01*
X13716000Y-7425500D01*
X13970000Y-7425500D02*
X14029500Y-7366000D01*
X13970000Y-7306500D01*
X13910500Y-7366000D01*
X13970000Y-7425500D01*
D14*
X7301000Y-4253000D02*
X7431000Y-4383000D01*
X7431000Y-4253000D02*
X7301000Y-4383000D01*
X7431000Y-4318000D02*
G75*
G02*
X7301000Y-4318000I-65000J0D01*
G01*
X7301000Y-4318000D02*
G75*
G02*
X7431000Y-4318000I65000J0D01*
G01*
X7301000Y-5003000D02*
X7431000Y-5133000D01*
X7431000Y-5003000D02*
X7301000Y-5133000D01*
X7431000Y-5068000D02*
G75*
G02*
X7301000Y-5068000I-65000J0D01*
G01*
X7301000Y-5068000D02*
G75*
G02*
X7431000Y-5068000I65000J0D01*
G01*
X7301000Y-7307000D02*
X7431000Y-7437000D01*
X7431000Y-7307000D02*
X7301000Y-7437000D01*
X7431000Y-7372000D02*
G75*
G02*
X7301000Y-7372000I-65000J0D01*
G01*
X7301000Y-7372000D02*
G75*
G02*
X7431000Y-7372000I65000J0D01*
G01*
X7301000Y-8057000D02*
X7431000Y-8187000D01*
X7431000Y-8057000D02*
X7301000Y-8187000D01*
X7431000Y-8122000D02*
G75*
G02*
X7301000Y-8122000I-65000J0D01*
G01*
X7301000Y-8122000D02*
G75*
G02*
X7431000Y-8122000I65000J0D01*
G01*
D15*
X8561000Y-6978000D02*
X8711000Y-7128000D01*
X8711000Y-6978000D02*
X8561000Y-7128000D01*
X8636000Y-6978000D02*
X8636000Y-7128000D01*
X8561000Y-7053000D02*
X8711000Y-7053000D01*
X8561000Y-8053000D02*
X8711000Y-8203000D01*
X8711000Y-8053000D02*
X8561000Y-8203000D01*
X8636000Y-8053000D02*
X8636000Y-8203000D01*
X8561000Y-8128000D02*
X8711000Y-8128000D01*
X8569000Y-4243000D02*
X8719000Y-4393000D01*
X8719000Y-4243000D02*
X8569000Y-4393000D01*
X8644000Y-4243000D02*
X8644000Y-4393000D01*
X8569000Y-4318000D02*
X8719000Y-4318000D01*
X8569000Y-4993000D02*
X8719000Y-5143000D01*
X8719000Y-4993000D02*
X8569000Y-5143000D01*
X8644000Y-4993000D02*
X8644000Y-5143000D01*
X8569000Y-5068000D02*
X8719000Y-5068000D01*
X8577000Y-9597000D02*
X8727000Y-9747000D01*
X8727000Y-9597000D02*
X8577000Y-9747000D01*
X8652000Y-9597000D02*
X8652000Y-9747000D01*
X8577000Y-9672000D02*
X8727000Y-9672000D01*
X8577000Y-12097000D02*
X8727000Y-12247000D01*
X8727000Y-12097000D02*
X8577000Y-12247000D01*
X8652000Y-12097000D02*
X8652000Y-12247000D01*
X8577000Y-12172000D02*
X8727000Y-12172000D01*
X9069000Y-4243000D02*
X9219000Y-4393000D01*
X9219000Y-4243000D02*
X9069000Y-4393000D01*
X9144000Y-4243000D02*
X9144000Y-4393000D01*
X9069000Y-4318000D02*
X9219000Y-4318000D01*
X9069000Y-4993000D02*
X9219000Y-5143000D01*
X9219000Y-4993000D02*
X9069000Y-5143000D01*
X9144000Y-4993000D02*
X9144000Y-5143000D01*
X9069000Y-5068000D02*
X9219000Y-5068000D01*
X9077000Y-12097000D02*
X9227000Y-12247000D01*
X9227000Y-12097000D02*
X9077000Y-12247000D01*
X9152000Y-12097000D02*
X9152000Y-12247000D01*
X9077000Y-12172000D02*
X9227000Y-12172000D01*
X9569000Y-4243000D02*
X9719000Y-4393000D01*
X9719000Y-4243000D02*
X9569000Y-4393000D01*
X9644000Y-4243000D02*
X9644000Y-4393000D01*
X9569000Y-4318000D02*
X9719000Y-4318000D01*
X9569000Y-4993000D02*
X9719000Y-5143000D01*
X9719000Y-4993000D02*
X9569000Y-5143000D01*
X9644000Y-4993000D02*
X9644000Y-5143000D01*
X9569000Y-5068000D02*
X9719000Y-5068000D01*
X10077000Y-12097000D02*
X10227000Y-12247000D01*
X10227000Y-12097000D02*
X10077000Y-12247000D01*
X10152000Y-12097000D02*
X10152000Y-12247000D01*
X10077000Y-12172000D02*
X10227000Y-12172000D01*
X10577000Y-12097000D02*
X10727000Y-12247000D01*
X10727000Y-12097000D02*
X10577000Y-12247000D01*
X10652000Y-12097000D02*
X10652000Y-12247000D01*
X10577000Y-12172000D02*
X10727000Y-12172000D01*
X10609000Y-9597000D02*
X10759000Y-9747000D01*
X10759000Y-9597000D02*
X10609000Y-9747000D01*
X10684000Y-9597000D02*
X10684000Y-9747000D01*
X10609000Y-9672000D02*
X10759000Y-9672000D01*
X11069000Y-4243000D02*
X11219000Y-4393000D01*
X11219000Y-4243000D02*
X11069000Y-4393000D01*
X11144000Y-4243000D02*
X11144000Y-4393000D01*
X11069000Y-4318000D02*
X11219000Y-4318000D01*
X11069000Y-4993000D02*
X11219000Y-5143000D01*
X11219000Y-4993000D02*
X11069000Y-5143000D01*
X11144000Y-4993000D02*
X11144000Y-5143000D01*
X11069000Y-5068000D02*
X11219000Y-5068000D01*
X12411000Y-7253000D02*
X12561000Y-7403000D01*
X12561000Y-7253000D02*
X12411000Y-7403000D01*
X12486000Y-7253000D02*
X12486000Y-7403000D01*
X12411000Y-7328000D02*
X12561000Y-7328000D01*
X12411000Y-8053000D02*
X12561000Y-8203000D01*
X12561000Y-8053000D02*
X12411000Y-8203000D01*
X12486000Y-8053000D02*
X12486000Y-8203000D01*
X12411000Y-8128000D02*
X12561000Y-8128000D01*
D16*
X9399000Y-13377000D02*
X9569000Y-13547000D01*
X9569000Y-13377000D02*
X9399000Y-13547000D01*
X9544105Y-13522105D02*
X9544105Y-13401895D01*
X9423895Y-13401895D01*
X9423895Y-13522105D01*
X9544105Y-13522105D01*
X10075000Y-13377000D02*
X10245000Y-13547000D01*
X10245000Y-13377000D02*
X10075000Y-13547000D01*
X10220105Y-13522105D02*
X10220105Y-13401895D01*
X10099895Y-13401895D01*
X10099895Y-13522105D01*
X10220105Y-13522105D01*
X10803000Y-13377000D02*
X10973000Y-13547000D01*
X10973000Y-13377000D02*
X10803000Y-13547000D01*
X10948105Y-13522105D02*
X10948105Y-13401895D01*
X10827895Y-13401895D01*
X10827895Y-13522105D01*
X10948105Y-13522105D01*
X11479000Y-13377000D02*
X11649000Y-13547000D01*
X11649000Y-13377000D02*
X11479000Y-13547000D01*
X11624105Y-13522105D02*
X11624105Y-13401895D01*
X11503895Y-13401895D01*
X11503895Y-13522105D01*
X11624105Y-13522105D01*
D10*
X12600000Y-9806000D02*
X12800000Y-10006000D01*
X12800000Y-9806000D02*
X12600000Y-10006000D01*
X12700000Y-10006000D02*
X12800000Y-9906000D01*
X12700000Y-9806000D01*
X12600000Y-9906000D01*
X12700000Y-10006000D01*
X13600000Y-9806000D02*
X13800000Y-10006000D01*
X13800000Y-9806000D02*
X13600000Y-10006000D01*
X13700000Y-10006000D02*
X13800000Y-9906000D01*
X13700000Y-9806000D01*
X13600000Y-9906000D01*
X13700000Y-10006000D01*
X6854777Y-14291484D02*
X6854777Y-14091484D01*
X6854777Y-14091484D02*
X6902396Y-14091484D01*
X6902396Y-14091484D02*
X6930967Y-14101008D01*
X6930967Y-14101008D02*
X6950015Y-14120055D01*
X6950015Y-14120055D02*
X6959539Y-14139103D01*
X6959539Y-14139103D02*
X6969062Y-14177198D01*
X6969062Y-14177198D02*
X6969062Y-14205769D01*
X6969062Y-14205769D02*
X6959539Y-14243865D01*
X6959539Y-14243865D02*
X6950015Y-14262912D01*
X6950015Y-14262912D02*
X6930967Y-14281960D01*
X6930967Y-14281960D02*
X6902396Y-14291484D01*
X6902396Y-14291484D02*
X6854777Y-14291484D01*
X7054777Y-14291484D02*
X7054777Y-14158150D01*
X7054777Y-14196246D02*
X7064301Y-14177198D01*
X7064301Y-14177198D02*
X7073824Y-14167674D01*
X7073824Y-14167674D02*
X7092872Y-14158150D01*
X7092872Y-14158150D02*
X7111920Y-14158150D01*
X7178586Y-14291484D02*
X7178586Y-14158150D01*
X7178586Y-14091484D02*
X7169062Y-14101008D01*
X7169062Y-14101008D02*
X7178586Y-14110531D01*
X7178586Y-14110531D02*
X7188110Y-14101008D01*
X7188110Y-14101008D02*
X7178586Y-14091484D01*
X7178586Y-14091484D02*
X7178586Y-14110531D01*
X7302396Y-14291484D02*
X7283348Y-14281960D01*
X7283348Y-14281960D02*
X7273824Y-14262912D01*
X7273824Y-14262912D02*
X7273824Y-14091484D01*
X7407158Y-14291484D02*
X7388110Y-14281960D01*
X7388110Y-14281960D02*
X7378586Y-14262912D01*
X7378586Y-14262912D02*
X7378586Y-14091484D01*
X7635729Y-14291484D02*
X7635729Y-14091484D01*
X7635729Y-14091484D02*
X7702396Y-14234341D01*
X7702396Y-14234341D02*
X7769062Y-14091484D01*
X7769062Y-14091484D02*
X7769062Y-14291484D01*
X7950015Y-14291484D02*
X7950015Y-14186722D01*
X7950015Y-14186722D02*
X7940491Y-14167674D01*
X7940491Y-14167674D02*
X7921443Y-14158150D01*
X7921443Y-14158150D02*
X7883348Y-14158150D01*
X7883348Y-14158150D02*
X7864301Y-14167674D01*
X7950015Y-14281960D02*
X7930967Y-14291484D01*
X7930967Y-14291484D02*
X7883348Y-14291484D01*
X7883348Y-14291484D02*
X7864301Y-14281960D01*
X7864301Y-14281960D02*
X7854777Y-14262912D01*
X7854777Y-14262912D02*
X7854777Y-14243865D01*
X7854777Y-14243865D02*
X7864301Y-14224817D01*
X7864301Y-14224817D02*
X7883348Y-14215293D01*
X7883348Y-14215293D02*
X7930967Y-14215293D01*
X7930967Y-14215293D02*
X7950015Y-14205769D01*
X8045253Y-14158150D02*
X8045253Y-14358150D01*
X8045253Y-14167674D02*
X8064301Y-14158150D01*
X8064301Y-14158150D02*
X8102396Y-14158150D01*
X8102396Y-14158150D02*
X8121443Y-14167674D01*
X8121443Y-14167674D02*
X8130967Y-14177198D01*
X8130967Y-14177198D02*
X8140491Y-14196246D01*
X8140491Y-14196246D02*
X8140491Y-14253388D01*
X8140491Y-14253388D02*
X8130967Y-14272436D01*
X8130967Y-14272436D02*
X8121443Y-14281960D01*
X8121443Y-14281960D02*
X8102396Y-14291484D01*
X8102396Y-14291484D02*
X8064301Y-14291484D01*
X8064301Y-14291484D02*
X8045253Y-14281960D01*
X8226205Y-14272436D02*
X8235729Y-14281960D01*
X8235729Y-14281960D02*
X8226205Y-14291484D01*
X8226205Y-14291484D02*
X8216682Y-14281960D01*
X8216682Y-14281960D02*
X8226205Y-14272436D01*
X8226205Y-14272436D02*
X8226205Y-14291484D01*
X8226205Y-14167674D02*
X8235729Y-14177198D01*
X8235729Y-14177198D02*
X8226205Y-14186722D01*
X8226205Y-14186722D02*
X8216682Y-14177198D01*
X8216682Y-14177198D02*
X8226205Y-14167674D01*
X8226205Y-14167674D02*
X8226205Y-14186722D01*
D11*
X6514000Y-14580000D02*
X6594000Y-14660000D01*
X6594000Y-14580000D02*
X6514000Y-14660000D01*
D10*
X6892872Y-14511484D02*
X6911920Y-14511484D01*
X6911920Y-14511484D02*
X6930967Y-14521008D01*
X6930967Y-14521008D02*
X6940491Y-14530531D01*
X6940491Y-14530531D02*
X6950015Y-14549579D01*
X6950015Y-14549579D02*
X6959539Y-14587674D01*
X6959539Y-14587674D02*
X6959539Y-14635293D01*
X6959539Y-14635293D02*
X6950015Y-14673388D01*
X6950015Y-14673388D02*
X6940491Y-14692436D01*
X6940491Y-14692436D02*
X6930967Y-14701960D01*
X6930967Y-14701960D02*
X6911920Y-14711484D01*
X6911920Y-14711484D02*
X6892872Y-14711484D01*
X6892872Y-14711484D02*
X6873824Y-14701960D01*
X6873824Y-14701960D02*
X6864301Y-14692436D01*
X6864301Y-14692436D02*
X6854777Y-14673388D01*
X6854777Y-14673388D02*
X6845253Y-14635293D01*
X6845253Y-14635293D02*
X6845253Y-14587674D01*
X6845253Y-14587674D02*
X6854777Y-14549579D01*
X6854777Y-14549579D02*
X6864301Y-14530531D01*
X6864301Y-14530531D02*
X6873824Y-14521008D01*
X6873824Y-14521008D02*
X6892872Y-14511484D01*
X7045253Y-14692436D02*
X7054777Y-14701960D01*
X7054777Y-14701960D02*
X7045253Y-14711484D01*
X7045253Y-14711484D02*
X7035729Y-14701960D01*
X7035729Y-14701960D02*
X7045253Y-14692436D01*
X7045253Y-14692436D02*
X7045253Y-14711484D01*
X7169062Y-14597198D02*
X7150015Y-14587674D01*
X7150015Y-14587674D02*
X7140491Y-14578150D01*
X7140491Y-14578150D02*
X7130967Y-14559103D01*
X7130967Y-14559103D02*
X7130967Y-14549579D01*
X7130967Y-14549579D02*
X7140491Y-14530531D01*
X7140491Y-14530531D02*
X7150015Y-14521008D01*
X7150015Y-14521008D02*
X7169062Y-14511484D01*
X7169062Y-14511484D02*
X7207158Y-14511484D01*
X7207158Y-14511484D02*
X7226205Y-14521008D01*
X7226205Y-14521008D02*
X7235729Y-14530531D01*
X7235729Y-14530531D02*
X7245253Y-14549579D01*
X7245253Y-14549579D02*
X7245253Y-14559103D01*
X7245253Y-14559103D02*
X7235729Y-14578150D01*
X7235729Y-14578150D02*
X7226205Y-14587674D01*
X7226205Y-14587674D02*
X7207158Y-14597198D01*
X7207158Y-14597198D02*
X7169062Y-14597198D01*
X7169062Y-14597198D02*
X7150015Y-14606722D01*
X7150015Y-14606722D02*
X7140491Y-14616246D01*
X7140491Y-14616246D02*
X7130967Y-14635293D01*
X7130967Y-14635293D02*
X7130967Y-14673388D01*
X7130967Y-14673388D02*
X7140491Y-14692436D01*
X7140491Y-14692436D02*
X7150015Y-14701960D01*
X7150015Y-14701960D02*
X7169062Y-14711484D01*
X7169062Y-14711484D02*
X7207158Y-14711484D01*
X7207158Y-14711484D02*
X7226205Y-14701960D01*
X7226205Y-14701960D02*
X7235729Y-14692436D01*
X7235729Y-14692436D02*
X7245253Y-14673388D01*
X7245253Y-14673388D02*
X7245253Y-14635293D01*
X7245253Y-14635293D02*
X7235729Y-14616246D01*
X7235729Y-14616246D02*
X7226205Y-14606722D01*
X7226205Y-14606722D02*
X7207158Y-14597198D01*
X7369062Y-14511484D02*
X7388110Y-14511484D01*
X7388110Y-14511484D02*
X7407158Y-14521008D01*
X7407158Y-14521008D02*
X7416682Y-14530531D01*
X7416682Y-14530531D02*
X7426205Y-14549579D01*
X7426205Y-14549579D02*
X7435729Y-14587674D01*
X7435729Y-14587674D02*
X7435729Y-14635293D01*
X7435729Y-14635293D02*
X7426205Y-14673388D01*
X7426205Y-14673388D02*
X7416682Y-14692436D01*
X7416682Y-14692436D02*
X7407158Y-14701960D01*
X7407158Y-14701960D02*
X7388110Y-14711484D01*
X7388110Y-14711484D02*
X7369062Y-14711484D01*
X7369062Y-14711484D02*
X7350015Y-14701960D01*
X7350015Y-14701960D02*
X7340491Y-14692436D01*
X7340491Y-14692436D02*
X7330967Y-14673388D01*
X7330967Y-14673388D02*
X7321443Y-14635293D01*
X7321443Y-14635293D02*
X7321443Y-14587674D01*
X7321443Y-14587674D02*
X7330967Y-14549579D01*
X7330967Y-14549579D02*
X7340491Y-14530531D01*
X7340491Y-14530531D02*
X7350015Y-14521008D01*
X7350015Y-14521008D02*
X7369062Y-14511484D01*
X7559539Y-14511484D02*
X7578586Y-14511484D01*
X7578586Y-14511484D02*
X7597634Y-14521008D01*
X7597634Y-14521008D02*
X7607158Y-14530531D01*
X7607158Y-14530531D02*
X7616682Y-14549579D01*
X7616682Y-14549579D02*
X7626205Y-14587674D01*
X7626205Y-14587674D02*
X7626205Y-14635293D01*
X7626205Y-14635293D02*
X7616682Y-14673388D01*
X7616682Y-14673388D02*
X7607158Y-14692436D01*
X7607158Y-14692436D02*
X7597634Y-14701960D01*
X7597634Y-14701960D02*
X7578586Y-14711484D01*
X7578586Y-14711484D02*
X7559539Y-14711484D01*
X7559539Y-14711484D02*
X7540491Y-14701960D01*
X7540491Y-14701960D02*
X7530967Y-14692436D01*
X7530967Y-14692436D02*
X7521443Y-14673388D01*
X7521443Y-14673388D02*
X7511920Y-14635293D01*
X7511920Y-14635293D02*
X7511920Y-14587674D01*
X7511920Y-14587674D02*
X7521443Y-14549579D01*
X7521443Y-14549579D02*
X7530967Y-14530531D01*
X7530967Y-14530531D02*
X7540491Y-14521008D01*
X7540491Y-14521008D02*
X7559539Y-14511484D01*
X7711920Y-14711484D02*
X7711920Y-14578150D01*
X7711920Y-14597198D02*
X7721443Y-14587674D01*
X7721443Y-14587674D02*
X7740491Y-14578150D01*
X7740491Y-14578150D02*
X7769063Y-14578150D01*
X7769063Y-14578150D02*
X7788110Y-14587674D01*
X7788110Y-14587674D02*
X7797634Y-14606722D01*
X7797634Y-14606722D02*
X7797634Y-14711484D01*
X7797634Y-14606722D02*
X7807158Y-14587674D01*
X7807158Y-14587674D02*
X7826205Y-14578150D01*
X7826205Y-14578150D02*
X7854777Y-14578150D01*
X7854777Y-14578150D02*
X7873824Y-14587674D01*
X7873824Y-14587674D02*
X7883348Y-14606722D01*
X7883348Y-14606722D02*
X7883348Y-14711484D01*
X7978586Y-14711484D02*
X7978586Y-14578150D01*
X7978586Y-14597198D02*
X7988110Y-14587674D01*
X7988110Y-14587674D02*
X8007158Y-14578150D01*
X8007158Y-14578150D02*
X8035729Y-14578150D01*
X8035729Y-14578150D02*
X8054777Y-14587674D01*
X8054777Y-14587674D02*
X8064301Y-14606722D01*
X8064301Y-14606722D02*
X8064301Y-14711484D01*
X8064301Y-14606722D02*
X8073824Y-14587674D01*
X8073824Y-14587674D02*
X8092872Y-14578150D01*
X8092872Y-14578150D02*
X8121443Y-14578150D01*
X8121443Y-14578150D02*
X8140491Y-14587674D01*
X8140491Y-14587674D02*
X8150015Y-14606722D01*
X8150015Y-14606722D02*
X8150015Y-14711484D01*
X8540491Y-14501960D02*
X8369063Y-14759103D01*
X8797634Y-14511484D02*
X8816682Y-14511484D01*
X8816682Y-14511484D02*
X8835729Y-14521008D01*
X8835729Y-14521008D02*
X8845253Y-14530531D01*
X8845253Y-14530531D02*
X8854777Y-14549579D01*
X8854777Y-14549579D02*
X8864301Y-14587674D01*
X8864301Y-14587674D02*
X8864301Y-14635293D01*
X8864301Y-14635293D02*
X8854777Y-14673388D01*
X8854777Y-14673388D02*
X8845253Y-14692436D01*
X8845253Y-14692436D02*
X8835729Y-14701960D01*
X8835729Y-14701960D02*
X8816682Y-14711484D01*
X8816682Y-14711484D02*
X8797634Y-14711484D01*
X8797634Y-14711484D02*
X8778587Y-14701960D01*
X8778587Y-14701960D02*
X8769063Y-14692436D01*
X8769063Y-14692436D02*
X8759539Y-14673388D01*
X8759539Y-14673388D02*
X8750015Y-14635293D01*
X8750015Y-14635293D02*
X8750015Y-14587674D01*
X8750015Y-14587674D02*
X8759539Y-14549579D01*
X8759539Y-14549579D02*
X8769063Y-14530531D01*
X8769063Y-14530531D02*
X8778587Y-14521008D01*
X8778587Y-14521008D02*
X8797634Y-14511484D01*
X8950015Y-14692436D02*
X8959539Y-14701960D01*
X8959539Y-14701960D02*
X8950015Y-14711484D01*
X8950015Y-14711484D02*
X8940491Y-14701960D01*
X8940491Y-14701960D02*
X8950015Y-14692436D01*
X8950015Y-14692436D02*
X8950015Y-14711484D01*
X9083348Y-14511484D02*
X9102396Y-14511484D01*
X9102396Y-14511484D02*
X9121444Y-14521008D01*
X9121444Y-14521008D02*
X9130968Y-14530531D01*
X9130968Y-14530531D02*
X9140491Y-14549579D01*
X9140491Y-14549579D02*
X9150015Y-14587674D01*
X9150015Y-14587674D02*
X9150015Y-14635293D01*
X9150015Y-14635293D02*
X9140491Y-14673388D01*
X9140491Y-14673388D02*
X9130968Y-14692436D01*
X9130968Y-14692436D02*
X9121444Y-14701960D01*
X9121444Y-14701960D02*
X9102396Y-14711484D01*
X9102396Y-14711484D02*
X9083348Y-14711484D01*
X9083348Y-14711484D02*
X9064301Y-14701960D01*
X9064301Y-14701960D02*
X9054777Y-14692436D01*
X9054777Y-14692436D02*
X9045253Y-14673388D01*
X9045253Y-14673388D02*
X9035729Y-14635293D01*
X9035729Y-14635293D02*
X9035729Y-14587674D01*
X9035729Y-14587674D02*
X9045253Y-14549579D01*
X9045253Y-14549579D02*
X9054777Y-14530531D01*
X9054777Y-14530531D02*
X9064301Y-14521008D01*
X9064301Y-14521008D02*
X9083348Y-14511484D01*
X9216682Y-14511484D02*
X9340491Y-14511484D01*
X9340491Y-14511484D02*
X9273825Y-14587674D01*
X9273825Y-14587674D02*
X9302396Y-14587674D01*
X9302396Y-14587674D02*
X9321444Y-14597198D01*
X9321444Y-14597198D02*
X9330968Y-14606722D01*
X9330968Y-14606722D02*
X9340491Y-14625769D01*
X9340491Y-14625769D02*
X9340491Y-14673388D01*
X9340491Y-14673388D02*
X9330968Y-14692436D01*
X9330968Y-14692436D02*
X9321444Y-14701960D01*
X9321444Y-14701960D02*
X9302396Y-14711484D01*
X9302396Y-14711484D02*
X9245253Y-14711484D01*
X9245253Y-14711484D02*
X9226206Y-14701960D01*
X9226206Y-14701960D02*
X9216682Y-14692436D01*
X9530968Y-14711484D02*
X9416682Y-14711484D01*
X9473825Y-14711484D02*
X9473825Y-14511484D01*
X9473825Y-14511484D02*
X9454777Y-14540055D01*
X9454777Y-14540055D02*
X9435729Y-14559103D01*
X9435729Y-14559103D02*
X9416682Y-14568627D01*
X9711920Y-14511484D02*
X9616682Y-14511484D01*
X9616682Y-14511484D02*
X9607158Y-14606722D01*
X9607158Y-14606722D02*
X9616682Y-14597198D01*
X9616682Y-14597198D02*
X9635729Y-14587674D01*
X9635729Y-14587674D02*
X9683349Y-14587674D01*
X9683349Y-14587674D02*
X9702396Y-14597198D01*
X9702396Y-14597198D02*
X9711920Y-14606722D01*
X9711920Y-14606722D02*
X9721444Y-14625769D01*
X9721444Y-14625769D02*
X9721444Y-14673388D01*
X9721444Y-14673388D02*
X9711920Y-14692436D01*
X9711920Y-14692436D02*
X9702396Y-14701960D01*
X9702396Y-14701960D02*
X9683349Y-14711484D01*
X9683349Y-14711484D02*
X9635729Y-14711484D01*
X9635729Y-14711484D02*
X9616682Y-14701960D01*
X9616682Y-14701960D02*
X9607158Y-14692436D01*
X9797634Y-14511484D02*
X9797634Y-14549579D01*
X9873825Y-14511484D02*
X9873825Y-14549579D01*
X10169063Y-14787674D02*
X10159539Y-14778150D01*
X10159539Y-14778150D02*
X10140491Y-14749579D01*
X10140491Y-14749579D02*
X10130968Y-14730531D01*
X10130968Y-14730531D02*
X10121444Y-14701960D01*
X10121444Y-14701960D02*
X10111920Y-14654341D01*
X10111920Y-14654341D02*
X10111920Y-14616246D01*
X10111920Y-14616246D02*
X10121444Y-14568627D01*
X10121444Y-14568627D02*
X10130968Y-14540055D01*
X10130968Y-14540055D02*
X10140491Y-14521008D01*
X10140491Y-14521008D02*
X10159539Y-14492436D01*
X10159539Y-14492436D02*
X10169063Y-14482912D01*
X10235730Y-14530531D02*
X10245253Y-14521008D01*
X10245253Y-14521008D02*
X10264301Y-14511484D01*
X10264301Y-14511484D02*
X10311920Y-14511484D01*
X10311920Y-14511484D02*
X10330968Y-14521008D01*
X10330968Y-14521008D02*
X10340491Y-14530531D01*
X10340491Y-14530531D02*
X10350015Y-14549579D01*
X10350015Y-14549579D02*
X10350015Y-14568627D01*
X10350015Y-14568627D02*
X10340491Y-14597198D01*
X10340491Y-14597198D02*
X10226206Y-14711484D01*
X10226206Y-14711484D02*
X10350015Y-14711484D01*
X10588111Y-14711484D02*
X10588111Y-14511484D01*
X10673825Y-14711484D02*
X10673825Y-14606722D01*
X10673825Y-14606722D02*
X10664301Y-14587674D01*
X10664301Y-14587674D02*
X10645253Y-14578150D01*
X10645253Y-14578150D02*
X10616682Y-14578150D01*
X10616682Y-14578150D02*
X10597634Y-14587674D01*
X10597634Y-14587674D02*
X10588111Y-14597198D01*
X10797634Y-14711484D02*
X10778587Y-14701960D01*
X10778587Y-14701960D02*
X10769063Y-14692436D01*
X10769063Y-14692436D02*
X10759539Y-14673388D01*
X10759539Y-14673388D02*
X10759539Y-14616246D01*
X10759539Y-14616246D02*
X10769063Y-14597198D01*
X10769063Y-14597198D02*
X10778587Y-14587674D01*
X10778587Y-14587674D02*
X10797634Y-14578150D01*
X10797634Y-14578150D02*
X10826206Y-14578150D01*
X10826206Y-14578150D02*
X10845253Y-14587674D01*
X10845253Y-14587674D02*
X10854777Y-14597198D01*
X10854777Y-14597198D02*
X10864301Y-14616246D01*
X10864301Y-14616246D02*
X10864301Y-14673388D01*
X10864301Y-14673388D02*
X10854777Y-14692436D01*
X10854777Y-14692436D02*
X10845253Y-14701960D01*
X10845253Y-14701960D02*
X10826206Y-14711484D01*
X10826206Y-14711484D02*
X10797634Y-14711484D01*
X10978587Y-14711484D02*
X10959539Y-14701960D01*
X10959539Y-14701960D02*
X10950015Y-14682912D01*
X10950015Y-14682912D02*
X10950015Y-14511484D01*
X11130968Y-14701960D02*
X11111920Y-14711484D01*
X11111920Y-14711484D02*
X11073825Y-14711484D01*
X11073825Y-14711484D02*
X11054777Y-14701960D01*
X11054777Y-14701960D02*
X11045253Y-14682912D01*
X11045253Y-14682912D02*
X11045253Y-14606722D01*
X11045253Y-14606722D02*
X11054777Y-14587674D01*
X11054777Y-14587674D02*
X11073825Y-14578150D01*
X11073825Y-14578150D02*
X11111920Y-14578150D01*
X11111920Y-14578150D02*
X11130968Y-14587674D01*
X11130968Y-14587674D02*
X11140492Y-14606722D01*
X11140492Y-14606722D02*
X11140492Y-14625769D01*
X11140492Y-14625769D02*
X11045253Y-14644817D01*
X11216682Y-14701960D02*
X11235730Y-14711484D01*
X11235730Y-14711484D02*
X11273825Y-14711484D01*
X11273825Y-14711484D02*
X11292872Y-14701960D01*
X11292872Y-14701960D02*
X11302396Y-14682912D01*
X11302396Y-14682912D02*
X11302396Y-14673388D01*
X11302396Y-14673388D02*
X11292872Y-14654341D01*
X11292872Y-14654341D02*
X11273825Y-14644817D01*
X11273825Y-14644817D02*
X11245253Y-14644817D01*
X11245253Y-14644817D02*
X11226206Y-14635293D01*
X11226206Y-14635293D02*
X11216682Y-14616246D01*
X11216682Y-14616246D02*
X11216682Y-14606722D01*
X11216682Y-14606722D02*
X11226206Y-14587674D01*
X11226206Y-14587674D02*
X11245253Y-14578150D01*
X11245253Y-14578150D02*
X11273825Y-14578150D01*
X11273825Y-14578150D02*
X11292872Y-14587674D01*
X11369063Y-14787674D02*
X11378587Y-14778150D01*
X11378587Y-14778150D02*
X11397634Y-14749579D01*
X11397634Y-14749579D02*
X11407158Y-14730531D01*
X11407158Y-14730531D02*
X11416682Y-14701960D01*
X11416682Y-14701960D02*
X11426206Y-14654341D01*
X11426206Y-14654341D02*
X11426206Y-14616246D01*
X11426206Y-14616246D02*
X11416682Y-14568627D01*
X11416682Y-14568627D02*
X11407158Y-14540055D01*
X11407158Y-14540055D02*
X11397634Y-14521008D01*
X11397634Y-14521008D02*
X11378587Y-14492436D01*
X11378587Y-14492436D02*
X11369063Y-14482912D01*
D11*
X6594000Y-14884000D02*
G75*
G02*
X6514000Y-14884000I-40000J0D01*
G01*
X6514000Y-14884000D02*
G75*
G02*
X6594000Y-14884000I40000J0D01*
G01*
D10*
X6892872Y-14775484D02*
X6911920Y-14775484D01*
X6911920Y-14775484D02*
X6930967Y-14785008D01*
X6930967Y-14785008D02*
X6940491Y-14794531D01*
X6940491Y-14794531D02*
X6950015Y-14813579D01*
X6950015Y-14813579D02*
X6959539Y-14851674D01*
X6959539Y-14851674D02*
X6959539Y-14899293D01*
X6959539Y-14899293D02*
X6950015Y-14937388D01*
X6950015Y-14937388D02*
X6940491Y-14956436D01*
X6940491Y-14956436D02*
X6930967Y-14965960D01*
X6930967Y-14965960D02*
X6911920Y-14975484D01*
X6911920Y-14975484D02*
X6892872Y-14975484D01*
X6892872Y-14975484D02*
X6873824Y-14965960D01*
X6873824Y-14965960D02*
X6864301Y-14956436D01*
X6864301Y-14956436D02*
X6854777Y-14937388D01*
X6854777Y-14937388D02*
X6845253Y-14899293D01*
X6845253Y-14899293D02*
X6845253Y-14851674D01*
X6845253Y-14851674D02*
X6854777Y-14813579D01*
X6854777Y-14813579D02*
X6864301Y-14794531D01*
X6864301Y-14794531D02*
X6873824Y-14785008D01*
X6873824Y-14785008D02*
X6892872Y-14775484D01*
X7045253Y-14956436D02*
X7054777Y-14965960D01*
X7054777Y-14965960D02*
X7045253Y-14975484D01*
X7045253Y-14975484D02*
X7035729Y-14965960D01*
X7035729Y-14965960D02*
X7045253Y-14956436D01*
X7045253Y-14956436D02*
X7045253Y-14975484D01*
X7169062Y-14861198D02*
X7150015Y-14851674D01*
X7150015Y-14851674D02*
X7140491Y-14842150D01*
X7140491Y-14842150D02*
X7130967Y-14823103D01*
X7130967Y-14823103D02*
X7130967Y-14813579D01*
X7130967Y-14813579D02*
X7140491Y-14794531D01*
X7140491Y-14794531D02*
X7150015Y-14785008D01*
X7150015Y-14785008D02*
X7169062Y-14775484D01*
X7169062Y-14775484D02*
X7207158Y-14775484D01*
X7207158Y-14775484D02*
X7226205Y-14785008D01*
X7226205Y-14785008D02*
X7235729Y-14794531D01*
X7235729Y-14794531D02*
X7245253Y-14813579D01*
X7245253Y-14813579D02*
X7245253Y-14823103D01*
X7245253Y-14823103D02*
X7235729Y-14842150D01*
X7235729Y-14842150D02*
X7226205Y-14851674D01*
X7226205Y-14851674D02*
X7207158Y-14861198D01*
X7207158Y-14861198D02*
X7169062Y-14861198D01*
X7169062Y-14861198D02*
X7150015Y-14870722D01*
X7150015Y-14870722D02*
X7140491Y-14880246D01*
X7140491Y-14880246D02*
X7130967Y-14899293D01*
X7130967Y-14899293D02*
X7130967Y-14937388D01*
X7130967Y-14937388D02*
X7140491Y-14956436D01*
X7140491Y-14956436D02*
X7150015Y-14965960D01*
X7150015Y-14965960D02*
X7169062Y-14975484D01*
X7169062Y-14975484D02*
X7207158Y-14975484D01*
X7207158Y-14975484D02*
X7226205Y-14965960D01*
X7226205Y-14965960D02*
X7235729Y-14956436D01*
X7235729Y-14956436D02*
X7245253Y-14937388D01*
X7245253Y-14937388D02*
X7245253Y-14899293D01*
X7245253Y-14899293D02*
X7235729Y-14880246D01*
X7235729Y-14880246D02*
X7226205Y-14870722D01*
X7226205Y-14870722D02*
X7207158Y-14861198D01*
X7369062Y-14775484D02*
X7388110Y-14775484D01*
X7388110Y-14775484D02*
X7407158Y-14785008D01*
X7407158Y-14785008D02*
X7416682Y-14794531D01*
X7416682Y-14794531D02*
X7426205Y-14813579D01*
X7426205Y-14813579D02*
X7435729Y-14851674D01*
X7435729Y-14851674D02*
X7435729Y-14899293D01*
X7435729Y-14899293D02*
X7426205Y-14937388D01*
X7426205Y-14937388D02*
X7416682Y-14956436D01*
X7416682Y-14956436D02*
X7407158Y-14965960D01*
X7407158Y-14965960D02*
X7388110Y-14975484D01*
X7388110Y-14975484D02*
X7369062Y-14975484D01*
X7369062Y-14975484D02*
X7350015Y-14965960D01*
X7350015Y-14965960D02*
X7340491Y-14956436D01*
X7340491Y-14956436D02*
X7330967Y-14937388D01*
X7330967Y-14937388D02*
X7321443Y-14899293D01*
X7321443Y-14899293D02*
X7321443Y-14851674D01*
X7321443Y-14851674D02*
X7330967Y-14813579D01*
X7330967Y-14813579D02*
X7340491Y-14794531D01*
X7340491Y-14794531D02*
X7350015Y-14785008D01*
X7350015Y-14785008D02*
X7369062Y-14775484D01*
X7559539Y-14775484D02*
X7578586Y-14775484D01*
X7578586Y-14775484D02*
X7597634Y-14785008D01*
X7597634Y-14785008D02*
X7607158Y-14794531D01*
X7607158Y-14794531D02*
X7616682Y-14813579D01*
X7616682Y-14813579D02*
X7626205Y-14851674D01*
X7626205Y-14851674D02*
X7626205Y-14899293D01*
X7626205Y-14899293D02*
X7616682Y-14937388D01*
X7616682Y-14937388D02*
X7607158Y-14956436D01*
X7607158Y-14956436D02*
X7597634Y-14965960D01*
X7597634Y-14965960D02*
X7578586Y-14975484D01*
X7578586Y-14975484D02*
X7559539Y-14975484D01*
X7559539Y-14975484D02*
X7540491Y-14965960D01*
X7540491Y-14965960D02*
X7530967Y-14956436D01*
X7530967Y-14956436D02*
X7521443Y-14937388D01*
X7521443Y-14937388D02*
X7511920Y-14899293D01*
X7511920Y-14899293D02*
X7511920Y-14851674D01*
X7511920Y-14851674D02*
X7521443Y-14813579D01*
X7521443Y-14813579D02*
X7530967Y-14794531D01*
X7530967Y-14794531D02*
X7540491Y-14785008D01*
X7540491Y-14785008D02*
X7559539Y-14775484D01*
X7711920Y-14975484D02*
X7711920Y-14842150D01*
X7711920Y-14861198D02*
X7721443Y-14851674D01*
X7721443Y-14851674D02*
X7740491Y-14842150D01*
X7740491Y-14842150D02*
X7769063Y-14842150D01*
X7769063Y-14842150D02*
X7788110Y-14851674D01*
X7788110Y-14851674D02*
X7797634Y-14870722D01*
X7797634Y-14870722D02*
X7797634Y-14975484D01*
X7797634Y-14870722D02*
X7807158Y-14851674D01*
X7807158Y-14851674D02*
X7826205Y-14842150D01*
X7826205Y-14842150D02*
X7854777Y-14842150D01*
X7854777Y-14842150D02*
X7873824Y-14851674D01*
X7873824Y-14851674D02*
X7883348Y-14870722D01*
X7883348Y-14870722D02*
X7883348Y-14975484D01*
X7978586Y-14975484D02*
X7978586Y-14842150D01*
X7978586Y-14861198D02*
X7988110Y-14851674D01*
X7988110Y-14851674D02*
X8007158Y-14842150D01*
X8007158Y-14842150D02*
X8035729Y-14842150D01*
X8035729Y-14842150D02*
X8054777Y-14851674D01*
X8054777Y-14851674D02*
X8064301Y-14870722D01*
X8064301Y-14870722D02*
X8064301Y-14975484D01*
X8064301Y-14870722D02*
X8073824Y-14851674D01*
X8073824Y-14851674D02*
X8092872Y-14842150D01*
X8092872Y-14842150D02*
X8121443Y-14842150D01*
X8121443Y-14842150D02*
X8140491Y-14851674D01*
X8140491Y-14851674D02*
X8150015Y-14870722D01*
X8150015Y-14870722D02*
X8150015Y-14975484D01*
X8540491Y-14765960D02*
X8369063Y-15023103D01*
X8797634Y-14775484D02*
X8816682Y-14775484D01*
X8816682Y-14775484D02*
X8835729Y-14785008D01*
X8835729Y-14785008D02*
X8845253Y-14794531D01*
X8845253Y-14794531D02*
X8854777Y-14813579D01*
X8854777Y-14813579D02*
X8864301Y-14851674D01*
X8864301Y-14851674D02*
X8864301Y-14899293D01*
X8864301Y-14899293D02*
X8854777Y-14937388D01*
X8854777Y-14937388D02*
X8845253Y-14956436D01*
X8845253Y-14956436D02*
X8835729Y-14965960D01*
X8835729Y-14965960D02*
X8816682Y-14975484D01*
X8816682Y-14975484D02*
X8797634Y-14975484D01*
X8797634Y-14975484D02*
X8778587Y-14965960D01*
X8778587Y-14965960D02*
X8769063Y-14956436D01*
X8769063Y-14956436D02*
X8759539Y-14937388D01*
X8759539Y-14937388D02*
X8750015Y-14899293D01*
X8750015Y-14899293D02*
X8750015Y-14851674D01*
X8750015Y-14851674D02*
X8759539Y-14813579D01*
X8759539Y-14813579D02*
X8769063Y-14794531D01*
X8769063Y-14794531D02*
X8778587Y-14785008D01*
X8778587Y-14785008D02*
X8797634Y-14775484D01*
X8950015Y-14956436D02*
X8959539Y-14965960D01*
X8959539Y-14965960D02*
X8950015Y-14975484D01*
X8950015Y-14975484D02*
X8940491Y-14965960D01*
X8940491Y-14965960D02*
X8950015Y-14956436D01*
X8950015Y-14956436D02*
X8950015Y-14975484D01*
X9083348Y-14775484D02*
X9102396Y-14775484D01*
X9102396Y-14775484D02*
X9121444Y-14785008D01*
X9121444Y-14785008D02*
X9130968Y-14794531D01*
X9130968Y-14794531D02*
X9140491Y-14813579D01*
X9140491Y-14813579D02*
X9150015Y-14851674D01*
X9150015Y-14851674D02*
X9150015Y-14899293D01*
X9150015Y-14899293D02*
X9140491Y-14937388D01*
X9140491Y-14937388D02*
X9130968Y-14956436D01*
X9130968Y-14956436D02*
X9121444Y-14965960D01*
X9121444Y-14965960D02*
X9102396Y-14975484D01*
X9102396Y-14975484D02*
X9083348Y-14975484D01*
X9083348Y-14975484D02*
X9064301Y-14965960D01*
X9064301Y-14965960D02*
X9054777Y-14956436D01*
X9054777Y-14956436D02*
X9045253Y-14937388D01*
X9045253Y-14937388D02*
X9035729Y-14899293D01*
X9035729Y-14899293D02*
X9035729Y-14851674D01*
X9035729Y-14851674D02*
X9045253Y-14813579D01*
X9045253Y-14813579D02*
X9054777Y-14794531D01*
X9054777Y-14794531D02*
X9064301Y-14785008D01*
X9064301Y-14785008D02*
X9083348Y-14775484D01*
X9216682Y-14775484D02*
X9340491Y-14775484D01*
X9340491Y-14775484D02*
X9273825Y-14851674D01*
X9273825Y-14851674D02*
X9302396Y-14851674D01*
X9302396Y-14851674D02*
X9321444Y-14861198D01*
X9321444Y-14861198D02*
X9330968Y-14870722D01*
X9330968Y-14870722D02*
X9340491Y-14889769D01*
X9340491Y-14889769D02*
X9340491Y-14937388D01*
X9340491Y-14937388D02*
X9330968Y-14956436D01*
X9330968Y-14956436D02*
X9321444Y-14965960D01*
X9321444Y-14965960D02*
X9302396Y-14975484D01*
X9302396Y-14975484D02*
X9245253Y-14975484D01*
X9245253Y-14975484D02*
X9226206Y-14965960D01*
X9226206Y-14965960D02*
X9216682Y-14956436D01*
X9530968Y-14975484D02*
X9416682Y-14975484D01*
X9473825Y-14975484D02*
X9473825Y-14775484D01*
X9473825Y-14775484D02*
X9454777Y-14804055D01*
X9454777Y-14804055D02*
X9435729Y-14823103D01*
X9435729Y-14823103D02*
X9416682Y-14832627D01*
X9711920Y-14775484D02*
X9616682Y-14775484D01*
X9616682Y-14775484D02*
X9607158Y-14870722D01*
X9607158Y-14870722D02*
X9616682Y-14861198D01*
X9616682Y-14861198D02*
X9635729Y-14851674D01*
X9635729Y-14851674D02*
X9683349Y-14851674D01*
X9683349Y-14851674D02*
X9702396Y-14861198D01*
X9702396Y-14861198D02*
X9711920Y-14870722D01*
X9711920Y-14870722D02*
X9721444Y-14889769D01*
X9721444Y-14889769D02*
X9721444Y-14937388D01*
X9721444Y-14937388D02*
X9711920Y-14956436D01*
X9711920Y-14956436D02*
X9702396Y-14965960D01*
X9702396Y-14965960D02*
X9683349Y-14975484D01*
X9683349Y-14975484D02*
X9635729Y-14975484D01*
X9635729Y-14975484D02*
X9616682Y-14965960D01*
X9616682Y-14965960D02*
X9607158Y-14956436D01*
X9797634Y-14775484D02*
X9797634Y-14813579D01*
X9873825Y-14775484D02*
X9873825Y-14813579D01*
X10169063Y-15051674D02*
X10159539Y-15042150D01*
X10159539Y-15042150D02*
X10140491Y-15013579D01*
X10140491Y-15013579D02*
X10130968Y-14994531D01*
X10130968Y-14994531D02*
X10121444Y-14965960D01*
X10121444Y-14965960D02*
X10111920Y-14918341D01*
X10111920Y-14918341D02*
X10111920Y-14880246D01*
X10111920Y-14880246D02*
X10121444Y-14832627D01*
X10121444Y-14832627D02*
X10130968Y-14804055D01*
X10130968Y-14804055D02*
X10140491Y-14785008D01*
X10140491Y-14785008D02*
X10159539Y-14756436D01*
X10159539Y-14756436D02*
X10169063Y-14746912D01*
X10350015Y-14975484D02*
X10235730Y-14975484D01*
X10292872Y-14975484D02*
X10292872Y-14775484D01*
X10292872Y-14775484D02*
X10273825Y-14804055D01*
X10273825Y-14804055D02*
X10254777Y-14823103D01*
X10254777Y-14823103D02*
X10235730Y-14832627D01*
X10540491Y-14975484D02*
X10426206Y-14975484D01*
X10483349Y-14975484D02*
X10483349Y-14775484D01*
X10483349Y-14775484D02*
X10464301Y-14804055D01*
X10464301Y-14804055D02*
X10445253Y-14823103D01*
X10445253Y-14823103D02*
X10426206Y-14832627D01*
X10778587Y-14975484D02*
X10778587Y-14775484D01*
X10864301Y-14975484D02*
X10864301Y-14870722D01*
X10864301Y-14870722D02*
X10854777Y-14851674D01*
X10854777Y-14851674D02*
X10835730Y-14842150D01*
X10835730Y-14842150D02*
X10807158Y-14842150D01*
X10807158Y-14842150D02*
X10788111Y-14851674D01*
X10788111Y-14851674D02*
X10778587Y-14861198D01*
X10988111Y-14975484D02*
X10969063Y-14965960D01*
X10969063Y-14965960D02*
X10959539Y-14956436D01*
X10959539Y-14956436D02*
X10950015Y-14937388D01*
X10950015Y-14937388D02*
X10950015Y-14880246D01*
X10950015Y-14880246D02*
X10959539Y-14861198D01*
X10959539Y-14861198D02*
X10969063Y-14851674D01*
X10969063Y-14851674D02*
X10988111Y-14842150D01*
X10988111Y-14842150D02*
X11016682Y-14842150D01*
X11016682Y-14842150D02*
X11035730Y-14851674D01*
X11035730Y-14851674D02*
X11045253Y-14861198D01*
X11045253Y-14861198D02*
X11054777Y-14880246D01*
X11054777Y-14880246D02*
X11054777Y-14937388D01*
X11054777Y-14937388D02*
X11045253Y-14956436D01*
X11045253Y-14956436D02*
X11035730Y-14965960D01*
X11035730Y-14965960D02*
X11016682Y-14975484D01*
X11016682Y-14975484D02*
X10988111Y-14975484D01*
X11169063Y-14975484D02*
X11150015Y-14965960D01*
X11150015Y-14965960D02*
X11140492Y-14946912D01*
X11140492Y-14946912D02*
X11140492Y-14775484D01*
X11321444Y-14965960D02*
X11302396Y-14975484D01*
X11302396Y-14975484D02*
X11264301Y-14975484D01*
X11264301Y-14975484D02*
X11245253Y-14965960D01*
X11245253Y-14965960D02*
X11235730Y-14946912D01*
X11235730Y-14946912D02*
X11235730Y-14870722D01*
X11235730Y-14870722D02*
X11245253Y-14851674D01*
X11245253Y-14851674D02*
X11264301Y-14842150D01*
X11264301Y-14842150D02*
X11302396Y-14842150D01*
X11302396Y-14842150D02*
X11321444Y-14851674D01*
X11321444Y-14851674D02*
X11330968Y-14870722D01*
X11330968Y-14870722D02*
X11330968Y-14889769D01*
X11330968Y-14889769D02*
X11235730Y-14908817D01*
X11407158Y-14965960D02*
X11426206Y-14975484D01*
X11426206Y-14975484D02*
X11464301Y-14975484D01*
X11464301Y-14975484D02*
X11483349Y-14965960D01*
X11483349Y-14965960D02*
X11492872Y-14946912D01*
X11492872Y-14946912D02*
X11492872Y-14937388D01*
X11492872Y-14937388D02*
X11483349Y-14918341D01*
X11483349Y-14918341D02*
X11464301Y-14908817D01*
X11464301Y-14908817D02*
X11435730Y-14908817D01*
X11435730Y-14908817D02*
X11416682Y-14899293D01*
X11416682Y-14899293D02*
X11407158Y-14880246D01*
X11407158Y-14880246D02*
X11407158Y-14870722D01*
X11407158Y-14870722D02*
X11416682Y-14851674D01*
X11416682Y-14851674D02*
X11435730Y-14842150D01*
X11435730Y-14842150D02*
X11464301Y-14842150D01*
X11464301Y-14842150D02*
X11483349Y-14851674D01*
X11559539Y-15051674D02*
X11569063Y-15042150D01*
X11569063Y-15042150D02*
X11588111Y-15013579D01*
X11588111Y-15013579D02*
X11597634Y-14994531D01*
X11597634Y-14994531D02*
X11607158Y-14965960D01*
X11607158Y-14965960D02*
X11616682Y-14918341D01*
X11616682Y-14918341D02*
X11616682Y-14880246D01*
X11616682Y-14880246D02*
X11607158Y-14832627D01*
X11607158Y-14832627D02*
X11597634Y-14804055D01*
X11597634Y-14804055D02*
X11588111Y-14785008D01*
X11588111Y-14785008D02*
X11569063Y-14756436D01*
X11569063Y-14756436D02*
X11559539Y-14746912D01*
D11*
X6544000Y-15098000D02*
X6544000Y-15198000D01*
X6494000Y-15148000D02*
X6594000Y-15148000D01*
D10*
X6959539Y-15239484D02*
X6845253Y-15239484D01*
X6902396Y-15239484D02*
X6902396Y-15039484D01*
X6902396Y-15039484D02*
X6883348Y-15068055D01*
X6883348Y-15068055D02*
X6864301Y-15087103D01*
X6864301Y-15087103D02*
X6845253Y-15096627D01*
X7045253Y-15220436D02*
X7054777Y-15229960D01*
X7054777Y-15229960D02*
X7045253Y-15239484D01*
X7045253Y-15239484D02*
X7035729Y-15229960D01*
X7035729Y-15229960D02*
X7045253Y-15220436D01*
X7045253Y-15220436D02*
X7045253Y-15239484D01*
X7178586Y-15039484D02*
X7197634Y-15039484D01*
X7197634Y-15039484D02*
X7216682Y-15049008D01*
X7216682Y-15049008D02*
X7226205Y-15058531D01*
X7226205Y-15058531D02*
X7235729Y-15077579D01*
X7235729Y-15077579D02*
X7245253Y-15115674D01*
X7245253Y-15115674D02*
X7245253Y-15163293D01*
X7245253Y-15163293D02*
X7235729Y-15201388D01*
X7235729Y-15201388D02*
X7226205Y-15220436D01*
X7226205Y-15220436D02*
X7216682Y-15229960D01*
X7216682Y-15229960D02*
X7197634Y-15239484D01*
X7197634Y-15239484D02*
X7178586Y-15239484D01*
X7178586Y-15239484D02*
X7159539Y-15229960D01*
X7159539Y-15229960D02*
X7150015Y-15220436D01*
X7150015Y-15220436D02*
X7140491Y-15201388D01*
X7140491Y-15201388D02*
X7130967Y-15163293D01*
X7130967Y-15163293D02*
X7130967Y-15115674D01*
X7130967Y-15115674D02*
X7140491Y-15077579D01*
X7140491Y-15077579D02*
X7150015Y-15058531D01*
X7150015Y-15058531D02*
X7159539Y-15049008D01*
X7159539Y-15049008D02*
X7178586Y-15039484D01*
X7369062Y-15039484D02*
X7388110Y-15039484D01*
X7388110Y-15039484D02*
X7407158Y-15049008D01*
X7407158Y-15049008D02*
X7416682Y-15058531D01*
X7416682Y-15058531D02*
X7426205Y-15077579D01*
X7426205Y-15077579D02*
X7435729Y-15115674D01*
X7435729Y-15115674D02*
X7435729Y-15163293D01*
X7435729Y-15163293D02*
X7426205Y-15201388D01*
X7426205Y-15201388D02*
X7416682Y-15220436D01*
X7416682Y-15220436D02*
X7407158Y-15229960D01*
X7407158Y-15229960D02*
X7388110Y-15239484D01*
X7388110Y-15239484D02*
X7369062Y-15239484D01*
X7369062Y-15239484D02*
X7350015Y-15229960D01*
X7350015Y-15229960D02*
X7340491Y-15220436D01*
X7340491Y-15220436D02*
X7330967Y-15201388D01*
X7330967Y-15201388D02*
X7321443Y-15163293D01*
X7321443Y-15163293D02*
X7321443Y-15115674D01*
X7321443Y-15115674D02*
X7330967Y-15077579D01*
X7330967Y-15077579D02*
X7340491Y-15058531D01*
X7340491Y-15058531D02*
X7350015Y-15049008D01*
X7350015Y-15049008D02*
X7369062Y-15039484D01*
X7559539Y-15039484D02*
X7578586Y-15039484D01*
X7578586Y-15039484D02*
X7597634Y-15049008D01*
X7597634Y-15049008D02*
X7607158Y-15058531D01*
X7607158Y-15058531D02*
X7616682Y-15077579D01*
X7616682Y-15077579D02*
X7626205Y-15115674D01*
X7626205Y-15115674D02*
X7626205Y-15163293D01*
X7626205Y-15163293D02*
X7616682Y-15201388D01*
X7616682Y-15201388D02*
X7607158Y-15220436D01*
X7607158Y-15220436D02*
X7597634Y-15229960D01*
X7597634Y-15229960D02*
X7578586Y-15239484D01*
X7578586Y-15239484D02*
X7559539Y-15239484D01*
X7559539Y-15239484D02*
X7540491Y-15229960D01*
X7540491Y-15229960D02*
X7530967Y-15220436D01*
X7530967Y-15220436D02*
X7521443Y-15201388D01*
X7521443Y-15201388D02*
X7511920Y-15163293D01*
X7511920Y-15163293D02*
X7511920Y-15115674D01*
X7511920Y-15115674D02*
X7521443Y-15077579D01*
X7521443Y-15077579D02*
X7530967Y-15058531D01*
X7530967Y-15058531D02*
X7540491Y-15049008D01*
X7540491Y-15049008D02*
X7559539Y-15039484D01*
X7711920Y-15239484D02*
X7711920Y-15106150D01*
X7711920Y-15125198D02*
X7721443Y-15115674D01*
X7721443Y-15115674D02*
X7740491Y-15106150D01*
X7740491Y-15106150D02*
X7769063Y-15106150D01*
X7769063Y-15106150D02*
X7788110Y-15115674D01*
X7788110Y-15115674D02*
X7797634Y-15134722D01*
X7797634Y-15134722D02*
X7797634Y-15239484D01*
X7797634Y-15134722D02*
X7807158Y-15115674D01*
X7807158Y-15115674D02*
X7826205Y-15106150D01*
X7826205Y-15106150D02*
X7854777Y-15106150D01*
X7854777Y-15106150D02*
X7873824Y-15115674D01*
X7873824Y-15115674D02*
X7883348Y-15134722D01*
X7883348Y-15134722D02*
X7883348Y-15239484D01*
X7978586Y-15239484D02*
X7978586Y-15106150D01*
X7978586Y-15125198D02*
X7988110Y-15115674D01*
X7988110Y-15115674D02*
X8007158Y-15106150D01*
X8007158Y-15106150D02*
X8035729Y-15106150D01*
X8035729Y-15106150D02*
X8054777Y-15115674D01*
X8054777Y-15115674D02*
X8064301Y-15134722D01*
X8064301Y-15134722D02*
X8064301Y-15239484D01*
X8064301Y-15134722D02*
X8073824Y-15115674D01*
X8073824Y-15115674D02*
X8092872Y-15106150D01*
X8092872Y-15106150D02*
X8121443Y-15106150D01*
X8121443Y-15106150D02*
X8140491Y-15115674D01*
X8140491Y-15115674D02*
X8150015Y-15134722D01*
X8150015Y-15134722D02*
X8150015Y-15239484D01*
X8540491Y-15029960D02*
X8369063Y-15287103D01*
X8797634Y-15039484D02*
X8816682Y-15039484D01*
X8816682Y-15039484D02*
X8835729Y-15049008D01*
X8835729Y-15049008D02*
X8845253Y-15058531D01*
X8845253Y-15058531D02*
X8854777Y-15077579D01*
X8854777Y-15077579D02*
X8864301Y-15115674D01*
X8864301Y-15115674D02*
X8864301Y-15163293D01*
X8864301Y-15163293D02*
X8854777Y-15201388D01*
X8854777Y-15201388D02*
X8845253Y-15220436D01*
X8845253Y-15220436D02*
X8835729Y-15229960D01*
X8835729Y-15229960D02*
X8816682Y-15239484D01*
X8816682Y-15239484D02*
X8797634Y-15239484D01*
X8797634Y-15239484D02*
X8778587Y-15229960D01*
X8778587Y-15229960D02*
X8769063Y-15220436D01*
X8769063Y-15220436D02*
X8759539Y-15201388D01*
X8759539Y-15201388D02*
X8750015Y-15163293D01*
X8750015Y-15163293D02*
X8750015Y-15115674D01*
X8750015Y-15115674D02*
X8759539Y-15077579D01*
X8759539Y-15077579D02*
X8769063Y-15058531D01*
X8769063Y-15058531D02*
X8778587Y-15049008D01*
X8778587Y-15049008D02*
X8797634Y-15039484D01*
X8950015Y-15220436D02*
X8959539Y-15229960D01*
X8959539Y-15229960D02*
X8950015Y-15239484D01*
X8950015Y-15239484D02*
X8940491Y-15229960D01*
X8940491Y-15229960D02*
X8950015Y-15220436D01*
X8950015Y-15220436D02*
X8950015Y-15239484D01*
X9083348Y-15039484D02*
X9102396Y-15039484D01*
X9102396Y-15039484D02*
X9121444Y-15049008D01*
X9121444Y-15049008D02*
X9130968Y-15058531D01*
X9130968Y-15058531D02*
X9140491Y-15077579D01*
X9140491Y-15077579D02*
X9150015Y-15115674D01*
X9150015Y-15115674D02*
X9150015Y-15163293D01*
X9150015Y-15163293D02*
X9140491Y-15201388D01*
X9140491Y-15201388D02*
X9130968Y-15220436D01*
X9130968Y-15220436D02*
X9121444Y-15229960D01*
X9121444Y-15229960D02*
X9102396Y-15239484D01*
X9102396Y-15239484D02*
X9083348Y-15239484D01*
X9083348Y-15239484D02*
X9064301Y-15229960D01*
X9064301Y-15229960D02*
X9054777Y-15220436D01*
X9054777Y-15220436D02*
X9045253Y-15201388D01*
X9045253Y-15201388D02*
X9035729Y-15163293D01*
X9035729Y-15163293D02*
X9035729Y-15115674D01*
X9035729Y-15115674D02*
X9045253Y-15077579D01*
X9045253Y-15077579D02*
X9054777Y-15058531D01*
X9054777Y-15058531D02*
X9064301Y-15049008D01*
X9064301Y-15049008D02*
X9083348Y-15039484D01*
X9216682Y-15039484D02*
X9340491Y-15039484D01*
X9340491Y-15039484D02*
X9273825Y-15115674D01*
X9273825Y-15115674D02*
X9302396Y-15115674D01*
X9302396Y-15115674D02*
X9321444Y-15125198D01*
X9321444Y-15125198D02*
X9330968Y-15134722D01*
X9330968Y-15134722D02*
X9340491Y-15153769D01*
X9340491Y-15153769D02*
X9340491Y-15201388D01*
X9340491Y-15201388D02*
X9330968Y-15220436D01*
X9330968Y-15220436D02*
X9321444Y-15229960D01*
X9321444Y-15229960D02*
X9302396Y-15239484D01*
X9302396Y-15239484D02*
X9245253Y-15239484D01*
X9245253Y-15239484D02*
X9226206Y-15229960D01*
X9226206Y-15229960D02*
X9216682Y-15220436D01*
X9435729Y-15239484D02*
X9473825Y-15239484D01*
X9473825Y-15239484D02*
X9492872Y-15229960D01*
X9492872Y-15229960D02*
X9502396Y-15220436D01*
X9502396Y-15220436D02*
X9521444Y-15191865D01*
X9521444Y-15191865D02*
X9530968Y-15153769D01*
X9530968Y-15153769D02*
X9530968Y-15077579D01*
X9530968Y-15077579D02*
X9521444Y-15058531D01*
X9521444Y-15058531D02*
X9511920Y-15049008D01*
X9511920Y-15049008D02*
X9492872Y-15039484D01*
X9492872Y-15039484D02*
X9454777Y-15039484D01*
X9454777Y-15039484D02*
X9435729Y-15049008D01*
X9435729Y-15049008D02*
X9426206Y-15058531D01*
X9426206Y-15058531D02*
X9416682Y-15077579D01*
X9416682Y-15077579D02*
X9416682Y-15125198D01*
X9416682Y-15125198D02*
X9426206Y-15144246D01*
X9426206Y-15144246D02*
X9435729Y-15153769D01*
X9435729Y-15153769D02*
X9454777Y-15163293D01*
X9454777Y-15163293D02*
X9492872Y-15163293D01*
X9492872Y-15163293D02*
X9511920Y-15153769D01*
X9511920Y-15153769D02*
X9521444Y-15144246D01*
X9521444Y-15144246D02*
X9530968Y-15125198D01*
X9702396Y-15106150D02*
X9702396Y-15239484D01*
X9654777Y-15029960D02*
X9607158Y-15172817D01*
X9607158Y-15172817D02*
X9730968Y-15172817D01*
X9797634Y-15039484D02*
X9797634Y-15077579D01*
X9873825Y-15039484D02*
X9873825Y-15077579D01*
X10169063Y-15315674D02*
X10159539Y-15306150D01*
X10159539Y-15306150D02*
X10140491Y-15277579D01*
X10140491Y-15277579D02*
X10130968Y-15258531D01*
X10130968Y-15258531D02*
X10121444Y-15229960D01*
X10121444Y-15229960D02*
X10111920Y-15182341D01*
X10111920Y-15182341D02*
X10111920Y-15144246D01*
X10111920Y-15144246D02*
X10121444Y-15096627D01*
X10121444Y-15096627D02*
X10130968Y-15068055D01*
X10130968Y-15068055D02*
X10140491Y-15049008D01*
X10140491Y-15049008D02*
X10159539Y-15020436D01*
X10159539Y-15020436D02*
X10169063Y-15010912D01*
X10235730Y-15058531D02*
X10245253Y-15049008D01*
X10245253Y-15049008D02*
X10264301Y-15039484D01*
X10264301Y-15039484D02*
X10311920Y-15039484D01*
X10311920Y-15039484D02*
X10330968Y-15049008D01*
X10330968Y-15049008D02*
X10340491Y-15058531D01*
X10340491Y-15058531D02*
X10350015Y-15077579D01*
X10350015Y-15077579D02*
X10350015Y-15096627D01*
X10350015Y-15096627D02*
X10340491Y-15125198D01*
X10340491Y-15125198D02*
X10226206Y-15239484D01*
X10226206Y-15239484D02*
X10350015Y-15239484D01*
X10588111Y-15239484D02*
X10588111Y-15039484D01*
X10673825Y-15239484D02*
X10673825Y-15134722D01*
X10673825Y-15134722D02*
X10664301Y-15115674D01*
X10664301Y-15115674D02*
X10645253Y-15106150D01*
X10645253Y-15106150D02*
X10616682Y-15106150D01*
X10616682Y-15106150D02*
X10597634Y-15115674D01*
X10597634Y-15115674D02*
X10588111Y-15125198D01*
X10797634Y-15239484D02*
X10778587Y-15229960D01*
X10778587Y-15229960D02*
X10769063Y-15220436D01*
X10769063Y-15220436D02*
X10759539Y-15201388D01*
X10759539Y-15201388D02*
X10759539Y-15144246D01*
X10759539Y-15144246D02*
X10769063Y-15125198D01*
X10769063Y-15125198D02*
X10778587Y-15115674D01*
X10778587Y-15115674D02*
X10797634Y-15106150D01*
X10797634Y-15106150D02*
X10826206Y-15106150D01*
X10826206Y-15106150D02*
X10845253Y-15115674D01*
X10845253Y-15115674D02*
X10854777Y-15125198D01*
X10854777Y-15125198D02*
X10864301Y-15144246D01*
X10864301Y-15144246D02*
X10864301Y-15201388D01*
X10864301Y-15201388D02*
X10854777Y-15220436D01*
X10854777Y-15220436D02*
X10845253Y-15229960D01*
X10845253Y-15229960D02*
X10826206Y-15239484D01*
X10826206Y-15239484D02*
X10797634Y-15239484D01*
X10978587Y-15239484D02*
X10959539Y-15229960D01*
X10959539Y-15229960D02*
X10950015Y-15210912D01*
X10950015Y-15210912D02*
X10950015Y-15039484D01*
X11130968Y-15229960D02*
X11111920Y-15239484D01*
X11111920Y-15239484D02*
X11073825Y-15239484D01*
X11073825Y-15239484D02*
X11054777Y-15229960D01*
X11054777Y-15229960D02*
X11045253Y-15210912D01*
X11045253Y-15210912D02*
X11045253Y-15134722D01*
X11045253Y-15134722D02*
X11054777Y-15115674D01*
X11054777Y-15115674D02*
X11073825Y-15106150D01*
X11073825Y-15106150D02*
X11111920Y-15106150D01*
X11111920Y-15106150D02*
X11130968Y-15115674D01*
X11130968Y-15115674D02*
X11140492Y-15134722D01*
X11140492Y-15134722D02*
X11140492Y-15153769D01*
X11140492Y-15153769D02*
X11045253Y-15172817D01*
X11216682Y-15229960D02*
X11235730Y-15239484D01*
X11235730Y-15239484D02*
X11273825Y-15239484D01*
X11273825Y-15239484D02*
X11292872Y-15229960D01*
X11292872Y-15229960D02*
X11302396Y-15210912D01*
X11302396Y-15210912D02*
X11302396Y-15201388D01*
X11302396Y-15201388D02*
X11292872Y-15182341D01*
X11292872Y-15182341D02*
X11273825Y-15172817D01*
X11273825Y-15172817D02*
X11245253Y-15172817D01*
X11245253Y-15172817D02*
X11226206Y-15163293D01*
X11226206Y-15163293D02*
X11216682Y-15144246D01*
X11216682Y-15144246D02*
X11216682Y-15134722D01*
X11216682Y-15134722D02*
X11226206Y-15115674D01*
X11226206Y-15115674D02*
X11245253Y-15106150D01*
X11245253Y-15106150D02*
X11273825Y-15106150D01*
X11273825Y-15106150D02*
X11292872Y-15115674D01*
X11369063Y-15315674D02*
X11378587Y-15306150D01*
X11378587Y-15306150D02*
X11397634Y-15277579D01*
X11397634Y-15277579D02*
X11407158Y-15258531D01*
X11407158Y-15258531D02*
X11416682Y-15229960D01*
X11416682Y-15229960D02*
X11426206Y-15182341D01*
X11426206Y-15182341D02*
X11426206Y-15144246D01*
X11426206Y-15144246D02*
X11416682Y-15096627D01*
X11416682Y-15096627D02*
X11407158Y-15068055D01*
X11407158Y-15068055D02*
X11397634Y-15049008D01*
X11397634Y-15049008D02*
X11378587Y-15020436D01*
X11378587Y-15020436D02*
X11369063Y-15010912D01*
D12*
X6577891Y-15450891D02*
X6577891Y-15373109D01*
X6500109Y-15373109D01*
X6500109Y-15450891D01*
X6577891Y-15450891D01*
D10*
X6959539Y-15503484D02*
X6845253Y-15503484D01*
X6902396Y-15503484D02*
X6902396Y-15303484D01*
X6902396Y-15303484D02*
X6883348Y-15332055D01*
X6883348Y-15332055D02*
X6864301Y-15351103D01*
X6864301Y-15351103D02*
X6845253Y-15360627D01*
X7045253Y-15484436D02*
X7054777Y-15493960D01*
X7054777Y-15493960D02*
X7045253Y-15503484D01*
X7045253Y-15503484D02*
X7035729Y-15493960D01*
X7035729Y-15493960D02*
X7045253Y-15484436D01*
X7045253Y-15484436D02*
X7045253Y-15503484D01*
X7245253Y-15503484D02*
X7130967Y-15503484D01*
X7188110Y-15503484D02*
X7188110Y-15303484D01*
X7188110Y-15303484D02*
X7169062Y-15332055D01*
X7169062Y-15332055D02*
X7150015Y-15351103D01*
X7150015Y-15351103D02*
X7130967Y-15360627D01*
X7369062Y-15303484D02*
X7388110Y-15303484D01*
X7388110Y-15303484D02*
X7407158Y-15313008D01*
X7407158Y-15313008D02*
X7416682Y-15322531D01*
X7416682Y-15322531D02*
X7426205Y-15341579D01*
X7426205Y-15341579D02*
X7435729Y-15379674D01*
X7435729Y-15379674D02*
X7435729Y-15427293D01*
X7435729Y-15427293D02*
X7426205Y-15465388D01*
X7426205Y-15465388D02*
X7416682Y-15484436D01*
X7416682Y-15484436D02*
X7407158Y-15493960D01*
X7407158Y-15493960D02*
X7388110Y-15503484D01*
X7388110Y-15503484D02*
X7369062Y-15503484D01*
X7369062Y-15503484D02*
X7350015Y-15493960D01*
X7350015Y-15493960D02*
X7340491Y-15484436D01*
X7340491Y-15484436D02*
X7330967Y-15465388D01*
X7330967Y-15465388D02*
X7321443Y-15427293D01*
X7321443Y-15427293D02*
X7321443Y-15379674D01*
X7321443Y-15379674D02*
X7330967Y-15341579D01*
X7330967Y-15341579D02*
X7340491Y-15322531D01*
X7340491Y-15322531D02*
X7350015Y-15313008D01*
X7350015Y-15313008D02*
X7369062Y-15303484D01*
X7559539Y-15303484D02*
X7578586Y-15303484D01*
X7578586Y-15303484D02*
X7597634Y-15313008D01*
X7597634Y-15313008D02*
X7607158Y-15322531D01*
X7607158Y-15322531D02*
X7616682Y-15341579D01*
X7616682Y-15341579D02*
X7626205Y-15379674D01*
X7626205Y-15379674D02*
X7626205Y-15427293D01*
X7626205Y-15427293D02*
X7616682Y-15465388D01*
X7616682Y-15465388D02*
X7607158Y-15484436D01*
X7607158Y-15484436D02*
X7597634Y-15493960D01*
X7597634Y-15493960D02*
X7578586Y-15503484D01*
X7578586Y-15503484D02*
X7559539Y-15503484D01*
X7559539Y-15503484D02*
X7540491Y-15493960D01*
X7540491Y-15493960D02*
X7530967Y-15484436D01*
X7530967Y-15484436D02*
X7521443Y-15465388D01*
X7521443Y-15465388D02*
X7511920Y-15427293D01*
X7511920Y-15427293D02*
X7511920Y-15379674D01*
X7511920Y-15379674D02*
X7521443Y-15341579D01*
X7521443Y-15341579D02*
X7530967Y-15322531D01*
X7530967Y-15322531D02*
X7540491Y-15313008D01*
X7540491Y-15313008D02*
X7559539Y-15303484D01*
X7711920Y-15503484D02*
X7711920Y-15370150D01*
X7711920Y-15389198D02*
X7721443Y-15379674D01*
X7721443Y-15379674D02*
X7740491Y-15370150D01*
X7740491Y-15370150D02*
X7769063Y-15370150D01*
X7769063Y-15370150D02*
X7788110Y-15379674D01*
X7788110Y-15379674D02*
X7797634Y-15398722D01*
X7797634Y-15398722D02*
X7797634Y-15503484D01*
X7797634Y-15398722D02*
X7807158Y-15379674D01*
X7807158Y-15379674D02*
X7826205Y-15370150D01*
X7826205Y-15370150D02*
X7854777Y-15370150D01*
X7854777Y-15370150D02*
X7873824Y-15379674D01*
X7873824Y-15379674D02*
X7883348Y-15398722D01*
X7883348Y-15398722D02*
X7883348Y-15503484D01*
X7978586Y-15503484D02*
X7978586Y-15370150D01*
X7978586Y-15389198D02*
X7988110Y-15379674D01*
X7988110Y-15379674D02*
X8007158Y-15370150D01*
X8007158Y-15370150D02*
X8035729Y-15370150D01*
X8035729Y-15370150D02*
X8054777Y-15379674D01*
X8054777Y-15379674D02*
X8064301Y-15398722D01*
X8064301Y-15398722D02*
X8064301Y-15503484D01*
X8064301Y-15398722D02*
X8073824Y-15379674D01*
X8073824Y-15379674D02*
X8092872Y-15370150D01*
X8092872Y-15370150D02*
X8121443Y-15370150D01*
X8121443Y-15370150D02*
X8140491Y-15379674D01*
X8140491Y-15379674D02*
X8150015Y-15398722D01*
X8150015Y-15398722D02*
X8150015Y-15503484D01*
X8540491Y-15293960D02*
X8369063Y-15551103D01*
X8797634Y-15303484D02*
X8816682Y-15303484D01*
X8816682Y-15303484D02*
X8835729Y-15313008D01*
X8835729Y-15313008D02*
X8845253Y-15322531D01*
X8845253Y-15322531D02*
X8854777Y-15341579D01*
X8854777Y-15341579D02*
X8864301Y-15379674D01*
X8864301Y-15379674D02*
X8864301Y-15427293D01*
X8864301Y-15427293D02*
X8854777Y-15465388D01*
X8854777Y-15465388D02*
X8845253Y-15484436D01*
X8845253Y-15484436D02*
X8835729Y-15493960D01*
X8835729Y-15493960D02*
X8816682Y-15503484D01*
X8816682Y-15503484D02*
X8797634Y-15503484D01*
X8797634Y-15503484D02*
X8778587Y-15493960D01*
X8778587Y-15493960D02*
X8769063Y-15484436D01*
X8769063Y-15484436D02*
X8759539Y-15465388D01*
X8759539Y-15465388D02*
X8750015Y-15427293D01*
X8750015Y-15427293D02*
X8750015Y-15379674D01*
X8750015Y-15379674D02*
X8759539Y-15341579D01*
X8759539Y-15341579D02*
X8769063Y-15322531D01*
X8769063Y-15322531D02*
X8778587Y-15313008D01*
X8778587Y-15313008D02*
X8797634Y-15303484D01*
X8950015Y-15484436D02*
X8959539Y-15493960D01*
X8959539Y-15493960D02*
X8950015Y-15503484D01*
X8950015Y-15503484D02*
X8940491Y-15493960D01*
X8940491Y-15493960D02*
X8950015Y-15484436D01*
X8950015Y-15484436D02*
X8950015Y-15503484D01*
X9083348Y-15303484D02*
X9102396Y-15303484D01*
X9102396Y-15303484D02*
X9121444Y-15313008D01*
X9121444Y-15313008D02*
X9130968Y-15322531D01*
X9130968Y-15322531D02*
X9140491Y-15341579D01*
X9140491Y-15341579D02*
X9150015Y-15379674D01*
X9150015Y-15379674D02*
X9150015Y-15427293D01*
X9150015Y-15427293D02*
X9140491Y-15465388D01*
X9140491Y-15465388D02*
X9130968Y-15484436D01*
X9130968Y-15484436D02*
X9121444Y-15493960D01*
X9121444Y-15493960D02*
X9102396Y-15503484D01*
X9102396Y-15503484D02*
X9083348Y-15503484D01*
X9083348Y-15503484D02*
X9064301Y-15493960D01*
X9064301Y-15493960D02*
X9054777Y-15484436D01*
X9054777Y-15484436D02*
X9045253Y-15465388D01*
X9045253Y-15465388D02*
X9035729Y-15427293D01*
X9035729Y-15427293D02*
X9035729Y-15379674D01*
X9035729Y-15379674D02*
X9045253Y-15341579D01*
X9045253Y-15341579D02*
X9054777Y-15322531D01*
X9054777Y-15322531D02*
X9064301Y-15313008D01*
X9064301Y-15313008D02*
X9083348Y-15303484D01*
X9321444Y-15370150D02*
X9321444Y-15503484D01*
X9273825Y-15293960D02*
X9226206Y-15436817D01*
X9226206Y-15436817D02*
X9350015Y-15436817D01*
X9407158Y-15303484D02*
X9530968Y-15303484D01*
X9530968Y-15303484D02*
X9464301Y-15379674D01*
X9464301Y-15379674D02*
X9492872Y-15379674D01*
X9492872Y-15379674D02*
X9511920Y-15389198D01*
X9511920Y-15389198D02*
X9521444Y-15398722D01*
X9521444Y-15398722D02*
X9530968Y-15417769D01*
X9530968Y-15417769D02*
X9530968Y-15465388D01*
X9530968Y-15465388D02*
X9521444Y-15484436D01*
X9521444Y-15484436D02*
X9511920Y-15493960D01*
X9511920Y-15493960D02*
X9492872Y-15503484D01*
X9492872Y-15503484D02*
X9435729Y-15503484D01*
X9435729Y-15503484D02*
X9416682Y-15493960D01*
X9416682Y-15493960D02*
X9407158Y-15484436D01*
X9597634Y-15303484D02*
X9721444Y-15303484D01*
X9721444Y-15303484D02*
X9654777Y-15379674D01*
X9654777Y-15379674D02*
X9683349Y-15379674D01*
X9683349Y-15379674D02*
X9702396Y-15389198D01*
X9702396Y-15389198D02*
X9711920Y-15398722D01*
X9711920Y-15398722D02*
X9721444Y-15417769D01*
X9721444Y-15417769D02*
X9721444Y-15465388D01*
X9721444Y-15465388D02*
X9711920Y-15484436D01*
X9711920Y-15484436D02*
X9702396Y-15493960D01*
X9702396Y-15493960D02*
X9683349Y-15503484D01*
X9683349Y-15503484D02*
X9626206Y-15503484D01*
X9626206Y-15503484D02*
X9607158Y-15493960D01*
X9607158Y-15493960D02*
X9597634Y-15484436D01*
X9797634Y-15303484D02*
X9797634Y-15341579D01*
X9873825Y-15303484D02*
X9873825Y-15341579D01*
X10169063Y-15579674D02*
X10159539Y-15570150D01*
X10159539Y-15570150D02*
X10140491Y-15541579D01*
X10140491Y-15541579D02*
X10130968Y-15522531D01*
X10130968Y-15522531D02*
X10121444Y-15493960D01*
X10121444Y-15493960D02*
X10111920Y-15446341D01*
X10111920Y-15446341D02*
X10111920Y-15408246D01*
X10111920Y-15408246D02*
X10121444Y-15360627D01*
X10121444Y-15360627D02*
X10130968Y-15332055D01*
X10130968Y-15332055D02*
X10140491Y-15313008D01*
X10140491Y-15313008D02*
X10159539Y-15284436D01*
X10159539Y-15284436D02*
X10169063Y-15274912D01*
X10235730Y-15322531D02*
X10245253Y-15313008D01*
X10245253Y-15313008D02*
X10264301Y-15303484D01*
X10264301Y-15303484D02*
X10311920Y-15303484D01*
X10311920Y-15303484D02*
X10330968Y-15313008D01*
X10330968Y-15313008D02*
X10340491Y-15322531D01*
X10340491Y-15322531D02*
X10350015Y-15341579D01*
X10350015Y-15341579D02*
X10350015Y-15360627D01*
X10350015Y-15360627D02*
X10340491Y-15389198D01*
X10340491Y-15389198D02*
X10226206Y-15503484D01*
X10226206Y-15503484D02*
X10350015Y-15503484D01*
X10588111Y-15503484D02*
X10588111Y-15303484D01*
X10673825Y-15503484D02*
X10673825Y-15398722D01*
X10673825Y-15398722D02*
X10664301Y-15379674D01*
X10664301Y-15379674D02*
X10645253Y-15370150D01*
X10645253Y-15370150D02*
X10616682Y-15370150D01*
X10616682Y-15370150D02*
X10597634Y-15379674D01*
X10597634Y-15379674D02*
X10588111Y-15389198D01*
X10797634Y-15503484D02*
X10778587Y-15493960D01*
X10778587Y-15493960D02*
X10769063Y-15484436D01*
X10769063Y-15484436D02*
X10759539Y-15465388D01*
X10759539Y-15465388D02*
X10759539Y-15408246D01*
X10759539Y-15408246D02*
X10769063Y-15389198D01*
X10769063Y-15389198D02*
X10778587Y-15379674D01*
X10778587Y-15379674D02*
X10797634Y-15370150D01*
X10797634Y-15370150D02*
X10826206Y-15370150D01*
X10826206Y-15370150D02*
X10845253Y-15379674D01*
X10845253Y-15379674D02*
X10854777Y-15389198D01*
X10854777Y-15389198D02*
X10864301Y-15408246D01*
X10864301Y-15408246D02*
X10864301Y-15465388D01*
X10864301Y-15465388D02*
X10854777Y-15484436D01*
X10854777Y-15484436D02*
X10845253Y-15493960D01*
X10845253Y-15493960D02*
X10826206Y-15503484D01*
X10826206Y-15503484D02*
X10797634Y-15503484D01*
X10978587Y-15503484D02*
X10959539Y-15493960D01*
X10959539Y-15493960D02*
X10950015Y-15474912D01*
X10950015Y-15474912D02*
X10950015Y-15303484D01*
X11130968Y-15493960D02*
X11111920Y-15503484D01*
X11111920Y-15503484D02*
X11073825Y-15503484D01*
X11073825Y-15503484D02*
X11054777Y-15493960D01*
X11054777Y-15493960D02*
X11045253Y-15474912D01*
X11045253Y-15474912D02*
X11045253Y-15398722D01*
X11045253Y-15398722D02*
X11054777Y-15379674D01*
X11054777Y-15379674D02*
X11073825Y-15370150D01*
X11073825Y-15370150D02*
X11111920Y-15370150D01*
X11111920Y-15370150D02*
X11130968Y-15379674D01*
X11130968Y-15379674D02*
X11140492Y-15398722D01*
X11140492Y-15398722D02*
X11140492Y-15417769D01*
X11140492Y-15417769D02*
X11045253Y-15436817D01*
X11216682Y-15493960D02*
X11235730Y-15503484D01*
X11235730Y-15503484D02*
X11273825Y-15503484D01*
X11273825Y-15503484D02*
X11292872Y-15493960D01*
X11292872Y-15493960D02*
X11302396Y-15474912D01*
X11302396Y-15474912D02*
X11302396Y-15465388D01*
X11302396Y-15465388D02*
X11292872Y-15446341D01*
X11292872Y-15446341D02*
X11273825Y-15436817D01*
X11273825Y-15436817D02*
X11245253Y-15436817D01*
X11245253Y-15436817D02*
X11226206Y-15427293D01*
X11226206Y-15427293D02*
X11216682Y-15408246D01*
X11216682Y-15408246D02*
X11216682Y-15398722D01*
X11216682Y-15398722D02*
X11226206Y-15379674D01*
X11226206Y-15379674D02*
X11245253Y-15370150D01*
X11245253Y-15370150D02*
X11273825Y-15370150D01*
X11273825Y-15370150D02*
X11292872Y-15379674D01*
X11369063Y-15579674D02*
X11378587Y-15570150D01*
X11378587Y-15570150D02*
X11397634Y-15541579D01*
X11397634Y-15541579D02*
X11407158Y-15522531D01*
X11407158Y-15522531D02*
X11416682Y-15493960D01*
X11416682Y-15493960D02*
X11426206Y-15446341D01*
X11426206Y-15446341D02*
X11426206Y-15408246D01*
X11426206Y-15408246D02*
X11416682Y-15360627D01*
X11416682Y-15360627D02*
X11407158Y-15332055D01*
X11407158Y-15332055D02*
X11397634Y-15313008D01*
X11397634Y-15313008D02*
X11378587Y-15284436D01*
X11378587Y-15284436D02*
X11369063Y-15274912D01*
D13*
X6534500Y-15735500D02*
X6594000Y-15676000D01*
X6534500Y-15616500D01*
X6475000Y-15676000D01*
X6534500Y-15735500D01*
D10*
X6959539Y-15767484D02*
X6845253Y-15767484D01*
X6902396Y-15767484D02*
X6902396Y-15567484D01*
X6902396Y-15567484D02*
X6883348Y-15596055D01*
X6883348Y-15596055D02*
X6864301Y-15615103D01*
X6864301Y-15615103D02*
X6845253Y-15624627D01*
X7045253Y-15748436D02*
X7054777Y-15757960D01*
X7054777Y-15757960D02*
X7045253Y-15767484D01*
X7045253Y-15767484D02*
X7035729Y-15757960D01*
X7035729Y-15757960D02*
X7045253Y-15748436D01*
X7045253Y-15748436D02*
X7045253Y-15767484D01*
X7245253Y-15767484D02*
X7130967Y-15767484D01*
X7188110Y-15767484D02*
X7188110Y-15567484D01*
X7188110Y-15567484D02*
X7169062Y-15596055D01*
X7169062Y-15596055D02*
X7150015Y-15615103D01*
X7150015Y-15615103D02*
X7130967Y-15624627D01*
X7340491Y-15767484D02*
X7378586Y-15767484D01*
X7378586Y-15767484D02*
X7397634Y-15757960D01*
X7397634Y-15757960D02*
X7407158Y-15748436D01*
X7407158Y-15748436D02*
X7426205Y-15719865D01*
X7426205Y-15719865D02*
X7435729Y-15681769D01*
X7435729Y-15681769D02*
X7435729Y-15605579D01*
X7435729Y-15605579D02*
X7426205Y-15586531D01*
X7426205Y-15586531D02*
X7416682Y-15577008D01*
X7416682Y-15577008D02*
X7397634Y-15567484D01*
X7397634Y-15567484D02*
X7359539Y-15567484D01*
X7359539Y-15567484D02*
X7340491Y-15577008D01*
X7340491Y-15577008D02*
X7330967Y-15586531D01*
X7330967Y-15586531D02*
X7321443Y-15605579D01*
X7321443Y-15605579D02*
X7321443Y-15653198D01*
X7321443Y-15653198D02*
X7330967Y-15672246D01*
X7330967Y-15672246D02*
X7340491Y-15681769D01*
X7340491Y-15681769D02*
X7359539Y-15691293D01*
X7359539Y-15691293D02*
X7397634Y-15691293D01*
X7397634Y-15691293D02*
X7416682Y-15681769D01*
X7416682Y-15681769D02*
X7426205Y-15672246D01*
X7426205Y-15672246D02*
X7435729Y-15653198D01*
X7559539Y-15567484D02*
X7578586Y-15567484D01*
X7578586Y-15567484D02*
X7597634Y-15577008D01*
X7597634Y-15577008D02*
X7607158Y-15586531D01*
X7607158Y-15586531D02*
X7616682Y-15605579D01*
X7616682Y-15605579D02*
X7626205Y-15643674D01*
X7626205Y-15643674D02*
X7626205Y-15691293D01*
X7626205Y-15691293D02*
X7616682Y-15729388D01*
X7616682Y-15729388D02*
X7607158Y-15748436D01*
X7607158Y-15748436D02*
X7597634Y-15757960D01*
X7597634Y-15757960D02*
X7578586Y-15767484D01*
X7578586Y-15767484D02*
X7559539Y-15767484D01*
X7559539Y-15767484D02*
X7540491Y-15757960D01*
X7540491Y-15757960D02*
X7530967Y-15748436D01*
X7530967Y-15748436D02*
X7521443Y-15729388D01*
X7521443Y-15729388D02*
X7511920Y-15691293D01*
X7511920Y-15691293D02*
X7511920Y-15643674D01*
X7511920Y-15643674D02*
X7521443Y-15605579D01*
X7521443Y-15605579D02*
X7530967Y-15586531D01*
X7530967Y-15586531D02*
X7540491Y-15577008D01*
X7540491Y-15577008D02*
X7559539Y-15567484D01*
X7711920Y-15767484D02*
X7711920Y-15634150D01*
X7711920Y-15653198D02*
X7721443Y-15643674D01*
X7721443Y-15643674D02*
X7740491Y-15634150D01*
X7740491Y-15634150D02*
X7769063Y-15634150D01*
X7769063Y-15634150D02*
X7788110Y-15643674D01*
X7788110Y-15643674D02*
X7797634Y-15662722D01*
X7797634Y-15662722D02*
X7797634Y-15767484D01*
X7797634Y-15662722D02*
X7807158Y-15643674D01*
X7807158Y-15643674D02*
X7826205Y-15634150D01*
X7826205Y-15634150D02*
X7854777Y-15634150D01*
X7854777Y-15634150D02*
X7873824Y-15643674D01*
X7873824Y-15643674D02*
X7883348Y-15662722D01*
X7883348Y-15662722D02*
X7883348Y-15767484D01*
X7978586Y-15767484D02*
X7978586Y-15634150D01*
X7978586Y-15653198D02*
X7988110Y-15643674D01*
X7988110Y-15643674D02*
X8007158Y-15634150D01*
X8007158Y-15634150D02*
X8035729Y-15634150D01*
X8035729Y-15634150D02*
X8054777Y-15643674D01*
X8054777Y-15643674D02*
X8064301Y-15662722D01*
X8064301Y-15662722D02*
X8064301Y-15767484D01*
X8064301Y-15662722D02*
X8073824Y-15643674D01*
X8073824Y-15643674D02*
X8092872Y-15634150D01*
X8092872Y-15634150D02*
X8121443Y-15634150D01*
X8121443Y-15634150D02*
X8140491Y-15643674D01*
X8140491Y-15643674D02*
X8150015Y-15662722D01*
X8150015Y-15662722D02*
X8150015Y-15767484D01*
X8540491Y-15557960D02*
X8369063Y-15815103D01*
X8797634Y-15567484D02*
X8816682Y-15567484D01*
X8816682Y-15567484D02*
X8835729Y-15577008D01*
X8835729Y-15577008D02*
X8845253Y-15586531D01*
X8845253Y-15586531D02*
X8854777Y-15605579D01*
X8854777Y-15605579D02*
X8864301Y-15643674D01*
X8864301Y-15643674D02*
X8864301Y-15691293D01*
X8864301Y-15691293D02*
X8854777Y-15729388D01*
X8854777Y-15729388D02*
X8845253Y-15748436D01*
X8845253Y-15748436D02*
X8835729Y-15757960D01*
X8835729Y-15757960D02*
X8816682Y-15767484D01*
X8816682Y-15767484D02*
X8797634Y-15767484D01*
X8797634Y-15767484D02*
X8778587Y-15757960D01*
X8778587Y-15757960D02*
X8769063Y-15748436D01*
X8769063Y-15748436D02*
X8759539Y-15729388D01*
X8759539Y-15729388D02*
X8750015Y-15691293D01*
X8750015Y-15691293D02*
X8750015Y-15643674D01*
X8750015Y-15643674D02*
X8759539Y-15605579D01*
X8759539Y-15605579D02*
X8769063Y-15586531D01*
X8769063Y-15586531D02*
X8778587Y-15577008D01*
X8778587Y-15577008D02*
X8797634Y-15567484D01*
X8950015Y-15748436D02*
X8959539Y-15757960D01*
X8959539Y-15757960D02*
X8950015Y-15767484D01*
X8950015Y-15767484D02*
X8940491Y-15757960D01*
X8940491Y-15757960D02*
X8950015Y-15748436D01*
X8950015Y-15748436D02*
X8950015Y-15767484D01*
X9083348Y-15567484D02*
X9102396Y-15567484D01*
X9102396Y-15567484D02*
X9121444Y-15577008D01*
X9121444Y-15577008D02*
X9130968Y-15586531D01*
X9130968Y-15586531D02*
X9140491Y-15605579D01*
X9140491Y-15605579D02*
X9150015Y-15643674D01*
X9150015Y-15643674D02*
X9150015Y-15691293D01*
X9150015Y-15691293D02*
X9140491Y-15729388D01*
X9140491Y-15729388D02*
X9130968Y-15748436D01*
X9130968Y-15748436D02*
X9121444Y-15757960D01*
X9121444Y-15757960D02*
X9102396Y-15767484D01*
X9102396Y-15767484D02*
X9083348Y-15767484D01*
X9083348Y-15767484D02*
X9064301Y-15757960D01*
X9064301Y-15757960D02*
X9054777Y-15748436D01*
X9054777Y-15748436D02*
X9045253Y-15729388D01*
X9045253Y-15729388D02*
X9035729Y-15691293D01*
X9035729Y-15691293D02*
X9035729Y-15643674D01*
X9035729Y-15643674D02*
X9045253Y-15605579D01*
X9045253Y-15605579D02*
X9054777Y-15586531D01*
X9054777Y-15586531D02*
X9064301Y-15577008D01*
X9064301Y-15577008D02*
X9083348Y-15567484D01*
X9321444Y-15634150D02*
X9321444Y-15767484D01*
X9273825Y-15557960D02*
X9226206Y-15700817D01*
X9226206Y-15700817D02*
X9350015Y-15700817D01*
X9511920Y-15567484D02*
X9473825Y-15567484D01*
X9473825Y-15567484D02*
X9454777Y-15577008D01*
X9454777Y-15577008D02*
X9445253Y-15586531D01*
X9445253Y-15586531D02*
X9426206Y-15615103D01*
X9426206Y-15615103D02*
X9416682Y-15653198D01*
X9416682Y-15653198D02*
X9416682Y-15729388D01*
X9416682Y-15729388D02*
X9426206Y-15748436D01*
X9426206Y-15748436D02*
X9435729Y-15757960D01*
X9435729Y-15757960D02*
X9454777Y-15767484D01*
X9454777Y-15767484D02*
X9492872Y-15767484D01*
X9492872Y-15767484D02*
X9511920Y-15757960D01*
X9511920Y-15757960D02*
X9521444Y-15748436D01*
X9521444Y-15748436D02*
X9530968Y-15729388D01*
X9530968Y-15729388D02*
X9530968Y-15681769D01*
X9530968Y-15681769D02*
X9521444Y-15662722D01*
X9521444Y-15662722D02*
X9511920Y-15653198D01*
X9511920Y-15653198D02*
X9492872Y-15643674D01*
X9492872Y-15643674D02*
X9454777Y-15643674D01*
X9454777Y-15643674D02*
X9435729Y-15653198D01*
X9435729Y-15653198D02*
X9426206Y-15662722D01*
X9426206Y-15662722D02*
X9416682Y-15681769D01*
X9626206Y-15767484D02*
X9664301Y-15767484D01*
X9664301Y-15767484D02*
X9683349Y-15757960D01*
X9683349Y-15757960D02*
X9692872Y-15748436D01*
X9692872Y-15748436D02*
X9711920Y-15719865D01*
X9711920Y-15719865D02*
X9721444Y-15681769D01*
X9721444Y-15681769D02*
X9721444Y-15605579D01*
X9721444Y-15605579D02*
X9711920Y-15586531D01*
X9711920Y-15586531D02*
X9702396Y-15577008D01*
X9702396Y-15577008D02*
X9683349Y-15567484D01*
X9683349Y-15567484D02*
X9645253Y-15567484D01*
X9645253Y-15567484D02*
X9626206Y-15577008D01*
X9626206Y-15577008D02*
X9616682Y-15586531D01*
X9616682Y-15586531D02*
X9607158Y-15605579D01*
X9607158Y-15605579D02*
X9607158Y-15653198D01*
X9607158Y-15653198D02*
X9616682Y-15672246D01*
X9616682Y-15672246D02*
X9626206Y-15681769D01*
X9626206Y-15681769D02*
X9645253Y-15691293D01*
X9645253Y-15691293D02*
X9683349Y-15691293D01*
X9683349Y-15691293D02*
X9702396Y-15681769D01*
X9702396Y-15681769D02*
X9711920Y-15672246D01*
X9711920Y-15672246D02*
X9721444Y-15653198D01*
X9797634Y-15567484D02*
X9797634Y-15605579D01*
X9873825Y-15567484D02*
X9873825Y-15605579D01*
X10169063Y-15843674D02*
X10159539Y-15834150D01*
X10159539Y-15834150D02*
X10140491Y-15805579D01*
X10140491Y-15805579D02*
X10130968Y-15786531D01*
X10130968Y-15786531D02*
X10121444Y-15757960D01*
X10121444Y-15757960D02*
X10111920Y-15710341D01*
X10111920Y-15710341D02*
X10111920Y-15672246D01*
X10111920Y-15672246D02*
X10121444Y-15624627D01*
X10121444Y-15624627D02*
X10130968Y-15596055D01*
X10130968Y-15596055D02*
X10140491Y-15577008D01*
X10140491Y-15577008D02*
X10159539Y-15548436D01*
X10159539Y-15548436D02*
X10169063Y-15538912D01*
X10235730Y-15586531D02*
X10245253Y-15577008D01*
X10245253Y-15577008D02*
X10264301Y-15567484D01*
X10264301Y-15567484D02*
X10311920Y-15567484D01*
X10311920Y-15567484D02*
X10330968Y-15577008D01*
X10330968Y-15577008D02*
X10340491Y-15586531D01*
X10340491Y-15586531D02*
X10350015Y-15605579D01*
X10350015Y-15605579D02*
X10350015Y-15624627D01*
X10350015Y-15624627D02*
X10340491Y-15653198D01*
X10340491Y-15653198D02*
X10226206Y-15767484D01*
X10226206Y-15767484D02*
X10350015Y-15767484D01*
X10588111Y-15767484D02*
X10588111Y-15567484D01*
X10673825Y-15767484D02*
X10673825Y-15662722D01*
X10673825Y-15662722D02*
X10664301Y-15643674D01*
X10664301Y-15643674D02*
X10645253Y-15634150D01*
X10645253Y-15634150D02*
X10616682Y-15634150D01*
X10616682Y-15634150D02*
X10597634Y-15643674D01*
X10597634Y-15643674D02*
X10588111Y-15653198D01*
X10797634Y-15767484D02*
X10778587Y-15757960D01*
X10778587Y-15757960D02*
X10769063Y-15748436D01*
X10769063Y-15748436D02*
X10759539Y-15729388D01*
X10759539Y-15729388D02*
X10759539Y-15672246D01*
X10759539Y-15672246D02*
X10769063Y-15653198D01*
X10769063Y-15653198D02*
X10778587Y-15643674D01*
X10778587Y-15643674D02*
X10797634Y-15634150D01*
X10797634Y-15634150D02*
X10826206Y-15634150D01*
X10826206Y-15634150D02*
X10845253Y-15643674D01*
X10845253Y-15643674D02*
X10854777Y-15653198D01*
X10854777Y-15653198D02*
X10864301Y-15672246D01*
X10864301Y-15672246D02*
X10864301Y-15729388D01*
X10864301Y-15729388D02*
X10854777Y-15748436D01*
X10854777Y-15748436D02*
X10845253Y-15757960D01*
X10845253Y-15757960D02*
X10826206Y-15767484D01*
X10826206Y-15767484D02*
X10797634Y-15767484D01*
X10978587Y-15767484D02*
X10959539Y-15757960D01*
X10959539Y-15757960D02*
X10950015Y-15738912D01*
X10950015Y-15738912D02*
X10950015Y-15567484D01*
X11130968Y-15757960D02*
X11111920Y-15767484D01*
X11111920Y-15767484D02*
X11073825Y-15767484D01*
X11073825Y-15767484D02*
X11054777Y-15757960D01*
X11054777Y-15757960D02*
X11045253Y-15738912D01*
X11045253Y-15738912D02*
X11045253Y-15662722D01*
X11045253Y-15662722D02*
X11054777Y-15643674D01*
X11054777Y-15643674D02*
X11073825Y-15634150D01*
X11073825Y-15634150D02*
X11111920Y-15634150D01*
X11111920Y-15634150D02*
X11130968Y-15643674D01*
X11130968Y-15643674D02*
X11140492Y-15662722D01*
X11140492Y-15662722D02*
X11140492Y-15681769D01*
X11140492Y-15681769D02*
X11045253Y-15700817D01*
X11216682Y-15757960D02*
X11235730Y-15767484D01*
X11235730Y-15767484D02*
X11273825Y-15767484D01*
X11273825Y-15767484D02*
X11292872Y-15757960D01*
X11292872Y-15757960D02*
X11302396Y-15738912D01*
X11302396Y-15738912D02*
X11302396Y-15729388D01*
X11302396Y-15729388D02*
X11292872Y-15710341D01*
X11292872Y-15710341D02*
X11273825Y-15700817D01*
X11273825Y-15700817D02*
X11245253Y-15700817D01*
X11245253Y-15700817D02*
X11226206Y-15691293D01*
X11226206Y-15691293D02*
X11216682Y-15672246D01*
X11216682Y-15672246D02*
X11216682Y-15662722D01*
X11216682Y-15662722D02*
X11226206Y-15643674D01*
X11226206Y-15643674D02*
X11245253Y-15634150D01*
X11245253Y-15634150D02*
X11273825Y-15634150D01*
X11273825Y-15634150D02*
X11292872Y-15643674D01*
X11369063Y-15843674D02*
X11378587Y-15834150D01*
X11378587Y-15834150D02*
X11397634Y-15805579D01*
X11397634Y-15805579D02*
X11407158Y-15786531D01*
X11407158Y-15786531D02*
X11416682Y-15757960D01*
X11416682Y-15757960D02*
X11426206Y-15710341D01*
X11426206Y-15710341D02*
X11426206Y-15672246D01*
X11426206Y-15672246D02*
X11416682Y-15624627D01*
X11416682Y-15624627D02*
X11407158Y-15596055D01*
X11407158Y-15596055D02*
X11397634Y-15577008D01*
X11397634Y-15577008D02*
X11378587Y-15548436D01*
X11378587Y-15548436D02*
X11369063Y-15538912D01*
D14*
X6464000Y-15875000D02*
X6594000Y-16005000D01*
X6594000Y-15875000D02*
X6464000Y-16005000D01*
X6594000Y-15940000D02*
G75*
G02*
X6464000Y-15940000I-65000J0D01*
G01*
X6464000Y-15940000D02*
G75*
G02*
X6594000Y-15940000I65000J0D01*
G01*
D10*
X6959539Y-16031484D02*
X6845253Y-16031484D01*
X6902396Y-16031484D02*
X6902396Y-15831484D01*
X6902396Y-15831484D02*
X6883348Y-15860055D01*
X6883348Y-15860055D02*
X6864301Y-15879103D01*
X6864301Y-15879103D02*
X6845253Y-15888627D01*
X7045253Y-16012436D02*
X7054777Y-16021960D01*
X7054777Y-16021960D02*
X7045253Y-16031484D01*
X7045253Y-16031484D02*
X7035729Y-16021960D01*
X7035729Y-16021960D02*
X7045253Y-16012436D01*
X7045253Y-16012436D02*
X7045253Y-16031484D01*
X7121443Y-15831484D02*
X7245253Y-15831484D01*
X7245253Y-15831484D02*
X7178586Y-15907674D01*
X7178586Y-15907674D02*
X7207158Y-15907674D01*
X7207158Y-15907674D02*
X7226205Y-15917198D01*
X7226205Y-15917198D02*
X7235729Y-15926722D01*
X7235729Y-15926722D02*
X7245253Y-15945769D01*
X7245253Y-15945769D02*
X7245253Y-15993388D01*
X7245253Y-15993388D02*
X7235729Y-16012436D01*
X7235729Y-16012436D02*
X7226205Y-16021960D01*
X7226205Y-16021960D02*
X7207158Y-16031484D01*
X7207158Y-16031484D02*
X7150015Y-16031484D01*
X7150015Y-16031484D02*
X7130967Y-16021960D01*
X7130967Y-16021960D02*
X7121443Y-16012436D01*
X7369062Y-15831484D02*
X7388110Y-15831484D01*
X7388110Y-15831484D02*
X7407158Y-15841008D01*
X7407158Y-15841008D02*
X7416682Y-15850531D01*
X7416682Y-15850531D02*
X7426205Y-15869579D01*
X7426205Y-15869579D02*
X7435729Y-15907674D01*
X7435729Y-15907674D02*
X7435729Y-15955293D01*
X7435729Y-15955293D02*
X7426205Y-15993388D01*
X7426205Y-15993388D02*
X7416682Y-16012436D01*
X7416682Y-16012436D02*
X7407158Y-16021960D01*
X7407158Y-16021960D02*
X7388110Y-16031484D01*
X7388110Y-16031484D02*
X7369062Y-16031484D01*
X7369062Y-16031484D02*
X7350015Y-16021960D01*
X7350015Y-16021960D02*
X7340491Y-16012436D01*
X7340491Y-16012436D02*
X7330967Y-15993388D01*
X7330967Y-15993388D02*
X7321443Y-15955293D01*
X7321443Y-15955293D02*
X7321443Y-15907674D01*
X7321443Y-15907674D02*
X7330967Y-15869579D01*
X7330967Y-15869579D02*
X7340491Y-15850531D01*
X7340491Y-15850531D02*
X7350015Y-15841008D01*
X7350015Y-15841008D02*
X7369062Y-15831484D01*
X7559539Y-15831484D02*
X7578586Y-15831484D01*
X7578586Y-15831484D02*
X7597634Y-15841008D01*
X7597634Y-15841008D02*
X7607158Y-15850531D01*
X7607158Y-15850531D02*
X7616682Y-15869579D01*
X7616682Y-15869579D02*
X7626205Y-15907674D01*
X7626205Y-15907674D02*
X7626205Y-15955293D01*
X7626205Y-15955293D02*
X7616682Y-15993388D01*
X7616682Y-15993388D02*
X7607158Y-16012436D01*
X7607158Y-16012436D02*
X7597634Y-16021960D01*
X7597634Y-16021960D02*
X7578586Y-16031484D01*
X7578586Y-16031484D02*
X7559539Y-16031484D01*
X7559539Y-16031484D02*
X7540491Y-16021960D01*
X7540491Y-16021960D02*
X7530967Y-16012436D01*
X7530967Y-16012436D02*
X7521443Y-15993388D01*
X7521443Y-15993388D02*
X7511920Y-15955293D01*
X7511920Y-15955293D02*
X7511920Y-15907674D01*
X7511920Y-15907674D02*
X7521443Y-15869579D01*
X7521443Y-15869579D02*
X7530967Y-15850531D01*
X7530967Y-15850531D02*
X7540491Y-15841008D01*
X7540491Y-15841008D02*
X7559539Y-15831484D01*
X7711920Y-16031484D02*
X7711920Y-15898150D01*
X7711920Y-15917198D02*
X7721443Y-15907674D01*
X7721443Y-15907674D02*
X7740491Y-15898150D01*
X7740491Y-15898150D02*
X7769063Y-15898150D01*
X7769063Y-15898150D02*
X7788110Y-15907674D01*
X7788110Y-15907674D02*
X7797634Y-15926722D01*
X7797634Y-15926722D02*
X7797634Y-16031484D01*
X7797634Y-15926722D02*
X7807158Y-15907674D01*
X7807158Y-15907674D02*
X7826205Y-15898150D01*
X7826205Y-15898150D02*
X7854777Y-15898150D01*
X7854777Y-15898150D02*
X7873824Y-15907674D01*
X7873824Y-15907674D02*
X7883348Y-15926722D01*
X7883348Y-15926722D02*
X7883348Y-16031484D01*
X7978586Y-16031484D02*
X7978586Y-15898150D01*
X7978586Y-15917198D02*
X7988110Y-15907674D01*
X7988110Y-15907674D02*
X8007158Y-15898150D01*
X8007158Y-15898150D02*
X8035729Y-15898150D01*
X8035729Y-15898150D02*
X8054777Y-15907674D01*
X8054777Y-15907674D02*
X8064301Y-15926722D01*
X8064301Y-15926722D02*
X8064301Y-16031484D01*
X8064301Y-15926722D02*
X8073824Y-15907674D01*
X8073824Y-15907674D02*
X8092872Y-15898150D01*
X8092872Y-15898150D02*
X8121443Y-15898150D01*
X8121443Y-15898150D02*
X8140491Y-15907674D01*
X8140491Y-15907674D02*
X8150015Y-15926722D01*
X8150015Y-15926722D02*
X8150015Y-16031484D01*
X8540491Y-15821960D02*
X8369063Y-16079103D01*
X8797634Y-15831484D02*
X8816682Y-15831484D01*
X8816682Y-15831484D02*
X8835729Y-15841008D01*
X8835729Y-15841008D02*
X8845253Y-15850531D01*
X8845253Y-15850531D02*
X8854777Y-15869579D01*
X8854777Y-15869579D02*
X8864301Y-15907674D01*
X8864301Y-15907674D02*
X8864301Y-15955293D01*
X8864301Y-15955293D02*
X8854777Y-15993388D01*
X8854777Y-15993388D02*
X8845253Y-16012436D01*
X8845253Y-16012436D02*
X8835729Y-16021960D01*
X8835729Y-16021960D02*
X8816682Y-16031484D01*
X8816682Y-16031484D02*
X8797634Y-16031484D01*
X8797634Y-16031484D02*
X8778587Y-16021960D01*
X8778587Y-16021960D02*
X8769063Y-16012436D01*
X8769063Y-16012436D02*
X8759539Y-15993388D01*
X8759539Y-15993388D02*
X8750015Y-15955293D01*
X8750015Y-15955293D02*
X8750015Y-15907674D01*
X8750015Y-15907674D02*
X8759539Y-15869579D01*
X8759539Y-15869579D02*
X8769063Y-15850531D01*
X8769063Y-15850531D02*
X8778587Y-15841008D01*
X8778587Y-15841008D02*
X8797634Y-15831484D01*
X8950015Y-16012436D02*
X8959539Y-16021960D01*
X8959539Y-16021960D02*
X8950015Y-16031484D01*
X8950015Y-16031484D02*
X8940491Y-16021960D01*
X8940491Y-16021960D02*
X8950015Y-16012436D01*
X8950015Y-16012436D02*
X8950015Y-16031484D01*
X9083348Y-15831484D02*
X9102396Y-15831484D01*
X9102396Y-15831484D02*
X9121444Y-15841008D01*
X9121444Y-15841008D02*
X9130968Y-15850531D01*
X9130968Y-15850531D02*
X9140491Y-15869579D01*
X9140491Y-15869579D02*
X9150015Y-15907674D01*
X9150015Y-15907674D02*
X9150015Y-15955293D01*
X9150015Y-15955293D02*
X9140491Y-15993388D01*
X9140491Y-15993388D02*
X9130968Y-16012436D01*
X9130968Y-16012436D02*
X9121444Y-16021960D01*
X9121444Y-16021960D02*
X9102396Y-16031484D01*
X9102396Y-16031484D02*
X9083348Y-16031484D01*
X9083348Y-16031484D02*
X9064301Y-16021960D01*
X9064301Y-16021960D02*
X9054777Y-16012436D01*
X9054777Y-16012436D02*
X9045253Y-15993388D01*
X9045253Y-15993388D02*
X9035729Y-15955293D01*
X9035729Y-15955293D02*
X9035729Y-15907674D01*
X9035729Y-15907674D02*
X9045253Y-15869579D01*
X9045253Y-15869579D02*
X9054777Y-15850531D01*
X9054777Y-15850531D02*
X9064301Y-15841008D01*
X9064301Y-15841008D02*
X9083348Y-15831484D01*
X9330968Y-15831484D02*
X9235729Y-15831484D01*
X9235729Y-15831484D02*
X9226206Y-15926722D01*
X9226206Y-15926722D02*
X9235729Y-15917198D01*
X9235729Y-15917198D02*
X9254777Y-15907674D01*
X9254777Y-15907674D02*
X9302396Y-15907674D01*
X9302396Y-15907674D02*
X9321444Y-15917198D01*
X9321444Y-15917198D02*
X9330968Y-15926722D01*
X9330968Y-15926722D02*
X9340491Y-15945769D01*
X9340491Y-15945769D02*
X9340491Y-15993388D01*
X9340491Y-15993388D02*
X9330968Y-16012436D01*
X9330968Y-16012436D02*
X9321444Y-16021960D01*
X9321444Y-16021960D02*
X9302396Y-16031484D01*
X9302396Y-16031484D02*
X9254777Y-16031484D01*
X9254777Y-16031484D02*
X9235729Y-16021960D01*
X9235729Y-16021960D02*
X9226206Y-16012436D01*
X9530968Y-16031484D02*
X9416682Y-16031484D01*
X9473825Y-16031484D02*
X9473825Y-15831484D01*
X9473825Y-15831484D02*
X9454777Y-15860055D01*
X9454777Y-15860055D02*
X9435729Y-15879103D01*
X9435729Y-15879103D02*
X9416682Y-15888627D01*
X9607158Y-15850531D02*
X9616682Y-15841008D01*
X9616682Y-15841008D02*
X9635729Y-15831484D01*
X9635729Y-15831484D02*
X9683349Y-15831484D01*
X9683349Y-15831484D02*
X9702396Y-15841008D01*
X9702396Y-15841008D02*
X9711920Y-15850531D01*
X9711920Y-15850531D02*
X9721444Y-15869579D01*
X9721444Y-15869579D02*
X9721444Y-15888627D01*
X9721444Y-15888627D02*
X9711920Y-15917198D01*
X9711920Y-15917198D02*
X9597634Y-16031484D01*
X9597634Y-16031484D02*
X9721444Y-16031484D01*
X9797634Y-15831484D02*
X9797634Y-15869579D01*
X9873825Y-15831484D02*
X9873825Y-15869579D01*
X10169063Y-16107674D02*
X10159539Y-16098150D01*
X10159539Y-16098150D02*
X10140491Y-16069579D01*
X10140491Y-16069579D02*
X10130968Y-16050531D01*
X10130968Y-16050531D02*
X10121444Y-16021960D01*
X10121444Y-16021960D02*
X10111920Y-15974341D01*
X10111920Y-15974341D02*
X10111920Y-15936246D01*
X10111920Y-15936246D02*
X10121444Y-15888627D01*
X10121444Y-15888627D02*
X10130968Y-15860055D01*
X10130968Y-15860055D02*
X10140491Y-15841008D01*
X10140491Y-15841008D02*
X10159539Y-15812436D01*
X10159539Y-15812436D02*
X10169063Y-15802912D01*
X10330968Y-15898150D02*
X10330968Y-16031484D01*
X10283349Y-15821960D02*
X10235730Y-15964817D01*
X10235730Y-15964817D02*
X10359539Y-15964817D01*
X10588111Y-16031484D02*
X10588111Y-15831484D01*
X10673825Y-16031484D02*
X10673825Y-15926722D01*
X10673825Y-15926722D02*
X10664301Y-15907674D01*
X10664301Y-15907674D02*
X10645253Y-15898150D01*
X10645253Y-15898150D02*
X10616682Y-15898150D01*
X10616682Y-15898150D02*
X10597634Y-15907674D01*
X10597634Y-15907674D02*
X10588111Y-15917198D01*
X10797634Y-16031484D02*
X10778587Y-16021960D01*
X10778587Y-16021960D02*
X10769063Y-16012436D01*
X10769063Y-16012436D02*
X10759539Y-15993388D01*
X10759539Y-15993388D02*
X10759539Y-15936246D01*
X10759539Y-15936246D02*
X10769063Y-15917198D01*
X10769063Y-15917198D02*
X10778587Y-15907674D01*
X10778587Y-15907674D02*
X10797634Y-15898150D01*
X10797634Y-15898150D02*
X10826206Y-15898150D01*
X10826206Y-15898150D02*
X10845253Y-15907674D01*
X10845253Y-15907674D02*
X10854777Y-15917198D01*
X10854777Y-15917198D02*
X10864301Y-15936246D01*
X10864301Y-15936246D02*
X10864301Y-15993388D01*
X10864301Y-15993388D02*
X10854777Y-16012436D01*
X10854777Y-16012436D02*
X10845253Y-16021960D01*
X10845253Y-16021960D02*
X10826206Y-16031484D01*
X10826206Y-16031484D02*
X10797634Y-16031484D01*
X10978587Y-16031484D02*
X10959539Y-16021960D01*
X10959539Y-16021960D02*
X10950015Y-16002912D01*
X10950015Y-16002912D02*
X10950015Y-15831484D01*
X11130968Y-16021960D02*
X11111920Y-16031484D01*
X11111920Y-16031484D02*
X11073825Y-16031484D01*
X11073825Y-16031484D02*
X11054777Y-16021960D01*
X11054777Y-16021960D02*
X11045253Y-16002912D01*
X11045253Y-16002912D02*
X11045253Y-15926722D01*
X11045253Y-15926722D02*
X11054777Y-15907674D01*
X11054777Y-15907674D02*
X11073825Y-15898150D01*
X11073825Y-15898150D02*
X11111920Y-15898150D01*
X11111920Y-15898150D02*
X11130968Y-15907674D01*
X11130968Y-15907674D02*
X11140492Y-15926722D01*
X11140492Y-15926722D02*
X11140492Y-15945769D01*
X11140492Y-15945769D02*
X11045253Y-15964817D01*
X11216682Y-16021960D02*
X11235730Y-16031484D01*
X11235730Y-16031484D02*
X11273825Y-16031484D01*
X11273825Y-16031484D02*
X11292872Y-16021960D01*
X11292872Y-16021960D02*
X11302396Y-16002912D01*
X11302396Y-16002912D02*
X11302396Y-15993388D01*
X11302396Y-15993388D02*
X11292872Y-15974341D01*
X11292872Y-15974341D02*
X11273825Y-15964817D01*
X11273825Y-15964817D02*
X11245253Y-15964817D01*
X11245253Y-15964817D02*
X11226206Y-15955293D01*
X11226206Y-15955293D02*
X11216682Y-15936246D01*
X11216682Y-15936246D02*
X11216682Y-15926722D01*
X11216682Y-15926722D02*
X11226206Y-15907674D01*
X11226206Y-15907674D02*
X11245253Y-15898150D01*
X11245253Y-15898150D02*
X11273825Y-15898150D01*
X11273825Y-15898150D02*
X11292872Y-15907674D01*
X11369063Y-16107674D02*
X11378587Y-16098150D01*
X11378587Y-16098150D02*
X11397634Y-16069579D01*
X11397634Y-16069579D02*
X11407158Y-16050531D01*
X11407158Y-16050531D02*
X11416682Y-16021960D01*
X11416682Y-16021960D02*
X11426206Y-15974341D01*
X11426206Y-15974341D02*
X11426206Y-15936246D01*
X11426206Y-15936246D02*
X11416682Y-15888627D01*
X11416682Y-15888627D02*
X11407158Y-15860055D01*
X11407158Y-15860055D02*
X11397634Y-15841008D01*
X11397634Y-15841008D02*
X11378587Y-15812436D01*
X11378587Y-15812436D02*
X11369063Y-15802912D01*
D15*
X6444000Y-16129000D02*
X6594000Y-16279000D01*
X6594000Y-16129000D02*
X6444000Y-16279000D01*
X6519000Y-16129000D02*
X6519000Y-16279000D01*
X6444000Y-16204000D02*
X6594000Y-16204000D01*
D10*
X6959539Y-16295484D02*
X6845253Y-16295484D01*
X6902396Y-16295484D02*
X6902396Y-16095484D01*
X6902396Y-16095484D02*
X6883348Y-16124055D01*
X6883348Y-16124055D02*
X6864301Y-16143103D01*
X6864301Y-16143103D02*
X6845253Y-16152627D01*
X7045253Y-16276436D02*
X7054777Y-16285960D01*
X7054777Y-16285960D02*
X7045253Y-16295484D01*
X7045253Y-16295484D02*
X7035729Y-16285960D01*
X7035729Y-16285960D02*
X7045253Y-16276436D01*
X7045253Y-16276436D02*
X7045253Y-16295484D01*
X7235729Y-16095484D02*
X7140491Y-16095484D01*
X7140491Y-16095484D02*
X7130967Y-16190722D01*
X7130967Y-16190722D02*
X7140491Y-16181198D01*
X7140491Y-16181198D02*
X7159539Y-16171674D01*
X7159539Y-16171674D02*
X7207158Y-16171674D01*
X7207158Y-16171674D02*
X7226205Y-16181198D01*
X7226205Y-16181198D02*
X7235729Y-16190722D01*
X7235729Y-16190722D02*
X7245253Y-16209769D01*
X7245253Y-16209769D02*
X7245253Y-16257388D01*
X7245253Y-16257388D02*
X7235729Y-16276436D01*
X7235729Y-16276436D02*
X7226205Y-16285960D01*
X7226205Y-16285960D02*
X7207158Y-16295484D01*
X7207158Y-16295484D02*
X7159539Y-16295484D01*
X7159539Y-16295484D02*
X7140491Y-16285960D01*
X7140491Y-16285960D02*
X7130967Y-16276436D01*
X7369062Y-16095484D02*
X7388110Y-16095484D01*
X7388110Y-16095484D02*
X7407158Y-16105008D01*
X7407158Y-16105008D02*
X7416682Y-16114531D01*
X7416682Y-16114531D02*
X7426205Y-16133579D01*
X7426205Y-16133579D02*
X7435729Y-16171674D01*
X7435729Y-16171674D02*
X7435729Y-16219293D01*
X7435729Y-16219293D02*
X7426205Y-16257388D01*
X7426205Y-16257388D02*
X7416682Y-16276436D01*
X7416682Y-16276436D02*
X7407158Y-16285960D01*
X7407158Y-16285960D02*
X7388110Y-16295484D01*
X7388110Y-16295484D02*
X7369062Y-16295484D01*
X7369062Y-16295484D02*
X7350015Y-16285960D01*
X7350015Y-16285960D02*
X7340491Y-16276436D01*
X7340491Y-16276436D02*
X7330967Y-16257388D01*
X7330967Y-16257388D02*
X7321443Y-16219293D01*
X7321443Y-16219293D02*
X7321443Y-16171674D01*
X7321443Y-16171674D02*
X7330967Y-16133579D01*
X7330967Y-16133579D02*
X7340491Y-16114531D01*
X7340491Y-16114531D02*
X7350015Y-16105008D01*
X7350015Y-16105008D02*
X7369062Y-16095484D01*
X7559539Y-16095484D02*
X7578586Y-16095484D01*
X7578586Y-16095484D02*
X7597634Y-16105008D01*
X7597634Y-16105008D02*
X7607158Y-16114531D01*
X7607158Y-16114531D02*
X7616682Y-16133579D01*
X7616682Y-16133579D02*
X7626205Y-16171674D01*
X7626205Y-16171674D02*
X7626205Y-16219293D01*
X7626205Y-16219293D02*
X7616682Y-16257388D01*
X7616682Y-16257388D02*
X7607158Y-16276436D01*
X7607158Y-16276436D02*
X7597634Y-16285960D01*
X7597634Y-16285960D02*
X7578586Y-16295484D01*
X7578586Y-16295484D02*
X7559539Y-16295484D01*
X7559539Y-16295484D02*
X7540491Y-16285960D01*
X7540491Y-16285960D02*
X7530967Y-16276436D01*
X7530967Y-16276436D02*
X7521443Y-16257388D01*
X7521443Y-16257388D02*
X7511920Y-16219293D01*
X7511920Y-16219293D02*
X7511920Y-16171674D01*
X7511920Y-16171674D02*
X7521443Y-16133579D01*
X7521443Y-16133579D02*
X7530967Y-16114531D01*
X7530967Y-16114531D02*
X7540491Y-16105008D01*
X7540491Y-16105008D02*
X7559539Y-16095484D01*
X7711920Y-16295484D02*
X7711920Y-16162150D01*
X7711920Y-16181198D02*
X7721443Y-16171674D01*
X7721443Y-16171674D02*
X7740491Y-16162150D01*
X7740491Y-16162150D02*
X7769063Y-16162150D01*
X7769063Y-16162150D02*
X7788110Y-16171674D01*
X7788110Y-16171674D02*
X7797634Y-16190722D01*
X7797634Y-16190722D02*
X7797634Y-16295484D01*
X7797634Y-16190722D02*
X7807158Y-16171674D01*
X7807158Y-16171674D02*
X7826205Y-16162150D01*
X7826205Y-16162150D02*
X7854777Y-16162150D01*
X7854777Y-16162150D02*
X7873824Y-16171674D01*
X7873824Y-16171674D02*
X7883348Y-16190722D01*
X7883348Y-16190722D02*
X7883348Y-16295484D01*
X7978586Y-16295484D02*
X7978586Y-16162150D01*
X7978586Y-16181198D02*
X7988110Y-16171674D01*
X7988110Y-16171674D02*
X8007158Y-16162150D01*
X8007158Y-16162150D02*
X8035729Y-16162150D01*
X8035729Y-16162150D02*
X8054777Y-16171674D01*
X8054777Y-16171674D02*
X8064301Y-16190722D01*
X8064301Y-16190722D02*
X8064301Y-16295484D01*
X8064301Y-16190722D02*
X8073824Y-16171674D01*
X8073824Y-16171674D02*
X8092872Y-16162150D01*
X8092872Y-16162150D02*
X8121443Y-16162150D01*
X8121443Y-16162150D02*
X8140491Y-16171674D01*
X8140491Y-16171674D02*
X8150015Y-16190722D01*
X8150015Y-16190722D02*
X8150015Y-16295484D01*
X8540491Y-16085960D02*
X8369063Y-16343103D01*
X8797634Y-16095484D02*
X8816682Y-16095484D01*
X8816682Y-16095484D02*
X8835729Y-16105008D01*
X8835729Y-16105008D02*
X8845253Y-16114531D01*
X8845253Y-16114531D02*
X8854777Y-16133579D01*
X8854777Y-16133579D02*
X8864301Y-16171674D01*
X8864301Y-16171674D02*
X8864301Y-16219293D01*
X8864301Y-16219293D02*
X8854777Y-16257388D01*
X8854777Y-16257388D02*
X8845253Y-16276436D01*
X8845253Y-16276436D02*
X8835729Y-16285960D01*
X8835729Y-16285960D02*
X8816682Y-16295484D01*
X8816682Y-16295484D02*
X8797634Y-16295484D01*
X8797634Y-16295484D02*
X8778587Y-16285960D01*
X8778587Y-16285960D02*
X8769063Y-16276436D01*
X8769063Y-16276436D02*
X8759539Y-16257388D01*
X8759539Y-16257388D02*
X8750015Y-16219293D01*
X8750015Y-16219293D02*
X8750015Y-16171674D01*
X8750015Y-16171674D02*
X8759539Y-16133579D01*
X8759539Y-16133579D02*
X8769063Y-16114531D01*
X8769063Y-16114531D02*
X8778587Y-16105008D01*
X8778587Y-16105008D02*
X8797634Y-16095484D01*
X8950015Y-16276436D02*
X8959539Y-16285960D01*
X8959539Y-16285960D02*
X8950015Y-16295484D01*
X8950015Y-16295484D02*
X8940491Y-16285960D01*
X8940491Y-16285960D02*
X8950015Y-16276436D01*
X8950015Y-16276436D02*
X8950015Y-16295484D01*
X9083348Y-16095484D02*
X9102396Y-16095484D01*
X9102396Y-16095484D02*
X9121444Y-16105008D01*
X9121444Y-16105008D02*
X9130968Y-16114531D01*
X9130968Y-16114531D02*
X9140491Y-16133579D01*
X9140491Y-16133579D02*
X9150015Y-16171674D01*
X9150015Y-16171674D02*
X9150015Y-16219293D01*
X9150015Y-16219293D02*
X9140491Y-16257388D01*
X9140491Y-16257388D02*
X9130968Y-16276436D01*
X9130968Y-16276436D02*
X9121444Y-16285960D01*
X9121444Y-16285960D02*
X9102396Y-16295484D01*
X9102396Y-16295484D02*
X9083348Y-16295484D01*
X9083348Y-16295484D02*
X9064301Y-16285960D01*
X9064301Y-16285960D02*
X9054777Y-16276436D01*
X9054777Y-16276436D02*
X9045253Y-16257388D01*
X9045253Y-16257388D02*
X9035729Y-16219293D01*
X9035729Y-16219293D02*
X9035729Y-16171674D01*
X9035729Y-16171674D02*
X9045253Y-16133579D01*
X9045253Y-16133579D02*
X9054777Y-16114531D01*
X9054777Y-16114531D02*
X9064301Y-16105008D01*
X9064301Y-16105008D02*
X9083348Y-16095484D01*
X9330968Y-16095484D02*
X9235729Y-16095484D01*
X9235729Y-16095484D02*
X9226206Y-16190722D01*
X9226206Y-16190722D02*
X9235729Y-16181198D01*
X9235729Y-16181198D02*
X9254777Y-16171674D01*
X9254777Y-16171674D02*
X9302396Y-16171674D01*
X9302396Y-16171674D02*
X9321444Y-16181198D01*
X9321444Y-16181198D02*
X9330968Y-16190722D01*
X9330968Y-16190722D02*
X9340491Y-16209769D01*
X9340491Y-16209769D02*
X9340491Y-16257388D01*
X9340491Y-16257388D02*
X9330968Y-16276436D01*
X9330968Y-16276436D02*
X9321444Y-16285960D01*
X9321444Y-16285960D02*
X9302396Y-16295484D01*
X9302396Y-16295484D02*
X9254777Y-16295484D01*
X9254777Y-16295484D02*
X9235729Y-16285960D01*
X9235729Y-16285960D02*
X9226206Y-16276436D01*
X9435729Y-16295484D02*
X9473825Y-16295484D01*
X9473825Y-16295484D02*
X9492872Y-16285960D01*
X9492872Y-16285960D02*
X9502396Y-16276436D01*
X9502396Y-16276436D02*
X9521444Y-16247865D01*
X9521444Y-16247865D02*
X9530968Y-16209769D01*
X9530968Y-16209769D02*
X9530968Y-16133579D01*
X9530968Y-16133579D02*
X9521444Y-16114531D01*
X9521444Y-16114531D02*
X9511920Y-16105008D01*
X9511920Y-16105008D02*
X9492872Y-16095484D01*
X9492872Y-16095484D02*
X9454777Y-16095484D01*
X9454777Y-16095484D02*
X9435729Y-16105008D01*
X9435729Y-16105008D02*
X9426206Y-16114531D01*
X9426206Y-16114531D02*
X9416682Y-16133579D01*
X9416682Y-16133579D02*
X9416682Y-16181198D01*
X9416682Y-16181198D02*
X9426206Y-16200246D01*
X9426206Y-16200246D02*
X9435729Y-16209769D01*
X9435729Y-16209769D02*
X9454777Y-16219293D01*
X9454777Y-16219293D02*
X9492872Y-16219293D01*
X9492872Y-16219293D02*
X9511920Y-16209769D01*
X9511920Y-16209769D02*
X9521444Y-16200246D01*
X9521444Y-16200246D02*
X9530968Y-16181198D01*
X9721444Y-16295484D02*
X9607158Y-16295484D01*
X9664301Y-16295484D02*
X9664301Y-16095484D01*
X9664301Y-16095484D02*
X9645253Y-16124055D01*
X9645253Y-16124055D02*
X9626206Y-16143103D01*
X9626206Y-16143103D02*
X9607158Y-16152627D01*
X9797634Y-16095484D02*
X9797634Y-16133579D01*
X9873825Y-16095484D02*
X9873825Y-16133579D01*
X10169063Y-16371674D02*
X10159539Y-16362150D01*
X10159539Y-16362150D02*
X10140491Y-16333579D01*
X10140491Y-16333579D02*
X10130968Y-16314531D01*
X10130968Y-16314531D02*
X10121444Y-16285960D01*
X10121444Y-16285960D02*
X10111920Y-16238341D01*
X10111920Y-16238341D02*
X10111920Y-16200246D01*
X10111920Y-16200246D02*
X10121444Y-16152627D01*
X10121444Y-16152627D02*
X10130968Y-16124055D01*
X10130968Y-16124055D02*
X10140491Y-16105008D01*
X10140491Y-16105008D02*
X10159539Y-16076436D01*
X10159539Y-16076436D02*
X10169063Y-16066912D01*
X10350015Y-16295484D02*
X10235730Y-16295484D01*
X10292872Y-16295484D02*
X10292872Y-16095484D01*
X10292872Y-16095484D02*
X10273825Y-16124055D01*
X10273825Y-16124055D02*
X10254777Y-16143103D01*
X10254777Y-16143103D02*
X10235730Y-16152627D01*
X10464301Y-16181198D02*
X10445253Y-16171674D01*
X10445253Y-16171674D02*
X10435730Y-16162150D01*
X10435730Y-16162150D02*
X10426206Y-16143103D01*
X10426206Y-16143103D02*
X10426206Y-16133579D01*
X10426206Y-16133579D02*
X10435730Y-16114531D01*
X10435730Y-16114531D02*
X10445253Y-16105008D01*
X10445253Y-16105008D02*
X10464301Y-16095484D01*
X10464301Y-16095484D02*
X10502396Y-16095484D01*
X10502396Y-16095484D02*
X10521444Y-16105008D01*
X10521444Y-16105008D02*
X10530968Y-16114531D01*
X10530968Y-16114531D02*
X10540491Y-16133579D01*
X10540491Y-16133579D02*
X10540491Y-16143103D01*
X10540491Y-16143103D02*
X10530968Y-16162150D01*
X10530968Y-16162150D02*
X10521444Y-16171674D01*
X10521444Y-16171674D02*
X10502396Y-16181198D01*
X10502396Y-16181198D02*
X10464301Y-16181198D01*
X10464301Y-16181198D02*
X10445253Y-16190722D01*
X10445253Y-16190722D02*
X10435730Y-16200246D01*
X10435730Y-16200246D02*
X10426206Y-16219293D01*
X10426206Y-16219293D02*
X10426206Y-16257388D01*
X10426206Y-16257388D02*
X10435730Y-16276436D01*
X10435730Y-16276436D02*
X10445253Y-16285960D01*
X10445253Y-16285960D02*
X10464301Y-16295484D01*
X10464301Y-16295484D02*
X10502396Y-16295484D01*
X10502396Y-16295484D02*
X10521444Y-16285960D01*
X10521444Y-16285960D02*
X10530968Y-16276436D01*
X10530968Y-16276436D02*
X10540491Y-16257388D01*
X10540491Y-16257388D02*
X10540491Y-16219293D01*
X10540491Y-16219293D02*
X10530968Y-16200246D01*
X10530968Y-16200246D02*
X10521444Y-16190722D01*
X10521444Y-16190722D02*
X10502396Y-16181198D01*
X10778587Y-16295484D02*
X10778587Y-16095484D01*
X10864301Y-16295484D02*
X10864301Y-16190722D01*
X10864301Y-16190722D02*
X10854777Y-16171674D01*
X10854777Y-16171674D02*
X10835730Y-16162150D01*
X10835730Y-16162150D02*
X10807158Y-16162150D01*
X10807158Y-16162150D02*
X10788111Y-16171674D01*
X10788111Y-16171674D02*
X10778587Y-16181198D01*
X10988111Y-16295484D02*
X10969063Y-16285960D01*
X10969063Y-16285960D02*
X10959539Y-16276436D01*
X10959539Y-16276436D02*
X10950015Y-16257388D01*
X10950015Y-16257388D02*
X10950015Y-16200246D01*
X10950015Y-16200246D02*
X10959539Y-16181198D01*
X10959539Y-16181198D02*
X10969063Y-16171674D01*
X10969063Y-16171674D02*
X10988111Y-16162150D01*
X10988111Y-16162150D02*
X11016682Y-16162150D01*
X11016682Y-16162150D02*
X11035730Y-16171674D01*
X11035730Y-16171674D02*
X11045253Y-16181198D01*
X11045253Y-16181198D02*
X11054777Y-16200246D01*
X11054777Y-16200246D02*
X11054777Y-16257388D01*
X11054777Y-16257388D02*
X11045253Y-16276436D01*
X11045253Y-16276436D02*
X11035730Y-16285960D01*
X11035730Y-16285960D02*
X11016682Y-16295484D01*
X11016682Y-16295484D02*
X10988111Y-16295484D01*
X11169063Y-16295484D02*
X11150015Y-16285960D01*
X11150015Y-16285960D02*
X11140492Y-16266912D01*
X11140492Y-16266912D02*
X11140492Y-16095484D01*
X11321444Y-16285960D02*
X11302396Y-16295484D01*
X11302396Y-16295484D02*
X11264301Y-16295484D01*
X11264301Y-16295484D02*
X11245253Y-16285960D01*
X11245253Y-16285960D02*
X11235730Y-16266912D01*
X11235730Y-16266912D02*
X11235730Y-16190722D01*
X11235730Y-16190722D02*
X11245253Y-16171674D01*
X11245253Y-16171674D02*
X11264301Y-16162150D01*
X11264301Y-16162150D02*
X11302396Y-16162150D01*
X11302396Y-16162150D02*
X11321444Y-16171674D01*
X11321444Y-16171674D02*
X11330968Y-16190722D01*
X11330968Y-16190722D02*
X11330968Y-16209769D01*
X11330968Y-16209769D02*
X11235730Y-16228817D01*
X11407158Y-16285960D02*
X11426206Y-16295484D01*
X11426206Y-16295484D02*
X11464301Y-16295484D01*
X11464301Y-16295484D02*
X11483349Y-16285960D01*
X11483349Y-16285960D02*
X11492872Y-16266912D01*
X11492872Y-16266912D02*
X11492872Y-16257388D01*
X11492872Y-16257388D02*
X11483349Y-16238341D01*
X11483349Y-16238341D02*
X11464301Y-16228817D01*
X11464301Y-16228817D02*
X11435730Y-16228817D01*
X11435730Y-16228817D02*
X11416682Y-16219293D01*
X11416682Y-16219293D02*
X11407158Y-16200246D01*
X11407158Y-16200246D02*
X11407158Y-16190722D01*
X11407158Y-16190722D02*
X11416682Y-16171674D01*
X11416682Y-16171674D02*
X11435730Y-16162150D01*
X11435730Y-16162150D02*
X11464301Y-16162150D01*
X11464301Y-16162150D02*
X11483349Y-16171674D01*
X11559539Y-16371674D02*
X11569063Y-16362150D01*
X11569063Y-16362150D02*
X11588111Y-16333579D01*
X11588111Y-16333579D02*
X11597634Y-16314531D01*
X11597634Y-16314531D02*
X11607158Y-16285960D01*
X11607158Y-16285960D02*
X11616682Y-16238341D01*
X11616682Y-16238341D02*
X11616682Y-16200246D01*
X11616682Y-16200246D02*
X11607158Y-16152627D01*
X11607158Y-16152627D02*
X11597634Y-16124055D01*
X11597634Y-16124055D02*
X11588111Y-16105008D01*
X11588111Y-16105008D02*
X11569063Y-16076436D01*
X11569063Y-16076436D02*
X11559539Y-16066912D01*
D16*
X6424000Y-16389000D02*
X6594000Y-16559000D01*
X6594000Y-16389000D02*
X6424000Y-16559000D01*
X6569105Y-16534105D02*
X6569105Y-16413895D01*
X6448895Y-16413895D01*
X6448895Y-16534105D01*
X6569105Y-16534105D01*
D10*
X6959539Y-16565484D02*
X6845253Y-16565484D01*
X6902396Y-16565484D02*
X6902396Y-16365484D01*
X6902396Y-16365484D02*
X6883348Y-16394055D01*
X6883348Y-16394055D02*
X6864301Y-16413103D01*
X6864301Y-16413103D02*
X6845253Y-16422627D01*
X7045253Y-16546436D02*
X7054777Y-16555960D01*
X7054777Y-16555960D02*
X7045253Y-16565484D01*
X7045253Y-16565484D02*
X7035729Y-16555960D01*
X7035729Y-16555960D02*
X7045253Y-16546436D01*
X7045253Y-16546436D02*
X7045253Y-16565484D01*
X7121443Y-16365484D02*
X7254777Y-16365484D01*
X7254777Y-16365484D02*
X7169062Y-16565484D01*
X7369062Y-16365484D02*
X7388110Y-16365484D01*
X7388110Y-16365484D02*
X7407158Y-16375008D01*
X7407158Y-16375008D02*
X7416682Y-16384531D01*
X7416682Y-16384531D02*
X7426205Y-16403579D01*
X7426205Y-16403579D02*
X7435729Y-16441674D01*
X7435729Y-16441674D02*
X7435729Y-16489293D01*
X7435729Y-16489293D02*
X7426205Y-16527388D01*
X7426205Y-16527388D02*
X7416682Y-16546436D01*
X7416682Y-16546436D02*
X7407158Y-16555960D01*
X7407158Y-16555960D02*
X7388110Y-16565484D01*
X7388110Y-16565484D02*
X7369062Y-16565484D01*
X7369062Y-16565484D02*
X7350015Y-16555960D01*
X7350015Y-16555960D02*
X7340491Y-16546436D01*
X7340491Y-16546436D02*
X7330967Y-16527388D01*
X7330967Y-16527388D02*
X7321443Y-16489293D01*
X7321443Y-16489293D02*
X7321443Y-16441674D01*
X7321443Y-16441674D02*
X7330967Y-16403579D01*
X7330967Y-16403579D02*
X7340491Y-16384531D01*
X7340491Y-16384531D02*
X7350015Y-16375008D01*
X7350015Y-16375008D02*
X7369062Y-16365484D01*
X7559539Y-16365484D02*
X7578586Y-16365484D01*
X7578586Y-16365484D02*
X7597634Y-16375008D01*
X7597634Y-16375008D02*
X7607158Y-16384531D01*
X7607158Y-16384531D02*
X7616682Y-16403579D01*
X7616682Y-16403579D02*
X7626205Y-16441674D01*
X7626205Y-16441674D02*
X7626205Y-16489293D01*
X7626205Y-16489293D02*
X7616682Y-16527388D01*
X7616682Y-16527388D02*
X7607158Y-16546436D01*
X7607158Y-16546436D02*
X7597634Y-16555960D01*
X7597634Y-16555960D02*
X7578586Y-16565484D01*
X7578586Y-16565484D02*
X7559539Y-16565484D01*
X7559539Y-16565484D02*
X7540491Y-16555960D01*
X7540491Y-16555960D02*
X7530967Y-16546436D01*
X7530967Y-16546436D02*
X7521443Y-16527388D01*
X7521443Y-16527388D02*
X7511920Y-16489293D01*
X7511920Y-16489293D02*
X7511920Y-16441674D01*
X7511920Y-16441674D02*
X7521443Y-16403579D01*
X7521443Y-16403579D02*
X7530967Y-16384531D01*
X7530967Y-16384531D02*
X7540491Y-16375008D01*
X7540491Y-16375008D02*
X7559539Y-16365484D01*
X7711920Y-16565484D02*
X7711920Y-16432150D01*
X7711920Y-16451198D02*
X7721443Y-16441674D01*
X7721443Y-16441674D02*
X7740491Y-16432150D01*
X7740491Y-16432150D02*
X7769063Y-16432150D01*
X7769063Y-16432150D02*
X7788110Y-16441674D01*
X7788110Y-16441674D02*
X7797634Y-16460722D01*
X7797634Y-16460722D02*
X7797634Y-16565484D01*
X7797634Y-16460722D02*
X7807158Y-16441674D01*
X7807158Y-16441674D02*
X7826205Y-16432150D01*
X7826205Y-16432150D02*
X7854777Y-16432150D01*
X7854777Y-16432150D02*
X7873824Y-16441674D01*
X7873824Y-16441674D02*
X7883348Y-16460722D01*
X7883348Y-16460722D02*
X7883348Y-16565484D01*
X7978586Y-16565484D02*
X7978586Y-16432150D01*
X7978586Y-16451198D02*
X7988110Y-16441674D01*
X7988110Y-16441674D02*
X8007158Y-16432150D01*
X8007158Y-16432150D02*
X8035729Y-16432150D01*
X8035729Y-16432150D02*
X8054777Y-16441674D01*
X8054777Y-16441674D02*
X8064301Y-16460722D01*
X8064301Y-16460722D02*
X8064301Y-16565484D01*
X8064301Y-16460722D02*
X8073824Y-16441674D01*
X8073824Y-16441674D02*
X8092872Y-16432150D01*
X8092872Y-16432150D02*
X8121443Y-16432150D01*
X8121443Y-16432150D02*
X8140491Y-16441674D01*
X8140491Y-16441674D02*
X8150015Y-16460722D01*
X8150015Y-16460722D02*
X8150015Y-16565484D01*
X8540491Y-16355960D02*
X8369063Y-16613103D01*
X8797634Y-16365484D02*
X8816682Y-16365484D01*
X8816682Y-16365484D02*
X8835729Y-16375008D01*
X8835729Y-16375008D02*
X8845253Y-16384531D01*
X8845253Y-16384531D02*
X8854777Y-16403579D01*
X8854777Y-16403579D02*
X8864301Y-16441674D01*
X8864301Y-16441674D02*
X8864301Y-16489293D01*
X8864301Y-16489293D02*
X8854777Y-16527388D01*
X8854777Y-16527388D02*
X8845253Y-16546436D01*
X8845253Y-16546436D02*
X8835729Y-16555960D01*
X8835729Y-16555960D02*
X8816682Y-16565484D01*
X8816682Y-16565484D02*
X8797634Y-16565484D01*
X8797634Y-16565484D02*
X8778587Y-16555960D01*
X8778587Y-16555960D02*
X8769063Y-16546436D01*
X8769063Y-16546436D02*
X8759539Y-16527388D01*
X8759539Y-16527388D02*
X8750015Y-16489293D01*
X8750015Y-16489293D02*
X8750015Y-16441674D01*
X8750015Y-16441674D02*
X8759539Y-16403579D01*
X8759539Y-16403579D02*
X8769063Y-16384531D01*
X8769063Y-16384531D02*
X8778587Y-16375008D01*
X8778587Y-16375008D02*
X8797634Y-16365484D01*
X8950015Y-16546436D02*
X8959539Y-16555960D01*
X8959539Y-16555960D02*
X8950015Y-16565484D01*
X8950015Y-16565484D02*
X8940491Y-16555960D01*
X8940491Y-16555960D02*
X8950015Y-16546436D01*
X8950015Y-16546436D02*
X8950015Y-16565484D01*
X9083348Y-16365484D02*
X9102396Y-16365484D01*
X9102396Y-16365484D02*
X9121444Y-16375008D01*
X9121444Y-16375008D02*
X9130968Y-16384531D01*
X9130968Y-16384531D02*
X9140491Y-16403579D01*
X9140491Y-16403579D02*
X9150015Y-16441674D01*
X9150015Y-16441674D02*
X9150015Y-16489293D01*
X9150015Y-16489293D02*
X9140491Y-16527388D01*
X9140491Y-16527388D02*
X9130968Y-16546436D01*
X9130968Y-16546436D02*
X9121444Y-16555960D01*
X9121444Y-16555960D02*
X9102396Y-16565484D01*
X9102396Y-16565484D02*
X9083348Y-16565484D01*
X9083348Y-16565484D02*
X9064301Y-16555960D01*
X9064301Y-16555960D02*
X9054777Y-16546436D01*
X9054777Y-16546436D02*
X9045253Y-16527388D01*
X9045253Y-16527388D02*
X9035729Y-16489293D01*
X9035729Y-16489293D02*
X9035729Y-16441674D01*
X9035729Y-16441674D02*
X9045253Y-16403579D01*
X9045253Y-16403579D02*
X9054777Y-16384531D01*
X9054777Y-16384531D02*
X9064301Y-16375008D01*
X9064301Y-16375008D02*
X9083348Y-16365484D01*
X9321444Y-16365484D02*
X9283348Y-16365484D01*
X9283348Y-16365484D02*
X9264301Y-16375008D01*
X9264301Y-16375008D02*
X9254777Y-16384531D01*
X9254777Y-16384531D02*
X9235729Y-16413103D01*
X9235729Y-16413103D02*
X9226206Y-16451198D01*
X9226206Y-16451198D02*
X9226206Y-16527388D01*
X9226206Y-16527388D02*
X9235729Y-16546436D01*
X9235729Y-16546436D02*
X9245253Y-16555960D01*
X9245253Y-16555960D02*
X9264301Y-16565484D01*
X9264301Y-16565484D02*
X9302396Y-16565484D01*
X9302396Y-16565484D02*
X9321444Y-16555960D01*
X9321444Y-16555960D02*
X9330968Y-16546436D01*
X9330968Y-16546436D02*
X9340491Y-16527388D01*
X9340491Y-16527388D02*
X9340491Y-16479769D01*
X9340491Y-16479769D02*
X9330968Y-16460722D01*
X9330968Y-16460722D02*
X9321444Y-16451198D01*
X9321444Y-16451198D02*
X9302396Y-16441674D01*
X9302396Y-16441674D02*
X9264301Y-16441674D01*
X9264301Y-16441674D02*
X9245253Y-16451198D01*
X9245253Y-16451198D02*
X9235729Y-16460722D01*
X9235729Y-16460722D02*
X9226206Y-16479769D01*
X9511920Y-16365484D02*
X9473825Y-16365484D01*
X9473825Y-16365484D02*
X9454777Y-16375008D01*
X9454777Y-16375008D02*
X9445253Y-16384531D01*
X9445253Y-16384531D02*
X9426206Y-16413103D01*
X9426206Y-16413103D02*
X9416682Y-16451198D01*
X9416682Y-16451198D02*
X9416682Y-16527388D01*
X9416682Y-16527388D02*
X9426206Y-16546436D01*
X9426206Y-16546436D02*
X9435729Y-16555960D01*
X9435729Y-16555960D02*
X9454777Y-16565484D01*
X9454777Y-16565484D02*
X9492872Y-16565484D01*
X9492872Y-16565484D02*
X9511920Y-16555960D01*
X9511920Y-16555960D02*
X9521444Y-16546436D01*
X9521444Y-16546436D02*
X9530968Y-16527388D01*
X9530968Y-16527388D02*
X9530968Y-16479769D01*
X9530968Y-16479769D02*
X9521444Y-16460722D01*
X9521444Y-16460722D02*
X9511920Y-16451198D01*
X9511920Y-16451198D02*
X9492872Y-16441674D01*
X9492872Y-16441674D02*
X9454777Y-16441674D01*
X9454777Y-16441674D02*
X9435729Y-16451198D01*
X9435729Y-16451198D02*
X9426206Y-16460722D01*
X9426206Y-16460722D02*
X9416682Y-16479769D01*
X9626206Y-16565484D02*
X9664301Y-16565484D01*
X9664301Y-16565484D02*
X9683349Y-16555960D01*
X9683349Y-16555960D02*
X9692872Y-16546436D01*
X9692872Y-16546436D02*
X9711920Y-16517865D01*
X9711920Y-16517865D02*
X9721444Y-16479769D01*
X9721444Y-16479769D02*
X9721444Y-16403579D01*
X9721444Y-16403579D02*
X9711920Y-16384531D01*
X9711920Y-16384531D02*
X9702396Y-16375008D01*
X9702396Y-16375008D02*
X9683349Y-16365484D01*
X9683349Y-16365484D02*
X9645253Y-16365484D01*
X9645253Y-16365484D02*
X9626206Y-16375008D01*
X9626206Y-16375008D02*
X9616682Y-16384531D01*
X9616682Y-16384531D02*
X9607158Y-16403579D01*
X9607158Y-16403579D02*
X9607158Y-16451198D01*
X9607158Y-16451198D02*
X9616682Y-16470246D01*
X9616682Y-16470246D02*
X9626206Y-16479769D01*
X9626206Y-16479769D02*
X9645253Y-16489293D01*
X9645253Y-16489293D02*
X9683349Y-16489293D01*
X9683349Y-16489293D02*
X9702396Y-16479769D01*
X9702396Y-16479769D02*
X9711920Y-16470246D01*
X9711920Y-16470246D02*
X9721444Y-16451198D01*
X9797634Y-16365484D02*
X9797634Y-16403579D01*
X9873825Y-16365484D02*
X9873825Y-16403579D01*
X10169063Y-16641674D02*
X10159539Y-16632150D01*
X10159539Y-16632150D02*
X10140491Y-16603579D01*
X10140491Y-16603579D02*
X10130968Y-16584531D01*
X10130968Y-16584531D02*
X10121444Y-16555960D01*
X10121444Y-16555960D02*
X10111920Y-16508341D01*
X10111920Y-16508341D02*
X10111920Y-16470246D01*
X10111920Y-16470246D02*
X10121444Y-16422627D01*
X10121444Y-16422627D02*
X10130968Y-16394055D01*
X10130968Y-16394055D02*
X10140491Y-16375008D01*
X10140491Y-16375008D02*
X10159539Y-16346436D01*
X10159539Y-16346436D02*
X10169063Y-16336912D01*
X10330968Y-16432150D02*
X10330968Y-16565484D01*
X10283349Y-16355960D02*
X10235730Y-16498817D01*
X10235730Y-16498817D02*
X10359539Y-16498817D01*
X10588111Y-16565484D02*
X10588111Y-16365484D01*
X10673825Y-16565484D02*
X10673825Y-16460722D01*
X10673825Y-16460722D02*
X10664301Y-16441674D01*
X10664301Y-16441674D02*
X10645253Y-16432150D01*
X10645253Y-16432150D02*
X10616682Y-16432150D01*
X10616682Y-16432150D02*
X10597634Y-16441674D01*
X10597634Y-16441674D02*
X10588111Y-16451198D01*
X10797634Y-16565484D02*
X10778587Y-16555960D01*
X10778587Y-16555960D02*
X10769063Y-16546436D01*
X10769063Y-16546436D02*
X10759539Y-16527388D01*
X10759539Y-16527388D02*
X10759539Y-16470246D01*
X10759539Y-16470246D02*
X10769063Y-16451198D01*
X10769063Y-16451198D02*
X10778587Y-16441674D01*
X10778587Y-16441674D02*
X10797634Y-16432150D01*
X10797634Y-16432150D02*
X10826206Y-16432150D01*
X10826206Y-16432150D02*
X10845253Y-16441674D01*
X10845253Y-16441674D02*
X10854777Y-16451198D01*
X10854777Y-16451198D02*
X10864301Y-16470246D01*
X10864301Y-16470246D02*
X10864301Y-16527388D01*
X10864301Y-16527388D02*
X10854777Y-16546436D01*
X10854777Y-16546436D02*
X10845253Y-16555960D01*
X10845253Y-16555960D02*
X10826206Y-16565484D01*
X10826206Y-16565484D02*
X10797634Y-16565484D01*
X10978587Y-16565484D02*
X10959539Y-16555960D01*
X10959539Y-16555960D02*
X10950015Y-16536912D01*
X10950015Y-16536912D02*
X10950015Y-16365484D01*
X11130968Y-16555960D02*
X11111920Y-16565484D01*
X11111920Y-16565484D02*
X11073825Y-16565484D01*
X11073825Y-16565484D02*
X11054777Y-16555960D01*
X11054777Y-16555960D02*
X11045253Y-16536912D01*
X11045253Y-16536912D02*
X11045253Y-16460722D01*
X11045253Y-16460722D02*
X11054777Y-16441674D01*
X11054777Y-16441674D02*
X11073825Y-16432150D01*
X11073825Y-16432150D02*
X11111920Y-16432150D01*
X11111920Y-16432150D02*
X11130968Y-16441674D01*
X11130968Y-16441674D02*
X11140492Y-16460722D01*
X11140492Y-16460722D02*
X11140492Y-16479769D01*
X11140492Y-16479769D02*
X11045253Y-16498817D01*
X11216682Y-16555960D02*
X11235730Y-16565484D01*
X11235730Y-16565484D02*
X11273825Y-16565484D01*
X11273825Y-16565484D02*
X11292872Y-16555960D01*
X11292872Y-16555960D02*
X11302396Y-16536912D01*
X11302396Y-16536912D02*
X11302396Y-16527388D01*
X11302396Y-16527388D02*
X11292872Y-16508341D01*
X11292872Y-16508341D02*
X11273825Y-16498817D01*
X11273825Y-16498817D02*
X11245253Y-16498817D01*
X11245253Y-16498817D02*
X11226206Y-16489293D01*
X11226206Y-16489293D02*
X11216682Y-16470246D01*
X11216682Y-16470246D02*
X11216682Y-16460722D01*
X11216682Y-16460722D02*
X11226206Y-16441674D01*
X11226206Y-16441674D02*
X11245253Y-16432150D01*
X11245253Y-16432150D02*
X11273825Y-16432150D01*
X11273825Y-16432150D02*
X11292872Y-16441674D01*
X11369063Y-16641674D02*
X11378587Y-16632150D01*
X11378587Y-16632150D02*
X11397634Y-16603579D01*
X11397634Y-16603579D02*
X11407158Y-16584531D01*
X11407158Y-16584531D02*
X11416682Y-16555960D01*
X11416682Y-16555960D02*
X11426206Y-16508341D01*
X11426206Y-16508341D02*
X11426206Y-16470246D01*
X11426206Y-16470246D02*
X11416682Y-16422627D01*
X11416682Y-16422627D02*
X11407158Y-16394055D01*
X11407158Y-16394055D02*
X11397634Y-16375008D01*
X11397634Y-16375008D02*
X11378587Y-16346436D01*
X11378587Y-16346436D02*
X11369063Y-16336912D01*
X6394000Y-16664000D02*
X6594000Y-16864000D01*
X6594000Y-16664000D02*
X6394000Y-16864000D01*
X6494000Y-16864000D02*
X6594000Y-16764000D01*
X6494000Y-16664000D01*
X6394000Y-16764000D01*
X6494000Y-16864000D01*
X6845253Y-16674531D02*
X6854777Y-16665008D01*
X6854777Y-16665008D02*
X6873824Y-16655484D01*
X6873824Y-16655484D02*
X6921443Y-16655484D01*
X6921443Y-16655484D02*
X6940491Y-16665008D01*
X6940491Y-16665008D02*
X6950015Y-16674531D01*
X6950015Y-16674531D02*
X6959539Y-16693579D01*
X6959539Y-16693579D02*
X6959539Y-16712627D01*
X6959539Y-16712627D02*
X6950015Y-16741198D01*
X6950015Y-16741198D02*
X6835729Y-16855484D01*
X6835729Y-16855484D02*
X6959539Y-16855484D01*
X7045253Y-16836436D02*
X7054777Y-16845960D01*
X7054777Y-16845960D02*
X7045253Y-16855484D01*
X7045253Y-16855484D02*
X7035729Y-16845960D01*
X7035729Y-16845960D02*
X7045253Y-16836436D01*
X7045253Y-16836436D02*
X7045253Y-16855484D01*
X7178586Y-16655484D02*
X7197634Y-16655484D01*
X7197634Y-16655484D02*
X7216682Y-16665008D01*
X7216682Y-16665008D02*
X7226205Y-16674531D01*
X7226205Y-16674531D02*
X7235729Y-16693579D01*
X7235729Y-16693579D02*
X7245253Y-16731674D01*
X7245253Y-16731674D02*
X7245253Y-16779293D01*
X7245253Y-16779293D02*
X7235729Y-16817389D01*
X7235729Y-16817389D02*
X7226205Y-16836436D01*
X7226205Y-16836436D02*
X7216682Y-16845960D01*
X7216682Y-16845960D02*
X7197634Y-16855484D01*
X7197634Y-16855484D02*
X7178586Y-16855484D01*
X7178586Y-16855484D02*
X7159539Y-16845960D01*
X7159539Y-16845960D02*
X7150015Y-16836436D01*
X7150015Y-16836436D02*
X7140491Y-16817389D01*
X7140491Y-16817389D02*
X7130967Y-16779293D01*
X7130967Y-16779293D02*
X7130967Y-16731674D01*
X7130967Y-16731674D02*
X7140491Y-16693579D01*
X7140491Y-16693579D02*
X7150015Y-16674531D01*
X7150015Y-16674531D02*
X7159539Y-16665008D01*
X7159539Y-16665008D02*
X7178586Y-16655484D01*
X7369062Y-16655484D02*
X7388110Y-16655484D01*
X7388110Y-16655484D02*
X7407158Y-16665008D01*
X7407158Y-16665008D02*
X7416682Y-16674531D01*
X7416682Y-16674531D02*
X7426205Y-16693579D01*
X7426205Y-16693579D02*
X7435729Y-16731674D01*
X7435729Y-16731674D02*
X7435729Y-16779293D01*
X7435729Y-16779293D02*
X7426205Y-16817389D01*
X7426205Y-16817389D02*
X7416682Y-16836436D01*
X7416682Y-16836436D02*
X7407158Y-16845960D01*
X7407158Y-16845960D02*
X7388110Y-16855484D01*
X7388110Y-16855484D02*
X7369062Y-16855484D01*
X7369062Y-16855484D02*
X7350015Y-16845960D01*
X7350015Y-16845960D02*
X7340491Y-16836436D01*
X7340491Y-16836436D02*
X7330967Y-16817389D01*
X7330967Y-16817389D02*
X7321443Y-16779293D01*
X7321443Y-16779293D02*
X7321443Y-16731674D01*
X7321443Y-16731674D02*
X7330967Y-16693579D01*
X7330967Y-16693579D02*
X7340491Y-16674531D01*
X7340491Y-16674531D02*
X7350015Y-16665008D01*
X7350015Y-16665008D02*
X7369062Y-16655484D01*
X7559539Y-16655484D02*
X7578586Y-16655484D01*
X7578586Y-16655484D02*
X7597634Y-16665008D01*
X7597634Y-16665008D02*
X7607158Y-16674531D01*
X7607158Y-16674531D02*
X7616682Y-16693579D01*
X7616682Y-16693579D02*
X7626205Y-16731674D01*
X7626205Y-16731674D02*
X7626205Y-16779293D01*
X7626205Y-16779293D02*
X7616682Y-16817389D01*
X7616682Y-16817389D02*
X7607158Y-16836436D01*
X7607158Y-16836436D02*
X7597634Y-16845960D01*
X7597634Y-16845960D02*
X7578586Y-16855484D01*
X7578586Y-16855484D02*
X7559539Y-16855484D01*
X7559539Y-16855484D02*
X7540491Y-16845960D01*
X7540491Y-16845960D02*
X7530967Y-16836436D01*
X7530967Y-16836436D02*
X7521443Y-16817389D01*
X7521443Y-16817389D02*
X7511920Y-16779293D01*
X7511920Y-16779293D02*
X7511920Y-16731674D01*
X7511920Y-16731674D02*
X7521443Y-16693579D01*
X7521443Y-16693579D02*
X7530967Y-16674531D01*
X7530967Y-16674531D02*
X7540491Y-16665008D01*
X7540491Y-16665008D02*
X7559539Y-16655484D01*
X7711920Y-16855484D02*
X7711920Y-16722150D01*
X7711920Y-16741198D02*
X7721443Y-16731674D01*
X7721443Y-16731674D02*
X7740491Y-16722150D01*
X7740491Y-16722150D02*
X7769063Y-16722150D01*
X7769063Y-16722150D02*
X7788110Y-16731674D01*
X7788110Y-16731674D02*
X7797634Y-16750722D01*
X7797634Y-16750722D02*
X7797634Y-16855484D01*
X7797634Y-16750722D02*
X7807158Y-16731674D01*
X7807158Y-16731674D02*
X7826205Y-16722150D01*
X7826205Y-16722150D02*
X7854777Y-16722150D01*
X7854777Y-16722150D02*
X7873824Y-16731674D01*
X7873824Y-16731674D02*
X7883348Y-16750722D01*
X7883348Y-16750722D02*
X7883348Y-16855484D01*
X7978586Y-16855484D02*
X7978586Y-16722150D01*
X7978586Y-16741198D02*
X7988110Y-16731674D01*
X7988110Y-16731674D02*
X8007158Y-16722150D01*
X8007158Y-16722150D02*
X8035729Y-16722150D01*
X8035729Y-16722150D02*
X8054777Y-16731674D01*
X8054777Y-16731674D02*
X8064301Y-16750722D01*
X8064301Y-16750722D02*
X8064301Y-16855484D01*
X8064301Y-16750722D02*
X8073824Y-16731674D01*
X8073824Y-16731674D02*
X8092872Y-16722150D01*
X8092872Y-16722150D02*
X8121443Y-16722150D01*
X8121443Y-16722150D02*
X8140491Y-16731674D01*
X8140491Y-16731674D02*
X8150015Y-16750722D01*
X8150015Y-16750722D02*
X8150015Y-16855484D01*
X8540491Y-16645960D02*
X8369063Y-16903103D01*
X8797634Y-16655484D02*
X8816682Y-16655484D01*
X8816682Y-16655484D02*
X8835729Y-16665008D01*
X8835729Y-16665008D02*
X8845253Y-16674531D01*
X8845253Y-16674531D02*
X8854777Y-16693579D01*
X8854777Y-16693579D02*
X8864301Y-16731674D01*
X8864301Y-16731674D02*
X8864301Y-16779293D01*
X8864301Y-16779293D02*
X8854777Y-16817389D01*
X8854777Y-16817389D02*
X8845253Y-16836436D01*
X8845253Y-16836436D02*
X8835729Y-16845960D01*
X8835729Y-16845960D02*
X8816682Y-16855484D01*
X8816682Y-16855484D02*
X8797634Y-16855484D01*
X8797634Y-16855484D02*
X8778587Y-16845960D01*
X8778587Y-16845960D02*
X8769063Y-16836436D01*
X8769063Y-16836436D02*
X8759539Y-16817389D01*
X8759539Y-16817389D02*
X8750015Y-16779293D01*
X8750015Y-16779293D02*
X8750015Y-16731674D01*
X8750015Y-16731674D02*
X8759539Y-16693579D01*
X8759539Y-16693579D02*
X8769063Y-16674531D01*
X8769063Y-16674531D02*
X8778587Y-16665008D01*
X8778587Y-16665008D02*
X8797634Y-16655484D01*
X8950015Y-16836436D02*
X8959539Y-16845960D01*
X8959539Y-16845960D02*
X8950015Y-16855484D01*
X8950015Y-16855484D02*
X8940491Y-16845960D01*
X8940491Y-16845960D02*
X8950015Y-16836436D01*
X8950015Y-16836436D02*
X8950015Y-16855484D01*
X9083348Y-16655484D02*
X9102396Y-16655484D01*
X9102396Y-16655484D02*
X9121444Y-16665008D01*
X9121444Y-16665008D02*
X9130968Y-16674531D01*
X9130968Y-16674531D02*
X9140491Y-16693579D01*
X9140491Y-16693579D02*
X9150015Y-16731674D01*
X9150015Y-16731674D02*
X9150015Y-16779293D01*
X9150015Y-16779293D02*
X9140491Y-16817389D01*
X9140491Y-16817389D02*
X9130968Y-16836436D01*
X9130968Y-16836436D02*
X9121444Y-16845960D01*
X9121444Y-16845960D02*
X9102396Y-16855484D01*
X9102396Y-16855484D02*
X9083348Y-16855484D01*
X9083348Y-16855484D02*
X9064301Y-16845960D01*
X9064301Y-16845960D02*
X9054777Y-16836436D01*
X9054777Y-16836436D02*
X9045253Y-16817389D01*
X9045253Y-16817389D02*
X9035729Y-16779293D01*
X9035729Y-16779293D02*
X9035729Y-16731674D01*
X9035729Y-16731674D02*
X9045253Y-16693579D01*
X9045253Y-16693579D02*
X9054777Y-16674531D01*
X9054777Y-16674531D02*
X9064301Y-16665008D01*
X9064301Y-16665008D02*
X9083348Y-16655484D01*
X9216682Y-16655484D02*
X9350015Y-16655484D01*
X9350015Y-16655484D02*
X9264301Y-16855484D01*
X9454777Y-16741198D02*
X9435729Y-16731674D01*
X9435729Y-16731674D02*
X9426206Y-16722150D01*
X9426206Y-16722150D02*
X9416682Y-16703103D01*
X9416682Y-16703103D02*
X9416682Y-16693579D01*
X9416682Y-16693579D02*
X9426206Y-16674531D01*
X9426206Y-16674531D02*
X9435729Y-16665008D01*
X9435729Y-16665008D02*
X9454777Y-16655484D01*
X9454777Y-16655484D02*
X9492872Y-16655484D01*
X9492872Y-16655484D02*
X9511920Y-16665008D01*
X9511920Y-16665008D02*
X9521444Y-16674531D01*
X9521444Y-16674531D02*
X9530968Y-16693579D01*
X9530968Y-16693579D02*
X9530968Y-16703103D01*
X9530968Y-16703103D02*
X9521444Y-16722150D01*
X9521444Y-16722150D02*
X9511920Y-16731674D01*
X9511920Y-16731674D02*
X9492872Y-16741198D01*
X9492872Y-16741198D02*
X9454777Y-16741198D01*
X9454777Y-16741198D02*
X9435729Y-16750722D01*
X9435729Y-16750722D02*
X9426206Y-16760246D01*
X9426206Y-16760246D02*
X9416682Y-16779293D01*
X9416682Y-16779293D02*
X9416682Y-16817389D01*
X9416682Y-16817389D02*
X9426206Y-16836436D01*
X9426206Y-16836436D02*
X9435729Y-16845960D01*
X9435729Y-16845960D02*
X9454777Y-16855484D01*
X9454777Y-16855484D02*
X9492872Y-16855484D01*
X9492872Y-16855484D02*
X9511920Y-16845960D01*
X9511920Y-16845960D02*
X9521444Y-16836436D01*
X9521444Y-16836436D02*
X9530968Y-16817389D01*
X9530968Y-16817389D02*
X9530968Y-16779293D01*
X9530968Y-16779293D02*
X9521444Y-16760246D01*
X9521444Y-16760246D02*
X9511920Y-16750722D01*
X9511920Y-16750722D02*
X9492872Y-16741198D01*
X9597634Y-16655484D02*
X9730968Y-16655484D01*
X9730968Y-16655484D02*
X9645253Y-16855484D01*
X9797634Y-16655484D02*
X9797634Y-16693579D01*
X9873825Y-16655484D02*
X9873825Y-16693579D01*
X10169063Y-16931674D02*
X10159539Y-16922150D01*
X10159539Y-16922150D02*
X10140491Y-16893579D01*
X10140491Y-16893579D02*
X10130968Y-16874531D01*
X10130968Y-16874531D02*
X10121444Y-16845960D01*
X10121444Y-16845960D02*
X10111920Y-16798341D01*
X10111920Y-16798341D02*
X10111920Y-16760246D01*
X10111920Y-16760246D02*
X10121444Y-16712627D01*
X10121444Y-16712627D02*
X10130968Y-16684055D01*
X10130968Y-16684055D02*
X10140491Y-16665008D01*
X10140491Y-16665008D02*
X10159539Y-16636436D01*
X10159539Y-16636436D02*
X10169063Y-16626912D01*
X10235730Y-16674531D02*
X10245253Y-16665008D01*
X10245253Y-16665008D02*
X10264301Y-16655484D01*
X10264301Y-16655484D02*
X10311920Y-16655484D01*
X10311920Y-16655484D02*
X10330968Y-16665008D01*
X10330968Y-16665008D02*
X10340491Y-16674531D01*
X10340491Y-16674531D02*
X10350015Y-16693579D01*
X10350015Y-16693579D02*
X10350015Y-16712627D01*
X10350015Y-16712627D02*
X10340491Y-16741198D01*
X10340491Y-16741198D02*
X10226206Y-16855484D01*
X10226206Y-16855484D02*
X10350015Y-16855484D01*
X10588111Y-16855484D02*
X10588111Y-16655484D01*
X10673825Y-16855484D02*
X10673825Y-16750722D01*
X10673825Y-16750722D02*
X10664301Y-16731674D01*
X10664301Y-16731674D02*
X10645253Y-16722150D01*
X10645253Y-16722150D02*
X10616682Y-16722150D01*
X10616682Y-16722150D02*
X10597634Y-16731674D01*
X10597634Y-16731674D02*
X10588111Y-16741198D01*
X10797634Y-16855484D02*
X10778587Y-16845960D01*
X10778587Y-16845960D02*
X10769063Y-16836436D01*
X10769063Y-16836436D02*
X10759539Y-16817389D01*
X10759539Y-16817389D02*
X10759539Y-16760246D01*
X10759539Y-16760246D02*
X10769063Y-16741198D01*
X10769063Y-16741198D02*
X10778587Y-16731674D01*
X10778587Y-16731674D02*
X10797634Y-16722150D01*
X10797634Y-16722150D02*
X10826206Y-16722150D01*
X10826206Y-16722150D02*
X10845253Y-16731674D01*
X10845253Y-16731674D02*
X10854777Y-16741198D01*
X10854777Y-16741198D02*
X10864301Y-16760246D01*
X10864301Y-16760246D02*
X10864301Y-16817389D01*
X10864301Y-16817389D02*
X10854777Y-16836436D01*
X10854777Y-16836436D02*
X10845253Y-16845960D01*
X10845253Y-16845960D02*
X10826206Y-16855484D01*
X10826206Y-16855484D02*
X10797634Y-16855484D01*
X10978587Y-16855484D02*
X10959539Y-16845960D01*
X10959539Y-16845960D02*
X10950015Y-16826912D01*
X10950015Y-16826912D02*
X10950015Y-16655484D01*
X11130968Y-16845960D02*
X11111920Y-16855484D01*
X11111920Y-16855484D02*
X11073825Y-16855484D01*
X11073825Y-16855484D02*
X11054777Y-16845960D01*
X11054777Y-16845960D02*
X11045253Y-16826912D01*
X11045253Y-16826912D02*
X11045253Y-16750722D01*
X11045253Y-16750722D02*
X11054777Y-16731674D01*
X11054777Y-16731674D02*
X11073825Y-16722150D01*
X11073825Y-16722150D02*
X11111920Y-16722150D01*
X11111920Y-16722150D02*
X11130968Y-16731674D01*
X11130968Y-16731674D02*
X11140492Y-16750722D01*
X11140492Y-16750722D02*
X11140492Y-16769769D01*
X11140492Y-16769769D02*
X11045253Y-16788817D01*
X11216682Y-16845960D02*
X11235730Y-16855484D01*
X11235730Y-16855484D02*
X11273825Y-16855484D01*
X11273825Y-16855484D02*
X11292872Y-16845960D01*
X11292872Y-16845960D02*
X11302396Y-16826912D01*
X11302396Y-16826912D02*
X11302396Y-16817389D01*
X11302396Y-16817389D02*
X11292872Y-16798341D01*
X11292872Y-16798341D02*
X11273825Y-16788817D01*
X11273825Y-16788817D02*
X11245253Y-16788817D01*
X11245253Y-16788817D02*
X11226206Y-16779293D01*
X11226206Y-16779293D02*
X11216682Y-16760246D01*
X11216682Y-16760246D02*
X11216682Y-16750722D01*
X11216682Y-16750722D02*
X11226206Y-16731674D01*
X11226206Y-16731674D02*
X11245253Y-16722150D01*
X11245253Y-16722150D02*
X11273825Y-16722150D01*
X11273825Y-16722150D02*
X11292872Y-16731674D01*
X11369063Y-16931674D02*
X11378587Y-16922150D01*
X11378587Y-16922150D02*
X11397634Y-16893579D01*
X11397634Y-16893579D02*
X11407158Y-16874531D01*
X11407158Y-16874531D02*
X11416682Y-16845960D01*
X11416682Y-16845960D02*
X11426206Y-16798341D01*
X11426206Y-16798341D02*
X11426206Y-16760246D01*
X11426206Y-16760246D02*
X11416682Y-16712627D01*
X11416682Y-16712627D02*
X11407158Y-16684055D01*
X11407158Y-16684055D02*
X11397634Y-16665008D01*
X11397634Y-16665008D02*
X11378587Y-16636436D01*
X11378587Y-16636436D02*
X11369063Y-16626912D01*
M02*
