%TF.GenerationSoftware,KiCad,Pcbnew,8.0.6*%
%TF.CreationDate,2025-01-21T14:29:15+01:00*%
%TF.ProjectId,Stromversorgung,5374726f-6d76-4657-9273-6f7267756e67,rev?*%
%TF.SameCoordinates,Original*%
%TF.FileFunction,Soldermask,Top*%
%TF.FilePolarity,Negative*%
%FSLAX46Y46*%
G04 Gerber Fmt 4.6, Leading zero omitted, Abs format (unit mm)*
G04 Created by KiCad (PCBNEW 8.0.6) date 2025-01-21 14:29:15*
%MOMM*%
%LPD*%
G01*
G04 APERTURE LIST*
G04 Aperture macros list*
%AMRoundRect*
0 Rectangle with rounded corners*
0 $1 Rounding radius*
0 $2 $3 $4 $5 $6 $7 $8 $9 X,Y pos of 4 corners*
0 Add a 4 corners polygon primitive as box body*
4,1,4,$2,$3,$4,$5,$6,$7,$8,$9,$2,$3,0*
0 Add four circle primitives for the rounded corners*
1,1,$1+$1,$2,$3*
1,1,$1+$1,$4,$5*
1,1,$1+$1,$6,$7*
1,1,$1+$1,$8,$9*
0 Add four rect primitives between the rounded corners*
20,1,$1+$1,$2,$3,$4,$5,0*
20,1,$1+$1,$4,$5,$6,$7,0*
20,1,$1+$1,$6,$7,$8,$9,0*
20,1,$1+$1,$8,$9,$2,$3,0*%
G04 Aperture macros list end*
%ADD10C,3.200000*%
%ADD11C,3.000000*%
%ADD12RoundRect,0.675000X-0.675000X-0.675000X0.675000X-0.675000X0.675000X0.675000X-0.675000X0.675000X0*%
%ADD13C,2.700000*%
%ADD14RoundRect,0.250000X-0.620000X-0.845000X0.620000X-0.845000X0.620000X0.845000X-0.620000X0.845000X0*%
%ADD15O,1.740000X2.190000*%
%ADD16R,1.700000X1.700000*%
%ADD17C,1.600000*%
%ADD18O,1.600000X1.600000*%
%ADD19R,1.600000X1.600000*%
%ADD20R,1.500000X1.500000*%
%ADD21C,1.500000*%
%ADD22R,2.500000X2.500000*%
%ADD23C,2.500000*%
%ADD24C,2.800000*%
%ADD25RoundRect,0.250000X1.150000X1.150000X-1.150000X1.150000X-1.150000X-1.150000X1.150000X-1.150000X0*%
%ADD26R,3.000000X3.000000*%
%ADD27R,4.000000X4.000000*%
%ADD28C,4.000000*%
%ADD29R,2.200000X2.200000*%
%ADD30O,2.200000X2.200000*%
G04 APERTURE END LIST*
D10*
%TO.C,REF\u002A\u002A*%
X73660000Y-132080000D03*
%TD*%
%TO.C,REF\u002A\u002A*%
X139700000Y-132080000D03*
%TD*%
D11*
%TO.C,T1*%
X86520000Y-96720000D03*
X106840000Y-96720000D03*
X106520000Y-121720000D03*
X101520000Y-121720000D03*
X91520000Y-121720000D03*
X86520000Y-121720000D03*
%TD*%
D12*
%TO.C,F1*%
X94840000Y-134620000D03*
X101600000Y-134620000D03*
D13*
X108880000Y-134620000D03*
X115640000Y-134620000D03*
%TD*%
D14*
%TO.C,J3*%
X137160000Y-73660000D03*
D15*
X139700000Y-73660000D03*
%TD*%
D16*
%TO.C,J2*%
X139700000Y-60960000D03*
%TD*%
D17*
%TO.C,R2*%
X137160000Y-114300000D03*
D18*
X127000000Y-114300000D03*
%TD*%
D19*
%TO.C,D2*%
X131940000Y-119380000D03*
D18*
X126860000Y-119380000D03*
X126860000Y-127000000D03*
X131940000Y-127000000D03*
%TD*%
D20*
%TO.C,Q1*%
X127000000Y-43180000D03*
D21*
X129540000Y-43180000D03*
X132080000Y-43180000D03*
%TD*%
D22*
%TO.C,J4*%
X73660000Y-50680000D03*
D23*
X73660000Y-43180000D03*
%TD*%
D16*
%TO.C,J5*%
X142240000Y-119380000D03*
%TD*%
D22*
%TO.C,J1*%
X73660000Y-81220000D03*
D23*
X73660000Y-73720000D03*
%TD*%
D17*
%TO.C,R1*%
X139700000Y-53340000D03*
D18*
X129540000Y-53340000D03*
%TD*%
D24*
%TO.C,K1*%
X91440000Y-50680000D03*
X96440000Y-50680000D03*
X86440000Y-50680000D03*
X91440000Y-43180000D03*
X96440000Y-43180000D03*
X86440000Y-43180000D03*
D25*
X111440000Y-50680000D03*
D24*
X111440000Y-43180000D03*
%TD*%
D26*
%TO.C,PS1*%
X86360000Y-70530000D03*
D11*
X86360000Y-81280000D03*
X124860000Y-81280000D03*
X124860000Y-73280000D03*
%TD*%
D27*
%TO.C,C1*%
X137000000Y-99060000D03*
D28*
X127000000Y-99060000D03*
%TD*%
D10*
%TO.C,REF\u002A\u002A*%
X73660000Y-60960000D03*
%TD*%
D29*
%TO.C,D1*%
X116840000Y-50800000D03*
D30*
X116840000Y-43180000D03*
%TD*%
D10*
%TO.C,REF\u002A\u002A*%
X139700000Y-43180000D03*
%TD*%
M02*
