%TF.GenerationSoftware,KiCad,Pcbnew,8.0.6*%
%TF.CreationDate,2025-03-07T13:31:28+01:00*%
%TF.ProjectId,Stromversorgung,5374726f-6d76-4657-9273-6f7267756e67,rev?*%
%TF.SameCoordinates,Original*%
%TF.FileFunction,Copper,L2,Bot*%
%TF.FilePolarity,Positive*%
%FSLAX46Y46*%
G04 Gerber Fmt 4.6, Leading zero omitted, Abs format (unit mm)*
G04 Created by KiCad (PCBNEW 8.0.6) date 2025-03-07 13:31:28*
%MOMM*%
%LPD*%
G01*
G04 APERTURE LIST*
G04 Aperture macros list*
%AMRoundRect*
0 Rectangle with rounded corners*
0 $1 Rounding radius*
0 $2 $3 $4 $5 $6 $7 $8 $9 X,Y pos of 4 corners*
0 Add a 4 corners polygon primitive as box body*
4,1,4,$2,$3,$4,$5,$6,$7,$8,$9,$2,$3,0*
0 Add four circle primitives for the rounded corners*
1,1,$1+$1,$2,$3*
1,1,$1+$1,$4,$5*
1,1,$1+$1,$6,$7*
1,1,$1+$1,$8,$9*
0 Add four rect primitives between the rounded corners*
20,1,$1+$1,$2,$3,$4,$5,0*
20,1,$1+$1,$4,$5,$6,$7,0*
20,1,$1+$1,$6,$7,$8,$9,0*
20,1,$1+$1,$8,$9,$2,$3,0*%
G04 Aperture macros list end*
%TA.AperFunction,ComponentPad*%
%ADD10C,3.000000*%
%TD*%
%TA.AperFunction,ComponentPad*%
%ADD11RoundRect,0.675000X-0.675000X-0.675000X0.675000X-0.675000X0.675000X0.675000X-0.675000X0.675000X0*%
%TD*%
%TA.AperFunction,ComponentPad*%
%ADD12C,2.700000*%
%TD*%
%TA.AperFunction,ComponentPad*%
%ADD13RoundRect,0.250000X-0.620000X-0.845000X0.620000X-0.845000X0.620000X0.845000X-0.620000X0.845000X0*%
%TD*%
%TA.AperFunction,ComponentPad*%
%ADD14O,1.740000X2.190000*%
%TD*%
%TA.AperFunction,ComponentPad*%
%ADD15R,1.700000X1.700000*%
%TD*%
%TA.AperFunction,ComponentPad*%
%ADD16C,1.600000*%
%TD*%
%TA.AperFunction,ComponentPad*%
%ADD17O,1.600000X1.600000*%
%TD*%
%TA.AperFunction,ComponentPad*%
%ADD18R,1.600000X1.600000*%
%TD*%
%TA.AperFunction,ComponentPad*%
%ADD19R,1.500000X1.500000*%
%TD*%
%TA.AperFunction,ComponentPad*%
%ADD20C,1.500000*%
%TD*%
%TA.AperFunction,ComponentPad*%
%ADD21R,2.500000X2.500000*%
%TD*%
%TA.AperFunction,ComponentPad*%
%ADD22C,2.500000*%
%TD*%
%TA.AperFunction,ComponentPad*%
%ADD23C,2.800000*%
%TD*%
%TA.AperFunction,ComponentPad*%
%ADD24RoundRect,0.250000X1.150000X1.150000X-1.150000X1.150000X-1.150000X-1.150000X1.150000X-1.150000X0*%
%TD*%
%TA.AperFunction,ComponentPad*%
%ADD25R,3.000000X3.000000*%
%TD*%
%TA.AperFunction,ComponentPad*%
%ADD26R,4.000000X4.000000*%
%TD*%
%TA.AperFunction,ComponentPad*%
%ADD27C,4.000000*%
%TD*%
%TA.AperFunction,ComponentPad*%
%ADD28R,2.200000X2.200000*%
%TD*%
%TA.AperFunction,ComponentPad*%
%ADD29O,2.200000X2.200000*%
%TD*%
%TA.AperFunction,ViaPad*%
%ADD30C,1.200000*%
%TD*%
%TA.AperFunction,Conductor*%
%ADD31C,1.000000*%
%TD*%
%TA.AperFunction,Conductor*%
%ADD32C,0.500000*%
%TD*%
G04 APERTURE END LIST*
D10*
%TO.P,T1,1,AA*%
%TO.N,Net-(J1-Pin_1)*%
X86520000Y-96720000D03*
%TO.P,T1,2,AB*%
%TO.N,Net-(J1-Pin_2)*%
X106840000Y-96720000D03*
%TO.P,T1,3,SA*%
%TO.N,Net-(T1-SA)*%
X106520000Y-121720000D03*
%TO.P,T1,4,SB*%
%TO.N,Net-(T1-SB)*%
X101520000Y-121720000D03*
%TO.P,T1,5,SC*%
X91520000Y-121720000D03*
%TO.P,T1,6,SD*%
%TO.N,Net-(T1-SD)*%
X86520000Y-121720000D03*
%TD*%
D11*
%TO.P,F1,1*%
%TO.N,Net-(T1-SD)*%
X94840000Y-134620000D03*
X101600000Y-134620000D03*
D12*
%TO.P,F1,2*%
%TO.N,Net-(D2-Pad4)*%
X108880000Y-134620000D03*
X115640000Y-134620000D03*
%TD*%
D13*
%TO.P,J3,1,Pin_1*%
%TO.N,+5V*%
X137160000Y-73660000D03*
D14*
%TO.P,J3,2,Pin_2*%
%TO.N,GNDD*%
X139700000Y-73660000D03*
%TD*%
D15*
%TO.P,J2,1,Pin_1*%
%TO.N,Net-(J2-Pin_1)*%
X139700000Y-60960000D03*
%TD*%
D16*
%TO.P,R2,1*%
%TO.N,Net-(D2-+)*%
X137160000Y-114300000D03*
D17*
%TO.P,R2,2*%
%TO.N,GNDD*%
X127000000Y-114300000D03*
%TD*%
D18*
%TO.P,D2,1,+*%
%TO.N,Net-(D2-+)*%
X131940000Y-119380000D03*
D17*
%TO.P,D2,2,-*%
%TO.N,GNDD*%
X126860000Y-119380000D03*
%TO.P,D2,3*%
%TO.N,Net-(T1-SA)*%
X126860000Y-127000000D03*
%TO.P,D2,4*%
%TO.N,Net-(D2-Pad4)*%
X131940000Y-127000000D03*
%TD*%
D19*
%TO.P,Q1,1,C*%
%TO.N,Net-(D1-A)*%
X127000000Y-43180000D03*
D20*
%TO.P,Q1,2,B*%
%TO.N,Net-(Q1-B)*%
X129540000Y-43180000D03*
%TO.P,Q1,3,E*%
%TO.N,GNDD*%
X132080000Y-43180000D03*
%TD*%
D21*
%TO.P,J4,1,Pin_1*%
%TO.N,Net-(J4-Pin_1)*%
X73660000Y-50680000D03*
D22*
%TO.P,J4,2,Pin_2*%
%TO.N,Net-(J4-Pin_2)*%
X73660000Y-43180000D03*
%TD*%
D15*
%TO.P,J5,1,Pin_1*%
%TO.N,Net-(D2-+)*%
X142240000Y-119380000D03*
%TD*%
D21*
%TO.P,J1,1,Pin_1*%
%TO.N,Net-(J1-Pin_1)*%
X73660000Y-81220000D03*
D22*
%TO.P,J1,2,Pin_2*%
%TO.N,Net-(J1-Pin_2)*%
X73660000Y-73720000D03*
%TD*%
D16*
%TO.P,R1,1*%
%TO.N,Net-(J2-Pin_1)*%
X139700000Y-53340000D03*
D17*
%TO.P,R1,2*%
%TO.N,Net-(Q1-B)*%
X129540000Y-53340000D03*
%TD*%
D23*
%TO.P,K1,11*%
%TO.N,Net-(J1-Pin_2)*%
X91440000Y-50680000D03*
%TO.P,K1,12*%
%TO.N,unconnected-(K1-Pad12)*%
X96440000Y-50680000D03*
%TO.P,K1,14*%
%TO.N,Net-(J4-Pin_1)*%
X86440000Y-50680000D03*
%TO.P,K1,21*%
%TO.N,Net-(J1-Pin_1)*%
X91440000Y-43180000D03*
%TO.P,K1,22*%
%TO.N,unconnected-(K1-Pad22)*%
X96440000Y-43180000D03*
%TO.P,K1,24*%
%TO.N,Net-(J4-Pin_2)*%
X86440000Y-43180000D03*
D24*
%TO.P,K1,A1*%
%TO.N,+5V*%
X111440000Y-50680000D03*
D23*
%TO.P,K1,A2*%
%TO.N,Net-(D1-A)*%
X111440000Y-43180000D03*
%TD*%
D25*
%TO.P,PS1,1,AC/N*%
%TO.N,Net-(J1-Pin_2)*%
X86360000Y-70530000D03*
D10*
%TO.P,PS1,2,AC/L*%
%TO.N,Net-(J1-Pin_1)*%
X86360000Y-81280000D03*
%TO.P,PS1,3,-Vo*%
%TO.N,GNDD*%
X124860000Y-81280000D03*
%TO.P,PS1,4,+Vo*%
%TO.N,+5V*%
X124860000Y-73280000D03*
%TD*%
D26*
%TO.P,C1,1*%
%TO.N,Net-(D2-+)*%
X137000000Y-99060000D03*
D27*
%TO.P,C1,2*%
%TO.N,GNDD*%
X127000000Y-99060000D03*
%TD*%
D28*
%TO.P,D1,1,K*%
%TO.N,+5V*%
X116840000Y-50800000D03*
D29*
%TO.P,D1,2,A*%
%TO.N,Net-(D1-A)*%
X116840000Y-43180000D03*
%TD*%
D30*
%TO.N,Net-(J1-Pin_1)*%
X91440000Y-38100000D03*
X81280000Y-81220000D03*
%TD*%
D31*
%TO.N,Net-(D2-+)*%
X137000000Y-99060000D02*
X137160000Y-99220000D01*
X137160000Y-99220000D02*
X137160000Y-119380000D01*
X142240000Y-119380000D02*
X131940000Y-119380000D01*
%TO.N,Net-(D2-Pad4)*%
X108880000Y-134620000D02*
X132080000Y-134620000D01*
X132080000Y-127140000D02*
X131940000Y-127000000D01*
X132080000Y-134620000D02*
X132080000Y-127140000D01*
%TO.N,Net-(J1-Pin_1)*%
X81280000Y-81220000D02*
X86300000Y-81220000D01*
X91440000Y-38100000D02*
X91440000Y-43180000D01*
X73660000Y-81220000D02*
X81280000Y-81220000D01*
D32*
X86300000Y-81220000D02*
X86360000Y-81280000D01*
D31*
X86520000Y-96720000D02*
X86520000Y-80110000D01*
%TO.N,GNDD*%
X127000000Y-99060000D02*
X127000000Y-81280000D01*
X127000000Y-81280000D02*
X139700000Y-81280000D01*
X127000000Y-81280000D02*
X124860000Y-81280000D01*
X127000000Y-99060000D02*
X127000000Y-119380000D01*
D32*
X139700000Y-66040000D02*
X139700000Y-73660000D01*
X139700000Y-66040000D02*
X132080000Y-66040000D01*
X132080000Y-66040000D02*
X132080000Y-43180000D01*
D31*
X139700000Y-73660000D02*
X139700000Y-81280000D01*
%TO.N,+5V*%
X124460000Y-72880000D02*
X124860000Y-73280000D01*
X125240000Y-73660000D02*
X124860000Y-73280000D01*
X137160000Y-73660000D02*
X125240000Y-73660000D01*
D32*
X111440000Y-50680000D02*
X124340000Y-50680000D01*
X124460000Y-50800000D02*
X124460000Y-72880000D01*
%TO.N,Net-(D1-A)*%
X111440000Y-43180000D02*
X127000000Y-43180000D01*
%TO.N,Net-(Q1-B)*%
X129540000Y-43180000D02*
X129540000Y-53340000D01*
D31*
%TO.N,Net-(T1-SB)*%
X91520000Y-121720000D02*
X101520000Y-121720000D01*
%TO.N,Net-(J4-Pin_1)*%
X73660000Y-50680000D02*
X86440000Y-50680000D01*
%TO.N,Net-(T1-SD)*%
X86520000Y-134460000D02*
X86360000Y-134620000D01*
X86520000Y-121720000D02*
X86520000Y-134460000D01*
X86360000Y-134620000D02*
X101600000Y-134620000D01*
%TO.N,Net-(J1-Pin_2)*%
X73660000Y-73720000D02*
X76260000Y-71120000D01*
D32*
X85770000Y-71120000D02*
X86360000Y-70530000D01*
D31*
X83820000Y-71120000D02*
X85770000Y-71120000D01*
D32*
X106680000Y-96560000D02*
X106840000Y-96720000D01*
D31*
X106680000Y-78740000D02*
X106680000Y-96560000D01*
X76260000Y-71120000D02*
X83820000Y-71120000D01*
X99060000Y-71120000D02*
X106680000Y-78740000D01*
X88900000Y-71120000D02*
X91440000Y-71120000D01*
D32*
X86360000Y-70530000D02*
X86950000Y-71120000D01*
D31*
X91440000Y-50680000D02*
X91440000Y-71120000D01*
X86950000Y-71120000D02*
X88900000Y-71120000D01*
X83820000Y-71120000D02*
X88900000Y-71120000D01*
X91440000Y-71120000D02*
X99060000Y-71120000D01*
%TO.N,Net-(T1-SA)*%
X106520000Y-121720000D02*
X106680000Y-121880000D01*
X106680000Y-121880000D02*
X106680000Y-127000000D01*
X106680000Y-127000000D02*
X126860000Y-127000000D01*
D32*
%TO.N,Net-(J2-Pin_1)*%
X139700000Y-53340000D02*
X139700000Y-60960000D01*
D31*
%TO.N,Net-(J4-Pin_2)*%
X73660000Y-43180000D02*
X86440000Y-43180000D01*
%TD*%
M02*
