%TF.GenerationSoftware,KiCad,Pcbnew,9.0.4-9.0.4-0~ubuntu24.04.1*%
%TF.CreationDate,2025-08-22T14:39:44+02:00*%
%TF.ProjectId,v10-3,7631302d-332e-46b6-9963-61645f706362,rev?*%
%TF.SameCoordinates,Original*%
%TF.FileFunction,Legend,Top*%
%TF.FilePolarity,Positive*%
%FSLAX46Y46*%
G04 Gerber Fmt 4.6, Leading zero omitted, Abs format (unit mm)*
G04 Created by KiCad (PCBNEW 9.0.4-9.0.4-0~ubuntu24.04.1) date 2025-08-22 14:39:44*
%MOMM*%
%LPD*%
G01*
G04 APERTURE LIST*
%ADD10C,0.150000*%
%ADD11C,0.175000*%
%ADD12C,0.120000*%
G04 APERTURE END LIST*
D10*
G36*
X97732828Y-65019077D02*
G01*
X97763235Y-65049484D01*
X97801728Y-65126471D01*
X97845112Y-65300005D01*
X97845112Y-65519632D01*
X97801728Y-65693166D01*
X97763234Y-65770153D01*
X97732827Y-65800561D01*
X97664312Y-65834819D01*
X97604484Y-65834819D01*
X97535968Y-65800561D01*
X97505561Y-65770153D01*
X97467067Y-65693166D01*
X97423684Y-65519632D01*
X97423684Y-65300005D01*
X97467067Y-65126471D01*
X97505561Y-65049484D01*
X97535968Y-65019077D01*
X97604484Y-64984819D01*
X97664312Y-64984819D01*
X97732828Y-65019077D01*
G37*
G36*
X98106223Y-66095930D02*
G01*
X95258400Y-66095930D01*
X95258400Y-64919199D01*
X95369511Y-64919199D01*
X95372771Y-64933536D01*
X95706104Y-65933536D01*
X95712098Y-65946961D01*
X95715608Y-65951008D01*
X95718005Y-65955802D01*
X95725113Y-65961967D01*
X95731272Y-65969068D01*
X95736061Y-65971462D01*
X95740112Y-65974976D01*
X95749037Y-65977950D01*
X95757445Y-65982155D01*
X95762789Y-65982534D01*
X95767875Y-65984230D01*
X95777255Y-65983563D01*
X95786635Y-65984230D01*
X95791720Y-65982534D01*
X95797065Y-65982155D01*
X95805475Y-65977949D01*
X95814397Y-65974976D01*
X95818444Y-65971465D01*
X95823238Y-65969069D01*
X95829401Y-65961963D01*
X95836505Y-65955802D01*
X95838900Y-65951010D01*
X95842412Y-65946962D01*
X95848406Y-65933536D01*
X96097534Y-65186152D01*
X96321892Y-65186152D01*
X96323966Y-65215342D01*
X96337053Y-65241517D01*
X96359161Y-65260690D01*
X96386922Y-65269944D01*
X96416112Y-65267870D01*
X96429844Y-65262615D01*
X96525082Y-65214996D01*
X96531381Y-65211031D01*
X96533209Y-65210274D01*
X96535265Y-65208585D01*
X96537525Y-65207164D01*
X96538824Y-65205665D01*
X96544574Y-65200947D01*
X96607017Y-65138504D01*
X96607017Y-65834819D01*
X96396303Y-65834819D01*
X96381671Y-65836260D01*
X96354635Y-65847459D01*
X96333943Y-65868151D01*
X96322744Y-65895187D01*
X96322744Y-65924451D01*
X96333943Y-65951487D01*
X96354635Y-65972179D01*
X96381671Y-65983378D01*
X96396303Y-65984819D01*
X96967731Y-65984819D01*
X96982363Y-65983378D01*
X97009399Y-65972179D01*
X97030091Y-65951487D01*
X97041290Y-65924451D01*
X97041290Y-65895187D01*
X97030091Y-65868151D01*
X97009399Y-65847459D01*
X96982363Y-65836260D01*
X96967731Y-65834819D01*
X96757017Y-65834819D01*
X96757017Y-65290771D01*
X97273684Y-65290771D01*
X97273684Y-65528866D01*
X97273935Y-65531419D01*
X97273773Y-65532512D01*
X97274582Y-65537985D01*
X97275125Y-65543498D01*
X97275547Y-65544519D01*
X97275923Y-65547056D01*
X97323542Y-65737532D01*
X97323927Y-65738611D01*
X97323966Y-65739151D01*
X97326293Y-65745232D01*
X97328489Y-65751378D01*
X97328811Y-65751813D01*
X97329221Y-65752883D01*
X97376840Y-65848121D01*
X97380803Y-65854417D01*
X97381561Y-65856247D01*
X97383250Y-65858305D01*
X97384672Y-65860564D01*
X97386170Y-65861863D01*
X97390888Y-65867612D01*
X97438507Y-65915232D01*
X97444256Y-65919950D01*
X97445557Y-65921450D01*
X97447816Y-65922872D01*
X97449873Y-65924560D01*
X97451700Y-65925317D01*
X97458000Y-65929282D01*
X97553238Y-65976901D01*
X97566969Y-65982156D01*
X97569658Y-65982347D01*
X97572147Y-65983378D01*
X97586779Y-65984819D01*
X97682017Y-65984819D01*
X97696649Y-65983378D01*
X97699138Y-65982346D01*
X97701826Y-65982156D01*
X97715558Y-65976901D01*
X97810796Y-65929282D01*
X97817095Y-65925317D01*
X97818923Y-65924560D01*
X97820979Y-65922872D01*
X97823239Y-65921450D01*
X97824539Y-65919950D01*
X97830289Y-65915232D01*
X97877907Y-65867613D01*
X97882625Y-65861863D01*
X97884124Y-65860564D01*
X97885545Y-65858305D01*
X97887235Y-65856247D01*
X97887992Y-65854417D01*
X97891956Y-65848121D01*
X97939575Y-65752883D01*
X97939984Y-65751813D01*
X97940307Y-65751378D01*
X97942499Y-65745241D01*
X97944830Y-65739152D01*
X97944868Y-65738611D01*
X97945254Y-65737532D01*
X97992873Y-65547056D01*
X97993248Y-65544519D01*
X97993671Y-65543498D01*
X97994213Y-65537985D01*
X97995023Y-65532512D01*
X97994860Y-65531419D01*
X97995112Y-65528866D01*
X97995112Y-65290771D01*
X97994860Y-65288217D01*
X97995023Y-65287125D01*
X97994213Y-65281651D01*
X97993671Y-65276139D01*
X97993248Y-65275117D01*
X97992873Y-65272581D01*
X97945254Y-65082105D01*
X97944868Y-65081025D01*
X97944830Y-65080485D01*
X97942499Y-65074395D01*
X97940307Y-65068259D01*
X97939984Y-65067823D01*
X97939575Y-65066754D01*
X97891956Y-64971516D01*
X97887991Y-64965216D01*
X97887234Y-64963389D01*
X97885545Y-64961332D01*
X97884124Y-64959073D01*
X97882625Y-64957773D01*
X97877907Y-64952024D01*
X97830288Y-64904405D01*
X97824538Y-64899686D01*
X97823239Y-64898188D01*
X97820979Y-64896766D01*
X97818923Y-64895078D01*
X97817095Y-64894320D01*
X97810796Y-64890356D01*
X97715558Y-64842737D01*
X97701826Y-64837482D01*
X97699138Y-64837291D01*
X97696649Y-64836260D01*
X97682017Y-64834819D01*
X97586779Y-64834819D01*
X97572147Y-64836260D01*
X97569658Y-64837290D01*
X97566969Y-64837482D01*
X97553238Y-64842737D01*
X97458000Y-64890356D01*
X97451700Y-64894320D01*
X97449873Y-64895078D01*
X97447816Y-64896766D01*
X97445557Y-64898188D01*
X97444257Y-64899686D01*
X97438508Y-64904405D01*
X97390889Y-64952024D01*
X97386170Y-64957773D01*
X97384672Y-64959073D01*
X97383250Y-64961332D01*
X97381562Y-64963389D01*
X97380804Y-64965216D01*
X97376840Y-64971516D01*
X97329221Y-65066754D01*
X97328811Y-65067823D01*
X97328489Y-65068259D01*
X97326293Y-65074404D01*
X97323966Y-65080486D01*
X97323927Y-65081025D01*
X97323542Y-65082105D01*
X97275923Y-65272581D01*
X97275547Y-65275117D01*
X97275125Y-65276139D01*
X97274582Y-65281651D01*
X97273773Y-65287125D01*
X97273935Y-65288217D01*
X97273684Y-65290771D01*
X96757017Y-65290771D01*
X96757017Y-64909819D01*
X96757011Y-64909766D01*
X96757017Y-64909740D01*
X96757001Y-64909663D01*
X96755576Y-64895187D01*
X96752734Y-64888326D01*
X96751278Y-64881045D01*
X96747188Y-64874938D01*
X96744377Y-64868151D01*
X96739128Y-64862902D01*
X96734995Y-64856730D01*
X96728878Y-64852652D01*
X96723685Y-64847459D01*
X96716825Y-64844617D01*
X96710646Y-64840498D01*
X96703437Y-64839072D01*
X96696649Y-64836260D01*
X96689222Y-64836260D01*
X96681938Y-64834819D01*
X96674733Y-64836260D01*
X96667385Y-64836260D01*
X96660524Y-64839101D01*
X96653244Y-64840558D01*
X96647138Y-64844646D01*
X96640349Y-64847459D01*
X96635098Y-64852709D01*
X96628929Y-64856841D01*
X96619708Y-64868099D01*
X96619657Y-64868151D01*
X96619647Y-64868173D01*
X96619613Y-64868216D01*
X96528493Y-65004896D01*
X96447114Y-65086275D01*
X96362762Y-65128451D01*
X96350319Y-65136283D01*
X96331146Y-65158391D01*
X96321892Y-65186152D01*
X96097534Y-65186152D01*
X96181739Y-64933536D01*
X96184999Y-64919200D01*
X96182924Y-64890010D01*
X96169838Y-64863836D01*
X96147730Y-64844662D01*
X96119968Y-64835408D01*
X96090778Y-64837483D01*
X96064605Y-64850570D01*
X96045431Y-64872677D01*
X96039437Y-64886102D01*
X95777255Y-65672648D01*
X95515073Y-64886102D01*
X95509079Y-64872676D01*
X95489905Y-64850569D01*
X95463732Y-64837483D01*
X95434542Y-64835408D01*
X95406779Y-64844662D01*
X95384672Y-64863836D01*
X95371586Y-64890009D01*
X95369511Y-64919199D01*
X95258400Y-64919199D01*
X95258400Y-64723708D01*
X98106223Y-64723708D01*
X98106223Y-66095930D01*
G37*
G36*
X92495180Y-122926990D02*
G01*
X92457009Y-123041503D01*
X92382896Y-123115616D01*
X92305909Y-123154109D01*
X92132375Y-123197493D01*
X92007986Y-123197493D01*
X91834452Y-123154109D01*
X91757465Y-123115616D01*
X91683351Y-123041502D01*
X91645180Y-122926988D01*
X91645180Y-122776065D01*
X92495180Y-122776065D01*
X92495180Y-122926990D01*
G37*
G36*
X92756291Y-124268128D02*
G01*
X91384069Y-124268128D01*
X91384069Y-123748684D01*
X91495180Y-123748684D01*
X91495180Y-123939160D01*
X91496621Y-123953792D01*
X91497651Y-123956280D01*
X91497843Y-123958970D01*
X91503098Y-123972702D01*
X91550718Y-124067940D01*
X91552258Y-124070387D01*
X91552643Y-124071540D01*
X91553887Y-124072975D01*
X91558551Y-124080383D01*
X91565655Y-124086543D01*
X91571816Y-124093648D01*
X91579221Y-124098308D01*
X91580659Y-124099556D01*
X91581813Y-124099940D01*
X91584259Y-124101480D01*
X91679497Y-124149099D01*
X91693228Y-124154354D01*
X91695917Y-124154545D01*
X91698406Y-124155576D01*
X91713038Y-124157017D01*
X91760657Y-124157017D01*
X91775289Y-124155576D01*
X91777778Y-124154544D01*
X91780466Y-124154354D01*
X91794198Y-124149099D01*
X91889436Y-124101480D01*
X91891883Y-124099939D01*
X91893037Y-124099555D01*
X91894473Y-124098309D01*
X91901879Y-124093648D01*
X91908040Y-124086543D01*
X91915145Y-124080382D01*
X91919806Y-124072976D01*
X91921052Y-124071540D01*
X91921436Y-124070386D01*
X91922977Y-124067939D01*
X91970596Y-123972701D01*
X91975851Y-123958970D01*
X91976042Y-123956280D01*
X91977073Y-123953792D01*
X91978514Y-123939160D01*
X91978514Y-123814008D01*
X92007034Y-123756966D01*
X92064076Y-123728446D01*
X92076285Y-123728446D01*
X92133326Y-123756966D01*
X92161847Y-123814008D01*
X92161847Y-123921455D01*
X92122146Y-124000857D01*
X92116891Y-124014589D01*
X92114817Y-124043779D01*
X92124071Y-124071540D01*
X92143244Y-124093648D01*
X92169419Y-124106735D01*
X92198609Y-124108809D01*
X92226370Y-124099555D01*
X92248478Y-124080382D01*
X92256310Y-124067939D01*
X92303929Y-123972701D01*
X92309184Y-123958970D01*
X92309375Y-123956280D01*
X92310406Y-123953792D01*
X92311847Y-123939160D01*
X92311847Y-123796303D01*
X92310406Y-123781671D01*
X92309375Y-123779182D01*
X92309184Y-123776493D01*
X92303929Y-123762762D01*
X92256310Y-123667524D01*
X92254769Y-123665076D01*
X92254385Y-123663923D01*
X92253139Y-123662486D01*
X92248478Y-123655081D01*
X92241373Y-123648919D01*
X92235212Y-123641815D01*
X92227806Y-123637153D01*
X92226370Y-123635908D01*
X92225216Y-123635523D01*
X92222769Y-123633983D01*
X92127531Y-123586364D01*
X92113799Y-123581109D01*
X92111111Y-123580918D01*
X92108622Y-123579887D01*
X92093990Y-123578446D01*
X92046371Y-123578446D01*
X92031739Y-123579887D01*
X92029250Y-123580917D01*
X92026561Y-123581109D01*
X92012830Y-123586364D01*
X91917592Y-123633983D01*
X91915144Y-123635523D01*
X91913991Y-123635908D01*
X91912554Y-123637153D01*
X91905149Y-123641815D01*
X91898987Y-123648919D01*
X91891883Y-123655081D01*
X91887221Y-123662486D01*
X91885976Y-123663923D01*
X91885591Y-123665076D01*
X91884051Y-123667524D01*
X91836432Y-123762762D01*
X91831177Y-123776494D01*
X91830986Y-123779181D01*
X91829955Y-123781671D01*
X91828514Y-123796303D01*
X91828514Y-123921455D01*
X91799993Y-123978496D01*
X91742952Y-124007017D01*
X91730743Y-124007017D01*
X91673701Y-123978496D01*
X91645180Y-123921453D01*
X91645180Y-123766390D01*
X91684882Y-123686987D01*
X91690137Y-123673256D01*
X91692211Y-123644066D01*
X91682958Y-123616304D01*
X91663784Y-123594197D01*
X91637610Y-123581109D01*
X91608420Y-123579035D01*
X91580659Y-123588288D01*
X91558551Y-123607461D01*
X91550718Y-123619904D01*
X91503098Y-123715142D01*
X91497843Y-123728874D01*
X91497651Y-123731563D01*
X91496621Y-123734052D01*
X91495180Y-123748684D01*
X91384069Y-123748684D01*
X91384069Y-122701065D01*
X91495180Y-122701065D01*
X91495180Y-122939160D01*
X91495909Y-122946565D01*
X91495769Y-122948541D01*
X91496359Y-122951138D01*
X91496621Y-122953792D01*
X91497379Y-122955622D01*
X91499029Y-122962878D01*
X91546649Y-123105735D01*
X91552643Y-123119160D01*
X91554409Y-123121196D01*
X91555440Y-123123685D01*
X91564767Y-123135050D01*
X91660005Y-123230288D01*
X91665755Y-123235008D01*
X91667054Y-123236505D01*
X91669308Y-123237924D01*
X91671370Y-123239616D01*
X91673202Y-123240374D01*
X91679497Y-123244337D01*
X91774735Y-123291956D01*
X91775804Y-123292365D01*
X91776240Y-123292688D01*
X91782376Y-123294880D01*
X91788466Y-123297211D01*
X91789006Y-123297249D01*
X91790086Y-123297635D01*
X91980562Y-123345254D01*
X91983098Y-123345629D01*
X91984120Y-123346052D01*
X91989632Y-123346594D01*
X91995106Y-123347404D01*
X91996198Y-123347241D01*
X91998752Y-123347493D01*
X92141609Y-123347493D01*
X92144162Y-123347241D01*
X92145255Y-123347404D01*
X92150728Y-123346594D01*
X92156241Y-123346052D01*
X92157262Y-123345629D01*
X92159799Y-123345254D01*
X92350275Y-123297635D01*
X92351354Y-123297249D01*
X92351894Y-123297211D01*
X92357975Y-123294883D01*
X92364121Y-123292688D01*
X92364556Y-123292365D01*
X92365626Y-123291956D01*
X92460864Y-123244337D01*
X92467163Y-123240372D01*
X92468991Y-123239615D01*
X92471047Y-123237926D01*
X92473307Y-123236505D01*
X92474606Y-123235006D01*
X92480356Y-123230288D01*
X92575594Y-123135050D01*
X92584922Y-123123685D01*
X92585953Y-123121194D01*
X92587718Y-123119160D01*
X92593712Y-123105734D01*
X92641331Y-122962878D01*
X92642980Y-122955622D01*
X92643739Y-122953792D01*
X92644000Y-122951138D01*
X92644591Y-122948541D01*
X92644450Y-122946566D01*
X92645180Y-122939160D01*
X92645180Y-122701065D01*
X92643739Y-122686433D01*
X92632540Y-122659397D01*
X92611848Y-122638705D01*
X92584812Y-122627506D01*
X92570180Y-122626065D01*
X91570180Y-122626065D01*
X91555548Y-122627506D01*
X91528512Y-122638705D01*
X91507820Y-122659397D01*
X91496621Y-122686433D01*
X91495180Y-122701065D01*
X91384069Y-122701065D01*
X91384069Y-121796303D01*
X91495180Y-121796303D01*
X91495180Y-122272493D01*
X91496621Y-122287125D01*
X91507820Y-122314161D01*
X91528512Y-122334853D01*
X91555548Y-122346052D01*
X91584812Y-122346052D01*
X91611848Y-122334853D01*
X91632540Y-122314161D01*
X91643739Y-122287125D01*
X91645180Y-122272493D01*
X91645180Y-121871303D01*
X92018990Y-121871303D01*
X92018990Y-122129636D01*
X92020431Y-122144268D01*
X92031630Y-122171304D01*
X92052322Y-122191996D01*
X92079358Y-122203195D01*
X92108622Y-122203195D01*
X92135658Y-122191996D01*
X92156350Y-122171304D01*
X92167549Y-122144268D01*
X92168990Y-122129636D01*
X92168990Y-121871303D01*
X92495180Y-121871303D01*
X92495180Y-122272493D01*
X92496621Y-122287125D01*
X92507820Y-122314161D01*
X92528512Y-122334853D01*
X92555548Y-122346052D01*
X92584812Y-122346052D01*
X92611848Y-122334853D01*
X92632540Y-122314161D01*
X92643739Y-122287125D01*
X92645180Y-122272493D01*
X92645180Y-121796303D01*
X92643739Y-121781671D01*
X92632540Y-121754635D01*
X92611848Y-121733943D01*
X92584812Y-121722744D01*
X92570180Y-121721303D01*
X91570180Y-121721303D01*
X91555548Y-121722744D01*
X91528512Y-121733943D01*
X91507820Y-121754635D01*
X91496621Y-121781671D01*
X91495180Y-121796303D01*
X91384069Y-121796303D01*
X91384069Y-120986779D01*
X91495180Y-120986779D01*
X91495180Y-121462969D01*
X91496621Y-121477601D01*
X91507820Y-121504637D01*
X91528512Y-121525329D01*
X91555548Y-121536528D01*
X91584812Y-121536528D01*
X91611848Y-121525329D01*
X91632540Y-121504637D01*
X91643739Y-121477601D01*
X91645180Y-121462969D01*
X91645180Y-121061779D01*
X92570180Y-121061779D01*
X92584812Y-121060338D01*
X92611848Y-121049139D01*
X92632540Y-121028447D01*
X92643739Y-121001411D01*
X92643739Y-120972147D01*
X92632540Y-120945111D01*
X92611848Y-120924419D01*
X92584812Y-120913220D01*
X92570180Y-120911779D01*
X91570180Y-120911779D01*
X91555548Y-120913220D01*
X91528512Y-120924419D01*
X91507820Y-120945111D01*
X91496621Y-120972147D01*
X91495180Y-120986779D01*
X91384069Y-120986779D01*
X91384069Y-120800668D01*
X92756291Y-120800668D01*
X92756291Y-124268128D01*
G37*
G36*
X83955996Y-65759113D02*
G01*
X84028828Y-65810095D01*
X84062886Y-65857778D01*
X84102618Y-65969024D01*
X84102618Y-66043041D01*
X84062886Y-66154287D01*
X84028828Y-66201970D01*
X83955996Y-66252952D01*
X83835652Y-66281033D01*
X83681190Y-66281033D01*
X83681190Y-65731033D01*
X83835652Y-65731033D01*
X83955996Y-65759113D01*
G37*
G36*
X86670282Y-65759113D02*
G01*
X86743114Y-65810095D01*
X86777172Y-65857778D01*
X86816904Y-65969024D01*
X86816904Y-66043041D01*
X86777172Y-66154287D01*
X86743114Y-66201970D01*
X86670282Y-66252952D01*
X86549938Y-66281033D01*
X86395476Y-66281033D01*
X86395476Y-65731033D01*
X86549938Y-65731033D01*
X86670282Y-65759113D01*
G37*
G36*
X93616111Y-66508811D02*
G01*
X81643888Y-66508811D01*
X81643888Y-65956033D01*
X81721666Y-65956033D01*
X81721666Y-66056033D01*
X81722563Y-66065142D01*
X81722471Y-66066994D01*
X81722924Y-66068807D01*
X81723107Y-66070665D01*
X81723815Y-66072376D01*
X81726035Y-66081258D01*
X81773654Y-66214591D01*
X81775550Y-66218607D01*
X81775923Y-66220215D01*
X81778084Y-66223971D01*
X81779933Y-66227886D01*
X81781039Y-66229108D01*
X81783255Y-66232959D01*
X81830874Y-66299626D01*
X81836720Y-66306313D01*
X81837734Y-66307904D01*
X81839240Y-66309196D01*
X81840551Y-66310695D01*
X81842156Y-66311696D01*
X81848894Y-66317475D01*
X81944132Y-66384142D01*
X81955602Y-66390597D01*
X81956178Y-66391010D01*
X81956575Y-66391144D01*
X81956945Y-66391353D01*
X81957643Y-66391507D01*
X81970100Y-66395738D01*
X82112957Y-66429071D01*
X82114647Y-66429293D01*
X82115367Y-66429592D01*
X82121455Y-66430191D01*
X82127533Y-66430993D01*
X82128303Y-66430865D01*
X82129999Y-66431033D01*
X82225237Y-66431033D01*
X82226932Y-66430866D01*
X82227702Y-66430993D01*
X82233778Y-66430191D01*
X82239869Y-66429592D01*
X82240588Y-66429293D01*
X82242279Y-66429071D01*
X82385136Y-66395738D01*
X82397600Y-66391504D01*
X82398291Y-66391352D01*
X82398656Y-66391146D01*
X82399058Y-66391010D01*
X82399639Y-66390593D01*
X82411104Y-66384142D01*
X82458723Y-66350808D01*
X82469884Y-66341236D01*
X82473419Y-66335687D01*
X82478073Y-66331034D01*
X82481208Y-66323464D01*
X82485610Y-66316557D01*
X82486753Y-66310078D01*
X82489272Y-66303998D01*
X82490713Y-66289366D01*
X82490713Y-66056033D01*
X82489272Y-66041401D01*
X82478073Y-66014365D01*
X82457381Y-65993673D01*
X82430345Y-65982474D01*
X82415713Y-65981033D01*
X82225237Y-65981033D01*
X82210605Y-65982474D01*
X82183569Y-65993673D01*
X82162877Y-66014365D01*
X82151678Y-66041401D01*
X82151678Y-66070665D01*
X82162877Y-66097701D01*
X82183569Y-66118393D01*
X82210605Y-66129592D01*
X82225237Y-66131033D01*
X82340713Y-66131033D01*
X82340713Y-66250317D01*
X82336948Y-66252952D01*
X82216604Y-66281033D01*
X82138632Y-66281033D01*
X82018287Y-66252952D01*
X81945455Y-66201970D01*
X81911397Y-66154288D01*
X81871666Y-66043041D01*
X81871666Y-65969024D01*
X81911397Y-65857777D01*
X81945455Y-65810095D01*
X82018287Y-65759113D01*
X82138632Y-65731033D01*
X82260111Y-65731033D01*
X82343318Y-65760156D01*
X82357605Y-65763629D01*
X82386822Y-65761990D01*
X82413188Y-65749295D01*
X82432690Y-65727477D01*
X82442357Y-65699856D01*
X82440718Y-65670638D01*
X82433686Y-65656033D01*
X83531190Y-65656033D01*
X83531190Y-66356033D01*
X83532631Y-66370665D01*
X83543830Y-66397701D01*
X83564522Y-66418393D01*
X83591558Y-66429592D01*
X83606190Y-66431033D01*
X83844285Y-66431033D01*
X83845980Y-66430866D01*
X83846750Y-66430993D01*
X83852826Y-66430191D01*
X83858917Y-66429592D01*
X83859636Y-66429293D01*
X83861327Y-66429071D01*
X84004184Y-66395738D01*
X84016640Y-66391507D01*
X84017339Y-66391353D01*
X84017708Y-66391144D01*
X84018106Y-66391010D01*
X84018681Y-66390597D01*
X84030152Y-66384142D01*
X84125390Y-66317475D01*
X84132127Y-66311696D01*
X84133733Y-66310695D01*
X84135043Y-66309196D01*
X84136550Y-66307904D01*
X84137563Y-66306313D01*
X84143410Y-66299626D01*
X84191029Y-66232959D01*
X84193244Y-66229108D01*
X84194351Y-66227886D01*
X84196199Y-66223971D01*
X84198361Y-66220215D01*
X84198733Y-66218607D01*
X84200630Y-66214591D01*
X84248249Y-66081259D01*
X84250468Y-66072375D01*
X84251177Y-66070665D01*
X84251359Y-66068807D01*
X84251813Y-66066994D01*
X84251720Y-66065142D01*
X84252618Y-66056033D01*
X84252618Y-65956033D01*
X84251720Y-65946923D01*
X84251813Y-65945072D01*
X84251359Y-65943258D01*
X84251177Y-65941401D01*
X84250468Y-65939690D01*
X84248249Y-65930807D01*
X84225290Y-65866523D01*
X84484308Y-65866523D01*
X84493975Y-65894144D01*
X84513477Y-65915962D01*
X84539843Y-65928657D01*
X84569061Y-65930296D01*
X84583347Y-65926822D01*
X84678585Y-65893489D01*
X84682434Y-65891701D01*
X84684006Y-65891353D01*
X84687885Y-65889169D01*
X84691920Y-65887296D01*
X84693118Y-65886224D01*
X84696819Y-65884142D01*
X84769285Y-65833415D01*
X84769285Y-66281033D01*
X84558571Y-66281033D01*
X84543939Y-66282474D01*
X84516903Y-66293673D01*
X84496211Y-66314365D01*
X84485012Y-66341401D01*
X84485012Y-66370665D01*
X84496211Y-66397701D01*
X84516903Y-66418393D01*
X84543939Y-66429592D01*
X84558571Y-66431033D01*
X85129999Y-66431033D01*
X85144631Y-66429592D01*
X85171667Y-66418393D01*
X85192359Y-66397701D01*
X85203558Y-66370665D01*
X85203558Y-66341401D01*
X85192359Y-66314365D01*
X85171667Y-66293673D01*
X85144631Y-66282474D01*
X85129999Y-66281033D01*
X84919285Y-66281033D01*
X84919285Y-65656033D01*
X86245476Y-65656033D01*
X86245476Y-66356033D01*
X86246917Y-66370665D01*
X86258116Y-66397701D01*
X86278808Y-66418393D01*
X86305844Y-66429592D01*
X86320476Y-66431033D01*
X86558571Y-66431033D01*
X86560266Y-66430866D01*
X86561036Y-66430993D01*
X86567112Y-66430191D01*
X86573203Y-66429592D01*
X86573922Y-66429293D01*
X86575613Y-66429071D01*
X86718470Y-66395738D01*
X86730926Y-66391507D01*
X86731625Y-66391353D01*
X86731994Y-66391144D01*
X86732392Y-66391010D01*
X86732967Y-66390597D01*
X86744438Y-66384142D01*
X86782272Y-66357658D01*
X87150256Y-66357658D01*
X87151679Y-66364081D01*
X87151679Y-66370665D01*
X87154813Y-66378232D01*
X87156585Y-66386229D01*
X87160359Y-66391621D01*
X87162878Y-66397701D01*
X87168669Y-66403492D01*
X87173367Y-66410203D01*
X87178916Y-66413739D01*
X87183570Y-66418393D01*
X87191138Y-66421527D01*
X87198046Y-66425930D01*
X87204525Y-66427073D01*
X87210606Y-66429592D01*
X87225238Y-66431033D01*
X87844285Y-66431033D01*
X87858917Y-66429592D01*
X87885953Y-66418393D01*
X87906645Y-66397701D01*
X87917844Y-66370665D01*
X87917844Y-66341401D01*
X87906645Y-66314365D01*
X87885953Y-66293673D01*
X87858917Y-66282474D01*
X87844285Y-66281033D01*
X87463165Y-66281033D01*
X87839676Y-66017475D01*
X87850836Y-66007904D01*
X87853334Y-66003983D01*
X87856789Y-66000869D01*
X87864381Y-65988278D01*
X87912000Y-65888278D01*
X87916989Y-65874448D01*
X87917090Y-65872483D01*
X87917844Y-65870665D01*
X87919285Y-65856033D01*
X87919285Y-65789366D01*
X88912143Y-65789366D01*
X88912143Y-65856033D01*
X88912301Y-65857642D01*
X88912180Y-65858372D01*
X88912516Y-65859825D01*
X88913584Y-65870665D01*
X88916854Y-65878559D01*
X88918781Y-65886882D01*
X88924210Y-65896319D01*
X88924783Y-65897701D01*
X88925306Y-65898224D01*
X88926113Y-65899626D01*
X88973732Y-65966293D01*
X88979578Y-65972980D01*
X88980592Y-65974571D01*
X88982098Y-65975863D01*
X88983409Y-65977362D01*
X88985013Y-65978363D01*
X88991753Y-65984143D01*
X89039371Y-66017475D01*
X89043070Y-66019556D01*
X89044270Y-66020629D01*
X89048308Y-66022504D01*
X89052185Y-66024686D01*
X89053754Y-66025033D01*
X89057605Y-66026822D01*
X89152843Y-66060156D01*
X89158809Y-66061606D01*
X89164690Y-66063243D01*
X89349117Y-66095518D01*
X89428796Y-66123406D01*
X89457400Y-66143429D01*
X89483571Y-66180067D01*
X89483571Y-66198664D01*
X89457400Y-66235303D01*
X89428797Y-66255326D01*
X89355350Y-66281033D01*
X89138633Y-66281033D01*
X89004185Y-66249662D01*
X88989608Y-66247740D01*
X88960735Y-66252503D01*
X88935882Y-66267952D01*
X88918833Y-66291736D01*
X88912183Y-66320235D01*
X88916946Y-66349108D01*
X88932395Y-66373961D01*
X88956179Y-66391010D01*
X88970101Y-66395738D01*
X89112958Y-66429071D01*
X89114648Y-66429293D01*
X89115368Y-66429592D01*
X89121456Y-66430191D01*
X89127534Y-66430993D01*
X89128304Y-66430865D01*
X89130000Y-66431033D01*
X89368095Y-66431033D01*
X89376669Y-66430188D01*
X89378585Y-66430296D01*
X89380631Y-66429798D01*
X89382727Y-66429592D01*
X89384499Y-66428857D01*
X89392871Y-66426822D01*
X89488109Y-66393489D01*
X89491962Y-66391699D01*
X89493530Y-66391352D01*
X89497402Y-66389173D01*
X89501444Y-66387296D01*
X89502643Y-66386223D01*
X89506343Y-66384142D01*
X89544176Y-66357658D01*
X89816923Y-66357658D01*
X89818346Y-66364081D01*
X89818346Y-66370665D01*
X89821480Y-66378232D01*
X89823252Y-66386229D01*
X89827026Y-66391621D01*
X89829545Y-66397701D01*
X89835336Y-66403492D01*
X89840034Y-66410203D01*
X89845583Y-66413739D01*
X89850237Y-66418393D01*
X89857805Y-66421527D01*
X89864713Y-66425930D01*
X89871192Y-66427073D01*
X89877273Y-66429592D01*
X89891905Y-66431033D01*
X90510952Y-66431033D01*
X90525584Y-66429592D01*
X90552620Y-66418393D01*
X90573312Y-66397701D01*
X90584511Y-66370665D01*
X90584511Y-66341401D01*
X90576091Y-66321075D01*
X91578828Y-66321075D01*
X91579114Y-66322700D01*
X91578828Y-66324326D01*
X91581645Y-66337045D01*
X91583913Y-66349893D01*
X91584801Y-66351286D01*
X91585158Y-66352897D01*
X91592629Y-66363570D01*
X91599640Y-66374571D01*
X91601366Y-66376051D01*
X91601940Y-66376871D01*
X91603425Y-66377817D01*
X91610801Y-66384143D01*
X91658419Y-66417475D01*
X91659388Y-66418020D01*
X91659761Y-66418393D01*
X91660857Y-66418847D01*
X91671233Y-66424686D01*
X91672843Y-66425042D01*
X91674236Y-66425930D01*
X91680717Y-66427073D01*
X91686797Y-66429592D01*
X91693380Y-66429592D01*
X91699804Y-66431015D01*
X91701428Y-66430728D01*
X91703054Y-66431015D01*
X91709478Y-66429592D01*
X91716061Y-66429592D01*
X91722141Y-66427073D01*
X91728621Y-66425930D01*
X91730012Y-66425043D01*
X91731625Y-66424686D01*
X91742003Y-66418846D01*
X91743097Y-66418393D01*
X91743468Y-66418021D01*
X91744438Y-66417476D01*
X91792057Y-66384143D01*
X91799429Y-66377820D01*
X91800919Y-66376871D01*
X91801494Y-66376049D01*
X91803218Y-66374571D01*
X91810218Y-66363585D01*
X91817701Y-66352897D01*
X91818058Y-66351284D01*
X91818945Y-66349893D01*
X91820443Y-66341401D01*
X92008822Y-66341401D01*
X92008822Y-66370665D01*
X92020021Y-66397701D01*
X92040713Y-66418393D01*
X92067749Y-66429592D01*
X92082381Y-66431033D01*
X92177619Y-66431033D01*
X92179314Y-66430866D01*
X92180084Y-66430993D01*
X92186160Y-66430191D01*
X92192251Y-66429592D01*
X92192970Y-66429293D01*
X92194661Y-66429071D01*
X92337518Y-66395738D01*
X92349974Y-66391507D01*
X92350673Y-66391353D01*
X92351042Y-66391144D01*
X92351440Y-66391010D01*
X92352015Y-66390597D01*
X92363486Y-66384142D01*
X92458724Y-66317475D01*
X92469884Y-66307904D01*
X92472382Y-66303983D01*
X92475837Y-66300869D01*
X92483429Y-66288278D01*
X92483685Y-66287740D01*
X92769304Y-66287740D01*
X92774389Y-66316558D01*
X92790115Y-66341236D01*
X92801276Y-66350808D01*
X92848895Y-66384142D01*
X92852595Y-66386224D01*
X92853794Y-66387296D01*
X92857828Y-66389169D01*
X92861708Y-66391353D01*
X92863279Y-66391701D01*
X92867129Y-66393489D01*
X92962367Y-66426823D01*
X92970739Y-66428858D01*
X92972511Y-66429592D01*
X92974607Y-66429798D01*
X92976654Y-66430296D01*
X92978568Y-66430188D01*
X92987143Y-66431033D01*
X93272857Y-66431033D01*
X93281431Y-66430188D01*
X93283347Y-66430296D01*
X93285393Y-66429798D01*
X93287489Y-66429592D01*
X93289261Y-66428857D01*
X93297633Y-66426822D01*
X93392871Y-66393489D01*
X93396724Y-66391699D01*
X93398292Y-66391352D01*
X93402164Y-66389173D01*
X93406206Y-66387296D01*
X93407405Y-66386223D01*
X93411105Y-66384142D01*
X93458724Y-66350808D01*
X93465461Y-66345029D01*
X93467067Y-66344028D01*
X93468377Y-66342528D01*
X93469885Y-66341236D01*
X93470898Y-66339644D01*
X93476744Y-66332959D01*
X93524363Y-66266293D01*
X93525169Y-66264891D01*
X93525693Y-66264368D01*
X93526265Y-66262986D01*
X93531695Y-66253549D01*
X93533622Y-66245225D01*
X93536892Y-66237332D01*
X93537959Y-66226493D01*
X93538296Y-66225040D01*
X93538174Y-66224310D01*
X93538333Y-66222700D01*
X93538333Y-66056033D01*
X93538174Y-66054423D01*
X93538296Y-66053694D01*
X93537959Y-66052240D01*
X93536892Y-66041401D01*
X93533621Y-66033506D01*
X93531695Y-66025184D01*
X93526265Y-66015746D01*
X93525693Y-66014365D01*
X93525169Y-66013841D01*
X93524363Y-66012440D01*
X93476744Y-65945773D01*
X93470897Y-65939085D01*
X93469884Y-65937495D01*
X93468377Y-65936202D01*
X93467067Y-65934704D01*
X93465461Y-65933702D01*
X93458723Y-65927923D01*
X93411104Y-65894590D01*
X93407404Y-65892508D01*
X93406206Y-65891437D01*
X93402168Y-65889561D01*
X93398291Y-65887380D01*
X93396721Y-65887032D01*
X93392871Y-65885244D01*
X93326093Y-65861871D01*
X93510185Y-65714598D01*
X93520711Y-65704332D01*
X93522731Y-65700662D01*
X93525693Y-65697701D01*
X93529733Y-65687945D01*
X93534826Y-65678698D01*
X93535288Y-65674536D01*
X93536892Y-65670665D01*
X93536892Y-65660106D01*
X93538058Y-65649614D01*
X93536892Y-65645589D01*
X93536892Y-65641401D01*
X93532853Y-65631650D01*
X93529914Y-65621507D01*
X93527295Y-65618234D01*
X93525693Y-65614365D01*
X93518228Y-65606900D01*
X93511632Y-65598655D01*
X93507962Y-65596634D01*
X93505001Y-65593673D01*
X93495245Y-65589632D01*
X93485998Y-65584540D01*
X93481836Y-65584077D01*
X93477965Y-65582474D01*
X93463333Y-65581033D01*
X92844286Y-65581033D01*
X92829654Y-65582474D01*
X92802618Y-65593673D01*
X92781926Y-65614365D01*
X92770727Y-65641401D01*
X92770727Y-65670665D01*
X92781926Y-65697701D01*
X92802618Y-65718393D01*
X92829654Y-65729592D01*
X92844286Y-65731033D01*
X93249525Y-65731033D01*
X93083148Y-65864135D01*
X93072622Y-65874401D01*
X93070601Y-65878070D01*
X93067640Y-65881032D01*
X93063599Y-65890787D01*
X93058507Y-65900035D01*
X93058044Y-65904196D01*
X93056441Y-65908068D01*
X93056441Y-65918626D01*
X93055275Y-65929119D01*
X93056441Y-65933142D01*
X93056441Y-65937332D01*
X93060482Y-65947087D01*
X93063420Y-65957226D01*
X93066036Y-65960496D01*
X93067640Y-65964368D01*
X93075106Y-65971834D01*
X93081701Y-65980078D01*
X93085370Y-65982098D01*
X93088332Y-65985060D01*
X93098087Y-65989100D01*
X93107335Y-65994193D01*
X93111496Y-65994655D01*
X93115368Y-65996259D01*
X93130000Y-65997700D01*
X93260112Y-65997700D01*
X93333558Y-66023406D01*
X93362162Y-66043429D01*
X93388333Y-66080067D01*
X93388333Y-66198664D01*
X93362162Y-66235303D01*
X93333559Y-66255326D01*
X93260112Y-66281033D01*
X92999887Y-66281033D01*
X92926443Y-66255327D01*
X92887296Y-66227924D01*
X92874483Y-66220714D01*
X92845912Y-66214384D01*
X92817094Y-66219469D01*
X92792416Y-66235195D01*
X92775634Y-66259169D01*
X92769304Y-66287740D01*
X92483685Y-66287740D01*
X92531048Y-66188278D01*
X92536037Y-66174448D01*
X92536138Y-66172483D01*
X92536892Y-66170665D01*
X92538333Y-66156033D01*
X92538333Y-65656033D01*
X92536892Y-65641401D01*
X92525693Y-65614365D01*
X92505001Y-65593673D01*
X92477965Y-65582474D01*
X92448701Y-65582474D01*
X92421665Y-65593673D01*
X92400973Y-65614365D01*
X92389774Y-65641401D01*
X92388333Y-65656033D01*
X92388333Y-66139086D01*
X92356501Y-66205932D01*
X92289330Y-66252952D01*
X92168986Y-66281033D01*
X92082381Y-66281033D01*
X92067749Y-66282474D01*
X92040713Y-66293673D01*
X92020021Y-66314365D01*
X92008822Y-66341401D01*
X91820443Y-66341401D01*
X91821210Y-66337054D01*
X91824030Y-66324326D01*
X91823743Y-66322700D01*
X91824030Y-66321075D01*
X91821209Y-66308343D01*
X91818945Y-66295509D01*
X91818058Y-66294117D01*
X91817701Y-66292504D01*
X91810221Y-66281819D01*
X91803219Y-66270830D01*
X91801492Y-66269349D01*
X91800919Y-66268530D01*
X91799433Y-66267583D01*
X91792058Y-66261258D01*
X91744439Y-66227924D01*
X91743469Y-66227378D01*
X91743097Y-66227006D01*
X91742000Y-66226551D01*
X91731626Y-66220714D01*
X91730014Y-66220356D01*
X91728621Y-66219469D01*
X91722141Y-66218325D01*
X91716061Y-66215807D01*
X91709478Y-66215807D01*
X91703055Y-66214384D01*
X91701429Y-66214670D01*
X91699803Y-66214384D01*
X91693379Y-66215807D01*
X91686797Y-66215807D01*
X91680716Y-66218325D01*
X91674237Y-66219469D01*
X91672845Y-66220355D01*
X91671232Y-66220713D01*
X91660856Y-66226552D01*
X91659761Y-66227006D01*
X91659388Y-66227378D01*
X91658419Y-66227924D01*
X91610800Y-66261258D01*
X91603425Y-66267582D01*
X91601939Y-66268530D01*
X91601365Y-66269349D01*
X91599639Y-66270830D01*
X91592633Y-66281823D01*
X91585157Y-66292504D01*
X91584799Y-66294116D01*
X91583913Y-66295508D01*
X91581647Y-66308346D01*
X91578828Y-66321075D01*
X90576091Y-66321075D01*
X90573312Y-66314365D01*
X90552620Y-66293673D01*
X90525584Y-66282474D01*
X90510952Y-66281033D01*
X90129832Y-66281033D01*
X90506343Y-66017475D01*
X90517503Y-66007904D01*
X90520001Y-66003983D01*
X90523456Y-66000869D01*
X90531048Y-65988278D01*
X90547177Y-65954408D01*
X91578828Y-65954408D01*
X91579114Y-65956033D01*
X91578828Y-65957658D01*
X91581646Y-65970383D01*
X91583913Y-65983226D01*
X91584800Y-65984618D01*
X91585157Y-65986229D01*
X91592632Y-65996907D01*
X91599640Y-66007904D01*
X91601365Y-66009384D01*
X91601939Y-66010203D01*
X91603424Y-66011149D01*
X91610801Y-66017476D01*
X91658419Y-66050808D01*
X91659388Y-66051353D01*
X91659761Y-66051726D01*
X91660857Y-66052180D01*
X91671233Y-66058019D01*
X91672843Y-66058375D01*
X91674236Y-66059263D01*
X91680717Y-66060406D01*
X91686797Y-66062925D01*
X91693380Y-66062925D01*
X91699804Y-66064348D01*
X91701428Y-66064061D01*
X91703054Y-66064348D01*
X91709478Y-66062925D01*
X91716061Y-66062925D01*
X91722141Y-66060406D01*
X91728621Y-66059263D01*
X91730012Y-66058376D01*
X91731625Y-66058019D01*
X91742003Y-66052179D01*
X91743097Y-66051726D01*
X91743468Y-66051354D01*
X91744438Y-66050809D01*
X91792057Y-66017476D01*
X91799433Y-66011149D01*
X91800919Y-66010203D01*
X91801492Y-66009384D01*
X91803218Y-66007904D01*
X91810225Y-65996907D01*
X91817701Y-65986229D01*
X91818057Y-65984618D01*
X91818945Y-65983226D01*
X91821211Y-65970383D01*
X91824030Y-65957658D01*
X91823743Y-65956033D01*
X91824030Y-65954408D01*
X91821211Y-65941682D01*
X91818945Y-65928840D01*
X91818057Y-65927447D01*
X91817701Y-65925837D01*
X91810225Y-65915158D01*
X91803218Y-65904162D01*
X91801492Y-65902681D01*
X91800919Y-65901863D01*
X91799433Y-65900916D01*
X91792057Y-65894590D01*
X91744438Y-65861257D01*
X91743468Y-65860711D01*
X91743097Y-65860340D01*
X91742003Y-65859886D01*
X91731625Y-65854047D01*
X91730012Y-65853689D01*
X91728621Y-65852803D01*
X91722141Y-65851659D01*
X91716061Y-65849141D01*
X91709478Y-65849141D01*
X91703054Y-65847718D01*
X91701428Y-65848004D01*
X91699804Y-65847718D01*
X91693380Y-65849141D01*
X91686797Y-65849141D01*
X91680717Y-65851659D01*
X91674236Y-65852803D01*
X91672843Y-65853690D01*
X91671233Y-65854047D01*
X91660857Y-65859885D01*
X91659761Y-65860340D01*
X91659388Y-65860712D01*
X91658419Y-65861258D01*
X91610801Y-65894590D01*
X91603424Y-65900916D01*
X91601939Y-65901863D01*
X91601365Y-65902681D01*
X91599640Y-65904162D01*
X91592632Y-65915158D01*
X91585157Y-65925837D01*
X91584800Y-65927447D01*
X91583913Y-65928840D01*
X91581646Y-65941682D01*
X91578828Y-65954408D01*
X90547177Y-65954408D01*
X90578667Y-65888278D01*
X90583656Y-65874448D01*
X90583757Y-65872483D01*
X90584511Y-65870665D01*
X90585952Y-65856033D01*
X90585952Y-65789366D01*
X90585793Y-65787755D01*
X90585915Y-65787026D01*
X90585578Y-65785572D01*
X90584511Y-65774734D01*
X90581241Y-65766840D01*
X90579314Y-65758517D01*
X90573884Y-65749079D01*
X90573312Y-65747698D01*
X90572788Y-65747174D01*
X90571982Y-65745773D01*
X90524363Y-65679107D01*
X90518517Y-65672421D01*
X90517504Y-65670830D01*
X90515996Y-65669537D01*
X90514686Y-65668038D01*
X90513080Y-65667036D01*
X90506343Y-65661258D01*
X90458724Y-65627924D01*
X90455024Y-65625842D01*
X90453825Y-65624770D01*
X90449783Y-65622892D01*
X90445911Y-65620714D01*
X90444343Y-65620366D01*
X90440490Y-65618577D01*
X90345252Y-65585244D01*
X90336880Y-65583208D01*
X90335108Y-65582474D01*
X90333012Y-65582267D01*
X90330966Y-65581770D01*
X90329050Y-65581877D01*
X90320476Y-65581033D01*
X90082381Y-65581033D01*
X90073806Y-65581877D01*
X90071892Y-65581770D01*
X90069845Y-65582267D01*
X90067749Y-65582474D01*
X90065977Y-65583207D01*
X90057605Y-65585243D01*
X89962367Y-65618577D01*
X89958517Y-65620364D01*
X89956946Y-65620713D01*
X89953066Y-65622896D01*
X89949032Y-65624770D01*
X89947833Y-65625841D01*
X89944133Y-65627924D01*
X89896514Y-65661258D01*
X89885353Y-65670830D01*
X89869627Y-65695508D01*
X89864542Y-65724326D01*
X89870872Y-65752897D01*
X89887654Y-65776871D01*
X89912332Y-65792597D01*
X89941150Y-65797682D01*
X89969721Y-65791352D01*
X89982534Y-65784142D01*
X90021681Y-65756738D01*
X90095125Y-65731033D01*
X90307731Y-65731033D01*
X90381178Y-65756739D01*
X90409781Y-65776762D01*
X90435952Y-65813401D01*
X90435952Y-65839086D01*
X90404120Y-65905932D01*
X89848895Y-66294591D01*
X89837735Y-66304162D01*
X89834198Y-66309711D01*
X89829545Y-66314365D01*
X89826410Y-66321933D01*
X89822008Y-66328841D01*
X89820864Y-66335320D01*
X89818346Y-66341401D01*
X89818346Y-66349593D01*
X89816923Y-66357658D01*
X89544176Y-66357658D01*
X89553962Y-66350808D01*
X89560699Y-66345029D01*
X89562305Y-66344028D01*
X89563615Y-66342528D01*
X89565123Y-66341236D01*
X89566136Y-66339644D01*
X89571982Y-66332959D01*
X89619601Y-66266293D01*
X89620407Y-66264891D01*
X89620931Y-66264368D01*
X89621503Y-66262986D01*
X89626933Y-66253549D01*
X89628860Y-66245225D01*
X89632130Y-66237332D01*
X89633197Y-66226493D01*
X89633534Y-66225040D01*
X89633412Y-66224310D01*
X89633571Y-66222700D01*
X89633571Y-66156033D01*
X89633412Y-66154423D01*
X89633534Y-66153694D01*
X89633197Y-66152240D01*
X89632130Y-66141401D01*
X89628859Y-66133506D01*
X89626933Y-66125184D01*
X89621503Y-66115746D01*
X89620931Y-66114365D01*
X89620407Y-66113841D01*
X89619601Y-66112440D01*
X89571982Y-66045773D01*
X89566135Y-66039085D01*
X89565122Y-66037495D01*
X89563615Y-66036202D01*
X89562305Y-66034704D01*
X89560699Y-66033702D01*
X89553961Y-66027923D01*
X89506342Y-65994590D01*
X89502642Y-65992508D01*
X89501444Y-65991437D01*
X89497406Y-65989561D01*
X89493529Y-65987380D01*
X89491959Y-65987032D01*
X89488109Y-65985244D01*
X89392871Y-65951911D01*
X89386921Y-65950464D01*
X89381024Y-65948823D01*
X89196596Y-65916547D01*
X89116919Y-65888660D01*
X89088312Y-65868636D01*
X89062143Y-65831998D01*
X89062143Y-65813401D01*
X89088313Y-65776762D01*
X89116919Y-65756738D01*
X89190363Y-65731033D01*
X89407081Y-65731033D01*
X89541529Y-65762404D01*
X89556105Y-65764326D01*
X89584979Y-65759563D01*
X89609831Y-65744114D01*
X89626881Y-65720330D01*
X89633530Y-65691831D01*
X89628768Y-65662958D01*
X89613319Y-65638105D01*
X89589535Y-65621056D01*
X89575613Y-65616328D01*
X89432756Y-65582995D01*
X89431065Y-65582772D01*
X89430346Y-65582474D01*
X89424255Y-65581874D01*
X89418179Y-65581073D01*
X89417409Y-65581199D01*
X89415714Y-65581033D01*
X89177619Y-65581033D01*
X89169044Y-65581877D01*
X89167130Y-65581770D01*
X89165083Y-65582267D01*
X89162987Y-65582474D01*
X89161215Y-65583207D01*
X89152843Y-65585243D01*
X89057605Y-65618577D01*
X89053755Y-65620364D01*
X89052184Y-65620713D01*
X89048304Y-65622896D01*
X89044270Y-65624770D01*
X89043071Y-65625841D01*
X89039371Y-65627924D01*
X88991752Y-65661258D01*
X88985014Y-65667036D01*
X88983409Y-65668038D01*
X88982098Y-65669537D01*
X88980591Y-65670830D01*
X88979576Y-65672421D01*
X88973732Y-65679107D01*
X88926113Y-65745773D01*
X88925306Y-65747174D01*
X88924783Y-65747698D01*
X88924210Y-65749079D01*
X88918781Y-65758517D01*
X88916853Y-65766840D01*
X88913584Y-65774734D01*
X88912516Y-65785572D01*
X88912180Y-65787026D01*
X88912301Y-65787755D01*
X88912143Y-65789366D01*
X87919285Y-65789366D01*
X87919126Y-65787755D01*
X87919248Y-65787026D01*
X87918911Y-65785572D01*
X87917844Y-65774734D01*
X87914574Y-65766840D01*
X87912647Y-65758517D01*
X87907217Y-65749079D01*
X87906645Y-65747698D01*
X87906121Y-65747174D01*
X87905315Y-65745773D01*
X87857696Y-65679107D01*
X87851850Y-65672421D01*
X87850837Y-65670830D01*
X87849329Y-65669537D01*
X87848019Y-65668038D01*
X87846413Y-65667036D01*
X87839676Y-65661258D01*
X87792057Y-65627924D01*
X87788357Y-65625842D01*
X87787158Y-65624770D01*
X87783116Y-65622892D01*
X87779244Y-65620714D01*
X87777676Y-65620366D01*
X87773823Y-65618577D01*
X87678585Y-65585244D01*
X87670213Y-65583208D01*
X87668441Y-65582474D01*
X87666345Y-65582267D01*
X87664299Y-65581770D01*
X87662383Y-65581877D01*
X87653809Y-65581033D01*
X87415714Y-65581033D01*
X87407139Y-65581877D01*
X87405225Y-65581770D01*
X87403178Y-65582267D01*
X87401082Y-65582474D01*
X87399310Y-65583207D01*
X87390938Y-65585243D01*
X87295700Y-65618577D01*
X87291850Y-65620364D01*
X87290279Y-65620713D01*
X87286399Y-65622896D01*
X87282365Y-65624770D01*
X87281166Y-65625841D01*
X87277466Y-65627924D01*
X87229847Y-65661258D01*
X87218686Y-65670830D01*
X87202960Y-65695508D01*
X87197875Y-65724326D01*
X87204205Y-65752897D01*
X87220987Y-65776871D01*
X87245665Y-65792597D01*
X87274483Y-65797682D01*
X87303054Y-65791352D01*
X87315867Y-65784142D01*
X87355014Y-65756738D01*
X87428458Y-65731033D01*
X87641064Y-65731033D01*
X87714511Y-65756739D01*
X87743114Y-65776762D01*
X87769285Y-65813401D01*
X87769285Y-65839086D01*
X87737453Y-65905932D01*
X87182228Y-66294591D01*
X87171068Y-66304162D01*
X87167531Y-66309711D01*
X87162878Y-66314365D01*
X87159743Y-66321933D01*
X87155341Y-66328841D01*
X87154197Y-66335320D01*
X87151679Y-66341401D01*
X87151679Y-66349593D01*
X87150256Y-66357658D01*
X86782272Y-66357658D01*
X86839676Y-66317475D01*
X86846413Y-66311696D01*
X86848019Y-66310695D01*
X86849329Y-66309196D01*
X86850836Y-66307904D01*
X86851849Y-66306313D01*
X86857696Y-66299626D01*
X86905315Y-66232959D01*
X86907530Y-66229108D01*
X86908637Y-66227886D01*
X86910485Y-66223971D01*
X86912647Y-66220215D01*
X86913019Y-66218607D01*
X86914916Y-66214591D01*
X86962535Y-66081259D01*
X86964754Y-66072375D01*
X86965463Y-66070665D01*
X86965645Y-66068807D01*
X86966099Y-66066994D01*
X86966006Y-66065142D01*
X86966904Y-66056033D01*
X86966904Y-65956033D01*
X86966006Y-65946923D01*
X86966099Y-65945072D01*
X86965645Y-65943258D01*
X86965463Y-65941401D01*
X86964754Y-65939690D01*
X86962535Y-65930807D01*
X86914916Y-65797475D01*
X86913019Y-65793458D01*
X86912647Y-65791851D01*
X86910485Y-65788094D01*
X86908637Y-65784180D01*
X86907530Y-65782957D01*
X86905315Y-65779107D01*
X86857696Y-65712440D01*
X86851849Y-65705752D01*
X86850836Y-65704162D01*
X86849329Y-65702869D01*
X86848019Y-65701371D01*
X86846413Y-65700369D01*
X86839676Y-65694591D01*
X86744438Y-65627924D01*
X86732967Y-65621468D01*
X86732392Y-65621056D01*
X86731994Y-65620921D01*
X86731625Y-65620713D01*
X86730926Y-65620558D01*
X86718470Y-65616328D01*
X86575613Y-65582995D01*
X86573922Y-65582772D01*
X86573203Y-65582474D01*
X86567112Y-65581874D01*
X86561036Y-65581073D01*
X86560266Y-65581199D01*
X86558571Y-65581033D01*
X86320476Y-65581033D01*
X86305844Y-65582474D01*
X86278808Y-65593673D01*
X86258116Y-65614365D01*
X86246917Y-65641401D01*
X86245476Y-65656033D01*
X84919285Y-65656033D01*
X84917844Y-65641401D01*
X84917487Y-65640540D01*
X84917465Y-65639612D01*
X84911901Y-65627054D01*
X84906645Y-65614365D01*
X84905988Y-65613708D01*
X84905611Y-65612857D01*
X84895656Y-65603376D01*
X84885953Y-65593673D01*
X84885094Y-65593317D01*
X84884420Y-65592675D01*
X84871602Y-65587728D01*
X84858917Y-65582474D01*
X84857986Y-65582474D01*
X84857118Y-65582139D01*
X84843392Y-65582474D01*
X84829653Y-65582474D01*
X84828792Y-65582830D01*
X84827864Y-65582853D01*
X84815306Y-65588416D01*
X84802617Y-65593673D01*
X84801960Y-65594329D01*
X84801109Y-65594707D01*
X84789975Y-65604309D01*
X84699902Y-65698885D01*
X84619273Y-65755325D01*
X84533795Y-65785244D01*
X84520460Y-65791437D01*
X84498642Y-65810939D01*
X84485947Y-65837305D01*
X84484308Y-65866523D01*
X84225290Y-65866523D01*
X84200630Y-65797475D01*
X84198733Y-65793458D01*
X84198361Y-65791851D01*
X84196199Y-65788094D01*
X84194351Y-65784180D01*
X84193244Y-65782957D01*
X84191029Y-65779107D01*
X84143410Y-65712440D01*
X84137563Y-65705752D01*
X84136550Y-65704162D01*
X84135043Y-65702869D01*
X84133733Y-65701371D01*
X84132127Y-65700369D01*
X84125390Y-65694591D01*
X84030152Y-65627924D01*
X84018681Y-65621468D01*
X84018106Y-65621056D01*
X84017708Y-65620921D01*
X84017339Y-65620713D01*
X84016640Y-65620558D01*
X84004184Y-65616328D01*
X83861327Y-65582995D01*
X83859636Y-65582772D01*
X83858917Y-65582474D01*
X83852826Y-65581874D01*
X83846750Y-65581073D01*
X83845980Y-65581199D01*
X83844285Y-65581033D01*
X83606190Y-65581033D01*
X83591558Y-65582474D01*
X83564522Y-65593673D01*
X83543830Y-65614365D01*
X83532631Y-65641401D01*
X83531190Y-65656033D01*
X82433686Y-65656033D01*
X82428023Y-65644272D01*
X82406205Y-65624770D01*
X82392870Y-65618577D01*
X82297632Y-65585244D01*
X82289260Y-65583208D01*
X82287488Y-65582474D01*
X82285392Y-65582267D01*
X82283346Y-65581770D01*
X82281430Y-65581877D01*
X82272856Y-65581033D01*
X82129999Y-65581033D01*
X82128303Y-65581200D01*
X82127533Y-65581073D01*
X82121455Y-65581874D01*
X82115367Y-65582474D01*
X82114647Y-65582772D01*
X82112957Y-65582995D01*
X81970100Y-65616328D01*
X81957643Y-65620558D01*
X81956945Y-65620713D01*
X81956575Y-65620921D01*
X81956178Y-65621056D01*
X81955602Y-65621468D01*
X81944132Y-65627924D01*
X81848894Y-65694591D01*
X81842156Y-65700369D01*
X81840551Y-65701371D01*
X81839240Y-65702869D01*
X81837734Y-65704162D01*
X81836720Y-65705752D01*
X81830874Y-65712440D01*
X81783255Y-65779107D01*
X81781039Y-65782957D01*
X81779933Y-65784180D01*
X81778084Y-65788094D01*
X81775923Y-65791851D01*
X81775550Y-65793458D01*
X81773654Y-65797475D01*
X81726035Y-65930808D01*
X81723815Y-65939689D01*
X81723107Y-65941401D01*
X81722924Y-65943258D01*
X81722471Y-65945072D01*
X81722563Y-65946923D01*
X81721666Y-65956033D01*
X81643888Y-65956033D01*
X81643888Y-65503255D01*
X93616111Y-65503255D01*
X93616111Y-66508811D01*
G37*
G36*
X78109749Y-65756739D02*
G01*
X78138352Y-65776762D01*
X78164523Y-65813401D01*
X78164523Y-65865331D01*
X78138352Y-65901969D01*
X78109746Y-65921993D01*
X78036301Y-65947700D01*
X77743095Y-65947700D01*
X77743095Y-65731033D01*
X78036302Y-65731033D01*
X78109749Y-65756739D01*
G37*
G36*
X80153378Y-66508811D02*
G01*
X69754853Y-66508811D01*
X69754853Y-66341401D01*
X69832631Y-66341401D01*
X69832631Y-66370665D01*
X69843830Y-66397701D01*
X69864522Y-66418393D01*
X69891558Y-66429592D01*
X69906190Y-66431033D01*
X70001428Y-66431033D01*
X70003123Y-66430866D01*
X70003893Y-66430993D01*
X70009969Y-66430191D01*
X70016060Y-66429592D01*
X70016779Y-66429293D01*
X70018470Y-66429071D01*
X70161327Y-66395738D01*
X70173783Y-66391507D01*
X70174482Y-66391353D01*
X70174851Y-66391144D01*
X70175249Y-66391010D01*
X70175824Y-66390597D01*
X70187295Y-66384142D01*
X70282533Y-66317475D01*
X70293693Y-66307904D01*
X70296191Y-66303983D01*
X70299646Y-66300869D01*
X70307238Y-66288278D01*
X70354857Y-66188278D01*
X70359846Y-66174448D01*
X70359947Y-66172483D01*
X70360701Y-66170665D01*
X70362142Y-66156033D01*
X70362142Y-66133510D01*
X70641497Y-66133510D01*
X70642155Y-66135364D01*
X70642155Y-66137332D01*
X70647025Y-66149091D01*
X70651283Y-66161088D01*
X70652600Y-66162549D01*
X70653354Y-66164368D01*
X70662353Y-66173367D01*
X70670878Y-66182823D01*
X70672655Y-66183669D01*
X70674046Y-66185060D01*
X70685805Y-66189931D01*
X70697299Y-66195404D01*
X70699263Y-66195505D01*
X70701082Y-66196259D01*
X70715714Y-66197700D01*
X71116904Y-66197700D01*
X71116904Y-66356033D01*
X71118345Y-66370665D01*
X71129544Y-66397701D01*
X71150236Y-66418393D01*
X71177272Y-66429592D01*
X71206536Y-66429592D01*
X71233572Y-66418393D01*
X71254264Y-66397701D01*
X71265463Y-66370665D01*
X71266904Y-66356033D01*
X71266904Y-66321075D01*
X71593113Y-66321075D01*
X71593399Y-66322700D01*
X71593113Y-66324326D01*
X71595930Y-66337045D01*
X71598198Y-66349893D01*
X71599086Y-66351286D01*
X71599443Y-66352897D01*
X71606914Y-66363570D01*
X71613925Y-66374571D01*
X71615651Y-66376051D01*
X71616225Y-66376871D01*
X71617710Y-66377817D01*
X71625086Y-66384143D01*
X71672704Y-66417475D01*
X71673673Y-66418020D01*
X71674046Y-66418393D01*
X71675142Y-66418847D01*
X71685518Y-66424686D01*
X71687128Y-66425042D01*
X71688521Y-66425930D01*
X71695002Y-66427073D01*
X71701082Y-66429592D01*
X71707665Y-66429592D01*
X71714089Y-66431015D01*
X71715713Y-66430728D01*
X71717339Y-66431015D01*
X71723763Y-66429592D01*
X71730346Y-66429592D01*
X71736426Y-66427073D01*
X71742906Y-66425930D01*
X71744297Y-66425043D01*
X71745910Y-66424686D01*
X71756288Y-66418846D01*
X71757382Y-66418393D01*
X71757753Y-66418021D01*
X71758723Y-66417476D01*
X71806342Y-66384143D01*
X71813714Y-66377820D01*
X71815204Y-66376871D01*
X71815779Y-66376049D01*
X71817503Y-66374571D01*
X71824503Y-66363585D01*
X71831986Y-66352897D01*
X71832343Y-66351284D01*
X71833230Y-66349893D01*
X71835495Y-66337054D01*
X71838315Y-66324326D01*
X71838028Y-66322700D01*
X71838315Y-66321075D01*
X71835494Y-66308343D01*
X71833230Y-66295509D01*
X71832343Y-66294117D01*
X71831986Y-66292504D01*
X71824506Y-66281819D01*
X71817504Y-66270830D01*
X71815777Y-66269349D01*
X71815204Y-66268530D01*
X71813718Y-66267583D01*
X71806343Y-66261258D01*
X71758724Y-66227924D01*
X71757754Y-66227378D01*
X71757382Y-66227006D01*
X71756285Y-66226551D01*
X71745911Y-66220714D01*
X71744299Y-66220356D01*
X71742906Y-66219469D01*
X71736426Y-66218325D01*
X71730346Y-66215807D01*
X71723763Y-66215807D01*
X71717340Y-66214384D01*
X71715714Y-66214670D01*
X71714088Y-66214384D01*
X71707664Y-66215807D01*
X71701082Y-66215807D01*
X71695001Y-66218325D01*
X71688522Y-66219469D01*
X71687130Y-66220355D01*
X71685517Y-66220713D01*
X71675141Y-66226552D01*
X71674046Y-66227006D01*
X71673673Y-66227378D01*
X71672704Y-66227924D01*
X71625085Y-66261258D01*
X71617710Y-66267582D01*
X71616224Y-66268530D01*
X71615650Y-66269349D01*
X71613924Y-66270830D01*
X71606918Y-66281823D01*
X71599442Y-66292504D01*
X71599084Y-66294116D01*
X71598198Y-66295508D01*
X71595932Y-66308346D01*
X71593113Y-66321075D01*
X71266904Y-66321075D01*
X71266904Y-66197700D01*
X71334761Y-66197700D01*
X71349393Y-66196259D01*
X71376429Y-66185060D01*
X71397121Y-66164368D01*
X71408320Y-66137332D01*
X71408320Y-66108068D01*
X71397121Y-66081032D01*
X71390823Y-66074734D01*
X72880250Y-66074734D01*
X72880250Y-66103998D01*
X72891449Y-66131034D01*
X72912141Y-66151726D01*
X72939177Y-66162925D01*
X72953809Y-66164366D01*
X73259761Y-66164366D01*
X73259761Y-66356033D01*
X73261202Y-66370665D01*
X73272401Y-66397701D01*
X73293093Y-66418393D01*
X73320129Y-66429592D01*
X73349393Y-66429592D01*
X73376429Y-66418393D01*
X73397121Y-66397701D01*
X73408320Y-66370665D01*
X73409761Y-66356033D01*
X73409761Y-66164366D01*
X73715714Y-66164366D01*
X73730346Y-66162925D01*
X73757382Y-66151726D01*
X73778074Y-66131034D01*
X73789273Y-66103998D01*
X73789273Y-66074734D01*
X73778074Y-66047698D01*
X73757382Y-66027006D01*
X73730346Y-66015807D01*
X73715714Y-66014366D01*
X73409761Y-66014366D01*
X73409761Y-65990991D01*
X74069303Y-65990991D01*
X74069470Y-65991746D01*
X74069396Y-65993448D01*
X74072728Y-66006456D01*
X74075632Y-66019562D01*
X74076349Y-66020586D01*
X74076659Y-66021796D01*
X74084714Y-66032536D01*
X74092414Y-66043536D01*
X74093467Y-66044207D01*
X74094217Y-66045207D01*
X74105767Y-66052045D01*
X74117092Y-66059263D01*
X74118323Y-66059480D01*
X74119397Y-66060116D01*
X74132686Y-66062014D01*
X74145910Y-66064348D01*
X74147128Y-66064078D01*
X74148367Y-66064255D01*
X74161375Y-66060922D01*
X74174481Y-66058019D01*
X74175964Y-66057184D01*
X74176715Y-66056992D01*
X74177943Y-66056070D01*
X74187294Y-66050809D01*
X74226442Y-66023405D01*
X74299886Y-65997700D01*
X74512492Y-65997700D01*
X74585938Y-66023406D01*
X74614542Y-66043429D01*
X74640713Y-66080067D01*
X74640713Y-66198664D01*
X74614542Y-66235303D01*
X74585939Y-66255326D01*
X74512492Y-66281033D01*
X74299886Y-66281033D01*
X74226442Y-66255327D01*
X74187295Y-66227924D01*
X74174482Y-66220714D01*
X74145911Y-66214384D01*
X74117093Y-66219469D01*
X74092415Y-66235195D01*
X74075633Y-66259169D01*
X74069303Y-66287740D01*
X74074388Y-66316558D01*
X74090114Y-66341236D01*
X74101275Y-66350808D01*
X74148894Y-66384142D01*
X74152594Y-66386224D01*
X74153793Y-66387296D01*
X74157827Y-66389169D01*
X74161707Y-66391353D01*
X74163278Y-66391701D01*
X74167128Y-66393489D01*
X74262366Y-66426823D01*
X74270738Y-66428858D01*
X74272510Y-66429592D01*
X74274606Y-66429798D01*
X74276653Y-66430296D01*
X74278567Y-66430188D01*
X74287142Y-66431033D01*
X74525237Y-66431033D01*
X74533811Y-66430188D01*
X74535727Y-66430296D01*
X74537773Y-66429798D01*
X74539869Y-66429592D01*
X74541641Y-66428857D01*
X74550013Y-66426822D01*
X74645251Y-66393489D01*
X74649104Y-66391699D01*
X74650672Y-66391352D01*
X74654544Y-66389173D01*
X74658586Y-66387296D01*
X74659785Y-66386223D01*
X74663485Y-66384142D01*
X74711104Y-66350808D01*
X74717841Y-66345029D01*
X74719447Y-66344028D01*
X74720757Y-66342528D01*
X74722265Y-66341236D01*
X74723278Y-66339644D01*
X74729124Y-66332959D01*
X74776743Y-66266293D01*
X74777549Y-66264891D01*
X74778073Y-66264368D01*
X74778645Y-66262986D01*
X74784075Y-66253549D01*
X74786002Y-66245225D01*
X74789272Y-66237332D01*
X74790339Y-66226493D01*
X74790676Y-66225040D01*
X74790554Y-66224310D01*
X74790713Y-66222700D01*
X74790713Y-66056033D01*
X74790554Y-66054423D01*
X74790676Y-66053694D01*
X74790339Y-66052240D01*
X74789272Y-66041401D01*
X74786001Y-66033506D01*
X74784075Y-66025184D01*
X74778645Y-66015746D01*
X74778073Y-66014365D01*
X74777549Y-66013841D01*
X74776743Y-66012440D01*
X74736453Y-65956033D01*
X75783571Y-65956033D01*
X75783571Y-66056033D01*
X75784468Y-66065142D01*
X75784376Y-66066994D01*
X75784829Y-66068807D01*
X75785012Y-66070665D01*
X75785720Y-66072376D01*
X75787940Y-66081258D01*
X75835559Y-66214591D01*
X75837455Y-66218607D01*
X75837828Y-66220215D01*
X75839989Y-66223971D01*
X75841838Y-66227886D01*
X75842944Y-66229108D01*
X75845160Y-66232959D01*
X75892779Y-66299626D01*
X75898625Y-66306313D01*
X75899639Y-66307904D01*
X75901145Y-66309196D01*
X75902456Y-66310695D01*
X75904061Y-66311696D01*
X75910799Y-66317475D01*
X76006037Y-66384142D01*
X76017507Y-66390597D01*
X76018083Y-66391010D01*
X76018480Y-66391144D01*
X76018850Y-66391353D01*
X76019548Y-66391507D01*
X76032005Y-66395738D01*
X76174862Y-66429071D01*
X76176552Y-66429293D01*
X76177272Y-66429592D01*
X76183360Y-66430191D01*
X76189438Y-66430993D01*
X76190208Y-66430865D01*
X76191904Y-66431033D01*
X76287142Y-66431033D01*
X76288837Y-66430866D01*
X76289607Y-66430993D01*
X76295683Y-66430191D01*
X76301774Y-66429592D01*
X76302493Y-66429293D01*
X76304184Y-66429071D01*
X76447041Y-66395738D01*
X76459505Y-66391504D01*
X76460196Y-66391352D01*
X76460561Y-66391146D01*
X76460963Y-66391010D01*
X76461544Y-66390593D01*
X76473009Y-66384142D01*
X76520628Y-66350808D01*
X76531789Y-66341236D01*
X76535324Y-66335687D01*
X76539978Y-66331034D01*
X76543113Y-66323464D01*
X76547515Y-66316557D01*
X76548658Y-66310078D01*
X76551177Y-66303998D01*
X76552618Y-66289366D01*
X76552618Y-66056033D01*
X76551177Y-66041401D01*
X76539978Y-66014365D01*
X76519286Y-65993673D01*
X76492250Y-65982474D01*
X76477618Y-65981033D01*
X76287142Y-65981033D01*
X76272510Y-65982474D01*
X76245474Y-65993673D01*
X76224782Y-66014365D01*
X76213583Y-66041401D01*
X76213583Y-66070665D01*
X76224782Y-66097701D01*
X76245474Y-66118393D01*
X76272510Y-66129592D01*
X76287142Y-66131033D01*
X76402618Y-66131033D01*
X76402618Y-66250317D01*
X76398853Y-66252952D01*
X76278509Y-66281033D01*
X76200537Y-66281033D01*
X76080192Y-66252952D01*
X76007360Y-66201970D01*
X75973302Y-66154288D01*
X75933571Y-66043041D01*
X75933571Y-65969024D01*
X75973302Y-65857777D01*
X76007360Y-65810095D01*
X76080192Y-65759113D01*
X76200537Y-65731033D01*
X76322016Y-65731033D01*
X76405223Y-65760156D01*
X76419510Y-65763629D01*
X76448727Y-65761990D01*
X76475093Y-65749295D01*
X76494595Y-65727477D01*
X76504262Y-65699856D01*
X76502623Y-65670638D01*
X76495591Y-65656033D01*
X77593095Y-65656033D01*
X77593095Y-66356033D01*
X77594536Y-66370665D01*
X77605735Y-66397701D01*
X77626427Y-66418393D01*
X77653463Y-66429592D01*
X77682727Y-66429592D01*
X77709763Y-66418393D01*
X77730455Y-66397701D01*
X77741654Y-66370665D01*
X77743095Y-66356033D01*
X77743095Y-66097700D01*
X77875124Y-66097700D01*
X78186490Y-66409066D01*
X78197855Y-66418393D01*
X78224892Y-66429592D01*
X78254154Y-66429592D01*
X78281191Y-66418393D01*
X78301883Y-66397701D01*
X78313082Y-66370664D01*
X78313082Y-66341402D01*
X78301883Y-66314365D01*
X78292556Y-66303000D01*
X78080654Y-66091098D01*
X78169062Y-66060155D01*
X78172912Y-66058366D01*
X78174481Y-66058019D01*
X78178364Y-66055833D01*
X78182396Y-66053961D01*
X78183591Y-66052892D01*
X78187294Y-66050809D01*
X78234913Y-66017476D01*
X78241651Y-66011696D01*
X78243257Y-66010695D01*
X78244567Y-66009196D01*
X78246074Y-66007904D01*
X78247087Y-66006313D01*
X78252934Y-65999626D01*
X78300553Y-65932959D01*
X78301359Y-65931557D01*
X78301883Y-65931034D01*
X78302455Y-65929652D01*
X78307885Y-65920215D01*
X78309811Y-65911892D01*
X78313082Y-65903998D01*
X78314149Y-65893158D01*
X78314486Y-65891705D01*
X78314364Y-65890975D01*
X78314523Y-65889366D01*
X78314523Y-65789366D01*
X78314364Y-65787755D01*
X78314486Y-65787026D01*
X78314149Y-65785572D01*
X78313082Y-65774734D01*
X78309812Y-65766840D01*
X78307885Y-65758517D01*
X78302455Y-65749079D01*
X78301883Y-65747698D01*
X78301359Y-65747174D01*
X78300553Y-65745773D01*
X78252934Y-65679107D01*
X78247088Y-65672421D01*
X78246075Y-65670830D01*
X78244567Y-65669537D01*
X78243257Y-65668038D01*
X78241651Y-65667036D01*
X78234914Y-65661258D01*
X78227450Y-65656033D01*
X78593095Y-65656033D01*
X78593095Y-66356033D01*
X78594536Y-66370664D01*
X78594536Y-66370665D01*
X78605735Y-66397701D01*
X78626427Y-66418393D01*
X78653463Y-66429592D01*
X78668095Y-66431033D01*
X79144285Y-66431033D01*
X79158917Y-66429592D01*
X79185953Y-66418393D01*
X79206645Y-66397701D01*
X79217844Y-66370665D01*
X79217844Y-66341401D01*
X79206645Y-66314365D01*
X79185953Y-66293673D01*
X79158917Y-66282474D01*
X79144285Y-66281033D01*
X78743095Y-66281033D01*
X78743095Y-65667149D01*
X79260590Y-65667149D01*
X79270490Y-65694687D01*
X79279266Y-65706483D01*
X79593095Y-66051695D01*
X79593095Y-66356033D01*
X79594536Y-66370665D01*
X79605735Y-66397701D01*
X79626427Y-66418393D01*
X79653463Y-66429592D01*
X79682727Y-66429592D01*
X79709763Y-66418393D01*
X79730455Y-66397701D01*
X79741654Y-66370665D01*
X79743095Y-66356033D01*
X79743095Y-66051695D01*
X80056924Y-65706483D01*
X80065700Y-65694687D01*
X80075600Y-65667149D01*
X80074208Y-65637919D01*
X80061736Y-65611446D01*
X80040083Y-65591761D01*
X80012544Y-65581861D01*
X79983314Y-65583253D01*
X79956841Y-65595725D01*
X79945933Y-65605582D01*
X79668095Y-65911204D01*
X79390258Y-65605583D01*
X79379349Y-65595725D01*
X79352876Y-65583253D01*
X79323646Y-65581861D01*
X79296108Y-65591761D01*
X79274454Y-65611446D01*
X79261982Y-65637919D01*
X79260590Y-65667149D01*
X78743095Y-65667149D01*
X78743095Y-65656033D01*
X78741654Y-65641401D01*
X78730455Y-65614365D01*
X78709763Y-65593673D01*
X78682727Y-65582474D01*
X78653463Y-65582474D01*
X78626427Y-65593673D01*
X78605735Y-65614365D01*
X78594536Y-65641401D01*
X78593095Y-65656033D01*
X78227450Y-65656033D01*
X78187295Y-65627924D01*
X78183595Y-65625842D01*
X78182396Y-65624770D01*
X78178354Y-65622892D01*
X78174482Y-65620714D01*
X78172914Y-65620366D01*
X78169061Y-65618577D01*
X78073823Y-65585244D01*
X78065451Y-65583208D01*
X78063679Y-65582474D01*
X78061583Y-65582267D01*
X78059537Y-65581770D01*
X78057621Y-65581877D01*
X78049047Y-65581033D01*
X77668095Y-65581033D01*
X77653463Y-65582474D01*
X77626427Y-65593673D01*
X77605735Y-65614365D01*
X77594536Y-65641401D01*
X77593095Y-65656033D01*
X76495591Y-65656033D01*
X76489928Y-65644272D01*
X76468110Y-65624770D01*
X76454775Y-65618577D01*
X76359537Y-65585244D01*
X76351165Y-65583208D01*
X76349393Y-65582474D01*
X76347297Y-65582267D01*
X76345251Y-65581770D01*
X76343335Y-65581877D01*
X76334761Y-65581033D01*
X76191904Y-65581033D01*
X76190208Y-65581200D01*
X76189438Y-65581073D01*
X76183360Y-65581874D01*
X76177272Y-65582474D01*
X76176552Y-65582772D01*
X76174862Y-65582995D01*
X76032005Y-65616328D01*
X76019548Y-65620558D01*
X76018850Y-65620713D01*
X76018480Y-65620921D01*
X76018083Y-65621056D01*
X76017507Y-65621468D01*
X76006037Y-65627924D01*
X75910799Y-65694591D01*
X75904061Y-65700369D01*
X75902456Y-65701371D01*
X75901145Y-65702869D01*
X75899639Y-65704162D01*
X75898625Y-65705752D01*
X75892779Y-65712440D01*
X75845160Y-65779107D01*
X75842944Y-65782957D01*
X75841838Y-65784180D01*
X75839989Y-65788094D01*
X75837828Y-65791851D01*
X75837455Y-65793458D01*
X75835559Y-65797475D01*
X75787940Y-65930808D01*
X75785720Y-65939689D01*
X75785012Y-65941401D01*
X75784829Y-65943258D01*
X75784376Y-65945072D01*
X75784468Y-65946923D01*
X75783571Y-65956033D01*
X74736453Y-65956033D01*
X74729124Y-65945773D01*
X74723277Y-65939085D01*
X74722264Y-65937495D01*
X74720757Y-65936202D01*
X74719447Y-65934704D01*
X74717841Y-65933702D01*
X74711103Y-65927923D01*
X74663484Y-65894590D01*
X74659784Y-65892508D01*
X74658586Y-65891437D01*
X74654548Y-65889561D01*
X74650671Y-65887380D01*
X74649101Y-65887032D01*
X74645251Y-65885244D01*
X74550013Y-65851911D01*
X74541641Y-65849875D01*
X74539869Y-65849141D01*
X74537773Y-65848934D01*
X74535727Y-65848437D01*
X74533811Y-65848544D01*
X74525237Y-65847700D01*
X74287142Y-65847700D01*
X74278567Y-65848544D01*
X74276653Y-65848437D01*
X74274606Y-65848934D01*
X74272510Y-65849141D01*
X74270738Y-65849874D01*
X74262366Y-65851910D01*
X74238488Y-65860267D01*
X74256951Y-65731033D01*
X74668094Y-65731033D01*
X74682726Y-65729592D01*
X74709762Y-65718393D01*
X74730454Y-65697701D01*
X74741653Y-65670665D01*
X74741653Y-65641401D01*
X74730454Y-65614365D01*
X74709762Y-65593673D01*
X74682726Y-65582474D01*
X74668094Y-65581033D01*
X74191904Y-65581033D01*
X74189027Y-65581316D01*
X74187822Y-65581144D01*
X74185976Y-65581616D01*
X74177272Y-65582474D01*
X74168583Y-65586073D01*
X74159474Y-65588407D01*
X74155187Y-65591622D01*
X74150236Y-65593673D01*
X74143586Y-65600322D01*
X74136063Y-65605965D01*
X74133332Y-65610576D01*
X74129544Y-65614365D01*
X74125945Y-65623053D01*
X74121154Y-65631145D01*
X74119074Y-65639639D01*
X74118345Y-65641401D01*
X74118345Y-65642620D01*
X74117658Y-65645427D01*
X74070039Y-65978759D01*
X74069569Y-65989479D01*
X74069303Y-65990991D01*
X73409761Y-65990991D01*
X73409761Y-65822700D01*
X73408320Y-65808068D01*
X73397121Y-65781032D01*
X73376429Y-65760340D01*
X73349393Y-65749141D01*
X73320129Y-65749141D01*
X73293093Y-65760340D01*
X73272401Y-65781032D01*
X73261202Y-65808068D01*
X73259761Y-65822700D01*
X73259761Y-66014366D01*
X72953809Y-66014366D01*
X72939177Y-66015807D01*
X72912141Y-66027006D01*
X72891449Y-66047698D01*
X72880250Y-66074734D01*
X71390823Y-66074734D01*
X71376429Y-66060340D01*
X71349393Y-66049141D01*
X71334761Y-66047700D01*
X71266904Y-66047700D01*
X71266904Y-65954408D01*
X71593113Y-65954408D01*
X71593399Y-65956033D01*
X71593113Y-65957658D01*
X71595931Y-65970383D01*
X71598198Y-65983226D01*
X71599085Y-65984618D01*
X71599442Y-65986229D01*
X71606917Y-65996907D01*
X71613925Y-66007904D01*
X71615650Y-66009384D01*
X71616224Y-66010203D01*
X71617709Y-66011149D01*
X71625086Y-66017476D01*
X71672704Y-66050808D01*
X71673673Y-66051353D01*
X71674046Y-66051726D01*
X71675142Y-66052180D01*
X71685518Y-66058019D01*
X71687128Y-66058375D01*
X71688521Y-66059263D01*
X71695002Y-66060406D01*
X71701082Y-66062925D01*
X71707665Y-66062925D01*
X71714089Y-66064348D01*
X71715713Y-66064061D01*
X71717339Y-66064348D01*
X71723763Y-66062925D01*
X71730346Y-66062925D01*
X71736426Y-66060406D01*
X71742906Y-66059263D01*
X71744297Y-66058376D01*
X71745910Y-66058019D01*
X71756288Y-66052179D01*
X71757382Y-66051726D01*
X71757753Y-66051354D01*
X71758723Y-66050809D01*
X71806342Y-66017476D01*
X71813718Y-66011149D01*
X71815204Y-66010203D01*
X71815777Y-66009384D01*
X71817503Y-66007904D01*
X71824510Y-65996907D01*
X71831986Y-65986229D01*
X71832342Y-65984618D01*
X71833230Y-65983226D01*
X71835496Y-65970383D01*
X71838315Y-65957658D01*
X71838028Y-65956033D01*
X71838315Y-65954408D01*
X71835496Y-65941682D01*
X71833230Y-65928840D01*
X71832342Y-65927447D01*
X71831986Y-65925837D01*
X71824510Y-65915158D01*
X71817503Y-65904162D01*
X71815777Y-65902681D01*
X71815204Y-65901863D01*
X71813718Y-65900916D01*
X71806342Y-65894590D01*
X71758723Y-65861257D01*
X71757753Y-65860711D01*
X71757382Y-65860340D01*
X71756288Y-65859886D01*
X71745910Y-65854047D01*
X71744297Y-65853689D01*
X71742906Y-65852803D01*
X71736426Y-65851659D01*
X71730346Y-65849141D01*
X71723763Y-65849141D01*
X71717339Y-65847718D01*
X71715713Y-65848004D01*
X71714089Y-65847718D01*
X71707665Y-65849141D01*
X71701082Y-65849141D01*
X71695002Y-65851659D01*
X71688521Y-65852803D01*
X71687128Y-65853690D01*
X71685518Y-65854047D01*
X71675142Y-65859885D01*
X71674046Y-65860340D01*
X71673673Y-65860712D01*
X71672704Y-65861258D01*
X71625086Y-65894590D01*
X71617709Y-65900916D01*
X71616224Y-65901863D01*
X71615650Y-65902681D01*
X71613925Y-65904162D01*
X71606917Y-65915158D01*
X71599442Y-65925837D01*
X71599085Y-65927447D01*
X71598198Y-65928840D01*
X71595931Y-65941682D01*
X71593113Y-65954408D01*
X71266904Y-65954408D01*
X71266904Y-65889366D01*
X71265463Y-65874734D01*
X71254264Y-65847698D01*
X71233572Y-65827006D01*
X71206536Y-65815807D01*
X71177272Y-65815807D01*
X71150236Y-65827006D01*
X71129544Y-65847698D01*
X71118345Y-65874734D01*
X71116904Y-65889366D01*
X71116904Y-66047700D01*
X70834498Y-66047700D01*
X71021523Y-65654945D01*
X71026513Y-65641115D01*
X71028026Y-65611891D01*
X71018240Y-65584312D01*
X70998645Y-65562578D01*
X70972224Y-65549996D01*
X70942999Y-65548483D01*
X70915421Y-65558269D01*
X70893686Y-65577864D01*
X70886094Y-65590455D01*
X70647999Y-66090455D01*
X70643010Y-66104285D01*
X70642908Y-66106249D01*
X70642155Y-66108068D01*
X70642155Y-66120800D01*
X70641497Y-66133510D01*
X70362142Y-66133510D01*
X70362142Y-65656033D01*
X70360701Y-65641401D01*
X70349502Y-65614365D01*
X70328810Y-65593673D01*
X70301774Y-65582474D01*
X70272510Y-65582474D01*
X70245474Y-65593673D01*
X70224782Y-65614365D01*
X70213583Y-65641401D01*
X70212142Y-65656033D01*
X70212142Y-66139086D01*
X70180310Y-66205932D01*
X70113139Y-66252952D01*
X69992795Y-66281033D01*
X69906190Y-66281033D01*
X69891558Y-66282474D01*
X69864522Y-66293673D01*
X69843830Y-66314365D01*
X69832631Y-66341401D01*
X69754853Y-66341401D01*
X69754853Y-65470705D01*
X80153378Y-65470705D01*
X80153378Y-66508811D01*
G37*
D11*
G36*
X100038024Y-105920759D02*
G01*
X100083402Y-105943448D01*
X100125421Y-105985467D01*
X100147733Y-106052401D01*
X100147733Y-106117369D01*
X99622733Y-106117369D01*
X99622733Y-106052401D01*
X99645044Y-105985467D01*
X99687064Y-105943447D01*
X99732436Y-105920761D01*
X99846006Y-105892369D01*
X99924459Y-105892369D01*
X100038024Y-105920759D01*
G37*
G36*
X99783400Y-102043448D02*
G01*
X99796654Y-102056701D01*
X99814400Y-102092192D01*
X99814400Y-102250703D01*
X99622733Y-102250703D01*
X99622733Y-102092191D01*
X99640477Y-102056703D01*
X99653733Y-102043447D01*
X99689221Y-102025703D01*
X99747910Y-102025703D01*
X99783400Y-102043448D01*
G37*
G36*
X100410233Y-109178188D02*
G01*
X99360233Y-109178188D01*
X99360233Y-108721132D01*
X99449414Y-108721132D01*
X99449414Y-108755272D01*
X99462479Y-108786814D01*
X99486621Y-108810956D01*
X99518163Y-108824021D01*
X99535233Y-108825702D01*
X100021033Y-108825702D01*
X100087967Y-108848013D01*
X100125421Y-108885467D01*
X100147733Y-108952401D01*
X100147733Y-109004869D01*
X100149414Y-109021939D01*
X100162479Y-109053481D01*
X100186621Y-109077623D01*
X100218163Y-109090688D01*
X100252303Y-109090688D01*
X100283845Y-109077623D01*
X100307987Y-109053481D01*
X100321052Y-109021939D01*
X100322733Y-109004869D01*
X100322733Y-108938202D01*
X100321882Y-108929562D01*
X100322046Y-108927258D01*
X100321356Y-108924226D01*
X100321052Y-108921132D01*
X100320167Y-108918997D01*
X100318243Y-108910532D01*
X100284910Y-108810532D01*
X100277917Y-108794870D01*
X100275856Y-108792493D01*
X100274653Y-108789589D01*
X100263772Y-108776330D01*
X100197105Y-108709663D01*
X100183846Y-108698781D01*
X100180938Y-108697576D01*
X100178565Y-108695518D01*
X100162903Y-108688525D01*
X100062903Y-108655192D01*
X100054437Y-108653267D01*
X100052303Y-108652383D01*
X100049208Y-108652078D01*
X100046177Y-108651389D01*
X100043872Y-108651552D01*
X100035233Y-108650702D01*
X99535233Y-108650702D01*
X99518163Y-108652383D01*
X99486621Y-108665448D01*
X99462479Y-108689590D01*
X99449414Y-108721132D01*
X99360233Y-108721132D01*
X99360233Y-108238293D01*
X99447733Y-108238293D01*
X99449414Y-108246697D01*
X99449414Y-108255272D01*
X99452730Y-108263277D01*
X99454429Y-108271772D01*
X99459198Y-108278893D01*
X99462479Y-108286814D01*
X99468604Y-108292939D01*
X99473426Y-108300139D01*
X99486553Y-108310888D01*
X99486621Y-108310956D01*
X99486651Y-108310968D01*
X99486697Y-108311006D01*
X99579486Y-108372866D01*
X99629989Y-108423369D01*
X99656971Y-108477333D01*
X99666108Y-108491849D01*
X99691900Y-108514219D01*
X99724290Y-108525015D01*
X99758345Y-108522595D01*
X99788880Y-108507327D01*
X99811250Y-108481535D01*
X99822046Y-108449145D01*
X99819626Y-108415091D01*
X99813495Y-108399071D01*
X99780162Y-108332405D01*
X99775943Y-108325702D01*
X100147733Y-108325702D01*
X100147733Y-108438202D01*
X100149414Y-108455272D01*
X100162479Y-108486814D01*
X100186621Y-108510956D01*
X100218163Y-108524021D01*
X100252303Y-108524021D01*
X100283845Y-108510956D01*
X100307987Y-108486814D01*
X100321052Y-108455272D01*
X100322733Y-108438202D01*
X100322733Y-108038202D01*
X100321052Y-108021132D01*
X100307987Y-107989590D01*
X100283845Y-107965448D01*
X100252303Y-107952383D01*
X100218163Y-107952383D01*
X100186621Y-107965448D01*
X100162479Y-107989590D01*
X100149414Y-108021132D01*
X100147733Y-108038202D01*
X100147733Y-108150702D01*
X99535233Y-108150702D01*
X99535172Y-108150707D01*
X99535142Y-108150702D01*
X99535053Y-108150719D01*
X99518163Y-108152383D01*
X99510157Y-108155699D01*
X99501663Y-108157398D01*
X99494541Y-108162167D01*
X99486621Y-108165448D01*
X99480495Y-108171573D01*
X99473296Y-108176395D01*
X99468540Y-108183528D01*
X99462479Y-108189590D01*
X99459163Y-108197593D01*
X99454359Y-108204801D01*
X99452695Y-108213209D01*
X99449414Y-108221132D01*
X99449414Y-108229796D01*
X99447733Y-108238293D01*
X99360233Y-108238293D01*
X99360233Y-107721131D01*
X99716081Y-107721131D01*
X99716081Y-107755273D01*
X99729146Y-107786815D01*
X99740028Y-107800074D01*
X99773361Y-107833407D01*
X99786620Y-107844289D01*
X99818162Y-107857354D01*
X99852304Y-107857354D01*
X99883846Y-107844289D01*
X99883847Y-107844288D01*
X99897105Y-107833407D01*
X99930438Y-107800074D01*
X99941320Y-107786815D01*
X99954385Y-107755273D01*
X99954385Y-107721132D01*
X100082747Y-107721132D01*
X100082747Y-107753482D01*
X100082747Y-107755272D01*
X100082748Y-107755274D01*
X100095813Y-107786816D01*
X100106695Y-107800075D01*
X100140029Y-107833408D01*
X100153282Y-107844284D01*
X100153287Y-107844289D01*
X100184829Y-107857354D01*
X100184831Y-107857354D01*
X100218972Y-107857354D01*
X100232037Y-107851941D01*
X100250513Y-107844289D01*
X100263772Y-107833407D01*
X100297105Y-107800074D01*
X100307987Y-107786815D01*
X100321052Y-107755273D01*
X100321052Y-107721131D01*
X100307987Y-107689589D01*
X100307986Y-107689588D01*
X100297105Y-107676330D01*
X100263772Y-107642997D01*
X100250513Y-107632115D01*
X100232037Y-107624462D01*
X100218972Y-107619050D01*
X100218971Y-107619050D01*
X100184829Y-107619050D01*
X100153287Y-107632115D01*
X100153282Y-107632119D01*
X100140029Y-107642996D01*
X100106695Y-107676329D01*
X100095813Y-107689588D01*
X100095812Y-107689589D01*
X100095812Y-107689590D01*
X100082747Y-107721132D01*
X99954385Y-107721132D01*
X99954385Y-107721131D01*
X99941320Y-107689589D01*
X99941319Y-107689588D01*
X99930438Y-107676330D01*
X99897105Y-107642997D01*
X99883846Y-107632115D01*
X99852304Y-107619050D01*
X99818162Y-107619050D01*
X99786620Y-107632115D01*
X99773361Y-107642997D01*
X99740028Y-107676330D01*
X99729147Y-107689588D01*
X99729146Y-107689589D01*
X99716081Y-107721131D01*
X99360233Y-107721131D01*
X99360233Y-107387799D01*
X99449414Y-107387799D01*
X99449414Y-107421939D01*
X99462479Y-107453481D01*
X99486621Y-107477623D01*
X99518163Y-107490688D01*
X99535233Y-107492369D01*
X100235233Y-107492369D01*
X100252303Y-107490688D01*
X100283845Y-107477623D01*
X100307987Y-107453481D01*
X100321052Y-107421939D01*
X100322733Y-107404869D01*
X100322733Y-107071536D01*
X100321052Y-107054466D01*
X100307987Y-107022924D01*
X100283845Y-106998782D01*
X100252303Y-106985717D01*
X100218163Y-106985717D01*
X100186621Y-106998782D01*
X100162479Y-107022924D01*
X100149414Y-107054466D01*
X100147733Y-107071536D01*
X100147733Y-107317369D01*
X99535233Y-107317369D01*
X99518163Y-107319050D01*
X99486621Y-107332115D01*
X99462479Y-107356257D01*
X99449414Y-107387799D01*
X99360233Y-107387799D01*
X99360233Y-106504869D01*
X99447733Y-106504869D01*
X99447733Y-106838202D01*
X99449414Y-106855272D01*
X99462479Y-106886814D01*
X99486621Y-106910956D01*
X99518163Y-106924021D01*
X99535233Y-106925702D01*
X100235233Y-106925702D01*
X100252303Y-106924021D01*
X100283845Y-106910956D01*
X100307987Y-106886814D01*
X100321052Y-106855272D01*
X100322733Y-106838202D01*
X100322733Y-106504869D01*
X100321052Y-106487799D01*
X100307987Y-106456257D01*
X100283845Y-106432115D01*
X100252303Y-106419050D01*
X100218163Y-106419050D01*
X100186621Y-106432115D01*
X100162479Y-106456257D01*
X100149414Y-106487799D01*
X100147733Y-106504869D01*
X100147733Y-106750702D01*
X99956066Y-106750702D01*
X99956066Y-106604869D01*
X99954385Y-106587799D01*
X99941320Y-106556257D01*
X99917178Y-106532115D01*
X99885636Y-106519050D01*
X99851496Y-106519050D01*
X99819954Y-106532115D01*
X99795812Y-106556257D01*
X99782747Y-106587799D01*
X99781066Y-106604869D01*
X99781066Y-106750702D01*
X99622733Y-106750702D01*
X99622733Y-106504869D01*
X99621052Y-106487799D01*
X99607987Y-106456257D01*
X99583845Y-106432115D01*
X99552303Y-106419050D01*
X99518163Y-106419050D01*
X99486621Y-106432115D01*
X99462479Y-106456257D01*
X99449414Y-106487799D01*
X99447733Y-106504869D01*
X99360233Y-106504869D01*
X99360233Y-106038202D01*
X99447733Y-106038202D01*
X99447733Y-106204869D01*
X99449414Y-106221939D01*
X99462479Y-106253481D01*
X99486621Y-106277623D01*
X99518163Y-106290688D01*
X99535233Y-106292369D01*
X100235233Y-106292369D01*
X100252303Y-106290688D01*
X100283845Y-106277623D01*
X100307987Y-106253481D01*
X100321052Y-106221939D01*
X100322733Y-106204869D01*
X100322733Y-106038202D01*
X100321882Y-106029562D01*
X100322046Y-106027258D01*
X100321356Y-106024226D01*
X100321052Y-106021132D01*
X100320167Y-106018997D01*
X100318243Y-106010532D01*
X100284910Y-105910532D01*
X100277917Y-105894870D01*
X100275856Y-105892494D01*
X100274653Y-105889589D01*
X100263772Y-105876330D01*
X100197104Y-105809664D01*
X100190398Y-105804160D01*
X100188881Y-105802411D01*
X100186245Y-105800752D01*
X100183845Y-105798782D01*
X100181710Y-105797897D01*
X100174364Y-105793274D01*
X100107698Y-105759940D01*
X100106448Y-105759461D01*
X100105940Y-105759085D01*
X100098777Y-105756526D01*
X100091678Y-105753809D01*
X100091046Y-105753764D01*
X100089787Y-105753314D01*
X99956455Y-105719981D01*
X99953493Y-105719543D01*
X99952303Y-105719050D01*
X99945883Y-105718417D01*
X99939487Y-105717472D01*
X99938209Y-105717662D01*
X99935233Y-105717369D01*
X99835233Y-105717369D01*
X99832256Y-105717662D01*
X99830979Y-105717472D01*
X99824590Y-105718417D01*
X99818163Y-105719050D01*
X99816969Y-105719544D01*
X99814011Y-105719982D01*
X99680678Y-105753314D01*
X99679417Y-105753764D01*
X99678788Y-105753809D01*
X99671694Y-105756523D01*
X99664526Y-105759085D01*
X99664017Y-105759461D01*
X99662768Y-105759940D01*
X99596101Y-105793274D01*
X99588754Y-105797898D01*
X99586621Y-105798782D01*
X99584219Y-105800752D01*
X99581585Y-105802411D01*
X99580069Y-105804158D01*
X99573362Y-105809663D01*
X99506695Y-105876330D01*
X99495813Y-105889589D01*
X99494609Y-105892494D01*
X99492549Y-105894870D01*
X99485556Y-105910532D01*
X99452223Y-106010532D01*
X99450298Y-106018997D01*
X99449414Y-106021132D01*
X99449109Y-106024226D01*
X99448420Y-106027258D01*
X99448583Y-106029562D01*
X99447733Y-106038202D01*
X99360233Y-106038202D01*
X99360233Y-105338202D01*
X99681066Y-105338202D01*
X99681066Y-105438202D01*
X99682747Y-105455272D01*
X99683950Y-105458176D01*
X99684173Y-105461314D01*
X99690304Y-105477334D01*
X99723638Y-105544000D01*
X99725435Y-105546855D01*
X99725884Y-105548202D01*
X99727337Y-105549878D01*
X99732775Y-105558517D01*
X99741067Y-105565708D01*
X99748253Y-105573994D01*
X99756885Y-105579427D01*
X99758567Y-105580886D01*
X99759917Y-105581336D01*
X99762769Y-105583131D01*
X99829435Y-105616464D01*
X99845455Y-105622595D01*
X99848591Y-105622817D01*
X99851496Y-105624021D01*
X99868566Y-105625702D01*
X99901900Y-105625702D01*
X99918970Y-105624021D01*
X99921874Y-105622817D01*
X99925012Y-105622595D01*
X99941031Y-105616464D01*
X100007697Y-105583131D01*
X100010548Y-105581336D01*
X100011899Y-105580886D01*
X100013580Y-105579427D01*
X100022213Y-105573994D01*
X100029399Y-105565707D01*
X100037691Y-105558517D01*
X100043127Y-105549880D01*
X100044583Y-105548202D01*
X100045032Y-105546853D01*
X100046828Y-105544001D01*
X100080162Y-105477334D01*
X100086293Y-105461314D01*
X100086515Y-105458176D01*
X100087719Y-105455272D01*
X100089400Y-105438202D01*
X100089400Y-105358857D01*
X100100451Y-105336754D01*
X100118566Y-105327696D01*
X100136681Y-105336754D01*
X100147733Y-105358857D01*
X100147733Y-105450881D01*
X100123638Y-105499071D01*
X100117507Y-105515090D01*
X100115087Y-105549145D01*
X100125884Y-105581535D01*
X100148253Y-105607327D01*
X100178788Y-105622595D01*
X100212843Y-105625015D01*
X100245233Y-105614218D01*
X100271025Y-105591849D01*
X100280162Y-105577333D01*
X100313495Y-105510667D01*
X100319626Y-105494647D01*
X100319848Y-105491510D01*
X100321052Y-105488606D01*
X100322733Y-105471536D01*
X100322733Y-105338202D01*
X100321052Y-105321132D01*
X100319848Y-105318227D01*
X100319626Y-105315091D01*
X100313495Y-105299071D01*
X100280162Y-105232405D01*
X100278367Y-105229553D01*
X100277917Y-105228203D01*
X100276458Y-105226521D01*
X100271025Y-105217889D01*
X100262739Y-105210703D01*
X100255548Y-105202411D01*
X100246909Y-105196973D01*
X100245233Y-105195520D01*
X100243886Y-105195071D01*
X100241031Y-105193274D01*
X100174365Y-105159940D01*
X100158345Y-105153809D01*
X100155207Y-105153586D01*
X100152303Y-105152383D01*
X100135233Y-105150702D01*
X100101900Y-105150702D01*
X100084830Y-105152383D01*
X100081925Y-105153586D01*
X100078788Y-105153809D01*
X100062768Y-105159940D01*
X99996101Y-105193274D01*
X99993248Y-105195069D01*
X99991900Y-105195519D01*
X99990221Y-105196974D01*
X99981585Y-105202411D01*
X99974394Y-105210702D01*
X99966108Y-105217889D01*
X99960674Y-105226521D01*
X99959216Y-105228203D01*
X99958765Y-105229553D01*
X99956971Y-105232405D01*
X99923638Y-105299071D01*
X99917507Y-105315090D01*
X99917284Y-105318227D01*
X99916081Y-105321132D01*
X99914400Y-105338202D01*
X99914400Y-105417546D01*
X99903347Y-105439650D01*
X99885233Y-105448708D01*
X99867118Y-105439650D01*
X99856066Y-105417545D01*
X99856066Y-105358858D01*
X99880162Y-105310668D01*
X99886292Y-105294649D01*
X99888713Y-105260594D01*
X99877917Y-105228204D01*
X99855548Y-105202412D01*
X99825012Y-105187144D01*
X99790958Y-105184723D01*
X99758568Y-105195519D01*
X99732776Y-105217888D01*
X99723638Y-105232404D01*
X99690304Y-105299070D01*
X99684173Y-105315089D01*
X99683949Y-105318227D01*
X99682747Y-105321132D01*
X99681066Y-105338202D01*
X99360233Y-105338202D01*
X99360233Y-104921131D01*
X99716081Y-104921131D01*
X99716081Y-104955273D01*
X99729146Y-104986815D01*
X99740028Y-105000074D01*
X99773361Y-105033407D01*
X99786620Y-105044289D01*
X99818162Y-105057354D01*
X99852304Y-105057354D01*
X99883846Y-105044289D01*
X99883847Y-105044288D01*
X99897105Y-105033407D01*
X99930438Y-105000074D01*
X99941320Y-104986815D01*
X99954385Y-104955273D01*
X99954385Y-104921132D01*
X100082747Y-104921132D01*
X100082747Y-104953482D01*
X100082747Y-104955272D01*
X100082748Y-104955274D01*
X100095813Y-104986816D01*
X100106695Y-105000075D01*
X100140029Y-105033408D01*
X100153282Y-105044284D01*
X100153287Y-105044289D01*
X100184829Y-105057354D01*
X100184831Y-105057354D01*
X100218972Y-105057354D01*
X100232037Y-105051941D01*
X100250513Y-105044289D01*
X100263772Y-105033407D01*
X100297105Y-105000074D01*
X100307987Y-104986815D01*
X100321052Y-104955273D01*
X100321052Y-104921131D01*
X100307987Y-104889589D01*
X100307986Y-104889588D01*
X100297105Y-104876330D01*
X100263772Y-104842997D01*
X100250513Y-104832115D01*
X100232037Y-104824462D01*
X100218972Y-104819050D01*
X100218971Y-104819050D01*
X100184829Y-104819050D01*
X100153287Y-104832115D01*
X100153282Y-104832119D01*
X100140029Y-104842996D01*
X100106695Y-104876329D01*
X100095813Y-104889588D01*
X100095812Y-104889589D01*
X100095812Y-104889590D01*
X100082747Y-104921132D01*
X99954385Y-104921132D01*
X99954385Y-104921131D01*
X99941320Y-104889589D01*
X99941319Y-104889588D01*
X99930438Y-104876330D01*
X99897105Y-104842997D01*
X99883846Y-104832115D01*
X99852304Y-104819050D01*
X99818162Y-104819050D01*
X99786620Y-104832115D01*
X99773361Y-104842997D01*
X99740028Y-104876330D01*
X99729147Y-104889588D01*
X99729146Y-104889589D01*
X99716081Y-104921131D01*
X99360233Y-104921131D01*
X99360233Y-103138294D01*
X99447733Y-103138294D01*
X99454429Y-103171773D01*
X99473426Y-103200140D01*
X99486697Y-103211007D01*
X99727490Y-103371536D01*
X99486697Y-103532066D01*
X99473426Y-103542933D01*
X99454429Y-103571300D01*
X99447733Y-103604779D01*
X99454359Y-103638271D01*
X99473296Y-103666677D01*
X99501663Y-103685674D01*
X99512860Y-103687913D01*
X99486621Y-103698782D01*
X99462479Y-103722924D01*
X99449414Y-103754466D01*
X99447733Y-103771536D01*
X99447733Y-104171536D01*
X99449414Y-104188606D01*
X99462479Y-104220148D01*
X99486621Y-104244290D01*
X99518163Y-104257355D01*
X99552303Y-104257355D01*
X99583845Y-104244290D01*
X99607987Y-104220148D01*
X99621052Y-104188606D01*
X99622733Y-104171536D01*
X99622733Y-104059036D01*
X100235233Y-104059036D01*
X100252303Y-104057355D01*
X100283845Y-104044290D01*
X100307987Y-104020148D01*
X100321052Y-103988606D01*
X100321052Y-103954466D01*
X100307987Y-103922924D01*
X100283845Y-103898782D01*
X100252303Y-103885717D01*
X100235233Y-103884036D01*
X99622733Y-103884036D01*
X99622733Y-103771536D01*
X99621052Y-103754466D01*
X99607987Y-103722924D01*
X99583845Y-103698782D01*
X99557625Y-103687921D01*
X99568634Y-103685744D01*
X99583769Y-103677674D01*
X99885233Y-103476698D01*
X100186696Y-103677674D01*
X100201832Y-103685744D01*
X100235324Y-103692370D01*
X100268802Y-103685674D01*
X100297170Y-103666677D01*
X100316107Y-103638270D01*
X100322733Y-103604779D01*
X100316037Y-103571300D01*
X100297040Y-103542933D01*
X100283769Y-103532065D01*
X100042975Y-103371536D01*
X100283769Y-103211008D01*
X100297040Y-103200140D01*
X100316037Y-103171773D01*
X100322733Y-103138294D01*
X100316107Y-103104803D01*
X100297170Y-103076396D01*
X100268802Y-103057399D01*
X100235324Y-103050703D01*
X100201832Y-103057329D01*
X100186696Y-103065399D01*
X99885233Y-103266374D01*
X99583769Y-103065399D01*
X99568634Y-103057329D01*
X99535142Y-103050703D01*
X99501663Y-103057399D01*
X99473296Y-103076396D01*
X99454359Y-103104802D01*
X99447733Y-103138294D01*
X99360233Y-103138294D01*
X99360233Y-102071536D01*
X99447733Y-102071536D01*
X99447733Y-102338203D01*
X99449414Y-102355273D01*
X99462479Y-102386815D01*
X99486621Y-102410957D01*
X99518163Y-102424022D01*
X99535233Y-102425703D01*
X100235233Y-102425703D01*
X100252303Y-102424022D01*
X100283845Y-102410957D01*
X100307987Y-102386815D01*
X100321052Y-102355273D01*
X100321052Y-102321133D01*
X100307987Y-102289591D01*
X100283845Y-102265449D01*
X100252303Y-102252384D01*
X100235233Y-102250703D01*
X99989400Y-102250703D01*
X99989400Y-102217093D01*
X100285411Y-102009886D01*
X100298431Y-101998720D01*
X100316779Y-101969928D01*
X100322713Y-101936306D01*
X100315328Y-101902973D01*
X100295750Y-101875005D01*
X100266958Y-101856657D01*
X100233336Y-101850723D01*
X100200004Y-101858108D01*
X100185055Y-101866520D01*
X99971843Y-102015767D01*
X99946828Y-101965738D01*
X99942204Y-101958393D01*
X99941320Y-101956258D01*
X99939345Y-101953852D01*
X99937690Y-101951222D01*
X99935945Y-101949709D01*
X99930439Y-101942999D01*
X99897106Y-101909665D01*
X99890393Y-101904155D01*
X99888880Y-101902411D01*
X99886250Y-101900755D01*
X99883847Y-101898783D01*
X99881712Y-101897898D01*
X99874364Y-101893273D01*
X99807697Y-101859940D01*
X99791677Y-101853810D01*
X99788540Y-101853587D01*
X99785636Y-101852384D01*
X99768566Y-101850703D01*
X99668566Y-101850703D01*
X99651496Y-101852384D01*
X99648591Y-101853587D01*
X99645455Y-101853810D01*
X99629435Y-101859941D01*
X99562769Y-101893274D01*
X99555421Y-101897898D01*
X99553287Y-101898783D01*
X99550884Y-101900754D01*
X99548253Y-101902411D01*
X99546739Y-101904156D01*
X99540028Y-101909664D01*
X99506694Y-101942998D01*
X99501184Y-101949710D01*
X99499441Y-101951223D01*
X99497787Y-101953850D01*
X99495812Y-101956257D01*
X99494926Y-101958395D01*
X99490304Y-101965739D01*
X99456971Y-102032405D01*
X99450840Y-102048424D01*
X99450617Y-102051561D01*
X99449414Y-102054466D01*
X99447733Y-102071536D01*
X99360233Y-102071536D01*
X99360233Y-101238294D01*
X99447733Y-101238294D01*
X99454429Y-101271773D01*
X99473426Y-101300140D01*
X99486697Y-101311007D01*
X99727490Y-101471536D01*
X99486697Y-101632066D01*
X99473426Y-101642933D01*
X99454429Y-101671300D01*
X99447733Y-101704779D01*
X99454359Y-101738271D01*
X99473296Y-101766677D01*
X99501663Y-101785674D01*
X99535142Y-101792370D01*
X99568634Y-101785744D01*
X99583769Y-101777674D01*
X99885233Y-101576698D01*
X100186696Y-101777674D01*
X100201832Y-101785744D01*
X100235324Y-101792370D01*
X100268802Y-101785674D01*
X100297170Y-101766677D01*
X100316107Y-101738270D01*
X100322733Y-101704779D01*
X100316037Y-101671300D01*
X100297040Y-101642933D01*
X100283769Y-101632065D01*
X100042975Y-101471536D01*
X100283769Y-101311008D01*
X100297040Y-101300140D01*
X100316037Y-101271773D01*
X100322733Y-101238294D01*
X100316107Y-101204803D01*
X100297170Y-101176396D01*
X100268802Y-101157399D01*
X100235324Y-101150703D01*
X100201832Y-101157329D01*
X100186696Y-101165399D01*
X99885233Y-101366374D01*
X99583769Y-101165399D01*
X99568634Y-101157329D01*
X99535142Y-101150703D01*
X99501663Y-101157399D01*
X99473296Y-101176396D01*
X99454359Y-101204802D01*
X99447733Y-101238294D01*
X99360233Y-101238294D01*
X99360233Y-100138203D01*
X99447733Y-100138203D01*
X99447733Y-100238203D01*
X99448583Y-100246842D01*
X99448420Y-100249147D01*
X99449109Y-100252178D01*
X99449414Y-100255273D01*
X99450298Y-100257407D01*
X99452223Y-100265873D01*
X99485556Y-100365873D01*
X99492549Y-100381535D01*
X99494607Y-100383908D01*
X99495812Y-100386816D01*
X99506694Y-100400075D01*
X99573361Y-100466742D01*
X99580071Y-100472249D01*
X99581586Y-100473995D01*
X99584218Y-100475652D01*
X99586620Y-100477623D01*
X99588752Y-100478506D01*
X99596102Y-100483133D01*
X99662770Y-100516466D01*
X99664017Y-100516943D01*
X99664526Y-100517320D01*
X99671698Y-100519882D01*
X99678789Y-100522596D01*
X99679417Y-100522640D01*
X99680678Y-100523091D01*
X99814011Y-100556423D01*
X99816969Y-100556860D01*
X99818163Y-100557355D01*
X99824590Y-100557987D01*
X99830979Y-100558933D01*
X99832256Y-100558742D01*
X99835233Y-100559036D01*
X99935233Y-100559036D01*
X99938209Y-100558742D01*
X99939487Y-100558933D01*
X99945883Y-100557987D01*
X99952303Y-100557355D01*
X99953493Y-100556861D01*
X99956455Y-100556424D01*
X100089787Y-100523091D01*
X100091047Y-100522640D01*
X100091677Y-100522596D01*
X100098779Y-100519878D01*
X100105940Y-100517320D01*
X100106447Y-100516944D01*
X100107697Y-100516466D01*
X100174364Y-100483133D01*
X100181709Y-100478509D01*
X100183846Y-100477624D01*
X100186251Y-100475649D01*
X100188880Y-100473995D01*
X100190392Y-100472251D01*
X100197105Y-100466742D01*
X100263772Y-100400075D01*
X100274653Y-100386816D01*
X100275856Y-100383911D01*
X100277917Y-100381535D01*
X100284910Y-100365873D01*
X100318243Y-100265873D01*
X100320167Y-100257407D01*
X100321052Y-100255273D01*
X100321356Y-100252178D01*
X100322046Y-100249147D01*
X100321882Y-100246842D01*
X100322733Y-100238203D01*
X100322733Y-100171536D01*
X100321882Y-100162896D01*
X100322046Y-100160592D01*
X100321356Y-100157560D01*
X100321052Y-100154466D01*
X100320167Y-100152331D01*
X100318243Y-100143866D01*
X100284910Y-100043866D01*
X100277917Y-100028204D01*
X100275857Y-100025829D01*
X100274653Y-100022922D01*
X100263771Y-100009663D01*
X100230437Y-99976330D01*
X100217178Y-99965449D01*
X100185636Y-99952384D01*
X100168566Y-99950703D01*
X99935233Y-99950703D01*
X99918163Y-99952384D01*
X99886621Y-99965449D01*
X99862479Y-99989591D01*
X99849414Y-100021133D01*
X99847733Y-100038203D01*
X99847733Y-100171536D01*
X99849414Y-100188606D01*
X99862479Y-100220148D01*
X99886621Y-100244290D01*
X99918163Y-100257355D01*
X99952303Y-100257355D01*
X99983845Y-100244290D01*
X100007987Y-100220148D01*
X100021052Y-100188606D01*
X100022733Y-100171536D01*
X100022733Y-100125703D01*
X100127722Y-100125703D01*
X100147733Y-100185735D01*
X100147733Y-100224003D01*
X100125421Y-100290937D01*
X100083401Y-100332957D01*
X100038022Y-100355646D01*
X99924459Y-100384036D01*
X99846006Y-100384036D01*
X99732439Y-100355644D01*
X99687063Y-100332956D01*
X99645044Y-100290937D01*
X99622733Y-100224003D01*
X99622733Y-100158859D01*
X99646829Y-100110666D01*
X99652959Y-100094647D01*
X99655379Y-100060592D01*
X99644582Y-100028202D01*
X99622213Y-100002411D01*
X99591677Y-99987143D01*
X99557622Y-99984723D01*
X99525232Y-99995520D01*
X99499441Y-100017889D01*
X99490303Y-100032405D01*
X99456970Y-100099072D01*
X99450840Y-100115092D01*
X99450617Y-100118228D01*
X99449414Y-100121133D01*
X99447733Y-100138203D01*
X99360233Y-100138203D01*
X99360233Y-99863203D01*
X100410233Y-99863203D01*
X100410233Y-109178188D01*
G37*
D10*
G36*
X84122723Y-119020558D02*
G01*
X84138862Y-119034680D01*
X84160827Y-119073117D01*
X84160827Y-119133281D01*
X84138863Y-119171716D01*
X84118962Y-119189131D01*
X84067758Y-119211533D01*
X83853684Y-119211533D01*
X83853684Y-118994866D01*
X84034636Y-118994866D01*
X84122723Y-119020558D01*
G37*
G36*
X84080867Y-118683934D02*
G01*
X84100768Y-118701348D01*
X84122731Y-118739783D01*
X84122731Y-118766616D01*
X84100768Y-118805051D01*
X84080869Y-118822462D01*
X84029662Y-118844866D01*
X83853684Y-118844866D01*
X83853684Y-118661533D01*
X84029662Y-118661533D01*
X84080867Y-118683934D01*
G37*
G36*
X81803187Y-119011533D02*
G01*
X81639894Y-119011533D01*
X81721540Y-118797210D01*
X81803187Y-119011533D01*
G37*
G36*
X87169558Y-119439311D02*
G01*
X81303147Y-119439311D01*
X81303147Y-119274020D01*
X81380925Y-119274020D01*
X81381766Y-119303271D01*
X81393736Y-119329974D01*
X81415014Y-119350064D01*
X81442361Y-119360482D01*
X81471612Y-119359641D01*
X81498315Y-119347671D01*
X81518405Y-119326393D01*
X81524961Y-119313233D01*
X81582751Y-119161533D01*
X81860330Y-119161533D01*
X81918120Y-119313232D01*
X81924676Y-119326393D01*
X81944766Y-119347671D01*
X81971468Y-119359641D01*
X82000720Y-119360482D01*
X82028067Y-119350064D01*
X82049345Y-119329974D01*
X82061315Y-119303271D01*
X82062156Y-119274020D01*
X82058294Y-119259833D01*
X81803778Y-118591728D01*
X82713387Y-118591728D01*
X82715838Y-118606225D01*
X82906314Y-119306225D01*
X82906820Y-119307553D01*
X82906884Y-119308212D01*
X82907538Y-119309440D01*
X82911547Y-119319965D01*
X82916688Y-119326612D01*
X82920645Y-119334037D01*
X82925559Y-119338080D01*
X82929451Y-119343112D01*
X82936747Y-119347286D01*
X82943242Y-119352631D01*
X82949329Y-119354486D01*
X82954850Y-119357645D01*
X82963190Y-119358710D01*
X82971235Y-119361162D01*
X82977566Y-119360546D01*
X82983878Y-119361353D01*
X82991990Y-119359145D01*
X83000362Y-119358332D01*
X83005979Y-119355338D01*
X83012115Y-119353669D01*
X83018761Y-119348527D01*
X83026187Y-119344571D01*
X83030232Y-119339654D01*
X83035262Y-119335764D01*
X83039435Y-119328470D01*
X83044781Y-119321974D01*
X83049107Y-119311567D01*
X83049795Y-119310365D01*
X83049878Y-119309711D01*
X83050425Y-119308397D01*
X83131064Y-119043800D01*
X83211703Y-119308397D01*
X83212247Y-119309707D01*
X83212332Y-119310366D01*
X83213025Y-119311577D01*
X83217347Y-119321973D01*
X83222688Y-119328464D01*
X83226866Y-119335765D01*
X83231899Y-119339658D01*
X83235941Y-119344570D01*
X83243358Y-119348522D01*
X83250012Y-119353669D01*
X83256152Y-119355340D01*
X83261766Y-119358331D01*
X83270132Y-119359144D01*
X83278250Y-119361353D01*
X83284563Y-119360546D01*
X83290893Y-119361162D01*
X83298933Y-119358711D01*
X83307278Y-119357646D01*
X83312801Y-119354485D01*
X83318886Y-119352631D01*
X83325378Y-119347288D01*
X83332677Y-119343112D01*
X83336570Y-119338078D01*
X83341482Y-119334037D01*
X83345434Y-119326619D01*
X83350581Y-119319966D01*
X83354593Y-119309430D01*
X83355243Y-119308211D01*
X83355306Y-119307557D01*
X83355814Y-119306225D01*
X83546291Y-118606225D01*
X83548742Y-118591728D01*
X83548079Y-118586533D01*
X83703684Y-118586533D01*
X83703684Y-119286533D01*
X83705125Y-119301165D01*
X83716324Y-119328201D01*
X83737016Y-119348893D01*
X83764052Y-119360092D01*
X83778684Y-119361533D01*
X84083446Y-119361533D01*
X84098078Y-119360092D01*
X84098773Y-119359803D01*
X84099525Y-119359789D01*
X84113507Y-119355245D01*
X84189698Y-119321912D01*
X84195225Y-119318815D01*
X84197064Y-119318194D01*
X84199700Y-119316309D01*
X84202525Y-119314727D01*
X84203868Y-119313329D01*
X84209025Y-119309643D01*
X84240749Y-119281884D01*
X85037161Y-119281884D01*
X85038458Y-119291481D01*
X85038458Y-119301165D01*
X85040400Y-119305854D01*
X85041080Y-119310883D01*
X85045951Y-119319254D01*
X85049657Y-119328201D01*
X85053244Y-119331788D01*
X85055798Y-119336177D01*
X85063504Y-119342048D01*
X85070349Y-119348893D01*
X85075037Y-119350835D01*
X85079076Y-119353912D01*
X85088439Y-119356386D01*
X85097385Y-119360092D01*
X85105475Y-119360888D01*
X85107368Y-119361389D01*
X85108711Y-119361207D01*
X85112017Y-119361533D01*
X85645351Y-119361533D01*
X85659983Y-119360092D01*
X85687019Y-119348893D01*
X85707711Y-119328201D01*
X85718910Y-119301165D01*
X85718910Y-119271901D01*
X85707711Y-119244865D01*
X85687019Y-119224173D01*
X85659983Y-119212974D01*
X85645351Y-119211533D01*
X85263448Y-119211533D01*
X85511068Y-118886533D01*
X86446541Y-118886533D01*
X86446541Y-118986533D01*
X86446982Y-118991020D01*
X86446793Y-118992673D01*
X86447561Y-118996891D01*
X86447982Y-119001165D01*
X86448619Y-119002704D01*
X86449427Y-119007138D01*
X86487523Y-119140471D01*
X86488380Y-119142641D01*
X86488510Y-119143657D01*
X86490834Y-119148847D01*
X86492928Y-119154144D01*
X86493565Y-119154947D01*
X86494519Y-119157076D01*
X86532614Y-119223743D01*
X86537418Y-119230512D01*
X86538281Y-119232256D01*
X86539819Y-119233894D01*
X86541124Y-119235733D01*
X86542665Y-119236926D01*
X86548344Y-119242976D01*
X86624534Y-119309643D01*
X86636494Y-119318194D01*
X86638021Y-119318710D01*
X86639279Y-119319720D01*
X86652922Y-119325200D01*
X86767208Y-119358533D01*
X86771972Y-119359427D01*
X86773576Y-119360092D01*
X86777640Y-119360492D01*
X86781659Y-119361247D01*
X86783386Y-119361058D01*
X86788208Y-119361533D01*
X86864399Y-119361533D01*
X86869221Y-119361058D01*
X86870949Y-119361247D01*
X86874968Y-119360492D01*
X86879031Y-119360092D01*
X86880634Y-119359427D01*
X86885399Y-119358533D01*
X86999684Y-119325200D01*
X87013327Y-119319720D01*
X87014584Y-119318710D01*
X87016111Y-119318194D01*
X87028072Y-119309643D01*
X87066168Y-119276309D01*
X87076231Y-119265589D01*
X87077352Y-119263321D01*
X87079140Y-119261534D01*
X87083801Y-119250280D01*
X87089203Y-119239358D01*
X87089371Y-119236834D01*
X87090339Y-119234498D01*
X87091780Y-119219866D01*
X87091780Y-118986533D01*
X87090339Y-118971901D01*
X87079140Y-118944865D01*
X87058448Y-118924173D01*
X87031412Y-118912974D01*
X87016780Y-118911533D01*
X86864399Y-118911533D01*
X86849767Y-118912974D01*
X86822731Y-118924173D01*
X86802039Y-118944865D01*
X86790840Y-118971901D01*
X86790840Y-119001165D01*
X86802039Y-119028201D01*
X86822731Y-119048893D01*
X86849767Y-119060092D01*
X86864399Y-119061533D01*
X86941780Y-119061533D01*
X86941780Y-119185833D01*
X86941771Y-119185841D01*
X86853685Y-119211533D01*
X86798922Y-119211533D01*
X86710834Y-119185841D01*
X86656601Y-119138386D01*
X86629257Y-119090535D01*
X86596541Y-118976028D01*
X86596541Y-118897037D01*
X86629257Y-118782530D01*
X86656601Y-118734679D01*
X86710834Y-118687224D01*
X86798922Y-118661533D01*
X86886806Y-118661533D01*
X86948623Y-118688578D01*
X86962606Y-118693123D01*
X86991864Y-118693699D01*
X87019115Y-118683036D01*
X87040211Y-118662755D01*
X87051941Y-118635945D01*
X87052517Y-118606687D01*
X87041854Y-118579436D01*
X87021573Y-118558339D01*
X87008746Y-118551154D01*
X86932555Y-118517821D01*
X86918573Y-118513277D01*
X86917821Y-118513262D01*
X86917126Y-118512974D01*
X86902494Y-118511533D01*
X86788208Y-118511533D01*
X86783386Y-118512007D01*
X86781659Y-118511819D01*
X86777640Y-118512573D01*
X86773576Y-118512974D01*
X86771972Y-118513638D01*
X86767208Y-118514533D01*
X86652922Y-118547866D01*
X86639279Y-118553346D01*
X86638021Y-118554355D01*
X86636494Y-118554872D01*
X86624534Y-118563423D01*
X86548344Y-118630090D01*
X86542665Y-118636139D01*
X86541124Y-118637333D01*
X86539819Y-118639171D01*
X86538281Y-118640810D01*
X86537418Y-118642553D01*
X86532614Y-118649323D01*
X86494519Y-118715990D01*
X86493565Y-118718118D01*
X86492928Y-118718922D01*
X86490834Y-118724218D01*
X86488510Y-118729409D01*
X86488380Y-118730424D01*
X86487523Y-118732595D01*
X86449427Y-118865928D01*
X86448619Y-118870361D01*
X86447982Y-118871901D01*
X86447561Y-118876174D01*
X86446793Y-118880393D01*
X86446982Y-118882045D01*
X86446541Y-118886533D01*
X85511068Y-118886533D01*
X85705009Y-118631986D01*
X85706754Y-118629157D01*
X85707711Y-118628201D01*
X85708458Y-118626395D01*
X85712730Y-118619474D01*
X85715204Y-118610110D01*
X85718910Y-118601165D01*
X85718910Y-118596089D01*
X85720207Y-118591182D01*
X85718910Y-118581584D01*
X85718910Y-118571901D01*
X85716967Y-118567212D01*
X85716288Y-118562182D01*
X85711416Y-118553809D01*
X85707711Y-118544865D01*
X85704123Y-118541277D01*
X85701570Y-118536889D01*
X85693863Y-118531017D01*
X85687019Y-118524173D01*
X85682330Y-118522230D01*
X85678292Y-118519154D01*
X85668928Y-118516679D01*
X85659983Y-118512974D01*
X85651892Y-118512177D01*
X85650000Y-118511677D01*
X85648656Y-118511858D01*
X85645351Y-118511533D01*
X85112017Y-118511533D01*
X85097385Y-118512974D01*
X85070349Y-118524173D01*
X85049657Y-118544865D01*
X85038458Y-118571901D01*
X85038458Y-118601165D01*
X85049657Y-118628201D01*
X85070349Y-118648893D01*
X85097385Y-118660092D01*
X85112017Y-118661533D01*
X85493920Y-118661533D01*
X85052360Y-119241080D01*
X85050615Y-119243906D01*
X85049657Y-119244865D01*
X85048907Y-119246673D01*
X85044638Y-119253592D01*
X85042163Y-119262955D01*
X85038458Y-119271901D01*
X85038458Y-119276976D01*
X85037161Y-119281884D01*
X84240749Y-119281884D01*
X84247120Y-119276309D01*
X84252801Y-119270255D01*
X84254338Y-119269066D01*
X84255640Y-119267231D01*
X84257182Y-119265589D01*
X84258044Y-119263844D01*
X84262849Y-119257077D01*
X84300945Y-119190411D01*
X84306953Y-119176992D01*
X84307555Y-119172250D01*
X84309386Y-119167832D01*
X84310827Y-119153200D01*
X84310827Y-119053200D01*
X84309386Y-119038568D01*
X84307555Y-119034149D01*
X84306953Y-119029408D01*
X84300945Y-119015989D01*
X84262849Y-118949322D01*
X84258042Y-118942551D01*
X84257181Y-118940809D01*
X84255640Y-118939168D01*
X84254338Y-118937333D01*
X84252800Y-118936142D01*
X84247118Y-118930089D01*
X84215834Y-118902716D01*
X84216244Y-118902399D01*
X84217546Y-118900563D01*
X84219086Y-118898924D01*
X84219948Y-118897180D01*
X84224754Y-118890410D01*
X84262850Y-118823743D01*
X84268858Y-118810324D01*
X84269460Y-118805580D01*
X84271290Y-118801165D01*
X84272731Y-118786533D01*
X84272731Y-118719866D01*
X84271290Y-118705234D01*
X84269460Y-118700818D01*
X84268858Y-118696075D01*
X84262849Y-118682656D01*
X84224754Y-118615989D01*
X84219948Y-118609218D01*
X84219087Y-118607477D01*
X84217548Y-118605838D01*
X84216244Y-118604000D01*
X84214704Y-118602807D01*
X84209025Y-118596757D01*
X84170930Y-118563423D01*
X84165770Y-118559734D01*
X84164429Y-118558339D01*
X84161609Y-118556759D01*
X84158969Y-118554872D01*
X84157128Y-118554249D01*
X84151602Y-118551154D01*
X84075411Y-118517821D01*
X84061428Y-118513277D01*
X84060677Y-118513262D01*
X84059982Y-118512974D01*
X84045350Y-118511533D01*
X83778684Y-118511533D01*
X83764052Y-118512974D01*
X83737016Y-118524173D01*
X83716324Y-118544865D01*
X83705125Y-118571901D01*
X83703684Y-118586533D01*
X83548079Y-118586533D01*
X83545035Y-118562700D01*
X83530502Y-118537301D01*
X83507355Y-118519396D01*
X83479117Y-118511713D01*
X83450089Y-118515420D01*
X83424690Y-118529953D01*
X83406786Y-118553100D01*
X83401553Y-118566840D01*
X83279365Y-119015878D01*
X83202806Y-118764669D01*
X83197162Y-118751092D01*
X83192527Y-118745459D01*
X83189101Y-118739029D01*
X83183324Y-118734275D01*
X83178568Y-118728495D01*
X83172132Y-118725065D01*
X83166505Y-118720435D01*
X83159349Y-118718254D01*
X83152743Y-118714734D01*
X83145483Y-118714028D01*
X83138512Y-118711904D01*
X83131065Y-118712627D01*
X83123616Y-118711904D01*
X83116640Y-118714029D01*
X83109385Y-118714735D01*
X83102782Y-118718253D01*
X83095623Y-118720435D01*
X83089991Y-118725069D01*
X83083560Y-118728496D01*
X83078807Y-118734271D01*
X83073026Y-118739029D01*
X83069595Y-118745466D01*
X83064966Y-118751093D01*
X83059322Y-118764669D01*
X83059266Y-118764851D01*
X83059265Y-118764854D01*
X83059265Y-118764855D01*
X82982762Y-119015878D01*
X82860576Y-118566841D01*
X82855343Y-118553101D01*
X82837439Y-118529954D01*
X82812040Y-118515420D01*
X82783012Y-118511713D01*
X82754775Y-118519397D01*
X82731628Y-118537301D01*
X82717094Y-118562700D01*
X82713387Y-118591728D01*
X81803778Y-118591728D01*
X81791628Y-118559833D01*
X81785072Y-118546673D01*
X81783572Y-118545084D01*
X81782679Y-118543092D01*
X81773576Y-118534497D01*
X81764982Y-118525395D01*
X81762989Y-118524501D01*
X81761401Y-118523002D01*
X81749697Y-118518543D01*
X81738279Y-118513425D01*
X81736096Y-118513362D01*
X81734054Y-118512584D01*
X81721533Y-118512943D01*
X81709028Y-118512584D01*
X81706987Y-118513361D01*
X81704803Y-118513424D01*
X81693376Y-118518546D01*
X81681681Y-118523002D01*
X81680092Y-118524501D01*
X81678100Y-118525395D01*
X81669505Y-118534497D01*
X81660403Y-118543092D01*
X81659509Y-118545084D01*
X81658010Y-118546673D01*
X81651455Y-118559833D01*
X81384787Y-119259833D01*
X81380925Y-119274020D01*
X81303147Y-119274020D01*
X81303147Y-118433755D01*
X87169558Y-118433755D01*
X87169558Y-119439311D01*
G37*
G36*
X72761399Y-123439077D02*
G01*
X72791806Y-123469484D01*
X72826064Y-123538000D01*
X72826064Y-123645447D01*
X72791806Y-123713963D01*
X72761399Y-123744370D01*
X72692883Y-123778628D01*
X72404636Y-123778628D01*
X72404636Y-123404819D01*
X72692883Y-123404819D01*
X72761399Y-123439077D01*
G37*
G36*
X70618542Y-123439077D02*
G01*
X70648949Y-123469484D01*
X70683207Y-123538000D01*
X70683207Y-123645447D01*
X70648949Y-123713963D01*
X70618542Y-123744370D01*
X70550026Y-123778628D01*
X70261779Y-123778628D01*
X70261779Y-123404819D01*
X70550026Y-123404819D01*
X70618542Y-123439077D01*
G37*
G36*
X70622455Y-122309236D02*
G01*
X70648949Y-122335730D01*
X70683207Y-122404246D01*
X70683207Y-122511693D01*
X70648948Y-122580209D01*
X70618541Y-122610617D01*
X70550026Y-122644875D01*
X70261779Y-122644875D01*
X70261779Y-122271065D01*
X70507942Y-122271065D01*
X70622455Y-122309236D01*
G37*
G36*
X70570923Y-121829133D02*
G01*
X70601330Y-121859540D01*
X70635588Y-121928056D01*
X70635588Y-121987884D01*
X70601330Y-122056400D01*
X70570923Y-122086807D01*
X70502407Y-122121065D01*
X70261779Y-122121065D01*
X70261779Y-121794875D01*
X70502407Y-121794875D01*
X70570923Y-121829133D01*
G37*
G36*
X73087175Y-124515913D02*
G01*
X70000668Y-124515913D01*
X70000668Y-123329819D01*
X70111779Y-123329819D01*
X70111779Y-124329819D01*
X70113220Y-124344451D01*
X70124419Y-124371487D01*
X70145111Y-124392179D01*
X70172147Y-124403378D01*
X70201411Y-124403378D01*
X70228447Y-124392179D01*
X70249139Y-124371487D01*
X70260338Y-124344451D01*
X70261779Y-124329819D01*
X70261779Y-123928628D01*
X70567731Y-123928628D01*
X70582363Y-123927187D01*
X70584852Y-123926155D01*
X70587540Y-123925965D01*
X70601272Y-123920710D01*
X70696510Y-123873091D01*
X70702809Y-123869126D01*
X70704637Y-123868369D01*
X70706693Y-123866680D01*
X70708953Y-123865259D01*
X70710252Y-123863760D01*
X70716002Y-123859042D01*
X70763621Y-123811423D01*
X70768339Y-123805673D01*
X70769838Y-123804374D01*
X70771259Y-123802114D01*
X70772948Y-123800058D01*
X70773705Y-123798230D01*
X70777670Y-123791931D01*
X70825289Y-123696693D01*
X70830544Y-123682962D01*
X70830735Y-123680272D01*
X70831766Y-123677784D01*
X70833207Y-123663152D01*
X70833207Y-123520295D01*
X70831766Y-123505663D01*
X70830735Y-123503174D01*
X70830544Y-123500485D01*
X70825289Y-123486754D01*
X70777670Y-123391516D01*
X70773705Y-123385216D01*
X70772948Y-123383389D01*
X70771259Y-123381332D01*
X70769838Y-123379073D01*
X70768339Y-123377773D01*
X70763621Y-123372024D01*
X70724220Y-123332623D01*
X71016593Y-123332623D01*
X71018581Y-123347191D01*
X71256676Y-124347191D01*
X71258405Y-124352210D01*
X71258645Y-124354012D01*
X71259587Y-124355640D01*
X71261466Y-124361091D01*
X71267852Y-124369915D01*
X71273307Y-124379337D01*
X71276364Y-124381677D01*
X71278623Y-124384798D01*
X71287898Y-124390505D01*
X71296545Y-124397124D01*
X71300265Y-124398116D01*
X71303545Y-124400134D01*
X71314299Y-124401858D01*
X71324821Y-124404664D01*
X71328636Y-124404157D01*
X71332440Y-124404767D01*
X71343038Y-124402243D01*
X71353829Y-124400810D01*
X71357160Y-124398881D01*
X71360908Y-124397989D01*
X71369732Y-124391602D01*
X71379154Y-124386148D01*
X71381494Y-124383090D01*
X71384615Y-124380832D01*
X71390322Y-124371556D01*
X71396941Y-124362910D01*
X71398966Y-124357510D01*
X71399951Y-124355910D01*
X71400238Y-124354118D01*
X71402104Y-124349144D01*
X71520111Y-123906613D01*
X71638120Y-124349144D01*
X71639985Y-124354119D01*
X71640273Y-124355910D01*
X71641257Y-124357509D01*
X71643283Y-124362911D01*
X71649903Y-124371559D01*
X71655609Y-124380832D01*
X71658729Y-124383090D01*
X71661070Y-124386148D01*
X71670491Y-124391602D01*
X71679316Y-124397989D01*
X71683063Y-124398881D01*
X71686395Y-124400810D01*
X71697188Y-124402244D01*
X71707784Y-124404767D01*
X71711585Y-124404157D01*
X71715404Y-124404665D01*
X71725935Y-124401856D01*
X71736679Y-124400134D01*
X71739955Y-124398118D01*
X71743679Y-124397125D01*
X71752329Y-124390503D01*
X71761601Y-124384798D01*
X71763859Y-124381677D01*
X71766917Y-124379337D01*
X71772372Y-124369914D01*
X71778758Y-124361091D01*
X71780635Y-124355642D01*
X71781579Y-124354013D01*
X71781818Y-124352209D01*
X71783548Y-124347191D01*
X72021644Y-123347191D01*
X72023632Y-123332623D01*
X72023182Y-123329819D01*
X72254636Y-123329819D01*
X72254636Y-124329819D01*
X72256077Y-124344451D01*
X72267276Y-124371487D01*
X72287968Y-124392179D01*
X72315004Y-124403378D01*
X72344268Y-124403378D01*
X72371304Y-124392179D01*
X72391996Y-124371487D01*
X72403195Y-124344451D01*
X72404636Y-124329819D01*
X72404636Y-123928628D01*
X72528682Y-123928628D01*
X72839622Y-124372829D01*
X72849193Y-124383989D01*
X72873872Y-124399716D01*
X72902689Y-124404802D01*
X72931260Y-124398472D01*
X72955234Y-124381690D01*
X72970961Y-124357012D01*
X72976046Y-124328194D01*
X72969717Y-124299623D01*
X72962507Y-124286810D01*
X72711703Y-123928518D01*
X72725220Y-123927187D01*
X72727709Y-123926155D01*
X72730397Y-123925965D01*
X72744129Y-123920710D01*
X72839367Y-123873091D01*
X72845666Y-123869126D01*
X72847494Y-123868369D01*
X72849550Y-123866680D01*
X72851810Y-123865259D01*
X72853109Y-123863760D01*
X72858859Y-123859042D01*
X72906478Y-123811423D01*
X72911196Y-123805673D01*
X72912695Y-123804374D01*
X72914116Y-123802114D01*
X72915805Y-123800058D01*
X72916562Y-123798230D01*
X72920527Y-123791931D01*
X72968146Y-123696693D01*
X72973401Y-123682962D01*
X72973592Y-123680272D01*
X72974623Y-123677784D01*
X72976064Y-123663152D01*
X72976064Y-123520295D01*
X72974623Y-123505663D01*
X72973592Y-123503174D01*
X72973401Y-123500485D01*
X72968146Y-123486754D01*
X72920527Y-123391516D01*
X72916562Y-123385216D01*
X72915805Y-123383389D01*
X72914116Y-123381332D01*
X72912695Y-123379073D01*
X72911196Y-123377773D01*
X72906478Y-123372024D01*
X72858859Y-123324405D01*
X72853109Y-123319686D01*
X72851810Y-123318188D01*
X72849550Y-123316766D01*
X72847494Y-123315078D01*
X72845666Y-123314320D01*
X72839367Y-123310356D01*
X72744129Y-123262737D01*
X72730397Y-123257482D01*
X72727709Y-123257291D01*
X72725220Y-123256260D01*
X72710588Y-123254819D01*
X72329636Y-123254819D01*
X72315004Y-123256260D01*
X72287968Y-123267459D01*
X72267276Y-123288151D01*
X72256077Y-123315187D01*
X72254636Y-123329819D01*
X72023182Y-123329819D01*
X72018999Y-123303728D01*
X72003663Y-123278806D01*
X71979956Y-123261650D01*
X71951488Y-123254871D01*
X71922593Y-123259504D01*
X71897671Y-123274840D01*
X71880514Y-123298547D01*
X71875724Y-123312448D01*
X71706471Y-124023303D01*
X71592580Y-123596208D01*
X71591294Y-123592780D01*
X71591103Y-123591339D01*
X71590111Y-123589626D01*
X71587417Y-123582442D01*
X71581402Y-123574583D01*
X71576441Y-123566015D01*
X71572582Y-123563061D01*
X71569630Y-123559204D01*
X71561065Y-123554245D01*
X71553203Y-123548227D01*
X71548506Y-123546974D01*
X71544305Y-123544542D01*
X71534498Y-123543239D01*
X71524928Y-123540687D01*
X71520109Y-123541327D01*
X71515297Y-123540688D01*
X71505736Y-123543237D01*
X71495919Y-123544542D01*
X71491713Y-123546976D01*
X71487021Y-123548228D01*
X71479161Y-123554243D01*
X71470594Y-123559204D01*
X71467640Y-123563062D01*
X71463783Y-123566015D01*
X71458824Y-123574580D01*
X71452807Y-123582441D01*
X71450110Y-123589630D01*
X71449121Y-123591340D01*
X71448929Y-123592779D01*
X71447644Y-123596208D01*
X71333752Y-124023303D01*
X71164501Y-123312447D01*
X71159711Y-123298547D01*
X71142554Y-123274840D01*
X71117632Y-123259504D01*
X71088737Y-123254871D01*
X71060269Y-123261649D01*
X71036562Y-123278806D01*
X71021226Y-123303728D01*
X71016593Y-123332623D01*
X70724220Y-123332623D01*
X70716002Y-123324405D01*
X70710252Y-123319686D01*
X70708953Y-123318188D01*
X70706693Y-123316766D01*
X70704637Y-123315078D01*
X70702809Y-123314320D01*
X70696510Y-123310356D01*
X70601272Y-123262737D01*
X70587540Y-123257482D01*
X70584852Y-123257291D01*
X70582363Y-123256260D01*
X70567731Y-123254819D01*
X70186779Y-123254819D01*
X70172147Y-123256260D01*
X70145111Y-123267459D01*
X70124419Y-123288151D01*
X70113220Y-123315187D01*
X70111779Y-123329819D01*
X70000668Y-123329819D01*
X70000668Y-121719875D01*
X70111779Y-121719875D01*
X70111779Y-122719875D01*
X70113220Y-122734507D01*
X70124419Y-122761543D01*
X70145111Y-122782235D01*
X70172147Y-122793434D01*
X70186779Y-122794875D01*
X70567731Y-122794875D01*
X70582363Y-122793434D01*
X70584852Y-122792402D01*
X70587540Y-122792212D01*
X70601272Y-122786957D01*
X70696510Y-122739338D01*
X70702809Y-122735373D01*
X70704637Y-122734616D01*
X70706693Y-122732928D01*
X70708953Y-122731506D01*
X70710253Y-122730006D01*
X70716003Y-122725288D01*
X70763621Y-122677669D01*
X70768339Y-122671919D01*
X70769838Y-122670620D01*
X70771259Y-122668361D01*
X70772949Y-122666303D01*
X70773706Y-122664473D01*
X70777670Y-122658177D01*
X70825289Y-122562939D01*
X70830544Y-122549208D01*
X70830735Y-122546518D01*
X70831766Y-122544030D01*
X70833207Y-122529398D01*
X70833207Y-122386541D01*
X70831766Y-122371909D01*
X70830735Y-122369420D01*
X70830544Y-122366731D01*
X70825289Y-122353000D01*
X70777670Y-122257762D01*
X70773705Y-122251462D01*
X70772948Y-122249635D01*
X70771259Y-122247578D01*
X70769838Y-122245319D01*
X70768339Y-122244019D01*
X70763621Y-122238270D01*
X70716002Y-122190651D01*
X70704637Y-122181324D01*
X70702146Y-122180292D01*
X70700111Y-122178527D01*
X70694043Y-122175818D01*
X70716002Y-122153860D01*
X70720720Y-122148110D01*
X70722219Y-122146811D01*
X70723640Y-122144551D01*
X70725329Y-122142495D01*
X70726086Y-122140667D01*
X70730051Y-122134368D01*
X70777670Y-122039130D01*
X70782925Y-122025399D01*
X70783116Y-122022709D01*
X70784147Y-122020221D01*
X70785588Y-122005589D01*
X70785588Y-121910351D01*
X70784147Y-121895719D01*
X70783116Y-121893230D01*
X70782925Y-121890541D01*
X70777670Y-121876810D01*
X70730051Y-121781572D01*
X70726086Y-121775272D01*
X70725329Y-121773445D01*
X70723640Y-121771388D01*
X70722219Y-121769129D01*
X70720720Y-121767829D01*
X70716002Y-121762080D01*
X70668383Y-121714461D01*
X70662633Y-121709742D01*
X70661334Y-121708244D01*
X70659074Y-121706822D01*
X70657151Y-121705243D01*
X70970363Y-121705243D01*
X70970363Y-121734507D01*
X70981562Y-121761543D01*
X71002254Y-121782235D01*
X71029290Y-121793434D01*
X71043922Y-121794875D01*
X71254636Y-121794875D01*
X71254636Y-122719875D01*
X71256077Y-122734507D01*
X71267276Y-122761543D01*
X71287968Y-122782235D01*
X71315004Y-122793434D01*
X71344268Y-122793434D01*
X71371304Y-122782235D01*
X71391996Y-122761543D01*
X71403195Y-122734507D01*
X71404636Y-122719875D01*
X71404636Y-121794875D01*
X71615350Y-121794875D01*
X71629982Y-121793434D01*
X71657018Y-121782235D01*
X71677710Y-121761543D01*
X71688909Y-121734507D01*
X71688909Y-121719875D01*
X71873684Y-121719875D01*
X71873684Y-122719875D01*
X71875125Y-122734507D01*
X71886324Y-122761543D01*
X71907016Y-122782235D01*
X71934052Y-122793434D01*
X71963316Y-122793434D01*
X71990352Y-122782235D01*
X72011044Y-122761543D01*
X72022243Y-122734507D01*
X72023684Y-122719875D01*
X72023684Y-122002291D01*
X72454994Y-122757086D01*
X72457183Y-122760170D01*
X72457752Y-122761543D01*
X72459149Y-122762940D01*
X72463504Y-122769075D01*
X72471392Y-122775183D01*
X72478444Y-122782235D01*
X72482862Y-122784065D01*
X72486642Y-122786992D01*
X72496263Y-122789616D01*
X72505480Y-122793434D01*
X72510261Y-122793434D01*
X72514873Y-122794692D01*
X72524770Y-122793434D01*
X72534744Y-122793434D01*
X72539159Y-122791604D01*
X72543903Y-122791002D01*
X72552567Y-122786051D01*
X72561780Y-122782235D01*
X72565158Y-122778856D01*
X72569312Y-122776483D01*
X72575421Y-122768593D01*
X72582472Y-122761543D01*
X72584301Y-122757126D01*
X72587229Y-122753346D01*
X72589853Y-122743722D01*
X72593671Y-122734507D01*
X72594407Y-122727024D01*
X72594929Y-122725114D01*
X72594741Y-122723638D01*
X72595112Y-122719875D01*
X72595112Y-121719875D01*
X72593671Y-121705243D01*
X72582472Y-121678207D01*
X72561780Y-121657515D01*
X72534744Y-121646316D01*
X72505480Y-121646316D01*
X72478444Y-121657515D01*
X72457752Y-121678207D01*
X72446553Y-121705243D01*
X72445112Y-121719875D01*
X72445112Y-122437458D01*
X72013802Y-121682665D01*
X72011613Y-121679581D01*
X72011044Y-121678207D01*
X72009644Y-121676807D01*
X72005292Y-121670675D01*
X71997402Y-121664565D01*
X71990352Y-121657515D01*
X71985935Y-121655685D01*
X71982155Y-121652758D01*
X71972531Y-121650133D01*
X71963316Y-121646316D01*
X71958535Y-121646316D01*
X71953923Y-121645058D01*
X71944026Y-121646316D01*
X71934052Y-121646316D01*
X71929636Y-121648145D01*
X71924893Y-121648748D01*
X71916228Y-121653698D01*
X71907016Y-121657515D01*
X71903637Y-121660893D01*
X71899484Y-121663267D01*
X71893374Y-121671156D01*
X71886324Y-121678207D01*
X71884494Y-121682623D01*
X71881567Y-121686404D01*
X71878942Y-121696027D01*
X71875125Y-121705243D01*
X71874388Y-121712725D01*
X71873867Y-121714636D01*
X71874054Y-121716111D01*
X71873684Y-121719875D01*
X71688909Y-121719875D01*
X71688909Y-121705243D01*
X71677710Y-121678207D01*
X71657018Y-121657515D01*
X71629982Y-121646316D01*
X71615350Y-121644875D01*
X71043922Y-121644875D01*
X71029290Y-121646316D01*
X71002254Y-121657515D01*
X70981562Y-121678207D01*
X70970363Y-121705243D01*
X70657151Y-121705243D01*
X70657018Y-121705134D01*
X70655190Y-121704376D01*
X70648891Y-121700412D01*
X70553653Y-121652793D01*
X70539921Y-121647538D01*
X70537233Y-121647347D01*
X70534744Y-121646316D01*
X70520112Y-121644875D01*
X70186779Y-121644875D01*
X70172147Y-121646316D01*
X70145111Y-121657515D01*
X70124419Y-121678207D01*
X70113220Y-121705243D01*
X70111779Y-121719875D01*
X70000668Y-121719875D01*
X70000668Y-121533764D01*
X73087175Y-121533764D01*
X73087175Y-124515913D01*
G37*
G36*
X71491399Y-61209077D02*
G01*
X71521806Y-61239484D01*
X71556064Y-61308000D01*
X71556064Y-61415447D01*
X71521806Y-61483963D01*
X71491399Y-61514370D01*
X71422883Y-61548628D01*
X71134636Y-61548628D01*
X71134636Y-61174819D01*
X71422883Y-61174819D01*
X71491399Y-61209077D01*
G37*
G36*
X69348542Y-61209077D02*
G01*
X69378949Y-61239484D01*
X69413207Y-61308000D01*
X69413207Y-61415447D01*
X69378949Y-61483963D01*
X69348542Y-61514370D01*
X69280026Y-61548628D01*
X68991779Y-61548628D01*
X68991779Y-61174819D01*
X69280026Y-61174819D01*
X69348542Y-61209077D01*
G37*
G36*
X71817175Y-62285913D02*
G01*
X68730668Y-62285913D01*
X68730668Y-61099819D01*
X68841779Y-61099819D01*
X68841779Y-62099819D01*
X68843220Y-62114451D01*
X68854419Y-62141487D01*
X68875111Y-62162179D01*
X68902147Y-62173378D01*
X68931411Y-62173378D01*
X68958447Y-62162179D01*
X68979139Y-62141487D01*
X68990338Y-62114451D01*
X68991779Y-62099819D01*
X68991779Y-61698628D01*
X69297731Y-61698628D01*
X69312363Y-61697187D01*
X69314852Y-61696155D01*
X69317540Y-61695965D01*
X69331272Y-61690710D01*
X69426510Y-61643091D01*
X69432809Y-61639126D01*
X69434637Y-61638369D01*
X69436693Y-61636680D01*
X69438953Y-61635259D01*
X69440252Y-61633760D01*
X69446002Y-61629042D01*
X69493621Y-61581423D01*
X69498339Y-61575673D01*
X69499838Y-61574374D01*
X69501259Y-61572114D01*
X69502948Y-61570058D01*
X69503705Y-61568230D01*
X69507670Y-61561931D01*
X69555289Y-61466693D01*
X69560544Y-61452962D01*
X69560735Y-61450272D01*
X69561766Y-61447784D01*
X69563207Y-61433152D01*
X69563207Y-61290295D01*
X69561766Y-61275663D01*
X69560735Y-61273174D01*
X69560544Y-61270485D01*
X69555289Y-61256754D01*
X69507670Y-61161516D01*
X69503705Y-61155216D01*
X69502948Y-61153389D01*
X69501259Y-61151332D01*
X69499838Y-61149073D01*
X69498339Y-61147773D01*
X69493621Y-61142024D01*
X69454220Y-61102623D01*
X69746593Y-61102623D01*
X69748581Y-61117191D01*
X69986676Y-62117191D01*
X69988405Y-62122210D01*
X69988645Y-62124012D01*
X69989587Y-62125640D01*
X69991466Y-62131091D01*
X69997852Y-62139915D01*
X70003307Y-62149337D01*
X70006364Y-62151677D01*
X70008623Y-62154798D01*
X70017898Y-62160505D01*
X70026545Y-62167124D01*
X70030265Y-62168116D01*
X70033545Y-62170134D01*
X70044299Y-62171858D01*
X70054821Y-62174664D01*
X70058636Y-62174157D01*
X70062440Y-62174767D01*
X70073038Y-62172243D01*
X70083829Y-62170810D01*
X70087160Y-62168881D01*
X70090908Y-62167989D01*
X70099732Y-62161602D01*
X70109154Y-62156148D01*
X70111494Y-62153090D01*
X70114615Y-62150832D01*
X70120322Y-62141556D01*
X70126941Y-62132910D01*
X70128966Y-62127510D01*
X70129951Y-62125910D01*
X70130238Y-62124118D01*
X70132104Y-62119144D01*
X70250111Y-61676613D01*
X70368120Y-62119144D01*
X70369985Y-62124119D01*
X70370273Y-62125910D01*
X70371257Y-62127509D01*
X70373283Y-62132911D01*
X70379903Y-62141559D01*
X70385609Y-62150832D01*
X70388729Y-62153090D01*
X70391070Y-62156148D01*
X70400491Y-62161602D01*
X70409316Y-62167989D01*
X70413063Y-62168881D01*
X70416395Y-62170810D01*
X70427188Y-62172244D01*
X70437784Y-62174767D01*
X70441585Y-62174157D01*
X70445404Y-62174665D01*
X70455935Y-62171856D01*
X70466679Y-62170134D01*
X70469955Y-62168118D01*
X70473679Y-62167125D01*
X70482329Y-62160503D01*
X70491601Y-62154798D01*
X70493859Y-62151677D01*
X70496917Y-62149337D01*
X70502372Y-62139914D01*
X70508758Y-62131091D01*
X70510635Y-62125642D01*
X70511579Y-62124013D01*
X70511818Y-62122209D01*
X70513548Y-62117191D01*
X70751644Y-61117191D01*
X70753632Y-61102623D01*
X70753182Y-61099819D01*
X70984636Y-61099819D01*
X70984636Y-62099819D01*
X70986077Y-62114451D01*
X70997276Y-62141487D01*
X71017968Y-62162179D01*
X71045004Y-62173378D01*
X71074268Y-62173378D01*
X71101304Y-62162179D01*
X71121996Y-62141487D01*
X71133195Y-62114451D01*
X71134636Y-62099819D01*
X71134636Y-61698628D01*
X71258682Y-61698628D01*
X71569622Y-62142829D01*
X71579193Y-62153989D01*
X71603872Y-62169716D01*
X71632689Y-62174802D01*
X71661260Y-62168472D01*
X71685234Y-62151690D01*
X71700961Y-62127012D01*
X71706046Y-62098194D01*
X71699717Y-62069623D01*
X71692507Y-62056810D01*
X71441703Y-61698518D01*
X71455220Y-61697187D01*
X71457709Y-61696155D01*
X71460397Y-61695965D01*
X71474129Y-61690710D01*
X71569367Y-61643091D01*
X71575666Y-61639126D01*
X71577494Y-61638369D01*
X71579550Y-61636680D01*
X71581810Y-61635259D01*
X71583109Y-61633760D01*
X71588859Y-61629042D01*
X71636478Y-61581423D01*
X71641196Y-61575673D01*
X71642695Y-61574374D01*
X71644116Y-61572114D01*
X71645805Y-61570058D01*
X71646562Y-61568230D01*
X71650527Y-61561931D01*
X71698146Y-61466693D01*
X71703401Y-61452962D01*
X71703592Y-61450272D01*
X71704623Y-61447784D01*
X71706064Y-61433152D01*
X71706064Y-61290295D01*
X71704623Y-61275663D01*
X71703592Y-61273174D01*
X71703401Y-61270485D01*
X71698146Y-61256754D01*
X71650527Y-61161516D01*
X71646562Y-61155216D01*
X71645805Y-61153389D01*
X71644116Y-61151332D01*
X71642695Y-61149073D01*
X71641196Y-61147773D01*
X71636478Y-61142024D01*
X71588859Y-61094405D01*
X71583109Y-61089686D01*
X71581810Y-61088188D01*
X71579550Y-61086766D01*
X71577494Y-61085078D01*
X71575666Y-61084320D01*
X71569367Y-61080356D01*
X71474129Y-61032737D01*
X71460397Y-61027482D01*
X71457709Y-61027291D01*
X71455220Y-61026260D01*
X71440588Y-61024819D01*
X71059636Y-61024819D01*
X71045004Y-61026260D01*
X71017968Y-61037459D01*
X70997276Y-61058151D01*
X70986077Y-61085187D01*
X70984636Y-61099819D01*
X70753182Y-61099819D01*
X70748999Y-61073728D01*
X70733663Y-61048806D01*
X70709956Y-61031650D01*
X70681488Y-61024871D01*
X70652593Y-61029504D01*
X70627671Y-61044840D01*
X70610514Y-61068547D01*
X70605724Y-61082448D01*
X70436471Y-61793303D01*
X70322580Y-61366208D01*
X70321294Y-61362780D01*
X70321103Y-61361339D01*
X70320111Y-61359626D01*
X70317417Y-61352442D01*
X70311402Y-61344583D01*
X70306441Y-61336015D01*
X70302582Y-61333061D01*
X70299630Y-61329204D01*
X70291065Y-61324245D01*
X70283203Y-61318227D01*
X70278506Y-61316974D01*
X70274305Y-61314542D01*
X70264498Y-61313239D01*
X70254928Y-61310687D01*
X70250109Y-61311327D01*
X70245297Y-61310688D01*
X70235736Y-61313237D01*
X70225919Y-61314542D01*
X70221713Y-61316976D01*
X70217021Y-61318228D01*
X70209161Y-61324243D01*
X70200594Y-61329204D01*
X70197640Y-61333062D01*
X70193783Y-61336015D01*
X70188824Y-61344580D01*
X70182807Y-61352441D01*
X70180110Y-61359630D01*
X70179121Y-61361340D01*
X70178929Y-61362779D01*
X70177644Y-61366208D01*
X70063752Y-61793303D01*
X69894501Y-61082447D01*
X69889711Y-61068547D01*
X69872554Y-61044840D01*
X69847632Y-61029504D01*
X69818737Y-61024871D01*
X69790269Y-61031649D01*
X69766562Y-61048806D01*
X69751226Y-61073728D01*
X69746593Y-61102623D01*
X69454220Y-61102623D01*
X69446002Y-61094405D01*
X69440252Y-61089686D01*
X69438953Y-61088188D01*
X69436693Y-61086766D01*
X69434637Y-61085078D01*
X69432809Y-61084320D01*
X69426510Y-61080356D01*
X69331272Y-61032737D01*
X69317540Y-61027482D01*
X69314852Y-61027291D01*
X69312363Y-61026260D01*
X69297731Y-61024819D01*
X68916779Y-61024819D01*
X68902147Y-61026260D01*
X68875111Y-61037459D01*
X68854419Y-61058151D01*
X68843220Y-61085187D01*
X68841779Y-61099819D01*
X68730668Y-61099819D01*
X68730668Y-60913708D01*
X71817175Y-60913708D01*
X71817175Y-62285913D01*
G37*
X77134819Y-78231904D02*
X77944342Y-78231904D01*
X77944342Y-78231904D02*
X78039580Y-78184285D01*
X78039580Y-78184285D02*
X78087200Y-78136666D01*
X78087200Y-78136666D02*
X78134819Y-78041428D01*
X78134819Y-78041428D02*
X78134819Y-77850952D01*
X78134819Y-77850952D02*
X78087200Y-77755714D01*
X78087200Y-77755714D02*
X78039580Y-77708095D01*
X78039580Y-77708095D02*
X77944342Y-77660476D01*
X77944342Y-77660476D02*
X77134819Y-77660476D01*
X77230057Y-77231904D02*
X77182438Y-77184285D01*
X77182438Y-77184285D02*
X77134819Y-77089047D01*
X77134819Y-77089047D02*
X77134819Y-76850952D01*
X77134819Y-76850952D02*
X77182438Y-76755714D01*
X77182438Y-76755714D02*
X77230057Y-76708095D01*
X77230057Y-76708095D02*
X77325295Y-76660476D01*
X77325295Y-76660476D02*
X77420533Y-76660476D01*
X77420533Y-76660476D02*
X77563390Y-76708095D01*
X77563390Y-76708095D02*
X78134819Y-77279523D01*
X78134819Y-77279523D02*
X78134819Y-76660476D01*
X78404819Y-104901904D02*
X79214342Y-104901904D01*
X79214342Y-104901904D02*
X79309580Y-104854285D01*
X79309580Y-104854285D02*
X79357200Y-104806666D01*
X79357200Y-104806666D02*
X79404819Y-104711428D01*
X79404819Y-104711428D02*
X79404819Y-104520952D01*
X79404819Y-104520952D02*
X79357200Y-104425714D01*
X79357200Y-104425714D02*
X79309580Y-104378095D01*
X79309580Y-104378095D02*
X79214342Y-104330476D01*
X79214342Y-104330476D02*
X78404819Y-104330476D01*
X79404819Y-103330476D02*
X79404819Y-103901904D01*
X79404819Y-103616190D02*
X78404819Y-103616190D01*
X78404819Y-103616190D02*
X78547676Y-103711428D01*
X78547676Y-103711428D02*
X78642914Y-103806666D01*
X78642914Y-103806666D02*
X78690533Y-103901904D01*
X100274819Y-119713333D02*
X100989104Y-119713333D01*
X100989104Y-119713333D02*
X101131961Y-119760952D01*
X101131961Y-119760952D02*
X101227200Y-119856190D01*
X101227200Y-119856190D02*
X101274819Y-119999047D01*
X101274819Y-119999047D02*
X101274819Y-120094285D01*
X101274819Y-118713333D02*
X101274819Y-119284761D01*
X101274819Y-118999047D02*
X100274819Y-118999047D01*
X100274819Y-118999047D02*
X100417676Y-119094285D01*
X100417676Y-119094285D02*
X100512914Y-119189523D01*
X100512914Y-119189523D02*
X100560533Y-119284761D01*
X75289580Y-105576666D02*
X75337200Y-105624285D01*
X75337200Y-105624285D02*
X75384819Y-105767142D01*
X75384819Y-105767142D02*
X75384819Y-105862380D01*
X75384819Y-105862380D02*
X75337200Y-106005237D01*
X75337200Y-106005237D02*
X75241961Y-106100475D01*
X75241961Y-106100475D02*
X75146723Y-106148094D01*
X75146723Y-106148094D02*
X74956247Y-106195713D01*
X74956247Y-106195713D02*
X74813390Y-106195713D01*
X74813390Y-106195713D02*
X74622914Y-106148094D01*
X74622914Y-106148094D02*
X74527676Y-106100475D01*
X74527676Y-106100475D02*
X74432438Y-106005237D01*
X74432438Y-106005237D02*
X74384819Y-105862380D01*
X74384819Y-105862380D02*
X74384819Y-105767142D01*
X74384819Y-105767142D02*
X74432438Y-105624285D01*
X74432438Y-105624285D02*
X74480057Y-105576666D01*
X75384819Y-104624285D02*
X75384819Y-105195713D01*
X75384819Y-104909999D02*
X74384819Y-104909999D01*
X74384819Y-104909999D02*
X74527676Y-105005237D01*
X74527676Y-105005237D02*
X74622914Y-105100475D01*
X74622914Y-105100475D02*
X74670533Y-105195713D01*
X91106666Y-125184819D02*
X91106666Y-125899104D01*
X91106666Y-125899104D02*
X91059047Y-126041961D01*
X91059047Y-126041961D02*
X90963809Y-126137200D01*
X90963809Y-126137200D02*
X90820952Y-126184819D01*
X90820952Y-126184819D02*
X90725714Y-126184819D01*
X92011428Y-125184819D02*
X91820952Y-125184819D01*
X91820952Y-125184819D02*
X91725714Y-125232438D01*
X91725714Y-125232438D02*
X91678095Y-125280057D01*
X91678095Y-125280057D02*
X91582857Y-125422914D01*
X91582857Y-125422914D02*
X91535238Y-125613390D01*
X91535238Y-125613390D02*
X91535238Y-125994342D01*
X91535238Y-125994342D02*
X91582857Y-126089580D01*
X91582857Y-126089580D02*
X91630476Y-126137200D01*
X91630476Y-126137200D02*
X91725714Y-126184819D01*
X91725714Y-126184819D02*
X91916190Y-126184819D01*
X91916190Y-126184819D02*
X92011428Y-126137200D01*
X92011428Y-126137200D02*
X92059047Y-126089580D01*
X92059047Y-126089580D02*
X92106666Y-125994342D01*
X92106666Y-125994342D02*
X92106666Y-125756247D01*
X92106666Y-125756247D02*
X92059047Y-125661009D01*
X92059047Y-125661009D02*
X92011428Y-125613390D01*
X92011428Y-125613390D02*
X91916190Y-125565771D01*
X91916190Y-125565771D02*
X91725714Y-125565771D01*
X91725714Y-125565771D02*
X91630476Y-125613390D01*
X91630476Y-125613390D02*
X91582857Y-125661009D01*
X91582857Y-125661009D02*
X91535238Y-125756247D01*
X80464819Y-97956666D02*
X79988628Y-98289999D01*
X80464819Y-98528094D02*
X79464819Y-98528094D01*
X79464819Y-98528094D02*
X79464819Y-98147142D01*
X79464819Y-98147142D02*
X79512438Y-98051904D01*
X79512438Y-98051904D02*
X79560057Y-98004285D01*
X79560057Y-98004285D02*
X79655295Y-97956666D01*
X79655295Y-97956666D02*
X79798152Y-97956666D01*
X79798152Y-97956666D02*
X79893390Y-98004285D01*
X79893390Y-98004285D02*
X79941009Y-98051904D01*
X79941009Y-98051904D02*
X79988628Y-98147142D01*
X79988628Y-98147142D02*
X79988628Y-98528094D01*
X79464819Y-97623332D02*
X79464819Y-96956666D01*
X79464819Y-96956666D02*
X80464819Y-97385237D01*
X88161905Y-70304819D02*
X88161905Y-69304819D01*
X88161905Y-69304819D02*
X88400000Y-69304819D01*
X88400000Y-69304819D02*
X88542857Y-69352438D01*
X88542857Y-69352438D02*
X88638095Y-69447676D01*
X88638095Y-69447676D02*
X88685714Y-69542914D01*
X88685714Y-69542914D02*
X88733333Y-69733390D01*
X88733333Y-69733390D02*
X88733333Y-69876247D01*
X88733333Y-69876247D02*
X88685714Y-70066723D01*
X88685714Y-70066723D02*
X88638095Y-70161961D01*
X88638095Y-70161961D02*
X88542857Y-70257200D01*
X88542857Y-70257200D02*
X88400000Y-70304819D01*
X88400000Y-70304819D02*
X88161905Y-70304819D01*
X89114286Y-69400057D02*
X89161905Y-69352438D01*
X89161905Y-69352438D02*
X89257143Y-69304819D01*
X89257143Y-69304819D02*
X89495238Y-69304819D01*
X89495238Y-69304819D02*
X89590476Y-69352438D01*
X89590476Y-69352438D02*
X89638095Y-69400057D01*
X89638095Y-69400057D02*
X89685714Y-69495295D01*
X89685714Y-69495295D02*
X89685714Y-69590533D01*
X89685714Y-69590533D02*
X89638095Y-69733390D01*
X89638095Y-69733390D02*
X89066667Y-70304819D01*
X89066667Y-70304819D02*
X89685714Y-70304819D01*
X88003810Y-68749104D02*
X88480000Y-68749104D01*
X87908572Y-69034819D02*
X88241905Y-68034819D01*
X88241905Y-68034819D02*
X88575238Y-69034819D01*
X78573333Y-113484819D02*
X78240000Y-113008628D01*
X78001905Y-113484819D02*
X78001905Y-112484819D01*
X78001905Y-112484819D02*
X78382857Y-112484819D01*
X78382857Y-112484819D02*
X78478095Y-112532438D01*
X78478095Y-112532438D02*
X78525714Y-112580057D01*
X78525714Y-112580057D02*
X78573333Y-112675295D01*
X78573333Y-112675295D02*
X78573333Y-112818152D01*
X78573333Y-112818152D02*
X78525714Y-112913390D01*
X78525714Y-112913390D02*
X78478095Y-112961009D01*
X78478095Y-112961009D02*
X78382857Y-113008628D01*
X78382857Y-113008628D02*
X78001905Y-113008628D01*
X78906667Y-112484819D02*
X79525714Y-112484819D01*
X79525714Y-112484819D02*
X79192381Y-112865771D01*
X79192381Y-112865771D02*
X79335238Y-112865771D01*
X79335238Y-112865771D02*
X79430476Y-112913390D01*
X79430476Y-112913390D02*
X79478095Y-112961009D01*
X79478095Y-112961009D02*
X79525714Y-113056247D01*
X79525714Y-113056247D02*
X79525714Y-113294342D01*
X79525714Y-113294342D02*
X79478095Y-113389580D01*
X79478095Y-113389580D02*
X79430476Y-113437200D01*
X79430476Y-113437200D02*
X79335238Y-113484819D01*
X79335238Y-113484819D02*
X79049524Y-113484819D01*
X79049524Y-113484819D02*
X78954286Y-113437200D01*
X78954286Y-113437200D02*
X78906667Y-113389580D01*
X82343333Y-84179580D02*
X82295714Y-84227200D01*
X82295714Y-84227200D02*
X82152857Y-84274819D01*
X82152857Y-84274819D02*
X82057619Y-84274819D01*
X82057619Y-84274819D02*
X81914762Y-84227200D01*
X81914762Y-84227200D02*
X81819524Y-84131961D01*
X81819524Y-84131961D02*
X81771905Y-84036723D01*
X81771905Y-84036723D02*
X81724286Y-83846247D01*
X81724286Y-83846247D02*
X81724286Y-83703390D01*
X81724286Y-83703390D02*
X81771905Y-83512914D01*
X81771905Y-83512914D02*
X81819524Y-83417676D01*
X81819524Y-83417676D02*
X81914762Y-83322438D01*
X81914762Y-83322438D02*
X82057619Y-83274819D01*
X82057619Y-83274819D02*
X82152857Y-83274819D01*
X82152857Y-83274819D02*
X82295714Y-83322438D01*
X82295714Y-83322438D02*
X82343333Y-83370057D01*
X83248095Y-83274819D02*
X82771905Y-83274819D01*
X82771905Y-83274819D02*
X82724286Y-83751009D01*
X82724286Y-83751009D02*
X82771905Y-83703390D01*
X82771905Y-83703390D02*
X82867143Y-83655771D01*
X82867143Y-83655771D02*
X83105238Y-83655771D01*
X83105238Y-83655771D02*
X83200476Y-83703390D01*
X83200476Y-83703390D02*
X83248095Y-83751009D01*
X83248095Y-83751009D02*
X83295714Y-83846247D01*
X83295714Y-83846247D02*
X83295714Y-84084342D01*
X83295714Y-84084342D02*
X83248095Y-84179580D01*
X83248095Y-84179580D02*
X83200476Y-84227200D01*
X83200476Y-84227200D02*
X83105238Y-84274819D01*
X83105238Y-84274819D02*
X82867143Y-84274819D01*
X82867143Y-84274819D02*
X82771905Y-84227200D01*
X82771905Y-84227200D02*
X82724286Y-84179580D01*
X94434819Y-97956666D02*
X93958628Y-98289999D01*
X94434819Y-98528094D02*
X93434819Y-98528094D01*
X93434819Y-98528094D02*
X93434819Y-98147142D01*
X93434819Y-98147142D02*
X93482438Y-98051904D01*
X93482438Y-98051904D02*
X93530057Y-98004285D01*
X93530057Y-98004285D02*
X93625295Y-97956666D01*
X93625295Y-97956666D02*
X93768152Y-97956666D01*
X93768152Y-97956666D02*
X93863390Y-98004285D01*
X93863390Y-98004285D02*
X93911009Y-98051904D01*
X93911009Y-98051904D02*
X93958628Y-98147142D01*
X93958628Y-98147142D02*
X93958628Y-98528094D01*
X93863390Y-97385237D02*
X93815771Y-97480475D01*
X93815771Y-97480475D02*
X93768152Y-97528094D01*
X93768152Y-97528094D02*
X93672914Y-97575713D01*
X93672914Y-97575713D02*
X93625295Y-97575713D01*
X93625295Y-97575713D02*
X93530057Y-97528094D01*
X93530057Y-97528094D02*
X93482438Y-97480475D01*
X93482438Y-97480475D02*
X93434819Y-97385237D01*
X93434819Y-97385237D02*
X93434819Y-97194761D01*
X93434819Y-97194761D02*
X93482438Y-97099523D01*
X93482438Y-97099523D02*
X93530057Y-97051904D01*
X93530057Y-97051904D02*
X93625295Y-97004285D01*
X93625295Y-97004285D02*
X93672914Y-97004285D01*
X93672914Y-97004285D02*
X93768152Y-97051904D01*
X93768152Y-97051904D02*
X93815771Y-97099523D01*
X93815771Y-97099523D02*
X93863390Y-97194761D01*
X93863390Y-97194761D02*
X93863390Y-97385237D01*
X93863390Y-97385237D02*
X93911009Y-97480475D01*
X93911009Y-97480475D02*
X93958628Y-97528094D01*
X93958628Y-97528094D02*
X94053866Y-97575713D01*
X94053866Y-97575713D02*
X94244342Y-97575713D01*
X94244342Y-97575713D02*
X94339580Y-97528094D01*
X94339580Y-97528094D02*
X94387200Y-97480475D01*
X94387200Y-97480475D02*
X94434819Y-97385237D01*
X94434819Y-97385237D02*
X94434819Y-97194761D01*
X94434819Y-97194761D02*
X94387200Y-97099523D01*
X94387200Y-97099523D02*
X94339580Y-97051904D01*
X94339580Y-97051904D02*
X94244342Y-97004285D01*
X94244342Y-97004285D02*
X94053866Y-97004285D01*
X94053866Y-97004285D02*
X93958628Y-97051904D01*
X93958628Y-97051904D02*
X93911009Y-97099523D01*
X93911009Y-97099523D02*
X93863390Y-97194761D01*
X76033333Y-74019580D02*
X75985714Y-74067200D01*
X75985714Y-74067200D02*
X75842857Y-74114819D01*
X75842857Y-74114819D02*
X75747619Y-74114819D01*
X75747619Y-74114819D02*
X75604762Y-74067200D01*
X75604762Y-74067200D02*
X75509524Y-73971961D01*
X75509524Y-73971961D02*
X75461905Y-73876723D01*
X75461905Y-73876723D02*
X75414286Y-73686247D01*
X75414286Y-73686247D02*
X75414286Y-73543390D01*
X75414286Y-73543390D02*
X75461905Y-73352914D01*
X75461905Y-73352914D02*
X75509524Y-73257676D01*
X75509524Y-73257676D02*
X75604762Y-73162438D01*
X75604762Y-73162438D02*
X75747619Y-73114819D01*
X75747619Y-73114819D02*
X75842857Y-73114819D01*
X75842857Y-73114819D02*
X75985714Y-73162438D01*
X75985714Y-73162438D02*
X76033333Y-73210057D01*
X76366667Y-73114819D02*
X76985714Y-73114819D01*
X76985714Y-73114819D02*
X76652381Y-73495771D01*
X76652381Y-73495771D02*
X76795238Y-73495771D01*
X76795238Y-73495771D02*
X76890476Y-73543390D01*
X76890476Y-73543390D02*
X76938095Y-73591009D01*
X76938095Y-73591009D02*
X76985714Y-73686247D01*
X76985714Y-73686247D02*
X76985714Y-73924342D01*
X76985714Y-73924342D02*
X76938095Y-74019580D01*
X76938095Y-74019580D02*
X76890476Y-74067200D01*
X76890476Y-74067200D02*
X76795238Y-74114819D01*
X76795238Y-74114819D02*
X76509524Y-74114819D01*
X76509524Y-74114819D02*
X76414286Y-74067200D01*
X76414286Y-74067200D02*
X76366667Y-74019580D01*
X84274819Y-97956666D02*
X83798628Y-98289999D01*
X84274819Y-98528094D02*
X83274819Y-98528094D01*
X83274819Y-98528094D02*
X83274819Y-98147142D01*
X83274819Y-98147142D02*
X83322438Y-98051904D01*
X83322438Y-98051904D02*
X83370057Y-98004285D01*
X83370057Y-98004285D02*
X83465295Y-97956666D01*
X83465295Y-97956666D02*
X83608152Y-97956666D01*
X83608152Y-97956666D02*
X83703390Y-98004285D01*
X83703390Y-98004285D02*
X83751009Y-98051904D01*
X83751009Y-98051904D02*
X83798628Y-98147142D01*
X83798628Y-98147142D02*
X83798628Y-98528094D01*
X83274819Y-97051904D02*
X83274819Y-97528094D01*
X83274819Y-97528094D02*
X83751009Y-97575713D01*
X83751009Y-97575713D02*
X83703390Y-97528094D01*
X83703390Y-97528094D02*
X83655771Y-97432856D01*
X83655771Y-97432856D02*
X83655771Y-97194761D01*
X83655771Y-97194761D02*
X83703390Y-97099523D01*
X83703390Y-97099523D02*
X83751009Y-97051904D01*
X83751009Y-97051904D02*
X83846247Y-97004285D01*
X83846247Y-97004285D02*
X84084342Y-97004285D01*
X84084342Y-97004285D02*
X84179580Y-97051904D01*
X84179580Y-97051904D02*
X84227200Y-97099523D01*
X84227200Y-97099523D02*
X84274819Y-97194761D01*
X84274819Y-97194761D02*
X84274819Y-97432856D01*
X84274819Y-97432856D02*
X84227200Y-97528094D01*
X84227200Y-97528094D02*
X84179580Y-97575713D01*
X70786666Y-59144819D02*
X70786666Y-59859104D01*
X70786666Y-59859104D02*
X70739047Y-60001961D01*
X70739047Y-60001961D02*
X70643809Y-60097200D01*
X70643809Y-60097200D02*
X70500952Y-60144819D01*
X70500952Y-60144819D02*
X70405714Y-60144819D01*
X71691428Y-59478152D02*
X71691428Y-60144819D01*
X71453333Y-59097200D02*
X71215238Y-59811485D01*
X71215238Y-59811485D02*
X71834285Y-59811485D01*
X91273333Y-110764819D02*
X90940000Y-110288628D01*
X90701905Y-110764819D02*
X90701905Y-109764819D01*
X90701905Y-109764819D02*
X91082857Y-109764819D01*
X91082857Y-109764819D02*
X91178095Y-109812438D01*
X91178095Y-109812438D02*
X91225714Y-109860057D01*
X91225714Y-109860057D02*
X91273333Y-109955295D01*
X91273333Y-109955295D02*
X91273333Y-110098152D01*
X91273333Y-110098152D02*
X91225714Y-110193390D01*
X91225714Y-110193390D02*
X91178095Y-110241009D01*
X91178095Y-110241009D02*
X91082857Y-110288628D01*
X91082857Y-110288628D02*
X90701905Y-110288628D01*
X91654286Y-109860057D02*
X91701905Y-109812438D01*
X91701905Y-109812438D02*
X91797143Y-109764819D01*
X91797143Y-109764819D02*
X92035238Y-109764819D01*
X92035238Y-109764819D02*
X92130476Y-109812438D01*
X92130476Y-109812438D02*
X92178095Y-109860057D01*
X92178095Y-109860057D02*
X92225714Y-109955295D01*
X92225714Y-109955295D02*
X92225714Y-110050533D01*
X92225714Y-110050533D02*
X92178095Y-110193390D01*
X92178095Y-110193390D02*
X91606667Y-110764819D01*
X91606667Y-110764819D02*
X92225714Y-110764819D01*
X90624819Y-97956666D02*
X90148628Y-98289999D01*
X90624819Y-98528094D02*
X89624819Y-98528094D01*
X89624819Y-98528094D02*
X89624819Y-98147142D01*
X89624819Y-98147142D02*
X89672438Y-98051904D01*
X89672438Y-98051904D02*
X89720057Y-98004285D01*
X89720057Y-98004285D02*
X89815295Y-97956666D01*
X89815295Y-97956666D02*
X89958152Y-97956666D01*
X89958152Y-97956666D02*
X90053390Y-98004285D01*
X90053390Y-98004285D02*
X90101009Y-98051904D01*
X90101009Y-98051904D02*
X90148628Y-98147142D01*
X90148628Y-98147142D02*
X90148628Y-98528094D01*
X89624819Y-97099523D02*
X89624819Y-97289999D01*
X89624819Y-97289999D02*
X89672438Y-97385237D01*
X89672438Y-97385237D02*
X89720057Y-97432856D01*
X89720057Y-97432856D02*
X89862914Y-97528094D01*
X89862914Y-97528094D02*
X90053390Y-97575713D01*
X90053390Y-97575713D02*
X90434342Y-97575713D01*
X90434342Y-97575713D02*
X90529580Y-97528094D01*
X90529580Y-97528094D02*
X90577200Y-97480475D01*
X90577200Y-97480475D02*
X90624819Y-97385237D01*
X90624819Y-97385237D02*
X90624819Y-97194761D01*
X90624819Y-97194761D02*
X90577200Y-97099523D01*
X90577200Y-97099523D02*
X90529580Y-97051904D01*
X90529580Y-97051904D02*
X90434342Y-97004285D01*
X90434342Y-97004285D02*
X90196247Y-97004285D01*
X90196247Y-97004285D02*
X90101009Y-97051904D01*
X90101009Y-97051904D02*
X90053390Y-97099523D01*
X90053390Y-97099523D02*
X90005771Y-97194761D01*
X90005771Y-97194761D02*
X90005771Y-97385237D01*
X90005771Y-97385237D02*
X90053390Y-97480475D01*
X90053390Y-97480475D02*
X90101009Y-97528094D01*
X90101009Y-97528094D02*
X90196247Y-97575713D01*
X86193333Y-112214819D02*
X85860000Y-111738628D01*
X85621905Y-112214819D02*
X85621905Y-111214819D01*
X85621905Y-111214819D02*
X86002857Y-111214819D01*
X86002857Y-111214819D02*
X86098095Y-111262438D01*
X86098095Y-111262438D02*
X86145714Y-111310057D01*
X86145714Y-111310057D02*
X86193333Y-111405295D01*
X86193333Y-111405295D02*
X86193333Y-111548152D01*
X86193333Y-111548152D02*
X86145714Y-111643390D01*
X86145714Y-111643390D02*
X86098095Y-111691009D01*
X86098095Y-111691009D02*
X86002857Y-111738628D01*
X86002857Y-111738628D02*
X85621905Y-111738628D01*
X86669524Y-112214819D02*
X86860000Y-112214819D01*
X86860000Y-112214819D02*
X86955238Y-112167200D01*
X86955238Y-112167200D02*
X87002857Y-112119580D01*
X87002857Y-112119580D02*
X87098095Y-111976723D01*
X87098095Y-111976723D02*
X87145714Y-111786247D01*
X87145714Y-111786247D02*
X87145714Y-111405295D01*
X87145714Y-111405295D02*
X87098095Y-111310057D01*
X87098095Y-111310057D02*
X87050476Y-111262438D01*
X87050476Y-111262438D02*
X86955238Y-111214819D01*
X86955238Y-111214819D02*
X86764762Y-111214819D01*
X86764762Y-111214819D02*
X86669524Y-111262438D01*
X86669524Y-111262438D02*
X86621905Y-111310057D01*
X86621905Y-111310057D02*
X86574286Y-111405295D01*
X86574286Y-111405295D02*
X86574286Y-111643390D01*
X86574286Y-111643390D02*
X86621905Y-111738628D01*
X86621905Y-111738628D02*
X86669524Y-111786247D01*
X86669524Y-111786247D02*
X86764762Y-111833866D01*
X86764762Y-111833866D02*
X86955238Y-111833866D01*
X86955238Y-111833866D02*
X87050476Y-111786247D01*
X87050476Y-111786247D02*
X87098095Y-111738628D01*
X87098095Y-111738628D02*
X87145714Y-111643390D01*
X82383333Y-112214819D02*
X82050000Y-111738628D01*
X81811905Y-112214819D02*
X81811905Y-111214819D01*
X81811905Y-111214819D02*
X82192857Y-111214819D01*
X82192857Y-111214819D02*
X82288095Y-111262438D01*
X82288095Y-111262438D02*
X82335714Y-111310057D01*
X82335714Y-111310057D02*
X82383333Y-111405295D01*
X82383333Y-111405295D02*
X82383333Y-111548152D01*
X82383333Y-111548152D02*
X82335714Y-111643390D01*
X82335714Y-111643390D02*
X82288095Y-111691009D01*
X82288095Y-111691009D02*
X82192857Y-111738628D01*
X82192857Y-111738628D02*
X81811905Y-111738628D01*
X83240476Y-111548152D02*
X83240476Y-112214819D01*
X83002381Y-111167200D02*
X82764286Y-111881485D01*
X82764286Y-111881485D02*
X83383333Y-111881485D01*
X92376666Y-59144819D02*
X92376666Y-59859104D01*
X92376666Y-59859104D02*
X92329047Y-60001961D01*
X92329047Y-60001961D02*
X92233809Y-60097200D01*
X92233809Y-60097200D02*
X92090952Y-60144819D01*
X92090952Y-60144819D02*
X91995714Y-60144819D01*
X92757619Y-59144819D02*
X93376666Y-59144819D01*
X93376666Y-59144819D02*
X93043333Y-59525771D01*
X93043333Y-59525771D02*
X93186190Y-59525771D01*
X93186190Y-59525771D02*
X93281428Y-59573390D01*
X93281428Y-59573390D02*
X93329047Y-59621009D01*
X93329047Y-59621009D02*
X93376666Y-59716247D01*
X93376666Y-59716247D02*
X93376666Y-59954342D01*
X93376666Y-59954342D02*
X93329047Y-60049580D01*
X93329047Y-60049580D02*
X93281428Y-60097200D01*
X93281428Y-60097200D02*
X93186190Y-60144819D01*
X93186190Y-60144819D02*
X92900476Y-60144819D01*
X92900476Y-60144819D02*
X92805238Y-60097200D01*
X92805238Y-60097200D02*
X92757619Y-60049580D01*
X97051905Y-70304819D02*
X97051905Y-69304819D01*
X97051905Y-69304819D02*
X97290000Y-69304819D01*
X97290000Y-69304819D02*
X97432857Y-69352438D01*
X97432857Y-69352438D02*
X97528095Y-69447676D01*
X97528095Y-69447676D02*
X97575714Y-69542914D01*
X97575714Y-69542914D02*
X97623333Y-69733390D01*
X97623333Y-69733390D02*
X97623333Y-69876247D01*
X97623333Y-69876247D02*
X97575714Y-70066723D01*
X97575714Y-70066723D02*
X97528095Y-70161961D01*
X97528095Y-70161961D02*
X97432857Y-70257200D01*
X97432857Y-70257200D02*
X97290000Y-70304819D01*
X97290000Y-70304819D02*
X97051905Y-70304819D01*
X98575714Y-70304819D02*
X98004286Y-70304819D01*
X98290000Y-70304819D02*
X98290000Y-69304819D01*
X98290000Y-69304819D02*
X98194762Y-69447676D01*
X98194762Y-69447676D02*
X98099524Y-69542914D01*
X98099524Y-69542914D02*
X98004286Y-69590533D01*
X96281905Y-71259104D02*
X96758095Y-71259104D01*
X96186667Y-71544819D02*
X96520000Y-70544819D01*
X96520000Y-70544819D02*
X96853333Y-71544819D01*
X91273333Y-119834819D02*
X90940000Y-119358628D01*
X90701905Y-119834819D02*
X90701905Y-118834819D01*
X90701905Y-118834819D02*
X91082857Y-118834819D01*
X91082857Y-118834819D02*
X91178095Y-118882438D01*
X91178095Y-118882438D02*
X91225714Y-118930057D01*
X91225714Y-118930057D02*
X91273333Y-119025295D01*
X91273333Y-119025295D02*
X91273333Y-119168152D01*
X91273333Y-119168152D02*
X91225714Y-119263390D01*
X91225714Y-119263390D02*
X91178095Y-119311009D01*
X91178095Y-119311009D02*
X91082857Y-119358628D01*
X91082857Y-119358628D02*
X90701905Y-119358628D01*
X92225714Y-119834819D02*
X91654286Y-119834819D01*
X91940000Y-119834819D02*
X91940000Y-118834819D01*
X91940000Y-118834819D02*
X91844762Y-118977676D01*
X91844762Y-118977676D02*
X91749524Y-119072914D01*
X91749524Y-119072914D02*
X91654286Y-119120533D01*
X72056666Y-125184819D02*
X72056666Y-125899104D01*
X72056666Y-125899104D02*
X72009047Y-126041961D01*
X72009047Y-126041961D02*
X71913809Y-126137200D01*
X71913809Y-126137200D02*
X71770952Y-126184819D01*
X71770952Y-126184819D02*
X71675714Y-126184819D01*
X73009047Y-125184819D02*
X72532857Y-125184819D01*
X72532857Y-125184819D02*
X72485238Y-125661009D01*
X72485238Y-125661009D02*
X72532857Y-125613390D01*
X72532857Y-125613390D02*
X72628095Y-125565771D01*
X72628095Y-125565771D02*
X72866190Y-125565771D01*
X72866190Y-125565771D02*
X72961428Y-125613390D01*
X72961428Y-125613390D02*
X73009047Y-125661009D01*
X73009047Y-125661009D02*
X73056666Y-125756247D01*
X73056666Y-125756247D02*
X73056666Y-125994342D01*
X73056666Y-125994342D02*
X73009047Y-126089580D01*
X73009047Y-126089580D02*
X72961428Y-126137200D01*
X72961428Y-126137200D02*
X72866190Y-126184819D01*
X72866190Y-126184819D02*
X72628095Y-126184819D01*
X72628095Y-126184819D02*
X72532857Y-126137200D01*
X72532857Y-126137200D02*
X72485238Y-126089580D01*
X92543333Y-84179580D02*
X92495714Y-84227200D01*
X92495714Y-84227200D02*
X92352857Y-84274819D01*
X92352857Y-84274819D02*
X92257619Y-84274819D01*
X92257619Y-84274819D02*
X92114762Y-84227200D01*
X92114762Y-84227200D02*
X92019524Y-84131961D01*
X92019524Y-84131961D02*
X91971905Y-84036723D01*
X91971905Y-84036723D02*
X91924286Y-83846247D01*
X91924286Y-83846247D02*
X91924286Y-83703390D01*
X91924286Y-83703390D02*
X91971905Y-83512914D01*
X91971905Y-83512914D02*
X92019524Y-83417676D01*
X92019524Y-83417676D02*
X92114762Y-83322438D01*
X92114762Y-83322438D02*
X92257619Y-83274819D01*
X92257619Y-83274819D02*
X92352857Y-83274819D01*
X92352857Y-83274819D02*
X92495714Y-83322438D01*
X92495714Y-83322438D02*
X92543333Y-83370057D01*
X93400476Y-83274819D02*
X93210000Y-83274819D01*
X93210000Y-83274819D02*
X93114762Y-83322438D01*
X93114762Y-83322438D02*
X93067143Y-83370057D01*
X93067143Y-83370057D02*
X92971905Y-83512914D01*
X92971905Y-83512914D02*
X92924286Y-83703390D01*
X92924286Y-83703390D02*
X92924286Y-84084342D01*
X92924286Y-84084342D02*
X92971905Y-84179580D01*
X92971905Y-84179580D02*
X93019524Y-84227200D01*
X93019524Y-84227200D02*
X93114762Y-84274819D01*
X93114762Y-84274819D02*
X93305238Y-84274819D01*
X93305238Y-84274819D02*
X93400476Y-84227200D01*
X93400476Y-84227200D02*
X93448095Y-84179580D01*
X93448095Y-84179580D02*
X93495714Y-84084342D01*
X93495714Y-84084342D02*
X93495714Y-83846247D01*
X93495714Y-83846247D02*
X93448095Y-83751009D01*
X93448095Y-83751009D02*
X93400476Y-83703390D01*
X93400476Y-83703390D02*
X93305238Y-83655771D01*
X93305238Y-83655771D02*
X93114762Y-83655771D01*
X93114762Y-83655771D02*
X93019524Y-83703390D01*
X93019524Y-83703390D02*
X92971905Y-83751009D01*
X92971905Y-83751009D02*
X92924286Y-83846247D01*
X87503333Y-84179580D02*
X87455714Y-84227200D01*
X87455714Y-84227200D02*
X87312857Y-84274819D01*
X87312857Y-84274819D02*
X87217619Y-84274819D01*
X87217619Y-84274819D02*
X87074762Y-84227200D01*
X87074762Y-84227200D02*
X86979524Y-84131961D01*
X86979524Y-84131961D02*
X86931905Y-84036723D01*
X86931905Y-84036723D02*
X86884286Y-83846247D01*
X86884286Y-83846247D02*
X86884286Y-83703390D01*
X86884286Y-83703390D02*
X86931905Y-83512914D01*
X86931905Y-83512914D02*
X86979524Y-83417676D01*
X86979524Y-83417676D02*
X87074762Y-83322438D01*
X87074762Y-83322438D02*
X87217619Y-83274819D01*
X87217619Y-83274819D02*
X87312857Y-83274819D01*
X87312857Y-83274819D02*
X87455714Y-83322438D01*
X87455714Y-83322438D02*
X87503333Y-83370057D01*
X88360476Y-83608152D02*
X88360476Y-84274819D01*
X88122381Y-83227200D02*
X87884286Y-83941485D01*
X87884286Y-83941485D02*
X88503333Y-83941485D01*
X60626666Y-65494819D02*
X60626666Y-66209104D01*
X60626666Y-66209104D02*
X60579047Y-66351961D01*
X60579047Y-66351961D02*
X60483809Y-66447200D01*
X60483809Y-66447200D02*
X60340952Y-66494819D01*
X60340952Y-66494819D02*
X60245714Y-66494819D01*
X61055238Y-65590057D02*
X61102857Y-65542438D01*
X61102857Y-65542438D02*
X61198095Y-65494819D01*
X61198095Y-65494819D02*
X61436190Y-65494819D01*
X61436190Y-65494819D02*
X61531428Y-65542438D01*
X61531428Y-65542438D02*
X61579047Y-65590057D01*
X61579047Y-65590057D02*
X61626666Y-65685295D01*
X61626666Y-65685295D02*
X61626666Y-65780533D01*
X61626666Y-65780533D02*
X61579047Y-65923390D01*
X61579047Y-65923390D02*
X61007619Y-66494819D01*
X61007619Y-66494819D02*
X61626666Y-66494819D01*
X77303333Y-84179580D02*
X77255714Y-84227200D01*
X77255714Y-84227200D02*
X77112857Y-84274819D01*
X77112857Y-84274819D02*
X77017619Y-84274819D01*
X77017619Y-84274819D02*
X76874762Y-84227200D01*
X76874762Y-84227200D02*
X76779524Y-84131961D01*
X76779524Y-84131961D02*
X76731905Y-84036723D01*
X76731905Y-84036723D02*
X76684286Y-83846247D01*
X76684286Y-83846247D02*
X76684286Y-83703390D01*
X76684286Y-83703390D02*
X76731905Y-83512914D01*
X76731905Y-83512914D02*
X76779524Y-83417676D01*
X76779524Y-83417676D02*
X76874762Y-83322438D01*
X76874762Y-83322438D02*
X77017619Y-83274819D01*
X77017619Y-83274819D02*
X77112857Y-83274819D01*
X77112857Y-83274819D02*
X77255714Y-83322438D01*
X77255714Y-83322438D02*
X77303333Y-83370057D01*
X77684286Y-83370057D02*
X77731905Y-83322438D01*
X77731905Y-83322438D02*
X77827143Y-83274819D01*
X77827143Y-83274819D02*
X78065238Y-83274819D01*
X78065238Y-83274819D02*
X78160476Y-83322438D01*
X78160476Y-83322438D02*
X78208095Y-83370057D01*
X78208095Y-83370057D02*
X78255714Y-83465295D01*
X78255714Y-83465295D02*
X78255714Y-83560533D01*
X78255714Y-83560533D02*
X78208095Y-83703390D01*
X78208095Y-83703390D02*
X77636667Y-84274819D01*
X77636667Y-84274819D02*
X78255714Y-84274819D01*
D12*
%TO.C,U2*%
X78680000Y-80120000D02*
X99120000Y-80120000D01*
X99120000Y-80120000D02*
X99120000Y-74820000D01*
X78680000Y-78470000D02*
X78680000Y-80120000D01*
X78680000Y-74820000D02*
X78680000Y-76470000D01*
X99120000Y-74820000D02*
X78680000Y-74820000D01*
X78680000Y-76470000D02*
G75*
G02*
X78680000Y-78470000I0J-1000000D01*
G01*
%TO.C,U1*%
X79950000Y-106790000D02*
X97850000Y-106790000D01*
X97850000Y-106790000D02*
X97850000Y-101490000D01*
X79950000Y-105140000D02*
X79950000Y-106790000D01*
X79950000Y-101490000D02*
X79950000Y-103140000D01*
X97850000Y-101490000D02*
X79950000Y-101490000D01*
X79950000Y-103140000D02*
G75*
G02*
X79950000Y-105140000I0J-1000000D01*
G01*
%TO.C,J1*%
X94800000Y-110380000D02*
X94800000Y-118220000D01*
X94800000Y-111760000D02*
X95800000Y-111760000D01*
X94800000Y-112010000D02*
X95800000Y-112010000D01*
X94800000Y-116590000D02*
X95800000Y-116590000D01*
X94800000Y-118220000D02*
X100820000Y-118220000D01*
X95800000Y-111760000D02*
X95800000Y-116840000D01*
X95800000Y-111760000D02*
X96330000Y-112010000D01*
X95800000Y-116840000D02*
X94800000Y-116840000D01*
X96330000Y-112010000D02*
X96330000Y-116590000D01*
X96330000Y-116590000D02*
X95800000Y-116840000D01*
X99790000Y-110090000D02*
X95790000Y-110090000D01*
X100220000Y-110960000D02*
X100220000Y-112560000D01*
X100220000Y-112560000D02*
X100820000Y-112560000D01*
X100220000Y-113500000D02*
X100220000Y-115100000D01*
X100220000Y-115100000D02*
X100820000Y-115100000D01*
X100220000Y-116040000D02*
X100220000Y-117640000D01*
X100220000Y-117640000D02*
X100820000Y-117640000D01*
X100820000Y-110380000D02*
X94800000Y-110380000D01*
X100820000Y-110960000D02*
X100220000Y-110960000D01*
X100820000Y-113500000D02*
X100220000Y-113500000D01*
X100820000Y-116040000D02*
X100220000Y-116040000D01*
X100820000Y-118220000D02*
X100820000Y-110380000D01*
%TO.C,C1*%
X77535000Y-99042712D02*
X77535000Y-99492712D01*
X77760000Y-99267712D02*
X77310000Y-99267712D01*
X77260000Y-99460259D02*
G75*
G02*
X75140000Y-99460259I-1060000J-2119741D01*
G01*
%TO.C,J6*%
X79900000Y-120200000D02*
X79900000Y-126220000D01*
X79900000Y-126220000D02*
X90280000Y-126220000D01*
X80480000Y-125620000D02*
X80480000Y-126220000D01*
X81280000Y-121200000D02*
X81280000Y-120200000D01*
X81530000Y-120200000D02*
X81530000Y-121200000D01*
X81530000Y-121730000D02*
X81280000Y-121200000D01*
X82080000Y-125620000D02*
X80480000Y-125620000D01*
X82080000Y-126220000D02*
X82080000Y-125620000D01*
X83020000Y-125620000D02*
X83020000Y-126220000D01*
X84620000Y-125620000D02*
X83020000Y-125620000D01*
X84620000Y-126220000D02*
X84620000Y-125620000D01*
X85560000Y-125620000D02*
X85560000Y-126220000D01*
X87160000Y-125620000D02*
X85560000Y-125620000D01*
X87160000Y-126220000D02*
X87160000Y-125620000D01*
X88100000Y-125620000D02*
X88100000Y-126220000D01*
X88650000Y-120200000D02*
X88650000Y-121200000D01*
X88650000Y-121730000D02*
X81530000Y-121730000D01*
X88900000Y-120200000D02*
X88900000Y-121200000D01*
X88900000Y-121200000D02*
X81280000Y-121200000D01*
X88900000Y-121200000D02*
X88650000Y-121730000D01*
X89700000Y-125620000D02*
X88100000Y-125620000D01*
X89700000Y-126220000D02*
X89700000Y-125620000D01*
X90280000Y-120200000D02*
X79900000Y-120200000D01*
X90280000Y-126220000D02*
X90280000Y-120200000D01*
X90570000Y-125190000D02*
X90570000Y-121190000D01*
%TO.C,R7*%
X80010000Y-94080000D02*
X80010000Y-94150000D01*
X81380000Y-92710000D02*
G75*
G02*
X78640000Y-92710000I-1370000J0D01*
G01*
X78640000Y-92710000D02*
G75*
G02*
X81380000Y-92710000I1370000J0D01*
G01*
%TO.C,D2*%
X85285879Y-71090000D02*
G75*
G02*
X85285879Y-68610000I-1465879J1240000D01*
G01*
%TO.C,R3*%
X77820000Y-117023272D02*
G75*
G02*
X79660000Y-117023272I920000J1453272D01*
G01*
%TO.C,C5*%
X82532712Y-85025000D02*
X82982712Y-85025000D01*
X82757712Y-84800000D02*
X82757712Y-85250000D01*
X82950259Y-85300000D02*
G75*
G02*
X82950259Y-87420000I2119741J-1060000D01*
G01*
%TO.C,R8*%
X90170000Y-94080000D02*
X90170000Y-94150000D01*
X91540000Y-92710000D02*
G75*
G02*
X88800000Y-92710000I-1370000J0D01*
G01*
X88800000Y-92710000D02*
G75*
G02*
X91540000Y-92710000I1370000J0D01*
G01*
%TO.C,C3*%
X73682712Y-68515000D02*
X74132712Y-68515000D01*
X73907712Y-68290000D02*
X73907712Y-68740000D01*
X74100259Y-68790000D02*
G75*
G02*
X74100259Y-70910000I2119741J-1060000D01*
G01*
%TO.C,R5*%
X83820000Y-93880000D02*
X83820000Y-93810000D01*
X85190000Y-95250000D02*
G75*
G02*
X82450000Y-95250000I-1370000J0D01*
G01*
X82450000Y-95250000D02*
G75*
G02*
X85190000Y-95250000I1370000J0D01*
G01*
%TO.C,J4*%
X71990000Y-60230000D02*
X71990000Y-64230000D01*
X72280000Y-59200000D02*
X72280000Y-65220000D01*
X72280000Y-65220000D02*
X80120000Y-65220000D01*
X72860000Y-59200000D02*
X72860000Y-59800000D01*
X72860000Y-59800000D02*
X74460000Y-59800000D01*
X73660000Y-64220000D02*
X73910000Y-63690000D01*
X73660000Y-64220000D02*
X78740000Y-64220000D01*
X73660000Y-65220000D02*
X73660000Y-64220000D01*
X73910000Y-63690000D02*
X78490000Y-63690000D01*
X73910000Y-65220000D02*
X73910000Y-64220000D01*
X74460000Y-59800000D02*
X74460000Y-59200000D01*
X75400000Y-59200000D02*
X75400000Y-59800000D01*
X75400000Y-59800000D02*
X77000000Y-59800000D01*
X77000000Y-59800000D02*
X77000000Y-59200000D01*
X77940000Y-59200000D02*
X77940000Y-59800000D01*
X77940000Y-59800000D02*
X79540000Y-59800000D01*
X78490000Y-63690000D02*
X78740000Y-64220000D01*
X78490000Y-65220000D02*
X78490000Y-64220000D01*
X78740000Y-64220000D02*
X78740000Y-65220000D01*
X79540000Y-59800000D02*
X79540000Y-59200000D01*
X80120000Y-59200000D02*
X72280000Y-59200000D01*
X80120000Y-65220000D02*
X80120000Y-59200000D01*
%TO.C,R2*%
X91623272Y-113950000D02*
G75*
G02*
X91623272Y-112110000I-1453272J920000D01*
G01*
%TO.C,R6*%
X93980000Y-93880000D02*
X93980000Y-93810000D01*
X95350000Y-95250000D02*
G75*
G02*
X92610000Y-95250000I-1370000J0D01*
G01*
X92610000Y-95250000D02*
G75*
G02*
X95350000Y-95250000I1370000J0D01*
G01*
%TO.C,R9*%
X85440000Y-115753272D02*
G75*
G02*
X87280000Y-115753272I920000J1453272D01*
G01*
%TO.C,R4*%
X81630000Y-115753272D02*
G75*
G02*
X83470000Y-115753272I920000J1453272D01*
G01*
%TO.C,J3*%
X80880000Y-60230000D02*
X80880000Y-64230000D01*
X81170000Y-59200000D02*
X81170000Y-65220000D01*
X81170000Y-65220000D02*
X91550000Y-65220000D01*
X81750000Y-59200000D02*
X81750000Y-59800000D01*
X81750000Y-59800000D02*
X83350000Y-59800000D01*
X82550000Y-64220000D02*
X82800000Y-63690000D01*
X82550000Y-64220000D02*
X90170000Y-64220000D01*
X82550000Y-65220000D02*
X82550000Y-64220000D01*
X82800000Y-63690000D02*
X89920000Y-63690000D01*
X82800000Y-65220000D02*
X82800000Y-64220000D01*
X83350000Y-59800000D02*
X83350000Y-59200000D01*
X84290000Y-59200000D02*
X84290000Y-59800000D01*
X84290000Y-59800000D02*
X85890000Y-59800000D01*
X85890000Y-59800000D02*
X85890000Y-59200000D01*
X86830000Y-59200000D02*
X86830000Y-59800000D01*
X86830000Y-59800000D02*
X88430000Y-59800000D01*
X88430000Y-59800000D02*
X88430000Y-59200000D01*
X89370000Y-59200000D02*
X89370000Y-59800000D01*
X89370000Y-59800000D02*
X90970000Y-59800000D01*
X89920000Y-63690000D02*
X90170000Y-64220000D01*
X89920000Y-65220000D02*
X89920000Y-64220000D01*
X90170000Y-64220000D02*
X90170000Y-65220000D01*
X90970000Y-59800000D02*
X90970000Y-59200000D01*
X91550000Y-59200000D02*
X81170000Y-59200000D01*
X91550000Y-65220000D02*
X91550000Y-59200000D01*
%TO.C,D1*%
X92514121Y-68610000D02*
G75*
G02*
X92514121Y-71090000I1465879J-1240000D01*
G01*
%TO.C,R1*%
X91623272Y-117760000D02*
G75*
G02*
X91623272Y-115920000I-1453272J920000D01*
G01*
%TO.C,J5*%
X73550000Y-120200000D02*
X73550000Y-126220000D01*
X73550000Y-126220000D02*
X78850000Y-126220000D01*
X74130000Y-125620000D02*
X74130000Y-126220000D01*
X74930000Y-121200000D02*
X74930000Y-120200000D01*
X75180000Y-120200000D02*
X75180000Y-121200000D01*
X75180000Y-121730000D02*
X74930000Y-121200000D01*
X75730000Y-125620000D02*
X74130000Y-125620000D01*
X75730000Y-126220000D02*
X75730000Y-125620000D01*
X76670000Y-125620000D02*
X76670000Y-126220000D01*
X77220000Y-120200000D02*
X77220000Y-121200000D01*
X77220000Y-121730000D02*
X75180000Y-121730000D01*
X77470000Y-120200000D02*
X77470000Y-121200000D01*
X77470000Y-121200000D02*
X74930000Y-121200000D01*
X77470000Y-121200000D02*
X77220000Y-121730000D01*
X78270000Y-125620000D02*
X76670000Y-125620000D01*
X78270000Y-126220000D02*
X78270000Y-125620000D01*
X78850000Y-120200000D02*
X73550000Y-120200000D01*
X78850000Y-126220000D02*
X78850000Y-120200000D01*
X79140000Y-125190000D02*
X79140000Y-121190000D01*
%TO.C,C6*%
X92732712Y-85025000D02*
X93182712Y-85025000D01*
X92957712Y-84800000D02*
X92957712Y-85250000D01*
X93150259Y-85300000D02*
G75*
G02*
X93150259Y-87420000I2119741J-1060000D01*
G01*
%TO.C,C4*%
X87652712Y-85025000D02*
X88102712Y-85025000D01*
X87877712Y-84800000D02*
X87877712Y-85250000D01*
X88070259Y-85300000D02*
G75*
G02*
X88070259Y-87420000I2119741J-1060000D01*
G01*
%TO.C,J2*%
X58490000Y-67250000D02*
X58490000Y-118170000D01*
X58490000Y-67250000D02*
X67120000Y-67250000D01*
X58490000Y-67370000D02*
X67120000Y-67370000D01*
X58490000Y-67488095D02*
X67120000Y-67488095D01*
X58490000Y-67606190D02*
X67120000Y-67606190D01*
X58490000Y-67724285D02*
X67120000Y-67724285D01*
X58490000Y-67842380D02*
X67120000Y-67842380D01*
X58490000Y-67960475D02*
X67120000Y-67960475D01*
X58490000Y-68078570D02*
X67120000Y-68078570D01*
X58490000Y-68196665D02*
X67120000Y-68196665D01*
X58490000Y-68314760D02*
X67120000Y-68314760D01*
X58490000Y-68432855D02*
X67120000Y-68432855D01*
X58490000Y-68550950D02*
X67120000Y-68550950D01*
X58490000Y-68669045D02*
X67120000Y-68669045D01*
X58490000Y-68787140D02*
X67120000Y-68787140D01*
X58490000Y-68905235D02*
X67120000Y-68905235D01*
X58490000Y-69023330D02*
X67120000Y-69023330D01*
X58490000Y-69141425D02*
X67120000Y-69141425D01*
X58490000Y-69259520D02*
X67120000Y-69259520D01*
X58490000Y-69377615D02*
X67120000Y-69377615D01*
X58490000Y-69495710D02*
X67120000Y-69495710D01*
X58490000Y-69613805D02*
X67120000Y-69613805D01*
X58490000Y-69731900D02*
X67120000Y-69731900D01*
X58490000Y-69850000D02*
X67120000Y-69850000D01*
X58490000Y-72390000D02*
X67120000Y-72390000D01*
X58490000Y-74930000D02*
X67120000Y-74930000D01*
X58490000Y-77470000D02*
X67120000Y-77470000D01*
X58490000Y-80010000D02*
X67120000Y-80010000D01*
X58490000Y-82550000D02*
X67120000Y-82550000D01*
X58490000Y-85090000D02*
X67120000Y-85090000D01*
X58490000Y-87630000D02*
X67120000Y-87630000D01*
X58490000Y-90170000D02*
X67120000Y-90170000D01*
X58490000Y-92710000D02*
X67120000Y-92710000D01*
X58490000Y-95250000D02*
X67120000Y-95250000D01*
X58490000Y-97790000D02*
X67120000Y-97790000D01*
X58490000Y-100330000D02*
X67120000Y-100330000D01*
X58490000Y-102870000D02*
X67120000Y-102870000D01*
X58490000Y-105410000D02*
X67120000Y-105410000D01*
X58490000Y-107950000D02*
X67120000Y-107950000D01*
X58490000Y-110490000D02*
X67120000Y-110490000D01*
X58490000Y-113030000D02*
X67120000Y-113030000D01*
X58490000Y-115570000D02*
X67120000Y-115570000D01*
X58490000Y-118170000D02*
X67120000Y-118170000D01*
X67120000Y-67250000D02*
X67120000Y-118170000D01*
X67120000Y-68220000D02*
X67530000Y-68220000D01*
X67120000Y-68940000D02*
X67530000Y-68940000D01*
X67120000Y-70760000D02*
X67530000Y-70760000D01*
X67120000Y-71480000D02*
X67530000Y-71480000D01*
X67120000Y-73300000D02*
X67530000Y-73300000D01*
X67120000Y-74020000D02*
X67530000Y-74020000D01*
X67120000Y-75840000D02*
X67530000Y-75840000D01*
X67120000Y-76560000D02*
X67530000Y-76560000D01*
X67120000Y-78380000D02*
X67530000Y-78380000D01*
X67120000Y-79100000D02*
X67530000Y-79100000D01*
X67120000Y-80920000D02*
X67530000Y-80920000D01*
X67120000Y-81640000D02*
X67530000Y-81640000D01*
X67120000Y-83460000D02*
X67530000Y-83460000D01*
X67120000Y-84180000D02*
X67530000Y-84180000D01*
X67120000Y-86000000D02*
X67530000Y-86000000D01*
X67120000Y-86720000D02*
X67530000Y-86720000D01*
X67120000Y-88540000D02*
X67530000Y-88540000D01*
X67120000Y-89260000D02*
X67530000Y-89260000D01*
X67120000Y-91080000D02*
X67530000Y-91080000D01*
X67120000Y-91800000D02*
X67530000Y-91800000D01*
X67120000Y-93620000D02*
X67530000Y-93620000D01*
X67120000Y-94340000D02*
X67530000Y-94340000D01*
X67120000Y-96160000D02*
X67530000Y-96160000D01*
X67120000Y-96880000D02*
X67530000Y-96880000D01*
X67120000Y-98700000D02*
X67530000Y-98700000D01*
X67120000Y-99420000D02*
X67530000Y-99420000D01*
X67120000Y-101240000D02*
X67530000Y-101240000D01*
X67120000Y-101960000D02*
X67530000Y-101960000D01*
X67120000Y-103780000D02*
X67530000Y-103780000D01*
X67120000Y-104500000D02*
X67530000Y-104500000D01*
X67120000Y-106320000D02*
X67530000Y-106320000D01*
X67120000Y-107040000D02*
X67530000Y-107040000D01*
X67120000Y-108860000D02*
X67530000Y-108860000D01*
X67120000Y-109580000D02*
X67530000Y-109580000D01*
X67120000Y-111400000D02*
X67530000Y-111400000D01*
X67120000Y-112120000D02*
X67530000Y-112120000D01*
X67120000Y-113940000D02*
X67530000Y-113940000D01*
X67120000Y-114660000D02*
X67530000Y-114660000D01*
X67120000Y-116480000D02*
X67530000Y-116480000D01*
X67120000Y-117200000D02*
X67530000Y-117200000D01*
X69630000Y-68220000D02*
X70010000Y-68220000D01*
X69630000Y-68940000D02*
X70010000Y-68940000D01*
X69630000Y-70760000D02*
X70070000Y-70760000D01*
X69630000Y-71480000D02*
X70070000Y-71480000D01*
X69630000Y-73300000D02*
X70070000Y-73300000D01*
X69630000Y-74020000D02*
X70070000Y-74020000D01*
X69630000Y-75840000D02*
X70070000Y-75840000D01*
X69630000Y-76560000D02*
X70070000Y-76560000D01*
X69630000Y-78380000D02*
X70070000Y-78380000D01*
X69630000Y-79100000D02*
X70070000Y-79100000D01*
X69630000Y-80920000D02*
X70070000Y-80920000D01*
X69630000Y-81640000D02*
X70070000Y-81640000D01*
X69630000Y-83460000D02*
X70070000Y-83460000D01*
X69630000Y-84180000D02*
X70070000Y-84180000D01*
X69630000Y-86000000D02*
X70070000Y-86000000D01*
X69630000Y-86720000D02*
X70070000Y-86720000D01*
X69630000Y-88540000D02*
X70070000Y-88540000D01*
X69630000Y-89260000D02*
X70070000Y-89260000D01*
X69630000Y-91080000D02*
X70070000Y-91080000D01*
X69630000Y-91800000D02*
X70070000Y-91800000D01*
X69630000Y-93620000D02*
X70070000Y-93620000D01*
X69630000Y-94340000D02*
X70070000Y-94340000D01*
X69630000Y-96160000D02*
X70070000Y-96160000D01*
X69630000Y-96880000D02*
X70070000Y-96880000D01*
X69630000Y-98700000D02*
X70070000Y-98700000D01*
X69630000Y-99420000D02*
X70070000Y-99420000D01*
X69630000Y-101240000D02*
X70070000Y-101240000D01*
X69630000Y-101960000D02*
X70070000Y-101960000D01*
X69630000Y-103780000D02*
X70070000Y-103780000D01*
X69630000Y-104500000D02*
X70070000Y-104500000D01*
X69630000Y-106320000D02*
X70070000Y-106320000D01*
X69630000Y-107040000D02*
X70070000Y-107040000D01*
X69630000Y-108860000D02*
X70070000Y-108860000D01*
X69630000Y-109580000D02*
X70070000Y-109580000D01*
X69630000Y-111400000D02*
X70070000Y-111400000D01*
X69630000Y-112120000D02*
X70070000Y-112120000D01*
X69630000Y-113940000D02*
X70070000Y-113940000D01*
X69630000Y-114660000D02*
X70070000Y-114660000D01*
X69630000Y-116480000D02*
X70070000Y-116480000D01*
X69630000Y-117200000D02*
X70070000Y-117200000D01*
X71120000Y-67250000D02*
X72230000Y-67250000D01*
X72230000Y-67250000D02*
X72230000Y-68580000D01*
%TO.C,C2*%
X77452712Y-85025000D02*
X77902712Y-85025000D01*
X77677712Y-84800000D02*
X77677712Y-85250000D01*
X77870259Y-85300000D02*
G75*
G02*
X77870259Y-87420000I2119741J-1060000D01*
G01*
%TD*%
M02*
