%TF.GenerationSoftware,KiCad,Pcbnew,9.0.4-9.0.4-0~ubuntu24.04.1*%
%TF.CreationDate,2025-08-22T14:39:44+02:00*%
%TF.ProjectId,v10-3,7631302d-332e-46b6-9963-61645f706362,rev?*%
%TF.SameCoordinates,Original*%
%TF.FileFunction,Soldermask,Bot*%
%TF.FilePolarity,Negative*%
%FSLAX46Y46*%
G04 Gerber Fmt 4.6, Leading zero omitted, Abs format (unit mm)*
G04 Created by KiCad (PCBNEW 9.0.4-9.0.4-0~ubuntu24.04.1) date 2025-08-22 14:39:44*
%MOMM*%
%LPD*%
G01*
G04 APERTURE LIST*
G04 Aperture macros list*
%AMRoundRect*
0 Rectangle with rounded corners*
0 $1 Rounding radius*
0 $2 $3 $4 $5 $6 $7 $8 $9 X,Y pos of 4 corners*
0 Add a 4 corners polygon primitive as box body*
4,1,4,$2,$3,$4,$5,$6,$7,$8,$9,$2,$3,0*
0 Add four circle primitives for the rounded corners*
1,1,$1+$1,$2,$3*
1,1,$1+$1,$4,$5*
1,1,$1+$1,$6,$7*
1,1,$1+$1,$8,$9*
0 Add four rect primitives between the rounded corners*
20,1,$1+$1,$2,$3,$4,$5,0*
20,1,$1+$1,$4,$5,$6,$7,0*
20,1,$1+$1,$6,$7,$8,$9,0*
20,1,$1+$1,$8,$9,$2,$3,0*%
G04 Aperture macros list end*
%ADD10RoundRect,0.250000X0.550000X-0.550000X0.550000X0.550000X-0.550000X0.550000X-0.550000X-0.550000X0*%
%ADD11C,1.600000*%
%ADD12RoundRect,0.250000X-0.845000X0.620000X-0.845000X-0.620000X0.845000X-0.620000X0.845000X0.620000X0*%
%ADD13O,2.190000X1.740000*%
%ADD14C,3.200000*%
%ADD15RoundRect,0.250000X-0.550000X0.550000X-0.550000X-0.550000X0.550000X-0.550000X0.550000X0.550000X0*%
%ADD16RoundRect,0.250000X0.620000X0.845000X-0.620000X0.845000X-0.620000X-0.845000X0.620000X-0.845000X0*%
%ADD17O,1.740000X2.190000*%
%ADD18RoundRect,0.250000X-0.870000X-0.870000X0.870000X-0.870000X0.870000X0.870000X-0.870000X0.870000X0*%
%ADD19C,2.240000*%
%ADD20RoundRect,0.250000X-0.550000X-0.550000X0.550000X-0.550000X0.550000X0.550000X-0.550000X0.550000X0*%
%ADD21RoundRect,0.250000X-0.620000X-0.845000X0.620000X-0.845000X0.620000X0.845000X-0.620000X0.845000X0*%
%ADD22RoundRect,0.250000X0.870000X0.870000X-0.870000X0.870000X-0.870000X-0.870000X0.870000X-0.870000X0*%
%ADD23R,1.700000X1.700000*%
%ADD24C,1.700000*%
G04 APERTURE END LIST*
D10*
%TO.C,U2*%
X80010000Y-81280000D03*
D11*
X82550000Y-81280000D03*
X85090000Y-81280000D03*
X87630000Y-81280000D03*
X90170000Y-81280000D03*
X92710000Y-81280000D03*
X95250000Y-81280000D03*
X97790000Y-81280000D03*
X97790000Y-73660000D03*
X95250000Y-73660000D03*
X92710000Y-73660000D03*
X90170000Y-73660000D03*
X87630000Y-73660000D03*
X85090000Y-73660000D03*
X82550000Y-73660000D03*
X80010000Y-73660000D03*
%TD*%
D10*
%TO.C,U1*%
X81280000Y-107950000D03*
D11*
X83820000Y-107950000D03*
X86360000Y-107950000D03*
X88900000Y-107950000D03*
X91440000Y-107950000D03*
X93980000Y-107950000D03*
X96520000Y-107950000D03*
X96520000Y-100330000D03*
X93980000Y-100330000D03*
X91440000Y-100330000D03*
X88900000Y-100330000D03*
X86360000Y-100330000D03*
X83820000Y-100330000D03*
X81280000Y-100330000D03*
%TD*%
D12*
%TO.C,J1*%
X97790000Y-111760000D03*
D13*
X97790000Y-114300000D03*
X97790000Y-116840000D03*
%TD*%
D14*
%TO.C,H2*%
X96520000Y-62230000D03*
%TD*%
D15*
%TO.C,C1*%
X76200000Y-100330000D03*
D11*
X76200000Y-102830000D03*
%TD*%
D16*
%TO.C,J6*%
X88900000Y-123190000D03*
D17*
X86360000Y-123190000D03*
X83820000Y-123190000D03*
X81280000Y-123190000D03*
%TD*%
D11*
%TO.C,R7*%
X80010000Y-92710000D03*
X80010000Y-95250000D03*
%TD*%
D18*
%TO.C,D2*%
X83820000Y-69850000D03*
D19*
X86360000Y-69850000D03*
%TD*%
D14*
%TO.C,H1*%
X63500000Y-62230000D03*
%TD*%
D11*
%TO.C,R3*%
X78740000Y-115570000D03*
X78740000Y-118110000D03*
%TD*%
D20*
%TO.C,C5*%
X83820000Y-86360000D03*
D11*
X86320000Y-86360000D03*
%TD*%
%TO.C,R8*%
X90170000Y-92710000D03*
X90170000Y-95250000D03*
%TD*%
D20*
%TO.C,C3*%
X74970000Y-69850000D03*
D11*
X77470000Y-69850000D03*
%TD*%
%TO.C,R5*%
X83820000Y-95250000D03*
X83820000Y-92710000D03*
%TD*%
D21*
%TO.C,J4*%
X73660000Y-62230000D03*
D17*
X76200000Y-62230000D03*
X78740000Y-62230000D03*
%TD*%
D11*
%TO.C,R2*%
X90170000Y-113030000D03*
X92710000Y-113030000D03*
%TD*%
%TO.C,R6*%
X93980000Y-95250000D03*
X93980000Y-92710000D03*
%TD*%
D14*
%TO.C,H3*%
X63500000Y-123190000D03*
%TD*%
D11*
%TO.C,R9*%
X86360000Y-114300000D03*
X86360000Y-116840000D03*
%TD*%
%TO.C,R4*%
X82550000Y-114300000D03*
X82550000Y-116840000D03*
%TD*%
D21*
%TO.C,J3*%
X82550000Y-62230000D03*
D17*
X85090000Y-62230000D03*
X87630000Y-62230000D03*
X90170000Y-62230000D03*
%TD*%
D22*
%TO.C,D1*%
X93980000Y-69850000D03*
D19*
X91440000Y-69850000D03*
%TD*%
D14*
%TO.C,H4*%
X96520000Y-123190000D03*
%TD*%
D11*
%TO.C,R1*%
X90170000Y-116840000D03*
X92710000Y-116840000D03*
%TD*%
D16*
%TO.C,J5*%
X77470000Y-123190000D03*
D17*
X74930000Y-123190000D03*
%TD*%
D20*
%TO.C,C6*%
X94020000Y-86360000D03*
D11*
X96520000Y-86360000D03*
%TD*%
D20*
%TO.C,C4*%
X88940000Y-86360000D03*
D11*
X91440000Y-86360000D03*
%TD*%
D23*
%TO.C,J2*%
X71120000Y-68580000D03*
D24*
X68580000Y-68580000D03*
X71120000Y-71120000D03*
X68580000Y-71120000D03*
X71120000Y-73660000D03*
X68580000Y-73660000D03*
X71120000Y-76200000D03*
X68580000Y-76200000D03*
X71120000Y-78740000D03*
X68580000Y-78740000D03*
X71120000Y-81280000D03*
X68580000Y-81280000D03*
X71120000Y-83820000D03*
X68580000Y-83820000D03*
X71120000Y-86360000D03*
X68580000Y-86360000D03*
X71120000Y-88900000D03*
X68580000Y-88900000D03*
X71120000Y-91440000D03*
X68580000Y-91440000D03*
X71120000Y-93980000D03*
X68580000Y-93980000D03*
X71120000Y-96520000D03*
X68580000Y-96520000D03*
X71120000Y-99060000D03*
X68580000Y-99060000D03*
X71120000Y-101600000D03*
X68580000Y-101600000D03*
X71120000Y-104140000D03*
X68580000Y-104140000D03*
X71120000Y-106680000D03*
X68580000Y-106680000D03*
X71120000Y-109220000D03*
X68580000Y-109220000D03*
X71120000Y-111760000D03*
X68580000Y-111760000D03*
X71120000Y-114300000D03*
X68580000Y-114300000D03*
X71120000Y-116840000D03*
X68580000Y-116840000D03*
%TD*%
D20*
%TO.C,C2*%
X78740000Y-86360000D03*
D11*
X81240000Y-86360000D03*
%TD*%
M02*
