%TF.GenerationSoftware,KiCad,Pcbnew,9.0.4-9.0.4-0~ubuntu24.04.1*%
%TF.CreationDate,2025-08-22T14:39:44+02:00*%
%TF.ProjectId,v10-3,7631302d-332e-46b6-9963-61645f706362,rev?*%
%TF.SameCoordinates,Original*%
%TF.FileFunction,Copper,L1,Top*%
%TF.FilePolarity,Positive*%
%FSLAX46Y46*%
G04 Gerber Fmt 4.6, Leading zero omitted, Abs format (unit mm)*
G04 Created by KiCad (PCBNEW 9.0.4-9.0.4-0~ubuntu24.04.1) date 2025-08-22 14:39:44*
%MOMM*%
%LPD*%
G01*
G04 APERTURE LIST*
G04 Aperture macros list*
%AMRoundRect*
0 Rectangle with rounded corners*
0 $1 Rounding radius*
0 $2 $3 $4 $5 $6 $7 $8 $9 X,Y pos of 4 corners*
0 Add a 4 corners polygon primitive as box body*
4,1,4,$2,$3,$4,$5,$6,$7,$8,$9,$2,$3,0*
0 Add four circle primitives for the rounded corners*
1,1,$1+$1,$2,$3*
1,1,$1+$1,$4,$5*
1,1,$1+$1,$6,$7*
1,1,$1+$1,$8,$9*
0 Add four rect primitives between the rounded corners*
20,1,$1+$1,$2,$3,$4,$5,0*
20,1,$1+$1,$4,$5,$6,$7,0*
20,1,$1+$1,$6,$7,$8,$9,0*
20,1,$1+$1,$8,$9,$2,$3,0*%
G04 Aperture macros list end*
%TA.AperFunction,ComponentPad*%
%ADD10RoundRect,0.250000X0.550000X-0.550000X0.550000X0.550000X-0.550000X0.550000X-0.550000X-0.550000X0*%
%TD*%
%TA.AperFunction,ComponentPad*%
%ADD11C,1.600000*%
%TD*%
%TA.AperFunction,ComponentPad*%
%ADD12RoundRect,0.250000X-0.845000X0.620000X-0.845000X-0.620000X0.845000X-0.620000X0.845000X0.620000X0*%
%TD*%
%TA.AperFunction,ComponentPad*%
%ADD13O,2.190000X1.740000*%
%TD*%
%TA.AperFunction,ComponentPad*%
%ADD14RoundRect,0.250000X-0.550000X0.550000X-0.550000X-0.550000X0.550000X-0.550000X0.550000X0.550000X0*%
%TD*%
%TA.AperFunction,ComponentPad*%
%ADD15RoundRect,0.250000X0.620000X0.845000X-0.620000X0.845000X-0.620000X-0.845000X0.620000X-0.845000X0*%
%TD*%
%TA.AperFunction,ComponentPad*%
%ADD16O,1.740000X2.190000*%
%TD*%
%TA.AperFunction,ComponentPad*%
%ADD17RoundRect,0.250000X-0.870000X-0.870000X0.870000X-0.870000X0.870000X0.870000X-0.870000X0.870000X0*%
%TD*%
%TA.AperFunction,ComponentPad*%
%ADD18C,2.240000*%
%TD*%
%TA.AperFunction,ComponentPad*%
%ADD19RoundRect,0.250000X-0.550000X-0.550000X0.550000X-0.550000X0.550000X0.550000X-0.550000X0.550000X0*%
%TD*%
%TA.AperFunction,ComponentPad*%
%ADD20RoundRect,0.250000X-0.620000X-0.845000X0.620000X-0.845000X0.620000X0.845000X-0.620000X0.845000X0*%
%TD*%
%TA.AperFunction,ComponentPad*%
%ADD21RoundRect,0.250000X0.870000X0.870000X-0.870000X0.870000X-0.870000X-0.870000X0.870000X-0.870000X0*%
%TD*%
%TA.AperFunction,ComponentPad*%
%ADD22R,1.700000X1.700000*%
%TD*%
%TA.AperFunction,ComponentPad*%
%ADD23C,1.700000*%
%TD*%
%TA.AperFunction,Conductor*%
%ADD24C,0.500000*%
%TD*%
%TA.AperFunction,Conductor*%
%ADD25C,0.250000*%
%TD*%
G04 APERTURE END LIST*
D10*
%TO.P,U2,1,C1+*%
%TO.N,Net-(U2-C1+)*%
X80010000Y-81280000D03*
D11*
%TO.P,U2,2,VS+*%
%TO.N,Net-(U2-VS+)*%
X82550000Y-81280000D03*
%TO.P,U2,3,C1-*%
%TO.N,Net-(U2-C1-)*%
X85090000Y-81280000D03*
%TO.P,U2,4,C2+*%
%TO.N,Net-(U2-C2+)*%
X87630000Y-81280000D03*
%TO.P,U2,5,C2-*%
%TO.N,Net-(U2-C2-)*%
X90170000Y-81280000D03*
%TO.P,U2,6,VS-*%
%TO.N,Net-(U2-VS-)*%
X92710000Y-81280000D03*
%TO.P,U2,7,T2OUT*%
%TO.N,unconnected-(U2-T2OUT-Pad7)*%
X95250000Y-81280000D03*
%TO.P,U2,8,R2IN*%
%TO.N,CTS_V10S2*%
X97790000Y-81280000D03*
%TO.P,U2,9,R2OUT*%
%TO.N,Net-(U2-R2OUT)*%
X97790000Y-73660000D03*
%TO.P,U2,10,T2IN*%
%TO.N,unconnected-(U2-T2IN-Pad10)*%
X95250000Y-73660000D03*
%TO.P,U2,11,T1IN*%
%TO.N,Net-(U2-T1IN)*%
X92710000Y-73660000D03*
%TO.P,U2,12,R1OUT*%
%TO.N,Net-(U2-R1OUT)*%
X90170000Y-73660000D03*
%TO.P,U2,13,R1IN*%
%TO.N,RXD_V10D1*%
X87630000Y-73660000D03*
%TO.P,U2,14,T1OUT*%
%TO.N,TXD_V10D2*%
X85090000Y-73660000D03*
%TO.P,U2,15,GND*%
%TO.N,GNDD*%
X82550000Y-73660000D03*
%TO.P,U2,16,VCC*%
%TO.N,+5V*%
X80010000Y-73660000D03*
%TD*%
D10*
%TO.P,U1,1*%
%TO.N,N/C*%
X81280000Y-107950000D03*
D11*
%TO.P,U1,2*%
X83820000Y-107950000D03*
%TO.P,U1,3*%
X86360000Y-107950000D03*
%TO.P,U1,4*%
X88900000Y-107950000D03*
%TO.P,U1,5*%
X91440000Y-107950000D03*
%TO.P,U1,6*%
X93980000Y-107950000D03*
%TO.P,U1,7,GND*%
%TO.N,GNDD*%
X96520000Y-107950000D03*
%TO.P,U1,8*%
%TO.N,Net-(U2-T1IN)*%
X96520000Y-100330000D03*
%TO.P,U1,9*%
%TO.N,Net-(U1-Pad10)*%
X93980000Y-100330000D03*
%TO.P,U1,10*%
X91440000Y-100330000D03*
%TO.P,U1,11*%
X88900000Y-100330000D03*
%TO.P,U1,12*%
%TO.N,RXD*%
X86360000Y-100330000D03*
%TO.P,U1,13*%
%TO.N,TXD*%
X83820000Y-100330000D03*
%TO.P,U1,14,VCC*%
%TO.N,+5V*%
X81280000Y-100330000D03*
%TD*%
D12*
%TO.P,J1,1,Pin_1*%
%TO.N,GNDD*%
X97790000Y-111760000D03*
D13*
%TO.P,J1,2,Pin_2*%
%TO.N,Net-(J1-Pin_2)*%
X97790000Y-114300000D03*
%TO.P,J1,3,Pin_3*%
%TO.N,Net-(J1-Pin_3)*%
X97790000Y-116840000D03*
%TD*%
D14*
%TO.P,C1,1*%
%TO.N,+5V*%
X76200000Y-100330000D03*
D11*
%TO.P,C1,2*%
%TO.N,GNDD*%
X76200000Y-102830000D03*
%TD*%
D15*
%TO.P,J6,1,Pin_1*%
%TO.N,GNDD*%
X88900000Y-123190000D03*
D16*
%TO.P,J6,2,Pin_2*%
%TO.N,LED_Z*%
X86360000Y-123190000D03*
%TO.P,J6,3,Pin_3*%
%TO.N,LED_WB*%
X83820000Y-123190000D03*
%TO.P,J6,4,Pin_4*%
%TO.N,LED_A*%
X81280000Y-123190000D03*
%TD*%
D11*
%TO.P,R7,1*%
%TO.N,Net-(U2-R1OUT)*%
X80010000Y-92710000D03*
%TO.P,R7,2*%
%TO.N,RXD*%
X80010000Y-95250000D03*
%TD*%
D17*
%TO.P,D2,1,K*%
%TO.N,Net-(D2-K)*%
X83820000Y-69850000D03*
D18*
%TO.P,D2,2,A*%
%TO.N,RXD_V10D1*%
X86360000Y-69850000D03*
%TD*%
D11*
%TO.P,R3,1*%
%TO.N,Net-(J2-GPIO19{slash}MISO1)*%
X78740000Y-115570000D03*
%TO.P,R3,2*%
%TO.N,LED_A*%
X78740000Y-118110000D03*
%TD*%
D19*
%TO.P,C5,1*%
%TO.N,Net-(U2-VS+)*%
X83820000Y-86360000D03*
D11*
%TO.P,C5,2*%
%TO.N,GNDD*%
X86320000Y-86360000D03*
%TD*%
%TO.P,R8,1*%
%TO.N,Net-(U2-R2OUT)*%
X90170000Y-92710000D03*
%TO.P,R8,2*%
%TO.N,CTS*%
X90170000Y-95250000D03*
%TD*%
D19*
%TO.P,C3,1*%
%TO.N,+5V*%
X74970000Y-69850000D03*
D11*
%TO.P,C3,2*%
%TO.N,GNDD*%
X77470000Y-69850000D03*
%TD*%
%TO.P,R5,1*%
%TO.N,RXD*%
X83820000Y-95250000D03*
%TO.P,R5,2*%
%TO.N,GNDD*%
X83820000Y-92710000D03*
%TD*%
D20*
%TO.P,J4,1,Pin_1*%
%TO.N,+5V*%
X73660000Y-62230000D03*
D16*
%TO.P,J4,2,Pin_2*%
%TO.N,GNDD*%
X76200000Y-62230000D03*
%TO.P,J4,3,Pin_3*%
%TO.N,RLY_PWR*%
X78740000Y-62230000D03*
%TD*%
D11*
%TO.P,R2,1*%
%TO.N,Net-(D1-K)*%
X90170000Y-113030000D03*
%TO.P,R2,2*%
%TO.N,Net-(J1-Pin_2)*%
X92710000Y-113030000D03*
%TD*%
%TO.P,R6,1*%
%TO.N,CTS*%
X93980000Y-95250000D03*
%TO.P,R6,2*%
%TO.N,GNDD*%
X93980000Y-92710000D03*
%TD*%
%TO.P,R9,1*%
%TO.N,Net-(J2-GCLK2{slash}GPIO6)*%
X86360000Y-114300000D03*
%TO.P,R9,2*%
%TO.N,LED_Z*%
X86360000Y-116840000D03*
%TD*%
%TO.P,R4,1*%
%TO.N,Net-(J2-PWM1{slash}GPIO13)*%
X82550000Y-114300000D03*
%TO.P,R4,2*%
%TO.N,LED_WB*%
X82550000Y-116840000D03*
%TD*%
D20*
%TO.P,J3,1,Pin_1*%
%TO.N,GNDD*%
X82550000Y-62230000D03*
D16*
%TO.P,J3,2,Pin_2*%
%TO.N,RXD_V10D1*%
X85090000Y-62230000D03*
%TO.P,J3,3,Pin_3*%
%TO.N,TXD_V10D2*%
X87630000Y-62230000D03*
%TO.P,J3,4,Pin_4*%
%TO.N,CTS_V10S2*%
X90170000Y-62230000D03*
%TD*%
D21*
%TO.P,D1,1,K*%
%TO.N,Net-(D1-K)*%
X93980000Y-69850000D03*
D18*
%TO.P,D1,2,A*%
%TO.N,TXD_V10D2*%
X91440000Y-69850000D03*
%TD*%
D11*
%TO.P,R1,1*%
%TO.N,Net-(D2-K)*%
X90170000Y-116840000D03*
%TO.P,R1,2*%
%TO.N,Net-(J1-Pin_3)*%
X92710000Y-116840000D03*
%TD*%
D15*
%TO.P,J5,1,Pin_1*%
%TO.N,BTN_PWR*%
X77470000Y-123190000D03*
D16*
%TO.P,J5,2,Pin_2*%
%TO.N,GNDD*%
X74930000Y-123190000D03*
%TD*%
D19*
%TO.P,C6,1*%
%TO.N,GNDD*%
X94020000Y-86360000D03*
D11*
%TO.P,C6,2*%
%TO.N,Net-(U2-VS-)*%
X96520000Y-86360000D03*
%TD*%
D19*
%TO.P,C4,1*%
%TO.N,Net-(U2-C2+)*%
X88940000Y-86360000D03*
D11*
%TO.P,C4,2*%
%TO.N,Net-(U2-C2-)*%
X91440000Y-86360000D03*
%TD*%
D22*
%TO.P,J2,1,3V3*%
%TO.N,N/C*%
X71120000Y-68580000D03*
D23*
%TO.P,J2,2,5V*%
%TO.N,+5V*%
X68580000Y-68580000D03*
%TO.P,J2,3,SDA/GPIO2*%
%TO.N,unconnected-(J2-SDA{slash}GPIO2-Pad3)*%
X71120000Y-71120000D03*
%TO.P,J2,4,5V*%
%TO.N,+5V*%
X68580000Y-71120000D03*
%TO.P,J2,5,SCL/GPIO3*%
%TO.N,unconnected-(J2-SCL{slash}GPIO3-Pad5)*%
X71120000Y-73660000D03*
%TO.P,J2,6,GND*%
%TO.N,GNDD*%
X68580000Y-73660000D03*
%TO.P,J2,7,GCLK0/GPIO4*%
%TO.N,RLY_PWR*%
X71120000Y-76200000D03*
%TO.P,J2,8,GPIO14/TXD*%
%TO.N,unconnected-(J2-GPIO14{slash}TXD-Pad8)*%
X68580000Y-76200000D03*
%TO.P,J2,9,GND*%
%TO.N,GNDD*%
X71120000Y-78740000D03*
%TO.P,J2,10,GPIO15/RXD*%
%TO.N,unconnected-(J2-GPIO15{slash}RXD-Pad10)*%
X68580000Y-78740000D03*
%TO.P,J2,11,GPIO17*%
%TO.N,unconnected-(J2-GPIO17-Pad11)*%
X71120000Y-81280000D03*
%TO.P,J2,12,GPIO18/PWM0*%
%TO.N,unconnected-(J2-GPIO18{slash}PWM0-Pad12)*%
X68580000Y-81280000D03*
%TO.P,J2,13,GPIO27*%
%TO.N,unconnected-(J2-GPIO27-Pad13)*%
X71120000Y-83820000D03*
%TO.P,J2,14,GND*%
%TO.N,GNDD*%
X68580000Y-83820000D03*
%TO.P,J2,15,GPIO22*%
%TO.N,unconnected-(J2-GPIO22-Pad15)*%
X71120000Y-86360000D03*
%TO.P,J2,16,GPIO23*%
%TO.N,unconnected-(J2-GPIO23-Pad16)*%
X68580000Y-86360000D03*
%TO.P,J2,17,3V3*%
%TO.N,+3V3*%
X71120000Y-88900000D03*
%TO.P,J2,18,GPIO24*%
%TO.N,unconnected-(J2-GPIO24-Pad18)*%
X68580000Y-88900000D03*
%TO.P,J2,19,MOSI0/GPIO10*%
%TO.N,CTS*%
X71120000Y-91440000D03*
%TO.P,J2,20,GND*%
%TO.N,GNDD*%
X68580000Y-91440000D03*
%TO.P,J2,21,MISO0/GPIO9*%
%TO.N,RXD*%
X71120000Y-93980000D03*
%TO.P,J2,22,GPIO25*%
%TO.N,unconnected-(J2-GPIO25-Pad22)*%
X68580000Y-93980000D03*
%TO.P,J2,23,SCLK0/GPIO11*%
%TO.N,TXD*%
X71120000Y-96520000D03*
%TO.P,J2,24,~{CE0}/GPIO8*%
%TO.N,unconnected-(J2-~{CE0}{slash}GPIO8-Pad24)*%
X68580000Y-96520000D03*
%TO.P,J2,25,GND*%
%TO.N,GNDD*%
X71120000Y-99060000D03*
%TO.P,J2,26,~{CE1}/GPIO7*%
%TO.N,unconnected-(J2-~{CE1}{slash}GPIO7-Pad26)*%
X68580000Y-99060000D03*
%TO.P,J2,27,ID_SD/GPIO0*%
%TO.N,unconnected-(J2-ID_SD{slash}GPIO0-Pad27)*%
X71120000Y-101600000D03*
%TO.P,J2,28,ID_SC/GPIO1*%
%TO.N,unconnected-(J2-ID_SC{slash}GPIO1-Pad28)*%
X68580000Y-101600000D03*
%TO.P,J2,29,GCLK1/GPIO5*%
%TO.N,unconnected-(J2-GCLK1{slash}GPIO5-Pad29)*%
X71120000Y-104140000D03*
%TO.P,J2,30,GND*%
%TO.N,GNDD*%
X68580000Y-104140000D03*
%TO.P,J2,31,GCLK2/GPIO6*%
%TO.N,Net-(J2-GCLK2{slash}GPIO6)*%
X71120000Y-106680000D03*
%TO.P,J2,32,PWM0/GPIO12*%
%TO.N,unconnected-(J2-PWM0{slash}GPIO12-Pad32)*%
X68580000Y-106680000D03*
%TO.P,J2,33,PWM1/GPIO13*%
%TO.N,Net-(J2-PWM1{slash}GPIO13)*%
X71120000Y-109220000D03*
%TO.P,J2,34,GND*%
%TO.N,GNDD*%
X68580000Y-109220000D03*
%TO.P,J2,35,GPIO19/MISO1*%
%TO.N,Net-(J2-GPIO19{slash}MISO1)*%
X71120000Y-111760000D03*
%TO.P,J2,36,GPIO16*%
%TO.N,unconnected-(J2-GPIO16-Pad36)*%
X68580000Y-111760000D03*
%TO.P,J2,37,GPIO26*%
%TO.N,BTN_PWR*%
X71120000Y-114300000D03*
%TO.P,J2,38,GPIO20/MOSI1*%
%TO.N,unconnected-(J2-GPIO20{slash}MOSI1-Pad38)*%
X68580000Y-114300000D03*
%TO.P,J2,39,GND*%
%TO.N,GNDD*%
X71120000Y-116840000D03*
%TO.P,J2,40,GPIO21/SCLK1*%
%TO.N,unconnected-(J2-GPIO21{slash}SCLK1-Pad40)*%
X68580000Y-116840000D03*
%TD*%
D19*
%TO.P,C2,1*%
%TO.N,Net-(U2-C1+)*%
X78740000Y-86360000D03*
D11*
%TO.P,C2,2*%
%TO.N,Net-(U2-C1-)*%
X81240000Y-86360000D03*
%TD*%
D24*
%TO.N,GNDD*%
X83820000Y-90170000D02*
X83820000Y-92710000D01*
D25*
X94020000Y-90130000D02*
X93980000Y-90170000D01*
D24*
X83820000Y-90170000D02*
X86360000Y-90170000D01*
X86360000Y-90170000D02*
X93980000Y-90170000D01*
X99060000Y-105410000D02*
X96520000Y-107950000D01*
X86360000Y-86360000D02*
X86360000Y-90170000D01*
X99060000Y-91440000D02*
X99060000Y-105410000D01*
X93980000Y-92710000D02*
X93980000Y-90170000D01*
X94020000Y-86360000D02*
X94020000Y-90130000D01*
X97790000Y-90170000D02*
X99060000Y-91440000D01*
X93980000Y-90170000D02*
X97790000Y-90170000D01*
%TO.N,+5V*%
X74930000Y-99060000D02*
X76200000Y-100330000D01*
X77470000Y-73660000D02*
X74930000Y-76200000D01*
X80010000Y-73660000D02*
X77470000Y-73660000D01*
X76200000Y-100330000D02*
X81280000Y-100330000D01*
X74930000Y-76200000D02*
X74930000Y-99060000D01*
D25*
%TO.N,RLY_PWR*%
X71120000Y-76200000D02*
X73660000Y-73660000D01*
X78740000Y-63500000D02*
X78740000Y-62230000D01*
X73660000Y-68580000D02*
X78740000Y-63500000D01*
X73660000Y-73660000D02*
X73660000Y-68580000D01*
%TO.N,Net-(D1-K)*%
X93980000Y-69850000D02*
X93980000Y-83820000D01*
X85090000Y-83820000D02*
X83820000Y-83820000D01*
X90170000Y-106680000D02*
X90170000Y-113030000D01*
X85090000Y-99060000D02*
X85090000Y-101600000D01*
X85090000Y-101600000D02*
X90170000Y-106680000D01*
X82550000Y-85090000D02*
X82550000Y-96520000D01*
X93980000Y-83820000D02*
X85090000Y-83820000D01*
X83820000Y-83820000D02*
X82550000Y-85090000D01*
X82550000Y-96520000D02*
X85090000Y-99060000D01*
%TO.N,Net-(D2-K)*%
X82550000Y-97790000D02*
X82550000Y-105087595D01*
X84946000Y-110346000D02*
X88900000Y-114300000D01*
X81280000Y-74930000D02*
X77470000Y-74930000D01*
X82550000Y-105087595D02*
X84946000Y-107483595D01*
X81280000Y-72390000D02*
X83820000Y-69850000D01*
X76200000Y-76200000D02*
X76200000Y-97790000D01*
X88900000Y-115570000D02*
X90170000Y-116840000D01*
X77470000Y-74930000D02*
X76200000Y-76200000D01*
X76200000Y-97790000D02*
X82550000Y-97790000D01*
X84946000Y-107483595D02*
X84946000Y-110346000D01*
X81280000Y-72390000D02*
X81280000Y-74930000D01*
X88900000Y-114300000D02*
X88900000Y-115570000D01*
%TD*%
M02*
