M48
; DRILL file {KiCad 9.0.4-9.0.4-0~ubuntu24.04.1} date 2025-08-22T14:39:46+0200
; FORMAT={-:-/ absolute / metric / decimal}
; #@! TF.CreationDate,2025-08-22T14:39:46+02:00
; #@! TF.GenerationSoftware,Kicad,Pcbnew,9.0.4-9.0.4-0~ubuntu24.04.1
; #@! TF.FileFunction,Plated,1,2,PTH
FMAT,2
METRIC
; #@! TA.AperFunction,Plated,PTH,ComponentDrill
T1C0.800
; #@! TA.AperFunction,Plated,PTH,ComponentDrill
T2C1.000
; #@! TA.AperFunction,Plated,PTH,ComponentDrill
T3C1.190
; #@! TA.AperFunction,Plated,PTH,ComponentDrill
T4C1.200
%
G90
G05
T1
X74.97Y-69.85
X76.2Y-100.33
X76.2Y-102.83
X77.47Y-69.85
X78.74Y-86.36
X78.74Y-115.57
X78.74Y-118.11
X80.01Y-73.66
X80.01Y-81.28
X80.01Y-92.71
X80.01Y-95.25
X81.24Y-86.36
X81.28Y-100.33
X81.28Y-107.95
X82.55Y-73.66
X82.55Y-81.28
X82.55Y-114.3
X82.55Y-116.84
X83.82Y-86.36
X83.82Y-92.71
X83.82Y-95.25
X83.82Y-100.33
X83.82Y-107.95
X85.09Y-73.66
X85.09Y-81.28
X86.32Y-86.36
X86.36Y-100.33
X86.36Y-107.95
X86.36Y-114.3
X86.36Y-116.84
X87.63Y-73.66
X87.63Y-81.28
X88.9Y-100.33
X88.9Y-107.95
X88.94Y-86.36
X90.17Y-73.66
X90.17Y-81.28
X90.17Y-92.71
X90.17Y-95.25
X90.17Y-113.03
X90.17Y-116.84
X91.44Y-86.36
X91.44Y-100.33
X91.44Y-107.95
X92.71Y-73.66
X92.71Y-81.28
X92.71Y-113.03
X92.71Y-116.84
X93.98Y-92.71
X93.98Y-95.25
X93.98Y-100.33
X93.98Y-107.95
X94.02Y-86.36
X95.25Y-73.66
X95.25Y-81.28
X96.52Y-86.36
X96.52Y-100.33
X96.52Y-107.95
X97.79Y-73.66
X97.79Y-81.28
T2
X68.58Y-68.58
X68.58Y-71.12
X68.58Y-73.66
X68.58Y-76.2
X68.58Y-78.74
X68.58Y-81.28
X68.58Y-83.82
X68.58Y-86.36
X68.58Y-88.9
X68.58Y-91.44
X68.58Y-93.98
X68.58Y-96.52
X68.58Y-99.06
X68.58Y-101.6
X68.58Y-104.14
X68.58Y-106.68
X68.58Y-109.22
X68.58Y-111.76
X68.58Y-114.3
X68.58Y-116.84
X71.12Y-68.58
X71.12Y-71.12
X71.12Y-73.66
X71.12Y-76.2
X71.12Y-78.74
X71.12Y-81.28
X71.12Y-83.82
X71.12Y-86.36
X71.12Y-88.9
X71.12Y-91.44
X71.12Y-93.98
X71.12Y-96.52
X71.12Y-99.06
X71.12Y-101.6
X71.12Y-104.14
X71.12Y-106.68
X71.12Y-109.22
X71.12Y-111.76
X71.12Y-114.3
X71.12Y-116.84
T3
X73.66Y-62.23
X74.93Y-123.19
X76.2Y-62.23
X77.47Y-123.19
X78.74Y-62.23
X81.28Y-123.19
X82.55Y-62.23
X83.82Y-123.19
X85.09Y-62.23
X86.36Y-123.19
X87.63Y-62.23
X88.9Y-123.19
X90.17Y-62.23
X97.79Y-111.76
X97.79Y-114.3
X97.79Y-116.84
T4
X83.82Y-69.85
X86.36Y-69.85
X91.44Y-69.85
X93.98Y-69.85
M30
