M48
; DRILL file {KiCad 8.0.6} date 2025-01-17T11:29:33+0100
; FORMAT={-:-/ absolute / inch / decimal}
; #@! TF.CreationDate,2025-01-17T11:29:33+01:00
; #@! TF.GenerationSoftware,Kicad,Pcbnew,8.0.6
; #@! TF.FileFunction,Plated,1,2,PTH
FMAT,2
INCH
; #@! TA.AperFunction,Plated,PTH,ComponentDrill
T1C0.0118
; #@! TA.AperFunction,Plated,PTH,ViaDrill
T2C0.0157
; #@! TA.AperFunction,Plated,PTH,ComponentDrill
T3C0.0276
; #@! TA.AperFunction,Plated,PTH,ComponentDrill
T4C0.0315
; #@! TA.AperFunction,Plated,PTH,ComponentDrill
T5C0.0394
; #@! TA.AperFunction,Plated,PTH,ComponentDrill
T6C0.0433
; #@! TA.AperFunction,Plated,PTH,ComponentDrill
T7C0.0469
; #@! TA.AperFunction,Plated,PTH,ComponentDrill
T8C0.1260
%
G90
G05
T1
X5.4Y-3.6
X5.8Y-3.8
T2
X4.7Y-2.5
X4.7Y-4.2
X4.8Y-3.4
X4.8Y-4.1
X5.7Y-4.7
X6.0Y-4.3
T3
X5.2Y-4.3
X5.2Y-4.6
X5.5Y-4.3
X5.5Y-4.6
X5.7Y-4.3
X5.7Y-4.6
X5.9Y-4.3
X5.9Y-4.6
T4
X4.8Y-2.7
X4.8Y-2.8
X4.8Y-2.9
X4.8Y-4.4
X4.8Y-4.6
X4.9Y-2.7
X4.9Y-2.8
X4.9Y-2.9
X4.9Y-3.1
X4.9Y-3.2
X4.9Y-3.4
X4.9Y-3.7
X4.9Y-3.9
X4.9Y-4.0
X4.9Y-4.4
X4.9Y-4.6
X5.0Y-2.8
X5.0Y-2.9
X5.0Y-3.1
X5.0Y-3.2
X5.0Y-3.4
X5.0Y-3.7
X5.0Y-4.0
X5.0Y-4.1
X5.0Y-4.6
X5.1Y-2.8
X5.1Y-3.0
X5.1Y-3.1
X5.1Y-3.2
X5.1Y-3.4
X5.1Y-3.7
X5.3Y-4.0
X5.3Y-4.1
X5.4Y-4.0
X5.4Y-4.1
X5.5Y-4.0
X5.5Y-4.1
X5.7Y-2.9031
X5.7Y-3.2969
X5.9Y-2.9
X5.9Y-3.3
T5
X4.5Y-2.6
X4.5Y-2.7
X4.5Y-2.8
X4.5Y-2.9
X4.5Y-3.0
X4.5Y-3.1
X4.5Y-3.2
X4.5Y-3.3
X4.5Y-3.4
X4.5Y-3.5
X4.5Y-3.6
X4.5Y-3.7
X4.5Y-3.8
X4.5Y-3.9
X4.5Y-4.0
X4.5Y-4.1
X4.5Y-4.2
X4.5Y-4.3
X4.5Y-4.4
X4.5Y-4.5
X4.6Y-2.6
X4.6Y-2.7
X4.6Y-2.8
X4.6Y-2.9
X4.6Y-3.0
X4.6Y-3.1
X4.6Y-3.2
X4.6Y-3.3
X4.6Y-3.4
X4.6Y-3.5
X4.6Y-3.6
X4.6Y-3.7
X4.6Y-3.8
X4.6Y-3.9
X4.6Y-4.0
X4.6Y-4.1
X4.6Y-4.2
X4.6Y-4.3
X4.6Y-4.4
X4.6Y-4.5
X5.5Y-4.8
T6
X5.1Y-4.3
X5.1Y-4.6
T7
X4.2Y-4.8
X4.3Y-4.8
X4.4Y-4.8
X4.5Y-4.8
X4.6Y-4.8
X4.7Y-4.8
X5.3Y-2.6
X5.4Y-2.6
X5.4Y-3.4
X5.4Y-3.5
X5.4Y-3.7
X5.7Y-3.8
X5.9Y-3.8
T8
X4.3Y-2.4
X4.3Y-5.1
X5.9Y-2.4
X5.9Y-5.1
M30
