%TF.GenerationSoftware,KiCad,Pcbnew,8.0.6*%
%TF.CreationDate,2025-01-17T11:28:57+01:00*%
%TF.ProjectId,TW39-mit-Powersave,54573339-2d6d-4697-942d-506f77657273,rev?*%
%TF.SameCoordinates,Original*%
%TF.FileFunction,Soldermask,Bot*%
%TF.FilePolarity,Negative*%
%FSLAX46Y46*%
G04 Gerber Fmt 4.6, Leading zero omitted, Abs format (unit mm)*
G04 Created by KiCad (PCBNEW 8.0.6) date 2025-01-17 11:28:57*
%MOMM*%
%LPD*%
G01*
G04 APERTURE LIST*
G04 Aperture macros list*
%AMRoundRect*
0 Rectangle with rounded corners*
0 $1 Rounding radius*
0 $2 $3 $4 $5 $6 $7 $8 $9 X,Y pos of 4 corners*
0 Add a 4 corners polygon primitive as box body*
4,1,4,$2,$3,$4,$5,$6,$7,$8,$9,$2,$3,0*
0 Add four circle primitives for the rounded corners*
1,1,$1+$1,$2,$3*
1,1,$1+$1,$4,$5*
1,1,$1+$1,$6,$7*
1,1,$1+$1,$8,$9*
0 Add four rect primitives between the rounded corners*
20,1,$1+$1,$2,$3,$4,$5,0*
20,1,$1+$1,$4,$5,$6,$7,0*
20,1,$1+$1,$6,$7,$8,$9,0*
20,1,$1+$1,$8,$9,$2,$3,0*%
G04 Aperture macros list end*
%ADD10RoundRect,0.250000X0.620000X0.845000X-0.620000X0.845000X-0.620000X-0.845000X0.620000X-0.845000X0*%
%ADD11O,0.100000X0.100000*%
%ADD12O,1.740000X2.190000*%
%ADD13R,2.200000X2.200000*%
%ADD14O,2.200000X2.200000*%
%ADD15R,1.500000X1.500000*%
%ADD16C,1.500000*%
%ADD17R,1.400000X1.400000*%
%ADD18C,1.400000*%
%ADD19R,1.700000X1.700000*%
%ADD20C,1.600000*%
%ADD21O,1.600000X1.600000*%
%ADD22C,3.200000*%
%ADD23O,1.700000X1.700000*%
%ADD24RoundRect,0.250000X-0.845000X0.620000X-0.845000X-0.620000X0.845000X-0.620000X0.845000X0.620000X0*%
%ADD25O,2.190000X1.740000*%
%ADD26R,1.600000X1.600000*%
%ADD27C,1.440000*%
%ADD28RoundRect,0.250000X-0.620000X-0.845000X0.620000X-0.845000X0.620000X0.845000X-0.620000X0.845000X0*%
%ADD29C,0.800000*%
G04 APERTURE END LIST*
D10*
%TO.C,J5*%
X149860000Y-96520000D03*
D11*
X147320000Y-96520000D03*
D12*
X144780000Y-96520000D03*
%TD*%
D13*
%TO.C,D1*%
X129540000Y-109220000D03*
D14*
X129540000Y-116840000D03*
%TD*%
D15*
%TO.C,Q4*%
X129540000Y-86360000D03*
D16*
X127000000Y-86360000D03*
X124460000Y-86360000D03*
%TD*%
D17*
%TO.C,K1*%
X132080000Y-116840000D03*
D18*
X139700000Y-116840000D03*
X144780000Y-116840000D03*
X149860000Y-116840000D03*
X149860000Y-109220000D03*
X144780000Y-109220000D03*
X139700000Y-109220000D03*
X132080000Y-109220000D03*
%TD*%
D19*
%TO.C,J3*%
X139700000Y-121920000D03*
%TD*%
D20*
%TO.C,R11*%
X124460000Y-99060000D03*
D21*
X124460000Y-101600000D03*
%TD*%
D20*
%TO.C,R3*%
X124460000Y-111760000D03*
D21*
X121920000Y-111760000D03*
%TD*%
D10*
%TO.C,J2*%
X119380000Y-121920000D03*
D12*
X116840000Y-121920000D03*
X114300000Y-121920000D03*
X111760000Y-121920000D03*
X109220000Y-121920000D03*
X106680000Y-121920000D03*
%TD*%
D20*
%TO.C,R2*%
X124460000Y-71120000D03*
D21*
X121920000Y-71120000D03*
%TD*%
D22*
%TO.C,REF\u002A\u002A*%
X109220000Y-60960000D03*
%TD*%
D19*
%TO.C,J1*%
X116840000Y-66040000D03*
D23*
X114300000Y-66040000D03*
X116840000Y-68580000D03*
X114300000Y-68580000D03*
X116840000Y-71120000D03*
X114300000Y-71120000D03*
X116840000Y-73660000D03*
X114300000Y-73660000D03*
X116840000Y-76200000D03*
X114300000Y-76200000D03*
X116840000Y-78740000D03*
X114300000Y-78740000D03*
X116840000Y-81280000D03*
X114300000Y-81280000D03*
X116840000Y-83820000D03*
X114300000Y-83820000D03*
X116840000Y-86360000D03*
X114300000Y-86360000D03*
X116840000Y-88900000D03*
X114300000Y-88900000D03*
X116840000Y-91440000D03*
X114300000Y-91440000D03*
X116840000Y-93980000D03*
X114300000Y-93980000D03*
X116840000Y-96520000D03*
X114300000Y-96520000D03*
X116840000Y-99060000D03*
X114300000Y-99060000D03*
X116840000Y-101600000D03*
X114300000Y-101600000D03*
X116840000Y-104140000D03*
X114300000Y-104140000D03*
X116840000Y-106680000D03*
X114300000Y-106680000D03*
X116840000Y-109220000D03*
X114300000Y-109220000D03*
X116840000Y-111760000D03*
X114300000Y-111760000D03*
X116840000Y-114300000D03*
X114300000Y-114300000D03*
%TD*%
D20*
%TO.C,R9*%
X139700000Y-101600000D03*
D21*
X137160000Y-101600000D03*
%TD*%
D15*
%TO.C,Q3*%
X129540000Y-81280000D03*
D16*
X127000000Y-81280000D03*
X124460000Y-81280000D03*
%TD*%
D20*
%TO.C,C1*%
X144780000Y-73740000D03*
X144780000Y-83740000D03*
%TD*%
%TO.C,R6*%
X149860000Y-73660000D03*
D21*
X149860000Y-83820000D03*
%TD*%
D22*
%TO.C,REF\u002A\u002A*%
X149860000Y-129540000D03*
%TD*%
D15*
%TO.C,Q1*%
X127000000Y-73660000D03*
D16*
X124460000Y-73660000D03*
X121920000Y-73660000D03*
%TD*%
D20*
%TO.C,R5*%
X127000000Y-78740000D03*
D21*
X124460000Y-78740000D03*
%TD*%
D20*
%TO.C,R8*%
X139700000Y-104140000D03*
D21*
X137160000Y-104140000D03*
%TD*%
D22*
%TO.C,REF\u002A\u002A*%
X109220000Y-129540000D03*
%TD*%
D24*
%TO.C,Q5*%
X137160000Y-86360000D03*
D25*
X137160000Y-93980000D03*
X137160000Y-88900000D03*
D11*
X137160000Y-91440000D03*
%TD*%
D20*
%TO.C,R7*%
X129540000Y-76200000D03*
D21*
X129540000Y-78740000D03*
%TD*%
D26*
%TO.C,U1*%
X134620000Y-104140000D03*
D21*
X134620000Y-101600000D03*
X127000000Y-101600000D03*
X127000000Y-104140000D03*
%TD*%
D20*
%TO.C,R4*%
X129540000Y-71120000D03*
D21*
X127000000Y-71120000D03*
%TD*%
D27*
%TO.C,RV1*%
X129540000Y-93980000D03*
X127000000Y-93980000D03*
X124460000Y-93980000D03*
%TD*%
D15*
%TO.C,Q2*%
X127000000Y-116840000D03*
D16*
X124460000Y-116840000D03*
X121920000Y-116840000D03*
%TD*%
D20*
%TO.C,R1*%
X121920000Y-68580000D03*
D21*
X124460000Y-68580000D03*
%TD*%
D28*
%TO.C,J4*%
X134620000Y-66040000D03*
D12*
X137160000Y-66040000D03*
%TD*%
D22*
%TO.C,REF\u002A\u002A*%
X149860000Y-60960000D03*
%TD*%
D29*
X144780000Y-119380000D03*
X152400000Y-109220000D03*
X119380000Y-106680000D03*
X119380000Y-63500000D03*
X121920000Y-86360000D03*
X121920000Y-104140000D03*
M02*
